<?xml version="1.0" encoding="utf-8" ?>
<svg baseProfile="full" height="300mm" version="1.1" viewBox="0,0,200,300" width="200mm" xmlns="http://www.w3.org/2000/svg" xmlns:ev="http://www.w3.org/2001/xml-events" xmlns:xlink="http://www.w3.org/1999/xlink"><defs /><rect fill="#222222" height="300" width="200" x="0" y="0" /><text fill="#FFFFFF" style="font-size:12px; font-family:Arial; font-weight:bold;" x="10" y="20">Runs</text><text fill="#FFFFFF" style="font-size:4px; font-family:Arial" x="10" y="280">Runner</text><text fill="#FFFFFF" style="font-size:9px; font-family:Arial" x="10" y="290">Jay</text><text fill="#FFFFFF" style="font-size:4px; font-family:Arial" x="65" y="280">SPECIAL TRACKS</text><rect fill="yellow" height="2.6" width="2.6" x="65" y="283" /><text fill="#FFFFFF" style="font-size:3px; font-family:Arial" x="70" y="285.5">Over 5.0 km</text><rect fill="red" height="2.6" width="2.6" x="65" y="287" /><text fill="#FFFFFF" style="font-size:3px; font-family:Arial" x="70" y="289.5">Over 10.0 km</text><text fill="#FFFFFF" style="font-size:4px; font-family:Arial" x="120" y="280">STATISTICS</text><text fill="#FFFFFF" style="font-size:3px; font-family:Arial" x="120" y="285">Number: 15</text><text fill="#FFFFFF" style="font-size:3px; font-family:Arial" x="120" y="290">Weekly: 1.0</text><text fill="#FFFFFF" style="font-size:3px; font-family:Arial" x="141" y="285">Total: 59.6 km</text><text fill="#FFFFFF" style="font-size:3px; font-family:Arial" x="141" y="290">Avg: 4.0 km</text><text fill="#FFFFFF" style="font-size:3px; font-family:Arial" x="167" y="285">Min: 2.1 km</text><text fill="#FFFFFF" style="font-size:3px; font-family:Arial" x="167" y="290">Max: 5.2 km</text><polyline fill="none" points="24.777528089936823,72.07070126547478 19.00134831457399,72.35437597421696 17.25393258430995,65.14899194915779 12.399999999906868,54.709523948142305 12.739775280933827,53.6315238471725 40.698426966089755,43.36204598407494 55.60000000009313,36.439966699050274 54.72629213472828,35.64562402572483 37.54337078635581,43.36204598407494 36.91235955059528,45.51808524521766 39.630561797646806,57.830038360261824 36.426966291852295,59.64560203970177 17.545168539276347,65.20572763402015 13.079550561727956,55.787521885475144 17.545168539276347,65.26246331288712 19.19550561811775,72.07070126547478 24.92314606742002,72.24090610863641" stroke="#4DD2FF" stroke-linecap="round" stroke-linejoin="round" stroke-width="0.5"><title>2025-05-01 3.2km</title><desc>1746105997674</desc></polyline><polyline fill="none" points="88.61576506972779,70.56541232843301 87.4806800619699,69.19965377432527 85.34404945920687,69.82400116839563 83.67480680078734,69.9020445184724 83.04049459053203,69.43378417080385 81.90540958277415,65.10234781948384 78.46676970657427,57.688059629668714 78.53353941277601,56.75150737864897 90.18485316855367,52.81015730131185 103.70571870170534,47.19073397893226 121.59999999997672,38.13703881436959 121.13261205586605,37.43458767156699 117.09304482245352,39.03461333044106 116.25842349312734,39.932185665442375 101.96970633696765,47.073661750677275 87.3471406493336,52.88820424559526 86.97990726435091,53.82476629075245 78.76723338500597,56.517368944885675 78.40000000002328,57.18076078838203 81.80525502329692,64.47799244624912 90.68562596605625,62.17567288826103 81.838639876456,64.63408138841623 78.43338485329878,57.414898801682284 78.53353941277601,56.55639202744351 86.31221020093653,54.13695311153424 79.26800618239213,56.205184135760646 78.53353941277601,56.86857653982588 83.5412673879182,69.62889272111352" stroke="yellow" stroke-linecap="round" stroke-linejoin="round" stroke-width="0.5"><title>2025-04-20 5.2km</title><desc>1745154044961</desc></polyline><polyline fill="none" points="164.29365565208718,73.64798723370768 157.39566786261275,74.15720841247821 155.28996632713825,73.05389545066282 151.6594464383088,59.98376509692753 145.56017302442342,45.47057904454414 181.42970952857286,32.399999999965075 186.43982697557658,51.83604379731696 176.05654009245336,56.24940309015801 169.59421468991786,57.18299521890003 153.32948558731005,62.86939657886978 156.5969534870237,73.47824676922755 162.04273332096636,72.37493287510006 165.09237002767622,73.22363600495737 166.47196758538485,75.59999999997672 170.901201850269,73.7328574527055" stroke="#4DD2FF" stroke-linecap="round" stroke-linejoin="round" stroke-width="0.5"><title>2025-03-23 2.1km</title><desc>1742729899087</desc></polyline><polyline fill="none" points="28.208938801195472,122.91551316523692 29.380164661677554,123.59999999997672 32.24316120916046,122.15497147483984 32.69863793277182,120.4057225380675 31.332207762170583,119.41701473784633 23.78430777322501,119.2649057249655 22.092537085758522,111.12702669488499 14.80490950983949,94.39465001266217 53.2601585930679,80.39999999996508 14.7398414069321,94.54676427913364 22.157605189131573,109.91013968305197 23.84937587636523,118.960687603103 32.438365519279614,119.2649057249655 33.28425086289644,121.47048326634103 38.489699131343514,118.960687603103 38.749971544602886,120.02545046794694" stroke="#4DD2FF" stroke-linecap="round" stroke-linejoin="round" stroke-width="0.5"><title>2025-03-16 2.5km</title><desc>1742128080108</desc></polyline><polyline fill="none" points="84.39329608948901,110.52984079916496 81.3363128490746,108.97900243964978 79.76759776542895,106.67623249522876 78.39999999990687,97.08906238415511 79.16424581012689,94.73923431651201 81.8592178770341,92.90635982170352 89.3407821226865,92.57738155027619 98.99441340775229,89.94554663563031 87.651396648027,92.67137536691735 82.18100558640435,92.85936294068233 79.68715083808638,94.1282769892423 78.44022346357815,97.0420659443771 79.56648044707254,105.31336304551223 80.93407821236178,108.65003603327204 89.46145251393318,112.64461168335401 93.72513966471888,113.7724853848922 100.32178770937026,114.0544533643988 111.50391061441042,111.46974020884954 116.21005586581305,108.79102166570374 117.7787709494587,107.14618651155615 121.5999999998603,99.20389705101843 117.0547486031428,107.75712599180406 114.11843575397506,109.87191003301996 109.65363128483295,111.79870453389594 99.4770949720405,113.86647473118501 93.24245810043067,113.44352251678356 85.19776536314748,110.48284577665618 89.46145251393318,112.69160647780518 95.6558659216389,113.96046405771631 100.76424581022002,114.0544533643988 103.82122905016877,113.11455940583255 99.4770949720405,113.81948006059974 93.40335195534863,113.34953308140393 88.53631284902804,112.08067376213148 83.66927374317311,109.82491494115675 86.12290502805263,110.24787058978109" stroke="#4DD2FF" stroke-linecap="round" stroke-linejoin="round" stroke-width="0.5"><title>2025-03-08 4.9km</title><desc>1741407347536</desc></polyline><polyline fill="none" points="157.82372881355695,120.6577611482353 151.28271186444908,120.14426227880176 149.86711864406243,113.9822377722594 144.54644067771733,102.39972369727911 144.93694915249944,101.25857586605707 174.2250847457908,90.70284413476475 187.16067796596326,84.65460218052613 187.60000000009313,84.0840098207118 186.96542372880504,83.3422388517647 168.61152542359196,91.78695581771899 144.39999999990687,99.94625287945382 151.57559322030284,119.91604040237144 161.77762711863033,119.45959636033513 169.24610169488005,117.23442613205407" stroke="#4DD2FF" stroke-linecap="round" stroke-linejoin="round" stroke-width="0.5"><title>2025-03-02 3.1km</title><desc>1740908689410</desc></polyline><polyline fill="none" points="33.71840993221849,171.59999999997672 32.73284469591454,168.88464198395377 24.07395011698827,168.802358260029 22.1028196439147,159.25738730287412 13.795912649482489,142.71797970391344 14.147900233976543,141.7305412766873 49.76904378598556,129.38745532510802 54.20408735051751,147.49058112467173 44.34843498421833,152.01629684172804 21.750832059420645,158.10540014051367 14.077502716798335,141.7305412766873 50.89540405618027,128.39999999996508 49.90983881987631,129.79889467451721 53.922497282736,147.49058112467173 42.658894578926265,152.18086782720638" stroke="#4DD2FF" stroke-linecap="round" stroke-linejoin="round" stroke-width="0.5"><title>2024-12-01 3.0km</title><desc>1733059607886</desc></polyline><polyline fill="none" points="99.12380952341482,171.37369490141282 88.99047619057819,171.46274969173828 86.70476190466434,161.57761053345166 78.39999999990687,142.34133186750114 115.96190476184711,128.53725030826172 118.70476190466434,134.50420361902798 121.59999999962747,148.57535913342144 112.68571428535506,153.11726425937377 86.47619047621265,160.06366006837925 78.55238095205277,142.78662105783587 117.1047619045712,128.53725030826172 121.52380952332169,148.84253070055274 109.25714285718277,154.89839684555773 87.08571428572759,162.02288956491975 89.44761904748157,171.37369490141282 97.21904761856422,170.92842080810806" stroke="#4DD2FF" stroke-linecap="round" stroke-linejoin="round" stroke-width="0.5"><title>2024-11-03 3.4km</title><desc>1730641178795</desc></polyline><polyline fill="none" points="171.7349746702239,171.59999999997672 167.34524097200483,170.1931409695535 165.92919784318656,170.7724361702567 166.0,169.44833222497255 164.37155040213838,168.62076612276724 156.37090672692284,168.53800946450792 152.40598596725613,154.80028303375002 145.9629897326231,141.39335391845088 181.71807872550562,128.48276089818683 186.6034275186248,147.35201740358025 176.3371148374863,151.73822684580227 153.3264140007086,157.69681165722432 145.46737463818863,141.72439196752384 147.80384579952806,139.73816157446709 181.85968303820118,128.40000000002328 186.53262536227703,147.26925849873805 177.186740714591,151.24167606589617 153.89283125195652,158.02784281794447 152.05197518505156,156.12441173306433 145.3965724813752,141.39335391845088 181.50567225599661,128.5655217873864 186.6034275186248,147.51753518695477 176.5495213069953,151.73822684580227 154.53005066001788,158.02784281794447 153.96363340876997,161.91744848212693 155.37967653712258,168.45525279740104 165.22117627924308,168.04146933124866" stroke="yellow" stroke-linecap="round" stroke-linejoin="round" stroke-width="0.5"><title>2024-08-18 5.1km</title><desc>1723984957861</desc></polyline><polyline fill="none" points="31.68582528317347,219.59999999997672 34.2722558490932,218.08843962056562 32.910976604092866,214.7470848603407 27.397795661119744,215.94042754761176 24.19878943497315,215.22442216193303 22.088806605199352,206.71186154294992 14.805962643353269,189.2886571327108 50.26728697982617,176.39999999996508 49.72277528163977,179.02548508200562 53.19403735687956,194.4599699076498 43.32476282934658,199.55168933433015 22.36106245405972,205.20027530012885 18.48141660518013,198.83566836977843 14.6698347190395,189.2886571327108 48.701815847773105,176.95692184282234 51.22018245141953,183.63995183532825 53.26210131892003,194.5395282881218 44.822169999359176,199.07434210018255 22.15687056700699,205.04116078233346 14.53370679426007,189.68645168357762 47.000216791406274,177.35472290701 49.31439150776714,177.67296360689215 53.46629320573993,195.09643671812955 42.576059244573116,199.79036283760797 23.041702076792717,204.96160351095023 22.29299849201925,206.31407598394435 24.33491735975258,214.8266410981887 30.39261000044644,215.14486596605275" stroke="yellow" stroke-linecap="round" stroke-linejoin="round" stroke-width="0.5"><title>2024-08-11 5.0km</title><desc>1723380974002</desc></polyline><polyline fill="none" points="94.95898161246441,217.3911624813918 87.38217821763828,218.03394408739405 85.30466760951094,210.17768255522242 97.83083451190032,205.53530329128262 95.08118811878376,188.67962755309418 121.5999999998603,177.96605591254774 110.3570014142897,182.96574380423408 110.17369165457785,185.82269171456574 113.16775106079876,199.1787630627514 103.51343705761246,203.74976431863615 84.99915134371258,208.4635770000168 78.70551626570523,195.536224313837 79.43875530408695,193.46496803854825 95.87553041009232,188.25108794681728 119.03366336645558,178.82314789120574 110.72362093348056,182.25150494033005 109.6237623761408,183.60855813656235 113.10664780740626,199.03591877553845 104.4299858554732,203.24981256132014 85.1824611031916,208.32073467428563 78.39999999990687,194.96484390611295 81.76067892462015,192.82216307672206 109.01272984431125,183.10859148646705 115.30636492231861,207.89220751594985" stroke="yellow" stroke-linecap="round" stroke-linejoin="round" stroke-width="0.5"><title>2024-08-04 5.0km</title><desc>1722777733849</desc></polyline><polyline fill="none" points="150.91042253538035,219.5850144184078 154.92619718285277,217.66482483717846 154.19605633802712,216.1713402660098 146.22535211243667,215.95798505702987 144.39999999990687,208.6327485383954 156.7515492956154,203.72550668485928 157.17746478854679,201.37855228612898 154.25690140808,186.94104679278098 180.23774647852406,176.4149855815922 183.94929577433504,186.01646692771465 184.67943661962636,193.41307029762538 187.41746478853747,203.1565487938933 186.32225352083333,204.9345406066859 177.68225352093577,208.27715250459732 175.73521126736887,209.9840117545682 158.2726760560181,215.1756820450537 146.46873239404522,215.95798505702987 144.70422535180114,208.1349140383536 157.2991549295839,204.00998544989852 153.58760563354008,187.29665409523295 179.93352112662978,176.77059844357427 184.13183098565787,186.22983162477612 187.5999999998603,204.00998544989852 177.07380281668156,208.56162934674649 176.16112676030025,209.91289270541165 169.2856338028796,211.5486289326218 169.46816901420243,214.10890374606242 170.5025352111552,214.03778513282305 169.52901408425532,215.10456354432972 157.0557746477425,217.16699701489415 151.82309859152883,219.01606992812594 160.88901408435777,215.38903750217287 166.97352112666704,214.89120799710508 171.23267605621368,213.25547988992184 162.1059154928662,216.45581377320923" stroke="yellow" stroke-linecap="round" stroke-linejoin="round" stroke-width="0.5"><title>2024-07-28 5.0km</title><desc>1722171325984</desc></polyline><polyline fill="none" points="32.60773480636999,265.29602663300466 32.28950276225805,262.0413484335295 22.50386740313843,262.413312265242 20.117127071600407,251.90527353202924 36.42651933664456,246.69770343432901 36.58563535893336,242.60601960634813 32.050828728824854,225.21615117968759 31.016574585344642,224.65818179945927 12.399999999906868,230.79582553368527 31.812154695857316,225.4021408945555 40.48397789988667,257.5777701953775 39.05193370115012,260.3675092459889 33.164640883915126,261.76237545663025 33.56243093917146,264.4591105309082 49.55359115963802,260.08853573870147 51.94033149117604,261.20442923740484 55.59999999962747,259.34460595372366 31.812154695857316,265.76097967952956 39.767955800984055,262.5063031986938 46.132596684619784,262.13433940603863 54.8839779002592,258.6006755401031 52.338121546432376,260.83246489497833 38.176795579493046,263.436211992288 31.653038673568517,266.2259324803017 37.222099447622895,263.15723945741775 49.792265193071216,260.3675092459889 51.462983425240964,261.0184470858658 53.849723756313324,259.1586234092247 55.44088397733867,259.06563212239416 52.89502762444317,260.5534915351891 39.688397789839655,263.2502303121146 28.072928176727146,267.34181820054073 50.58784530358389,259.34460595372366 55.043093922082335,258.87964951904723 52.73591160168871,260.64648266491713 38.335911602247506,263.0642485925928 30.380110497120768,266.2259324803017 40.56353591149673,261.5763934228453 44.3823204417713,262.0413484335295 50.030939226038754,259.9955445501255 52.258563535287976,261.20442923740484 54.963535910937935,259.4375972112757 47.325966850388795,262.2273303690017 43.10939226485789,262.413312265242 45.57569060754031,261.20442923740484 51.383425414096564,261.0184470858658 54.963535910937935,258.78665820264723 52.73591160168871,260.9254559951369" stroke="#4DD2FF" stroke-linecap="round" stroke-linejoin="round" stroke-width="0.5"><title>2024-07-21 4.9km</title><desc>1721568919550</desc></polyline><polyline fill="none" points="102.94765100674704,259.10380397655535 95.02281879121438,261.3630423730938 92.41342281829566,257.97418298840057 82.4590604021214,258.20010728167836 78.97986577125266,246.90383416821714 79.1731543620117,245.09641939762514 101.11140939546749,238.43155103374738 98.21208053641021,229.50734021817334 98.88859060360119,238.0926583125256 103.04429530119523,252.890873778495 82.84563758363947,258.4260315268766 81.20268456311896,257.29640982323326 78.39999999990687,245.8871637354605 78.68993288557976,242.83714663947467 98.69530201284215,236.96301513223443 97.53557046921924,229.50734021817334 98.88859060360119,237.8667297718348 103.91409395914525,251.08346912567504 102.56107382522896,254.13346270518377 82.4590604021214,257.86122082406655 81.00939597282559,256.844560807338 78.39999999990687,246.22605398716405 79.65637583844364,243.0630741303321 97.53557046921924,237.52783687133342 97.82550335489213,231.08885136130266 103.14093959704041,251.4223577309167 102.46442952938378,254.47235034394544 82.55570469796658,257.97418298840057 78.68993288557976,247.69457716972101 78.68993288557976,243.8538199715549 98.1154362410307,237.41487254737876 100.14496644260362,239.56119266303722 103.14093959704041,253.45568710565567 94.34630872448906,257.52233425935265 95.21610738243908,261.3630423730938 109.7127516772598,256.16678692610003 121.59999999962747,254.3593878095271 96.18255033530295,259.66861402301583 92.8966442947276,262.49265978182666 104.39731543604285,258.7649178052088" stroke="#4DD2FF" stroke-linecap="round" stroke-linejoin="round" stroke-width="0.5"><title>2024-07-14 4.2km</title><desc>1720963947536</desc></polyline><polyline fill="none" points="144.39999999990687,251.36862359393854 171.71034482773393,242.08237179275602 187.1034482754767,240.1960942260921 184.9931034478359,239.1804052325897 180.39999999990687,242.95296056580264 156.81379310321063,246.87060321611352 146.01379310293123,251.0784291748423 145.7655172413215,252.8195947674103 159.17241379292682,246.4353101401357 187.60000000009313,240.05099584406707 180.6482758615166,243.5333527745679 158.42758620670065,246.58040784776676 149.86206896509975,250.7882346949773 147.62758620642126,250.49804015399422 158.17931034462526,245.8549191573402 186.23448275821283,239.1804052325897 180.02758620679379,243.2431567007443 172.95172413764521,243.38825474563055 147.62758620642126,250.64313743216917 169.9724137922749,242.08237179275602 175.80689655151218,242.51766624837182 186.23448275821283,239.61570060742088 182.8827586201951,242.3725681117503 157.31034482689574,246.29021241725422 146.51034482754767,251.0784291748423 155.3241379307583,247.88628652412444 162.89655172405764,240.77648759947624 167.489655171521,243.6784507886041 179.4068965516053,241.79217541299295 168.85517241293564,245.419625759474" stroke="#4DD2FF" stroke-linecap="round" stroke-linejoin="round" stroke-width="0.5"><title>2024-07-07 3.0km</title><desc>1720361789036</desc></polyline></svg>