<?xml version="1.0" encoding="utf-8" ?>
<svg baseProfile="full" height="300mm" version="1.1" viewBox="0,0,200,300" width="200mm" xmlns="http://www.w3.org/2000/svg" xmlns:ev="http://www.w3.org/2001/xml-events" xmlns:xlink="http://www.w3.org/1999/xlink"><defs /><rect fill="#222222" height="300" width="200" x="0" y="0" /><text fill="#FFFFFF" style="font-size:12px; font-family:Arial; font-weight:bold;" x="10" y="20">Runs</text><text fill="#FFFFFF" style="font-size:4px; font-family:Arial" x="10" y="280">ATHLETE</text><text fill="#FFFFFF" style="font-size:9px; font-family:Arial" x="10" y="290">Jay</text><text fill="#FFFFFF" style="font-size:4px; font-family:Arial" x="120" y="280">STATISTICS</text><text fill="#FFFFFF" style="font-size:3px; font-family:Arial" x="120" y="285">Number: 14</text><text fill="#FFFFFF" style="font-size:3px; font-family:Arial" x="120" y="290">Weekly: 1.0</text><text fill="#FFFFFF" style="font-size:3px; font-family:Arial" x="141" y="285">Total: 56.4 km</text><text fill="#FFFFFF" style="font-size:3px; font-family:Arial" x="141" y="290">Avg: 4.0 km</text><text fill="#FFFFFF" style="font-size:3px; font-family:Arial" x="167" y="285">Min: 2.1 km</text><text fill="#FFFFFF" style="font-size:3px; font-family:Arial" x="167" y="290">Max: 5.2 km</text><polyline fill="none" points="22.615765069727786,70.56541232843301 21.480680061969906,69.19965377432527 19.34404945920687,69.82400116839563 17.674806800787337,69.9020445184724 17.040494590532035,69.43378417080385 15.905409582774155,65.10234781948384 12.466769706574269,57.688059629668714 12.533539412776008,56.75150737864897 24.184853168553673,52.81015730131185 37.70571870170534,47.19073397893226 55.59999999997672,38.13703881436959 55.13261205586605,37.43458767156699 51.09304482245352,39.03461333044106 50.25842349312734,39.932185665442375 35.96970633696765,47.073661750677275 21.347140649333596,52.88820424559526 20.979907264350913,53.82476629075245 12.767233385005966,56.517368944885675 12.400000000023283,57.18076078838203 15.805255023296922,64.47799244624912 24.68562596605625,62.17567288826103 15.838639876456,64.63408138841623 12.433384853298776,57.414898801682284 12.533539412776008,56.55639202744351 20.312210200936534,54.13695311153424 13.268006182392128,56.205184135760646 12.533539412776008,56.86857653982588 17.541267387918197,69.62889272111352" stroke="#ff0000" stroke-linecap="round" stroke-linejoin="round" stroke-width="0.5"><title>2025-04-20 5.2km</title><desc>1745154044961</desc></polyline><polyline fill="none" points="98.29365565208718,73.64798723370768 91.39566786261275,74.15720841247821 89.28996632713825,73.05389545066282 85.6594464383088,59.98376509692753 79.56017302442342,45.47057904454414 115.42970952857286,32.399999999965075 120.43982697557658,51.83604379731696 110.05654009245336,56.24940309015801 103.59421468991786,57.18299521890003 87.32948558731005,62.86939657886978 90.59695348702371,73.47824676922755 96.04273332096636,72.37493287510006 99.09237002767622,73.22363600495737 100.47196758538485,75.59999999997672 104.90120185026899,73.7328574527055" stroke="#4dd2ff" stroke-linecap="round" stroke-linejoin="round" stroke-width="0.5"><title>2025-03-23 2.1km</title><desc>1742729899087</desc></polyline><polyline fill="none" points="160.20893880119547,74.91551316523692 161.38016466167755,75.59999999997672 164.24316120916046,74.15497147483984 164.69863793277182,72.4057225380675 163.33220776217058,71.41701473784633 155.784307773225,71.2649057249655 154.09253708575852,63.12702669488499 146.8049095098395,46.39465001266217 185.2601585930679,32.399999999965075 146.7398414069321,46.54676427913364 154.15760518913157,61.910139683051966 155.84937587636523,70.960687603103 164.4383655192796,71.2649057249655 165.28425086289644,73.47048326634103 170.4896991313435,70.960687603103 170.7499715446029,72.02545046794694" stroke="#4dd2ff" stroke-linecap="round" stroke-linejoin="round" stroke-width="0.5"><title>2025-03-16 2.5km</title><desc>1742128080108</desc></polyline><polyline fill="none" points="18.393296089489013,110.52984079916496 15.336312849074602,108.97900243964978 13.767597765428945,106.67623249522876 12.399999999906868,97.08906238415511 13.164245810126886,94.73923431651201 15.859217877034098,92.90635982170352 23.340782122686505,92.57738155027619 32.99441340775229,89.94554663563031 21.651396648027003,92.67137536691735 16.181005586404353,92.85936294068233 13.687150838086382,94.1282769892423 12.44022346357815,97.0420659443771 13.566480447072536,105.31336304551223 14.934078212361783,108.65003603327204 23.46145251393318,112.64461168335401 27.72513966471888,113.7724853848922 34.321787709370255,114.0544533643988 45.503910614410415,111.46974020884954 50.21005586581305,108.79102166570374 51.7787709494587,107.14618651155615 55.5999999998603,99.20389705101843 51.0547486031428,107.75712599180406 48.118435753975064,109.87191003301996 43.653631284832954,111.79870453389594 33.477094972040504,113.86647473118501 27.242458100430667,113.44352251678356 19.197765363147482,110.48284577665618 23.46145251393318,112.69160647780518 29.655865921638906,113.96046405771631 34.76424581022002,114.0544533643988 37.82122905016877,113.11455940583255 33.477094972040504,113.81948006059974 27.403351955348626,113.34953308140393 22.536312849028036,112.08067376213148 17.669273743173108,109.82491494115675 20.122905028052628,110.24787058978109" stroke="#4dd2ff" stroke-linecap="round" stroke-linejoin="round" stroke-width="0.5"><title>2025-03-08 4.9km</title><desc>1741407347536</desc></polyline><polyline fill="none" points="91.82372881355695,120.6577611482353 85.28271186444908,120.14426227880176 83.86711864406243,113.9822377722594 78.54644067771733,102.39972369727911 78.93694915249944,101.25857586605707 108.22508474579081,90.70284413476475 121.16067796596326,84.65460218052613 121.60000000009313,84.0840098207118 120.96542372880504,83.3422388517647 102.61152542359196,91.78695581771899 78.39999999990687,99.94625287945382 85.57559322030284,119.91604040237144 95.77762711863033,119.45959636033513 103.24610169488005,117.23442613205407" stroke="#4dd2ff" stroke-linecap="round" stroke-linejoin="round" stroke-width="0.5"><title>2025-03-02 3.1km</title><desc>1740908689410</desc></polyline><polyline fill="none" points="165.7184099322185,123.59999999997672 164.73284469591454,120.88464198395377 156.07395011698827,120.802358260029 154.1028196439147,111.25738730287412 145.7959126494825,94.71797970391344 146.14790023397654,93.73054127668729 181.76904378598556,81.38745532510802 186.2040873505175,99.49058112467173 176.34843498421833,104.01629684172804 153.75083205942065,110.10540014051367 146.07750271679834,93.73054127668729 182.89540405618027,80.39999999996508 181.9098388198763,81.79889467451721 185.922497282736,99.49058112467173 174.65889457892627,104.18086782720638" stroke="#4dd2ff" stroke-linecap="round" stroke-linejoin="round" stroke-width="0.5"><title>2024-12-01 3.0km</title><desc>1733059607886</desc></polyline><polyline fill="none" points="33.12380952341482,171.37369490141282 22.990476190578192,171.46274969173828 20.704761904664338,161.57761053345166 12.399999999906868,142.34133186750114 49.96190476184711,128.53725030826172 52.70476190466434,134.50420361902798 55.59999999962747,148.57535913342144 46.68571428535506,153.11726425937377 20.47619047621265,160.06366006837925 12.552380952052772,142.78662105783587 51.104761904571205,128.53725030826172 55.52380952332169,148.84253070055274 43.25714285718277,154.89839684555773 21.08571428572759,162.02288956491975 23.447619047481567,171.37369490141282 31.21904761856422,170.92842080810806" stroke="#4dd2ff" stroke-linecap="round" stroke-linejoin="round" stroke-width="0.5"><title>2024-11-03 3.4km</title><desc>1730641178795</desc></polyline><polyline fill="none" points="105.73497467022389,171.59999999997672 101.34524097200483,170.1931409695535 99.92919784318656,170.7724361702567 100.0,169.44833222497255 98.37155040213838,168.62076612276724 90.37090672692284,168.53800946450792 86.40598596725613,154.80028303375002 79.9629897326231,141.39335391845088 115.71807872550562,128.48276089818683 120.60342751862481,147.35201740358025 110.3371148374863,151.73822684580227 87.32641400070861,157.69681165722432 79.46737463818863,141.72439196752384 81.80384579952806,139.73816157446709 115.85968303820118,128.40000000002328 120.53262536227703,147.26925849873805 111.186740714591,151.24167606589617 87.89283125195652,158.02784281794447 86.05197518505156,156.12441173306433 79.39657248137519,141.39335391845088 115.50567225599661,128.5655217873864 120.60342751862481,147.51753518695477 110.5495213069953,151.73822684580227 88.53005066001788,158.02784281794447 87.96363340876997,161.91744848212693 89.37967653712258,168.45525279740104 99.22117627924308,168.04146933124866" stroke="#ff0400" stroke-linecap="round" stroke-linejoin="round" stroke-width="0.5"><title>2024-08-18 5.1km</title><desc>1723984957861</desc></polyline><polyline fill="none" points="163.68582528317347,171.59999999997672 166.2722558490932,170.08843962056562 164.91097660409287,166.7470848603407 159.39779566111974,167.94042754761176 156.19878943497315,167.22442216193303 154.08880660519935,158.71186154294992 146.80596264335327,141.2886571327108 182.26728697982617,128.39999999996508 181.72277528163977,131.02548508200562 185.19403735687956,146.4599699076498 175.32476282934658,151.55168933433015 154.36106245405972,157.20027530012885 150.48141660518013,150.83566836977843 146.6698347190395,141.2886571327108 180.7018158477731,128.95692184282234 183.22018245141953,135.63995183532825 185.26210131892003,146.5395282881218 176.82216999935918,151.07434210018255 154.156870567007,157.04116078233346 146.53370679426007,141.68645168357762 179.00021679140627,129.35472290701 181.31439150776714,129.67296360689215 185.46629320573993,147.09643671812955 174.57605924457312,151.79036283760797 155.04170207679272,156.96160351095023 154.29299849201925,158.31407598394435 156.33491735975258,166.8266410981887 162.39261000044644,167.14486596605275" stroke="#ff0d00" stroke-linecap="round" stroke-linejoin="round" stroke-width="0.5"><title>2024-08-11 5.0km</title><desc>1723380974002</desc></polyline><polyline fill="none" points="28.958981612464413,217.3911624813918 21.382178217638284,218.03394408739405 19.304667609510943,210.17768255522242 31.83083451190032,205.53530329128262 29.081188118783757,188.67962755309418 55.5999999998603,177.96605591254774 44.3570014142897,182.96574380423408 44.17369165457785,185.82269171456574 47.167751060798764,199.1787630627514 37.513437057612464,203.74976431863615 18.999151343712583,208.4635770000168 12.705516265705228,195.536224313837 13.438755304086953,193.46496803854825 29.875530410092324,188.25108794681728 53.033663366455585,178.82314789120574 44.72362093348056,182.25150494033005 43.6237623761408,183.60855813656235 47.10664780740626,199.03591877553845 38.429985855473205,203.24981256132014 19.1824611031916,208.32073467428563 12.399999999906868,194.96484390611295 15.760678924620152,192.82216307672206 43.01272984431125,183.10859148646705 49.30636492231861,207.89220751594985" stroke="#ff0c00" stroke-linecap="round" stroke-linejoin="round" stroke-width="0.5"><title>2024-08-04 5.0km</title><desc>1722777733849</desc></polyline><polyline fill="none" points="84.91042253538035,219.5850144184078 88.92619718285277,217.66482483717846 88.19605633802712,216.1713402660098 80.22535211243667,215.95798505702987 78.39999999990687,208.6327485383954 90.7515492956154,203.72550668485928 91.17746478854679,201.37855228612898 88.25690140808001,186.94104679278098 114.23774647852406,176.4149855815922 117.94929577433504,186.01646692771465 118.67943661962636,193.41307029762538 121.41746478853747,203.1565487938933 120.32225352083333,204.9345406066859 111.68225352093577,208.27715250459732 109.73521126736887,209.9840117545682 92.2726760560181,215.1756820450537 80.46873239404522,215.95798505702987 78.70422535180114,208.1349140383536 91.29915492958389,204.00998544989852 87.58760563354008,187.29665409523295 113.93352112662978,176.77059844357427 118.13183098565787,186.22983162477612 121.5999999998603,204.00998544989852 111.07380281668156,208.56162934674649 110.16112676030025,209.91289270541165 103.2856338028796,211.5486289326218 103.46816901420243,214.10890374606242 104.50253521115519,214.03778513282305 103.52901408425532,215.10456354432972 91.05577464774251,217.16699701489415 85.82309859152883,219.01606992812594 94.88901408435777,215.38903750217287 100.97352112666704,214.89120799710508 105.23267605621368,213.25547988992184 96.10591549286619,216.45581377320923" stroke="#ff0c00" stroke-linecap="round" stroke-linejoin="round" stroke-width="0.5"><title>2024-07-28 5.0km</title><desc>1722171325984</desc></polyline><polyline fill="none" points="164.60773480637,217.29602663300466 164.28950276225805,214.0413484335295 154.50386740313843,214.41331226524198 152.1171270716004,203.90527353202924 168.42651933664456,198.69770343432901 168.58563535893336,194.60601960634813 164.05082872882485,177.21615117968759 163.01657458534464,176.65818179945927 144.39999999990687,182.79582553368527 163.81215469585732,177.4021408945555 172.48397789988667,209.57777019537752 171.05193370115012,212.3675092459889 165.16464088391513,213.76237545663025 165.56243093917146,216.45911053090822 181.55359115963802,212.08853573870147 183.94033149117604,213.20442923740484 187.59999999962747,211.34460595372366 163.81215469585732,217.76097967952956 171.76795580098405,214.5063031986938 178.13259668461978,214.13433940603863 186.8839779002592,210.6006755401031 184.33812154643238,212.83246489497833 170.17679557949305,215.436211992288 163.65303867356852,218.2259324803017 169.2220994476229,215.15723945741775 181.79226519307122,212.3675092459889 183.46298342524096,213.01844708586577 185.84972375631332,211.15862340922467 187.44088397733867,211.06563212239416 184.89502762444317,212.5534915351891 171.68839778983966,215.25023031211458 160.07292817672715,219.34181820054073 182.5878453035839,211.34460595372366 187.04309392208233,210.87964951904723 184.7359116016887,212.64648266491713 170.3359116022475,215.06424859259278 162.38011049712077,218.2259324803017 172.56353591149673,213.57639342284529 176.3823204417713,214.0413484335295 182.03093922603875,211.9955445501255 184.25856353528798,213.20442923740484 186.96353591093794,211.43759721127572 179.3259668503888,214.22733036900172 175.1093922648579,214.41331226524198 177.5756906075403,213.20442923740484 183.38342541409656,213.01844708586577 186.96353591093794,210.78665820264723 184.7359116016887,212.92545599513687" stroke="#4dd2ff" stroke-linecap="round" stroke-linejoin="round" stroke-width="0.5"><title>2024-07-21 4.9km</title><desc>1721568919550</desc></polyline><polyline fill="none" points="36.94765100674704,259.10380397655535 29.022818791214377,261.3630423730938 26.413422818295658,257.97418298840057 16.459060402121395,258.20010728167836 12.979865771252662,246.90383416821714 13.1731543620117,245.09641939762514 35.11140939546749,238.43155103374738 32.21208053641021,229.50734021817334 32.88859060360119,238.0926583125256 37.044295301195234,252.890873778495 16.845637583639473,258.4260315268766 15.202684563118964,257.29640982323326 12.399999999906868,245.8871637354605 12.689932885579765,242.83714663947467 32.69530201284215,236.96301513223443 31.535570469219238,229.50734021817334 32.88859060360119,237.8667297718348 37.91409395914525,251.08346912567504 36.56107382522896,254.13346270518377 16.459060402121395,257.86122082406655 15.009395972825587,256.844560807338 12.399999999906868,246.22605398716405 13.656375838443637,243.0630741303321 31.535570469219238,237.52783687133342 31.825503354892135,231.08885136130266 37.140939597040415,251.4223577309167 36.46442952938378,254.47235034394544 16.555704697966576,257.97418298840057 12.689932885579765,247.69457716972101 12.689932885579765,243.8538199715549 32.11543624103069,237.41487254737876 34.14496644260362,239.56119266303722 37.140939597040415,253.45568710565567 28.346308724489063,257.52233425935265 29.216107382439077,261.3630423730938 43.7127516772598,256.16678692610003 55.59999999962747,254.3593878095271 30.18255033530295,259.66861402301583 26.896644294727594,262.49265978182666 38.397315436042845,258.7649178052088" stroke="#4dd2ff" stroke-linecap="round" stroke-linejoin="round" stroke-width="0.5"><title>2024-07-14 4.2km</title><desc>1720963947536</desc></polyline><polyline fill="none" points="78.39999999990687,251.36862359393854 105.71034482773393,242.08237179275602 121.1034482754767,240.1960942260921 118.99310344783589,239.1804052325897 114.39999999990687,242.95296056580264 90.81379310321063,246.87060321611352 80.01379310293123,251.0784291748423 79.7655172413215,252.8195947674103 93.17241379292682,246.4353101401357 121.60000000009313,240.05099584406707 114.6482758615166,243.5333527745679 92.42758620670065,246.58040784776676 83.86206896509975,250.7882346949773 81.62758620642126,250.49804015399422 92.17931034462526,245.8549191573402 120.23448275821283,239.1804052325897 114.02758620679379,243.2431567007443 106.95172413764521,243.38825474563055 81.62758620642126,250.64313743216917 103.97241379227489,242.08237179275602 109.80689655151218,242.51766624837182 120.23448275821283,239.61570060742088 116.88275862019509,242.3725681117503 91.31034482689574,246.29021241725422 80.51034482754767,251.0784291748423 89.3241379307583,247.88628652412444 96.89655172405764,240.77648759947624 101.48965517152101,243.6784507886041 113.40689655160531,241.79217541299295 102.85517241293564,245.419625759474" stroke="#4dd2ff" stroke-linecap="round" stroke-linejoin="round" stroke-width="0.5"><title>2024-07-07 3.0km</title><desc>1720361789036</desc></polyline></svg>