<?xml version="1.0" encoding="utf-8" ?>
<svg baseProfile="full" height="300mm" version="1.1" viewBox="0,0,200,300" width="200mm" xmlns="http://www.w3.org/2000/svg" xmlns:ev="http://www.w3.org/2001/xml-events" xmlns:xlink="http://www.w3.org/1999/xlink"><defs /><rect fill="#222222" height="300" width="200" x="0" y="0" /><text fill="#FFFFFF" style="font-size:12px; font-family:Arial; font-weight:bold;" x="10" y="20">Runs</text><text fill="#FFFFFF" style="font-size:4px; font-family:Arial" x="10" y="280">ATHLETE</text><text fill="#FFFFFF" style="font-size:9px; font-family:Arial" x="10" y="290">Jay</text><text fill="#FFFFFF" style="font-size:4px; font-family:Arial" x="120" y="280">STATISTICS</text><text fill="#FFFFFF" style="font-size:3px; font-family:Arial" x="120" y="285">Number: 6</text><text fill="#FFFFFF" style="font-size:3px; font-family:Arial" x="120" y="290">Weekly: 1.0</text><text fill="#FFFFFF" style="font-size:3px; font-family:Arial" x="141" y="285">Total: 27.1 km</text><text fill="#FFFFFF" style="font-size:3px; font-family:Arial" x="141" y="290">Avg: 4.5 km</text><text fill="#FFFFFF" style="font-size:3px; font-family:Arial" x="167" y="285">Min: 3.0 km</text><text fill="#FFFFFF" style="font-size:3px; font-family:Arial" x="167" y="290">Max: 5.0 km</text><polyline fill="none" points="46.14304213877767,106.0 50.453759748488665,103.48073270102032 48.184961006511,97.91180810064543 38.99632610194385,99.90071257948875 33.664649058599025,98.70737027004361 30.148011008743197,84.51976923830807 18.009937738999724,55.48109522124287 77.11214496660978,34.0 76.20462546963245,38.37580847006757 81.99006226146594,64.0999498461606 65.54127138201147,72.58614889066666 30.6017707567662,82.0004588336451 24.135694342199713,71.3927806164138 17.783057864755392,55.48109522124287 74.50302641279995,34.92820307146758 78.70030408585444,46.06658639223315 82.10350219812244,64.23254714696668 68.03694999869913,71.79057016700972 30.2614509453997,81.73526797071099 17.55617799051106,56.14408613939304 71.66702798567712,35.591204844997264 75.52398584643379,36.12160601152573 82.44382200948894,65.16072786366567 64.2934320741333,72.98393806279637 31.73617012798786,81.60267251834739 30.488330820109695,83.85679330665153 33.89152893284336,98.04440183041152 43.98768333438784,98.57477661012672" stroke="#ff0100" stroke-linecap="round" stroke-linejoin="round" stroke-width="0.5"><title>2024-08-11 5.0km</title><desc>1723380974002</desc></polyline><polyline fill="none" points="141.5983026875183,102.318604135653 128.97029702924192,103.38990681234282 125.5077793491073,90.29613759205677 146.3847241862677,82.55883881868795 141.80198019789532,54.466045921784826 186.0,36.61009318754077 167.26166902389377,44.94290634035133 166.95615275762975,49.70448619092349 171.9462517676875,71.96460510452744 155.8557284292765,79.58294053096324 124.99858557246625,87.43929499993101 114.50919377617538,65.89370718959253 115.73125883983448,62.441613397561014 143.12588401697576,53.75181324465666 181.72277227742597,38.038579818676226 167.8727015554905,43.75250823388342 166.03960396023467,46.01426356099546 171.84441301226616,71.72653129254468 157.38330975919962,78.74968760216143 125.30410183873028,87.20122445712332 114.0,64.94140651018824 119.6011315411888,61.37027179449797 165.02121640741825,45.180985810700804 175.51060820370913,86.48701252660248" stroke="#ff0000" stroke-linecap="round" stroke-linejoin="round" stroke-width="0.5"><title>2024-08-04 5.0km</title><desc>1722777733849</desc></polyline><polyline fill="none" points="24.850704225711524,185.97502403066028 31.543661971576512,182.7747080619447 30.326760563999414,180.2855671099387 17.04225352127105,179.9299750950886 14.0,167.7212475639535 34.58591549331322,159.54251114139333 35.29577464796603,155.63092047686223 30.428169013932347,131.56841132137924 73.7295774645172,114.02497596933972 79.91549295792356,130.0274448795244 81.13239436643198,142.35511716268957 85.6957746478729,158.59424798982218 83.87042253511027,161.55756767780986 69.4704225352034,167.1285875076428 66.2253521126695,169.97335292433854 37.12112676072866,178.62613674171735 17.44788732379675,179.9299750950886 14.507042253389955,166.8915233972948 35.49859154969454,160.01664241647813 29.312676056288183,132.161090158741 73.22253521159291,114.61766407266259 80.21971831005067,130.3830527078826 86.0,160.01664241647813 68.45633802795783,167.6027155779302 66.93521126778796,169.85482117568608 55.47605633828789,172.58104822097812 55.780281690880656,176.84817291004583 57.50422535231337,176.7296418880578 55.88169014081359,178.5076059072744 35.09295774670318,181.94499502482358 26.37183098634705,185.02678321348503 41.48169014090672,178.98172917030752 51.62253521149978,178.15201332850847 58.72112676082179,175.4257998164976 43.5098591549322,180.75968962197658" stroke="#ff0000" stroke-linecap="round" stroke-linejoin="round" stroke-width="0.5"><title>2024-07-28 5.0km</title><desc>1722171325984</desc></polyline><polyline fill="none" points="147.67955801077187,182.1600443882635 147.14917127089575,176.73558072256856 130.83977900538594,177.35552044201177 126.86187845282257,159.84212255338207 154.04419889487326,151.16283905727323 154.30939226504415,144.3433660105802 146.7513812147081,115.36025196616538 145.02762430906296,114.43030299909879 114.0,124.65970922273118 146.3535911599174,115.67023482429795 160.80662983376533,169.29628365894314 158.41988950269297,173.94584874331485 148.60773480637,176.27062576112803 149.27071823226288,180.76518421818037 175.92265193304047,173.48089289781637 179.90055248560384,175.34071539575234 186.0,172.24100992281456 146.3535911599174,182.93496613251045 159.61325966846198,177.51050533121452 170.22099447483197,176.89056567673106 184.806629834231,171.00112590019125 180.56353591103107,174.72077482496388 156.9613259662874,179.0603533204412 146.08839778974652,183.70988746720832 155.37016574619338,178.59539909567684 176.3204419882968,173.94584874331485 179.10497237555683,175.03074514307082 183.08287292765453,171.93103901529685 185.7348066288978,171.7760535372654 181.49171270709485,174.25581922533456 159.48066298337653,178.7503838535631 140.12154696136713,185.56969700090121 177.64640883915126,172.24100992281456 185.07182320393622,171.466082531726 181.2265193364583,174.41080444154795 157.22651933692396,178.44041432102676 143.96685082884505,183.70988746720832 160.93922651931643,175.96065570472274 167.30386740295216,176.73558072256856 176.71823204355314,173.32590758358128 180.43093922594562,175.34071539575234 184.9392265183851,172.3959953521844 172.20994475111365,177.04555061506107 165.1823204420507,177.35552044201177 169.2928176796995,175.34071539575234 178.97237569000572,175.03074514307082 184.9392265183851,171.31109700433444 181.2265193364583,174.8757599919336" stroke="#4dd2ff" stroke-linecap="round" stroke-linejoin="round" stroke-width="0.5"><title>2024-07-21 4.9km</title><desc>1721568919550</desc></polyline><polyline fill="none" points="54.91275167837739,251.83967329422012 41.7046979861334,255.60507062182296 37.35570469778031,249.9569716474507 20.765100670978427,250.3335121361306 14.966442952863872,231.50639028043952 15.288590603508055,228.49403232953046 51.85234899260104,217.38591838954017 47.02013422828168,202.51223369699437 48.14765100646764,216.82109718758147 55.07382550276816,241.48478963086382 21.409395973198116,250.71005254471675 18.67114093899727,248.82734970538877 14.0,229.811939559062 14.483221476897597,224.72857773245778 47.82550335582346,214.93835855368525 45.89261744916439,202.51223369699437 48.14765100646764,216.44454961980227 56.52348993252963,238.47244854271412 54.2684563761577,243.5557711753063 20.765100670978427,249.76870137359947 18.348993288353086,248.07426801230758 14.0,230.37675664538983 16.093959731049836,225.1051235505147 45.89261744916439,215.87972811900545 46.37583892606199,205.1480856022099 55.23489932902157,239.0372628850164 54.10738254990429,244.12058390653692 20.92617449723184,249.9569716474507 14.483221476897597,232.82429528282955 14.483221476897597,226.42303328588605 46.85906040202826,215.69145424570888 50.2416107384488,219.26865443831775 55.23489932902157,242.4261451761704 40.57718120794743,249.2038904322544 42.0268456377089,255.60507062182296 66.187919463031,246.9446448768722 86.0,243.93231301591732 43.63758389279246,252.78102337161545 38.16107382532209,257.4877663030056 57.32885906007141,251.27486300875898" stroke="#4dd2ff" stroke-linecap="round" stroke-linejoin="round" stroke-width="0.5"><title>2024-07-14 4.2km</title><desc>1720963947536</desc></polyline><polyline fill="none" points="114.0,238.94770598993637 159.51724138017744,223.47061965451576 185.17241379246116,220.3268237102311 181.65517241321504,218.63400872098282 174.0,224.9216009429656 134.68965517170727,231.4510053601116 116.68965517170727,238.4640486247372 116.27586206886917,241.36599127901718 138.6206896547228,230.72551690018736 186.0,220.08499307348393 174.4137931028381,225.88892129110172 137.37931034434587,230.9673464128282 123.1034482754767,237.98039115825668 119.37931034434587,237.49673359002918 136.96551724150777,229.7581985956058 183.72413793113083,218.63400872098282 173.37931034434587,225.40526116779074 161.58620689623058,225.64709124271758 119.37931034434587,237.73856238694862 156.6206896537915,223.47061965451576 166.34482758585364,224.19611041387543 183.72413793113083,219.35950101236813 178.13793103396893,223.9542801862117 135.5172413783148,230.48368736216798 117.51724137924612,238.4640486247372 132.2068965518847,233.14381087361835 144.82758620660752,221.29414599924348 152.48275861982256,226.13075131434016 172.34482758678496,222.9869590215385 154.75862068869174,229.03270959923975" stroke="#4dd2ff" stroke-linecap="round" stroke-linejoin="round" stroke-width="0.5"><title>2024-07-07 3.0km</title><desc>1720361789036</desc></polyline></svg>