<?xml version="1.0" encoding="utf-8" ?>
<svg baseProfile="full" height="300mm" version="1.1" viewBox="0,0,200,300" width="200mm" xmlns="http://www.w3.org/2000/svg" xmlns:ev="http://www.w3.org/2001/xml-events" xmlns:xlink="http://www.w3.org/1999/xlink"><defs /><rect fill="#222222" height="300" width="200" x="0" y="0" /><text fill="#FFFFFF" style="font-size:12px; font-family:Arial; font-weight:bold;" x="10" y="20">Runs</text><text fill="#FFFFFF" style="font-size:4px; font-family:Arial" x="10" y="280">Runner</text><text fill="#FFFFFF" style="font-size:9px; font-family:Arial" x="10" y="290">Jay</text><text fill="#FFFFFF" style="font-size:4px; font-family:Arial" x="65" y="280">SPECIAL TRACKS</text><rect fill="yellow" height="2.6" width="2.6" x="65" y="283" /><text fill="#FFFFFF" style="font-size:3px; font-family:Arial" x="70" y="285.5">Over 5.0 km</text><rect fill="red" height="2.6" width="2.6" x="65" y="287" /><text fill="#FFFFFF" style="font-size:3px; font-family:Arial" x="70" y="289.5">Over 10.0 km</text><text fill="#FFFFFF" style="font-size:4px; font-family:Arial" x="120" y="280">STATISTICS</text><text fill="#FFFFFF" style="font-size:3px; font-family:Arial" x="120" y="285">Number: 26</text><text fill="#FFFFFF" style="font-size:3px; font-family:Arial" x="120" y="290">Weekly: 1.4</text><text fill="#FFFFFF" style="font-size:3px; font-family:Arial" x="141" y="285">Total: 104.4 km</text><text fill="#FFFFFF" style="font-size:3px; font-family:Arial" x="141" y="290">Avg: 4.0 km</text><text fill="#FFFFFF" style="font-size:3px; font-family:Arial" x="167" y="285">Min: 2.1 km</text><text fill="#FFFFFF" style="font-size:3px; font-family:Arial" x="167" y="290">Max: 5.2 km</text><polyline fill="none" points="20.38143899885472,61.03203368006507 16.597497393144295,60.913564757298445 15.246089676744305,55.9378361076233 11.800000000046566,48.71106466115452 12.171637122053653,47.723789956828114 30.34807090717368,41.32618668611394 41.801251303520985,36.03425927014905 42.71345151215792,36.98207267271937 43.35537017742172,39.35159566521179 44.20000000006985,45.78872397352825 35.95641293027438,49.500882547319634 31.496767466072924,50.76458769477904 29.23315954138525,41.8000869792304 43.62565172079485,34.96796631990583 29.030448383884504,42.19500343129039 30.95620437967591,50.883059833344305 30.044004171038978,51.554401242901804 25.753284671576694,53.252494721178664 15.415015641250648,56.01681644463679 11.833785192808136,48.86902837181697 11.867570385802537,48.039718145824736 28.658811261877418,42.03703690049588 32.037330552586354,55.5429341722338" stroke="yellow" stroke-linecap="round" stroke-linejoin="round" stroke-width="0.5"><title>2025-06-03 5.1km</title><desc>1748956863854</desc></polyline><polyline fill="none" points="55.57478991604876,60.11130241968203 52.03529411775526,60.28810252060066 50.61344537837431,55.40838546154555 47.800000000046566,49.43240318837343 47.86050420161337,48.58373433339875 64.438655462116,42.71371584656299 80.20000000006985,35.1108280592307 79.98823529400397,34.47429938710411 74.27058823523112,37.444756167562446 74.45210084039718,37.975192104349844 73.33277310919948,38.682438712683506 63.65210084046703,43.244143434334546 65.5579831933137,51.09437346391496 72.2134453781182,48.51301183167379 76.66050420165993,46.24988388828933 74.66386554623023,38.08127919083927 63.28907563025132,43.49167602084344 64.98319327738136,51.3065392881108 61.957983193336986,52.827057093789335 54.606722689117305,55.26694332662737 50.94621848757379,55.938792935048696 48.22352941194549,50.493236231588526 47.92100840352941,48.61909557855688 48.40504201699514,48.40692805100116 47.800000000046566,49.22023617630475 51.036974790040404,55.97415340336738 52.00504201685544,60.040582353190985 55.51428571436554,59.93450222539832 56.028571428731084,60.18202247127192 56.45210084039718,61.52570061289589 56.99663865554612,61.419620955653954" stroke="yellow" stroke-linecap="round" stroke-linejoin="round" stroke-width="0.5"><title>2025-05-25 5.1km</title><desc>1748170625707</desc></polyline><polyline fill="none" points="90.84609665442258,61.60363249544753 92.20111524162348,61.075698941160226 91.80966542765964,60.16061213245848 90.2739776953822,60.47737323521869 88.01561338303145,60.055025031324476 86.81115241639782,55.6555327437527 83.80000000004657,48.47543657646747 94.91115241649095,44.81493584837881 103.6434944239445,41.25998799590161 116.20000000006985,34.9595416901866 116.04944237926975,34.39636750452337 104.6672862455016,40.02806652444997 104.84795539046172,40.90801089743036 99.69888475851621,43.090262914280174 101.32490706327371,50.62244233151432 100.3011152416002,51.74873490043683 96.44684014876839,53.297380966774654 87.26282527879812,55.831513550452655 83.89033457252663,49.28496496123262 84.0107806691667,48.40504271091777 99.75910780671984,42.984670403791824 110.71970260224771,37.9865866289183 112.67695167299826,46.680388359643985 96.8985130112851,53.19179169094423 91.65910780674312,54.59964595164638" stroke="yellow" stroke-linecap="round" stroke-linejoin="round" stroke-width="0.5"><title>2025-05-24 5.2km</title><desc>1748085426224</desc></polyline><polyline fill="none" points="126.5097014924977,61.7427051125851 128.23246268660296,61.03616758217686 127.96044776134659,60.11766656147665 123.9104477611836,60.011685512115946 122.88283582078293,55.772416003310354 119.80000000004657,49.30742655103677 119.83022388070822,48.17692375535262 135.51641791057773,42.70099675512756 144.8555970150046,38.602824985195184 152.19999999995343,34.71658122492954 151.7466417910764,34.2572948874149 146.48768656724133,36.97767399766599 146.45746268657967,37.6842623539269 145.5507462687092,38.249531964043854 135.0026119403774,43.30158667470096 136.69514925370459,51.2504693029623 132.49402985081542,52.981534246500814 122.88283582078293,55.631106094399 124.06156716425903,59.90570442925673 127.02350746281445,59.94103146062116" stroke="#4DD2FF" stroke-linecap="round" stroke-linejoin="round" stroke-width="0.5"><title>2025-05-18 3.3km</title><desc>1747570670414</desc></polyline><polyline fill="none" points="166.94870848732535,60.76958271479816 164.49778597790282,61.468299460655544 163.60110701119993,59.96605663243099 160.1638376384508,60.210608255438274 158.69926199270412,55.24966853501974 155.85977859806735,49.485102863574866 155.82988929899875,48.471926394995535 174.18191881943494,41.93861049410771 188.20000000006985,35.19553414249094 187.81143911438994,34.531700539344456 182.1025830260478,37.39665708175744 182.13247232488357,38.16529973648721 178.69520295213442,40.01702243220643 171.61143911455292,43.161433447821764 173.25535055366345,50.56815013918094 172.86678966798354,51.05726710133604 170.77453874563798,43.440935202437686 182.28191881929524,38.06048493416165 182.042804428027,37.50147209444549 176.5431734318845,40.121836614387576 176.57306273072027,40.75072100982652 174.9889298893977,41.6591074699536 171.61143911455292,43.09155797227868 173.07601476029959,50.9524563846644 172.56789667916019,50.84764563472709 170.77453874563798,43.440935202437686 163.7804428046802,46.06125266460003 163.1228782288963,45.46731585927773 155.80000000004657,47.773182194534456 156.00922509247903,49.17066911922302 159.14760147617199,55.878524166939314 159.83505535067525,58.67342362154159" stroke="yellow" stroke-linecap="round" stroke-linejoin="round" stroke-width="0.5"><title>2025-05-17 5.1km</title><desc>1747484576135</desc></polyline><polyline fill="none" points="19.103877366986126,101.65732823949656 20.155635707778856,101.31584553778521 19.103877366986126,100.22309846841381 15.919386834953912,100.32554366305703 14.721550946705975,95.95451983774547 11.800000000046566,89.77351809380343 11.97529305680655,89.02222805915517 28.102254283148795,83.28504658510792 43.2066726781195,75.94267176050926 44.20000000006985,78.77718971189461 43.29431920661591,76.01097369001945 26.699909828719683,84.17295037736767 28.248331830487587,91.24194357494707 28.62813345354516,91.2760929253709 27.079711451777257,83.79729907057481 41.62903516704682,76.79644484343589 26.758340847562067,84.03634995271568 28.131469792686403,91.92492989820312 24.012082957662642,93.6665384923399 15.013706041383557,96.12526406496181 16.182326420210302,100.15480165398913 19.629756537498906,100.15480165398913 20.447790802572854,101.07680743193487 24.88854824169539,99.81331736521679" stroke="yellow" stroke-linecap="round" stroke-linejoin="round" stroke-width="0.5"><title>2025-05-11 5.2km</title><desc>1746960817262</desc></polyline><polyline fill="none" points="57.63374858442694,103.10376955705578 58.03737259353511,101.94578237712267 57.52366930921562,101.21667764370795 52.93703284277581,101.43112034822116 51.5793884487357,96.28446418364183 47.800000000046566,88.17834844315075 47.910079275257885,87.27765892693424 67.4308040770702,80.41519700997742 80.20000000018626,74.49623044297914 60.38573046447709,83.33175749680959 47.910079275257885,87.19187886881991 51.5793884487357,95.94135145324981 53.267270668409765,101.73133994432283 61.486523216357455,100.57334885068121 69.74246885627508,97.69980113167549 70.9533408835996,101.73133994432283" stroke="#4DD2FF" stroke-linecap="round" stroke-linejoin="round" stroke-width="0.5"><title>2025-05-10 3.3km</title><desc>1746881233572</desc></polyline><polyline fill="none" points="92.65559701493476,101.92446071561426 91.6279850746505,100.82932482540491 90.9932835821528,101.28857579658506 88.0313432837138,100.65268966864096 87.06417910452001,97.08463952786406 83.80000000004657,89.24186088173883 100.12089552241378,83.41264950006735 116.20000000006985,75.67553928439156 99.33507462695707,83.80126675314386 100.57425373129081,91.92679679664434 96.67537313443609,93.83450132253347 87.06417910452001,96.44874540768797 87.94067164184526,100.61736262601335 91.08395522402134,100.68801670742687" stroke="#4DD2FF" stroke-linecap="round" stroke-linejoin="round" stroke-width="0.5"><title>2025-05-09 3.2km</title><desc>1746800655160</desc></polyline><polyline fill="none" points="135.36032968084328,105.0 134.45413006166928,102.57006172725232 128.53717960906215,102.00930531986523 126.83139209123328,95.71633574756561 121.23427679762244,83.81558600690914 121.07435921765864,81.82171963591827 147.7272891860921,72.60000000003492 150.92564078210853,86.8063729268033 143.56943211099133,89.98406741424697 126.9380038108211,94.65711644664407 128.48387374915183,102.00930531986523 135.09380038129166,102.00930531986523 136.21322343987413,104.25232775131008 139.19835159601644,103.06851141975494" stroke="#4DD2FF" stroke-linecap="round" stroke-linejoin="round" stroke-width="0.5"><title>2025-05-07 2.1km</title><desc>1746628465614</desc></polyline><polyline fill="none" points="165.57028824836016,102.34063576816698 165.06740576494485,101.66887460419093 160.97250554338098,101.79482990896213 159.1405764967203,95.41304425385897 156.62616407987662,90.45869264056091 155.94368070969358,87.89752056033467 171.06607538787648,82.60717843926977 179.65099778259173,78.91229456002475 175.77161862514913,80.88570272369543 187.37383592012338,75.34334001882235 188.19999999995343,76.47701140504796 187.51751662953757,75.25936423183884 174.26297117513604,81.64147346821846 174.11929046572186,82.94307527065394 176.09490022156388,91.13047274935525 170.3476718403399,93.56566612626193 159.4279379157815,96.46268709222204 155.80000000004657,88.52731850350392 156.30288248346187,87.72957427360234 158.637694013305,86.88984177546808 156.08736141910776,87.81354742578696 155.94368070969358,88.61129148720647 159.2842572061345,96.126801685401 161.9423503326252,95.74893026359496 159.5716186251957,96.50467274806579 160.82882483373396,101.50093413580908 165.42660753871314,101.66887460419093" stroke="#4DD2FF" stroke-linecap="round" stroke-linejoin="round" stroke-width="0.5"><title>2025-05-04 3.9km</title><desc>1746361657097</desc></polyline><polyline fill="none" points="22.23866170994006,143.23290456132963 19.42825278802775,143.74910794888274 17.220074349083006,143.23290456132963 16.136059479555115,138.02390954404837 11.960594795178622,129.34211546721053 12.00074349436909,127.93424098216929 31.312267657835037,121.17638134834124 44.199999999953434,115.4508920511289 32.47657992551103,120.94173159758793 34.44386617094278,131.45391883002594 28.30111524136737,134.08192677417537 16.05576208163984,137.36691484457697 11.800000000046566,128.63817878236296 12.081040892051533,127.84038252438768 14.168773234123364,127.08951414946932 12.00074349436909,127.79345328823547 16.17620817804709,137.31998661451507 17.621561338193715,143.18597695085919 21.074349442264065,142.85748353903182" stroke="#4DD2FF" stroke-linecap="round" stroke-linejoin="round" stroke-width="0.5"><title>2025-05-02 3.2km</title><desc>1746193621188</desc></polyline><polyline fill="none" points="57.08314606756903,143.153025949141 52.751011236105114,143.3657819806831 51.44044943829067,137.96174396190327 47.800000000046566,130.13214296114165 48.054831460816786,129.32364288539975 69.02382022468373,121.62153448807658 80.20000000018626,116.42997502433718 79.54471910116263,115.83421801932855 66.65752808982506,121.62153448807658 66.18426966294646,123.23856393393362 68.22292134840973,132.47252877024584 65.82022471912205,133.8342015298258 51.65887640463188,138.00429572552093 48.309662921354175,130.94064141414128 51.65887640463188,138.04684748471482 52.89662921358831,143.153025949141 57.19235955062322,143.28067958151223" stroke="#4DD2FF" stroke-linecap="round" stroke-linejoin="round" stroke-width="0.5"><title>2025-05-01 3.2km</title><desc>1746105997674</desc></polyline><polyline fill="none" points="91.46182380232494,142.0240592463233 90.61051004647743,140.99974033076433 89.00803709437605,141.46800087630982 87.7561051006196,141.52653338885284 87.28037094289903,141.17533812811598 86.42905718716793,137.9267608646187 83.8500772799598,132.36604472223553 83.90015455964021,131.66363053399255 92.63863987650257,128.70761797597515 102.779289026279,124.49305048419046 116.20000000006985,117.70277911078301 115.84945904184133,117.17594075368834 112.81978361681104,118.37595999785117 112.19381761993282,119.04913924910943 101.47727975284215,124.40524631302105 90.5103554870002,128.76615318420227 90.2349304483505,129.46857471807743 84.07542503881268,131.48802670868463 83.80000000004657,131.98557059129234 86.35394126747269,137.45849433468538 93.01421947451308,135.73175466619432 86.3789799073711,137.57556104133255 83.82503863994498,132.16117410126026 83.90015455964021,131.51729402056662 89.7341576507315,129.70271483366378 84.4510046368232,131.25388810184086 83.90015455964021,131.7514324048825 87.65595054102596,141.32166954083368" stroke="yellow" stroke-linecap="round" stroke-linejoin="round" stroke-width="0.5"><title>2025-04-20 5.2km</title><desc>1745154044961</desc></polyline><polyline fill="none" points="134.7202417391818,144.33599042525748 129.54675089707598,144.71790630934993 127.96747474558651,143.89042158797383 125.24458482861519,134.08782382268691 120.67012976831757,123.20293428341392 147.5722821461968,113.39999999996508 151.3298702314496,127.97703284799354 143.54240506957285,131.28705231758067 138.6956610174384,131.98724641418085 126.49711419036612,136.25204743415816 128.9477151155006,144.20868507691193 133.03204999072477,143.38119965634542 135.31927752075717,144.01772700372385 136.35397568903863,145.79999999998836 139.67590138758533,144.39964308950584" stroke="#4DD2FF" stroke-linecap="round" stroke-linejoin="round" stroke-width="0.5"><title>2025-03-23 2.1km</title><desc>1742729899087</desc></polyline><polyline fill="none" points="167.65670410101302,145.28663487394806 168.53512349631637,145.79999999998836 170.68237090692855,144.71622860612115 171.02397844963707,143.4042919035419 169.99915582174435,142.66276105341967 164.33823082991876,142.5486792937736 163.0694028143771,136.445270021155 157.60368213243783,123.895987509517 186.44511894485913,113.40000000002328 157.55488105514087,124.01007320935605 163.1182038919069,135.5326047622948 164.38703190744855,142.32051570236217 170.82877413951792,142.5486792937736 171.46318814717233,144.20286244980525 175.36727434862405,142.32051570236217 175.56247865851037,143.11908785096603" stroke="#4DD2FF" stroke-linecap="round" stroke-linejoin="round" stroke-width="0.5"><title>2025-03-16 2.5km</title><desc>1742128080108</desc></polyline><polyline fill="none" points="16.294972067233175,176.7973805993679 14.002234637038782,175.63425182976061 12.825698324246332,173.90717437144485 11.800000000046566,166.71679678812507 12.373184357653372,164.9544257374073 14.394413408008404,163.5797698662791 20.00558659224771,163.33303616271587 27.24581005598884,161.35915997670963 18.738547486136667,163.40353152519674 14.635754190036096,163.5445222055132 12.765363128622994,164.49620774193318 11.830167597858235,166.68154945829883 12.674860335420817,172.8850222841429 13.700558659504168,175.3875270249846 20.0960893855663,178.38345876251697 23.293854748713784,179.2293640386779 28.241340782260522,179.44084002330783 36.627932960982434,177.50230515666772 40.157541899592616,175.49326624927926 41.33407821226865,174.25963988367585 44.20000000006985,168.30292278827983 40.79106145258993,174.71784449386178 38.58882681571413,176.30393252478098 35.24022346374113,177.7490284004307 27.607821229146793,179.2998560483975 22.931843575439416,178.98264188758912 16.898324022535235,176.76213433250086 20.0960893855663,178.4187048583699 24.74189944146201,179.37034804330324 28.57318435772322,179.44084002330783 30.8659217878012,178.7359195543977 27.607821229146793,179.2646100454731 23.052513966686092,178.91214981107623 19.40223463694565,177.9605053215928 15.751955307438038,176.2686862058763 17.592178771155886,176.58590294234455" stroke="#4DD2FF" stroke-linecap="round" stroke-linejoin="round" stroke-width="0.5"><title>2025-03-08 4.9km</title><desc>1741407347536</desc></polyline><polyline fill="none" points="57.86779661010951,184.3933208611852 52.96203389833681,184.0081967090664 51.90033898293041,179.38667832917417 47.909830508287996,170.69979277293896 48.20271186437458,169.84393189952243 70.16881355922669,161.92713310106774 79.87050847453065,157.39095163540333 80.19999999995343,156.96300736549892 79.72406779672019,156.40667913880316 65.95864406763576,162.74021686328342 47.800000000046566,168.85968965958455 53.181694915285334,183.83703030177276 60.83322033891454,183.49469727021642 66.43457627133466,181.82581959903473" stroke="#4DD2FF" stroke-linecap="round" stroke-linejoin="round" stroke-width="0.5"><title>2025-03-02 3.1km</title><desc>1740908689410</desc></polyline><polyline fill="none" points="99.7888074493967,186.59999999997672 99.04963352181949,184.56348148797406 92.55546258762479,184.50176869501593 91.07711473293602,177.34304047719343 84.84693448711187,164.93848477792926 85.11092517571524,164.1979059575242 111.82678283937275,154.9405914938543 115.15306551288813,168.51793584349798 107.76132623828016,171.91222263127565 90.81312404456548,176.47905010543764 85.05812703771517,164.1979059575242 112.67155304225162,154.19999999995343 111.93237911490723,155.2491710059112 114.941872962052,168.51793584349798 106.49417093442753,172.03565087041352" stroke="#4DD2FF" stroke-linecap="round" stroke-linejoin="round" stroke-width="0.5"><title>2024-12-01 3.0km</title><desc>1733059607886</desc></polyline><polyline fill="none" points="135.34285714291036,186.43027117598103 127.74285714305006,186.49706226878334 126.02857142873108,179.08320790005382 119.80000000004657,164.65599890053272 147.97142857150175,154.3029377311468 150.02857142873108,158.7781527141924 152.19999999995343,169.33151935000205 145.51428571436554,172.7379481944954 125.8571428572759,177.94774505123496 119.91428571403958,164.98996579332743 148.82857142877765,154.3029377311468 152.1428571427241,169.53189802536508 142.9428571430035,174.07379763410427 126.31428571417928,179.41716717364034 128.0857142857276,186.43027117598103 133.91428571403958,186.09631560603157" stroke="#4DD2FF" stroke-linecap="round" stroke-linejoin="round" stroke-width="0.5"><title>2024-11-03 3.4km</title><desc>1730641178795</desc></polyline><polyline fill="none" points="176.30123100266792,186.59999999997672 173.00893072900362,185.54485572711565 171.94689838262275,185.9793271276867 172.0,184.98624916869448 170.7786628017202,184.36557459202595 164.77818004530855,184.30350709834602 161.8044894754421,174.0002122753067 156.97224229946733,163.94501543877413 183.7885590440128,154.2620706736343 187.4525706388522,168.41401305265026 179.75283612823114,171.70367013430223 162.49481050064787,176.17260874289786 156.60053097852506,164.19329397560796 158.35288434987888,162.70362118078629 183.89476227853447,154.19999999995343 187.39946902170777,168.35194387403317 180.39005553605966,171.33125704940176 162.9196234389674,176.42088211345254 161.53898138878867,174.99330879974877 156.5474293611478,163.94501543877413 183.62925419211388,154.32414134050487 187.4525706388522,168.53815139015205 179.91214098013006,171.70367013430223 163.397537994897,176.42088211345254 162.97272505657747,179.33808636153117 164.03475740272552,184.2414395980304 171.41588220954873,183.93110199837247" stroke="yellow" stroke-linecap="round" stroke-linejoin="round" stroke-width="0.5"><title>2024-08-18 5.1km</title><desc>1723984957861</desc></polyline><polyline fill="none" points="26.26436896226369,227.40000000002328 28.2041918868199,226.26632971549407 27.183232452953234,223.76031364529626 23.0483467457816,224.65532066079322 20.649092076346278,224.11831662151963 19.06660495372489,217.73389615723863 13.604471982456744,204.6664928495884 40.20046523492783,195.0000000000582 39.792081461288035,196.9691138115595 42.395528017543256,208.5449774307781 34.99357212195173,212.36376700078836 19.27079684054479,216.60020647518104 16.36106245382689,211.82675127737457 13.502376039046794,204.6664928495884 39.02636188571341,195.41769138217205 40.91513683856465,200.42996387655148 42.44657598924823,208.60464621614665 36.116627499461174,212.00575657520676 19.117652925197035,216.48087058681995 13.400280095636845,204.9648387627676 37.750162593554705,195.7160421803128 39.485793630825356,195.95472270523896 42.599719904130325,209.0223275386379 34.43204443319701,212.54277212830493 19.781276557361707,216.42120263329707 19.219748868839815,217.435556987999 20.751188019756228,223.81998082372593 25.29445750033483,224.0586494745803" stroke="yellow" stroke-linecap="round" stroke-linejoin="round" stroke-width="0.5"><title>2024-08-11 5.0km</title><desc>1723380974002</desc></polyline><polyline fill="none" points="60.21923620952293,225.7433718610846 54.53663366334513,226.22545806557173 52.978500707075,220.3332619164721 62.37312588398345,216.8514774684736 60.31089108902961,204.20972066486138 80.19999999995343,196.17454193445155 71.7677510608919,199.9243078531872 71.63026874116622,202.0670187859796 73.87581329559907,212.08407229706063 66.63507779338397,215.5123232390033 52.749363507842645,219.0476827500388 48.02913719927892,209.35216823540395 48.57906647818163,207.79872602893738 60.90664780768566,203.8883159601537 78.2752475249581,196.81736091844505 72.04271570011042,199.38862870525918 71.21782178222202,200.40641860247706 73.8299858556129,211.97693908168003 67.32248939177953,215.13735942103085 52.88684582756832,218.94055100574042 47.800000000046566,208.92363292962546 50.320509193465114,207.3166223075823 70.75954738329165,200.03144361489103 75.47977369185537,218.61915563701768" stroke="yellow" stroke-linecap="round" stroke-linejoin="round" stroke-width="0.5"><title>2024-08-04 5.0km</title><desc>1722777733849</desc></polyline><polyline fill="none" points="88.68281690170988,227.38876081380295 91.694647887256,225.94861862788093 91.14704225375317,224.828505199519 85.16901408461854,224.66848879281315 83.80000000004657,219.17456140380818 93.0636619720608,215.4941300136561 93.38309859158471,213.73391421462293 91.19267605640925,202.90578509462648 110.67830985900946,195.01123918622034 113.46197183104232,202.21235019579763 114.0095774650108,207.75980272327433 116.06309859151952,215.06741159543162 115.2416901406832,216.40090545502608 108.76169014093466,218.9078643784742 107.30140845081769,220.18800881595234 94.2045070421882,224.081761533831 85.35154929570854,224.66848879281315 84.02816901402548,218.80118552877684 93.47436619736254,215.7074890874792 90.69070422532968,203.1724905714509 110.45014084526338,195.27794883272145 113.59887323947623,202.37237371859374 116.19999999995343,215.7074890874792 108.305352112744,219.12122201008606 107.62084507057443,220.13466952909948 102.46422535227612,221.36147169949254 102.60112676071003,223.281677809573 103.3769014084246,223.22833884964348 102.64676056336612,224.0284226583026 93.29183098603971,225.57524776118225 89.36732394387946,226.96205244609155 96.16676056338474,224.24177812665584 100.73014084505849,223.86840599786956 103.92450704239309,222.64160991745302 97.07943661976606,225.04186032991856" stroke="yellow" stroke-linecap="round" stroke-linejoin="round" stroke-width="0.5"><title>2024-07-28 5.0km</title><desc>1722171325984</desc></polyline><polyline fill="none" points="134.9558011048939,225.67201997473603 134.71712707192637,223.231011325086 127.37790055247024,223.50998419889947 125.58784530381672,215.62895514897536 137.81988950259984,211.72327757574385 137.93922651931643,208.65451470471453 134.53812154661864,195.61211338470457 133.7624309391249,195.193636349577 119.80000000004657,199.7968691502465 134.3591160220094,195.75160567089915 140.86298342514783,219.88332764653023 139.78895027609542,221.97563193447422 135.37348066293634,223.02178159245523 135.671823204495,225.0443328981637 147.66519336984493,221.76640180399409 149.45524861849844,222.60332192806527 152.19999999995343,221.20845446526073 134.3591160220094,226.0207347596297 140.32596685085446,223.57972739898833 145.09944751369767,223.3007545545115 151.66298342542723,220.65050665504532 149.7535911600571,222.32434867118718 139.13259668485261,224.27715899416944 134.23977900552563,226.36944936023792 138.41657458571717,224.0679295930313 147.84419889491983,221.97563193447422 149.09723756904714,222.46383531438187 150.88729281746782,221.06896755687194 152.08066298323683,220.9992240917636 150.17127071833238,222.1151186513598 140.26629834249616,224.13767273409758 131.55469613266177,227.20636365038808 148.4408839775715,221.20845446526073 151.782320441911,220.8597371392534 150.05193370138295,222.18486199865583 139.25193370180205,223.99818644445622 133.285082872957,226.36944936023792 140.92265193373896,222.88229506707285 143.7867403314449,223.231011325086 148.0232044197619,221.69665841257665 149.6939226516988,222.60332192806527 151.72265193331987,221.27819790842477 145.994475137908,223.37049777671928 142.83204419887625,223.50998419889947 144.68176795588806,222.60332192806527 149.037569060456,222.46383531438187 151.72265193331987,220.78999365196796 150.05193370138295,222.3940919963061" stroke="#4DD2FF" stroke-linecap="round" stroke-linejoin="round" stroke-width="0.5"><title>2024-07-21 4.9km</title><desc>1721568919550</desc></polyline><polyline fill="none" points="174.2107382551767,221.02785298245726 168.2671140935272,222.72228177986108 166.31006711395457,220.18063724139938 158.8442953019403,220.3500804612995 156.2348993285559,211.8778756262036 156.3798657716252,210.5223145483178 172.8335570464842,205.52366327535128 170.65906040277332,198.83050516364165 171.16644295305014,205.26949373446405 174.28322147624567,216.368155333912 159.13422818807885,220.5195236451691 157.90201342245564,219.6723073674366 155.79999999981374,211.115372801607 156.01744966441765,208.82785997964675 171.02147650998086,204.42226134921657 170.15167785203084,198.83050516364165 171.16644295305014,205.10004732897505 174.93557046959177,215.01260184426792 173.92080536903813,217.30009702889947 158.8442953019403,220.09591561811976 157.75704697985202,219.33342060557334 155.79999999981374,211.3695404904429 156.74228187883273,208.99730559776071 170.15167785203084,204.84587765356991 170.36912751663476,200.01663852104684 174.3557046977803,215.26676829828648 173.8483221475035,217.55426275799982 158.91677852347493,220.18063724139938 156.01744966441765,212.4709328773315 156.01744966441765,209.59036497864872 170.58657718077302,204.76115441060392 172.10872483206913,206.37089449731866 174.3557046977803,216.7917653293116 167.75973154371604,219.84175069455523 168.41208053706214,222.72228177986108 179.2845637584105,218.82509019464487 188.20000000018626,217.46954085718608 169.1369127514772,221.4514605172444 166.6724832211621,223.56949483638164 175.29798657726496,220.77368835400557" stroke="#4DD2FF" stroke-linecap="round" stroke-linejoin="round" stroke-width="0.5"><title>2024-07-14 4.2km</title><desc>1720963947536</desc></polyline><polyline fill="none" points="11.799999999813735,256.026467695483 32.28275862056762,249.06177884456702 43.82758620660752,247.64707066956908 42.244827585760504,246.88530392444227 38.799999999348074,249.71472042438108 21.11034482717514,252.65295241202693 13.010344827082008,255.80882188118994 12.824137930758297,257.11469607555773 22.879310344345868,252.32648260507267 44.1999999997206,247.5382468830794 38.986206895671785,250.15001458092593 22.320689654909074,252.43530588585418 15.896551723591983,255.59117602126207 14.220689654815942,255.37353011546656 22.134482758585364,251.89118936797604 43.17586206831038,246.88530392444227 38.52068965462968,249.93236752552912 33.213793103117496,250.04119105928112 14.220689654815942,255.48235307412688 30.97931034397334,249.06177884456702 35.355172413401306,249.38824968633708 43.17586206831038,247.21177545550745 40.66206896491349,249.27942608378362 21.482758620288223,252.21765931299888 13.382758620660752,255.80882188118994 19.993103447835892,253.41471489309333 25.672413792926818,248.08236569957808 29.117241378407925,250.25883809151128 38.05517241358757,248.8441315597156 30.141379309352487,251.5647193196928" stroke="#4DD2FF" stroke-linecap="round" stroke-linejoin="round" stroke-width="0.5"><title>2024-07-07 3.0km</title><desc>1720361789036</desc></polyline></svg>