<?xml version="1.0" encoding="utf-8" ?>
<svg baseProfile="full" height="300mm" version="1.1" viewBox="0,0,200,300" width="200mm" xmlns="http://www.w3.org/2000/svg" xmlns:ev="http://www.w3.org/2001/xml-events" xmlns:xlink="http://www.w3.org/1999/xlink"><defs /><rect fill="#222222" height="300" width="200" x="0" y="0" /><text fill="#FFFFFF" style="font-size:12px; font-family:Arial; font-weight:bold;" x="10" y="20">Runs</text><text fill="#FFFFFF" style="font-size:4px; font-family:Arial" x="10" y="280">Runner</text><text fill="#FFFFFF" style="font-size:9px; font-family:Arial" x="10" y="290">Jay</text><text fill="#FFFFFF" style="font-size:4px; font-family:Arial" x="65" y="280">SPECIAL TRACKS</text><rect fill="yellow" height="2.6" width="2.6" x="65" y="283" /><text fill="#FFFFFF" style="font-size:3px; font-family:Arial" x="70" y="285.5">Over 5.0 km</text><rect fill="red" height="2.6" width="2.6" x="65" y="287" /><text fill="#FFFFFF" style="font-size:3px; font-family:Arial" x="70" y="289.5">Over 10.0 km</text><text fill="#FFFFFF" style="font-size:4px; font-family:Arial" x="120" y="280">STATISTICS</text><text fill="#FFFFFF" style="font-size:3px; font-family:Arial" x="120" y="285">Number: 23</text><text fill="#FFFFFF" style="font-size:3px; font-family:Arial" x="120" y="290">Weekly: 1.4</text><text fill="#FFFFFF" style="font-size:3px; font-family:Arial" x="141" y="285">Total: 88.9 km</text><text fill="#FFFFFF" style="font-size:3px; font-family:Arial" x="141" y="290">Avg: 3.9 km</text><text fill="#FFFFFF" style="font-size:3px; font-family:Arial" x="167" y="285">Min: 2.1 km</text><text fill="#FFFFFF" style="font-size:3px; font-family:Arial" x="167" y="290">Max: 5.2 km</text><polyline fill="none" points="19.455223880591802,65.26967234732001 21.369402985204943,64.48463064685347 21.06716417928692,63.46407395720598 16.567164179170504,63.34631723570055 15.42537313431967,58.63601778144948 12.0,51.4526961678057 12.033582089701667,50.1965819504112 29.46268656733446,44.112218616792234 39.83955223893281,39.558694428007584 48.0,35.2406458054611 47.496268656803295,34.73032765267999 41.65298507467378,37.75297110853717 41.61940298508853,38.53806928213453 40.6119402985787,39.16614662669599 28.89179104496725,44.77954074964509 30.772388059762307,53.611632558866404 26.104477612068877,55.535038051661104 15.42537313431967,58.47900677155121 16.73507462698035,63.228560476971325 20.026119403075427,63.26781273400411" stroke="#4DD2FF" stroke-linecap="round" stroke-linejoin="round" stroke-width="0.5"><title>2025-05-18 3.3km</title><desc>1747570670414</desc></polyline><polyline fill="none" points="71.0541205414338,64.18842523865169 68.3308733087033,64.9647771785094 67.33456334576476,63.29561848047888 63.51537515374366,63.567342506023124 61.88806888065301,58.05518726113951 58.733087331056595,51.65011429286096 58.699876998900436,50.524362661119085 79.09102091030218,43.26512277123402 94.66666666662786,35.772815713862656 94.23493234929629,35.035222821490606 87.89175891771447,38.21850786861614 87.92496924975421,39.072555262740934 84.10578105784953,41.13002492467058 76.2349323494127,44.62381494202418 78.06150061509106,52.853500154655194 77.62976629764307,53.396963445906295 75.30504305055365,44.93437244714005 88.09102091018576,38.95609437130042 87.82533825328574,38.33496899381862 81.71463714644779,41.24648512710701 81.74784747848753,41.94524556645774 79.98769987700507,42.954563855484594 76.2349323494127,44.54617552476702 77.86223862238694,53.28050709408126 77.29766297677997,53.16405070523615 75.30504305055365,44.93437244714005 67.53382533835247,47.84583629400004 66.80319803208113,47.18590651030536 58.66666666662786,49.747980216139695 58.899138991488144,51.30074346580659 62.3862238622969,58.753915741021046 63.150061500724405,61.859359579510055" stroke="yellow" stroke-linecap="round" stroke-linejoin="round" stroke-width="0.5"><title>2025-05-17 5.1km</title><desc>1747484576135</desc></polyline><polyline fill="none" points="113.44875262991991,64.28592026612023 114.61737300851382,63.90649504197063 113.44875262991991,62.6923316315806 109.91042981657665,62.80615962561569 108.5795010519214,57.94946648637415 105.33333333337214,51.0816867708927 105.5281033962965,50.2469200657506 123.44694920349866,43.87227398346295 140.22963630896993,35.71407973387977 141.33333333337214,38.86354412432411 140.32702134060673,35.78997076669475 121.88878869859036,44.858833752630744 123.60925758932717,52.71327063883655 124.03125939273741,52.75121436151676 122.31079050188418,44.44144341174979 138.47670574102085,36.66271649271948 121.95371205289848,44.70705550300772 123.47941088071093,53.4721443313465 118.90231439727359,55.40726499148877 108.90411782381125,58.13918229439878 110.20258491125423,62.616446282190736 114.03306281939149,62.616446282190736 114.94198978052009,63.640897146600764 119.87616471294314,62.23701929466915" stroke="yellow" stroke-linecap="round" stroke-linejoin="round" stroke-width="0.5"><title>2025-05-11 5.2km</title><desc>1746960817262</desc></polyline><polyline fill="none" points="162.92638731608167,65.89307728561107 163.374858437106,64.60642486345023 162.8040770101361,63.79630849297973 157.70781426946633,64.03457816469017 156.19932049838826,58.31607131511555 152.0,49.309276047948515 152.12231030571274,48.30850991877378 173.81200452987105,40.68355223326944 188.0,34.10692271438893 165.98414496029727,43.92417499644216 152.12231030571274,48.2131987431203 156.19932049838826,57.93483494804241 158.07474518707022,64.36815549366293 167.2072480181232,63.081498722953256 176.38052095123567,59.888667924067704 177.72593431500718,64.36815549366293" stroke="#4DD2FF" stroke-linecap="round" stroke-linejoin="round" stroke-width="0.5"><title>2025-05-10 3.3km</title><desc>1746881233572</desc></polyline><polyline fill="none" points="21.839552238816395,104.58273412846029 20.697761194081977,103.36591647268506 19.992537313490175,103.8761953295325 16.701492537395097,103.16965518737561 15.626865671714768,99.20515503096976 12.0,90.49095653527183 30.134328358224593,84.01405500006513 48.0,75.41726587153971 29.26119402993936,84.44585194793763 30.638059701421298,93.47421866294462 26.305970149231143,95.59389035837376 15.626865671714768,98.49860600853572 16.600746268755756,103.13040291779907 20.093283582129516,103.20890745270299" stroke="#4DD2FF" stroke-linecap="round" stroke-linejoin="round" stroke-width="0.5"><title>2025-05-09 3.2km</title><desc>1746800655160</desc></polyline><polyline fill="none" points="75.95592186762951,108.0 74.94903340190649,105.30006858584238 68.37464401009493,104.6770059109549 66.47932454594411,97.68481749726925 60.260307553224266,84.46176222991198 60.08262135297991,82.2463551510009 89.69698798446916,72.0 93.25071198027581,87.78485880757216 85.0771467902232,91.3156304602162 66.59778201230802,96.50790716294432 68.31541527691297,104.6770059109549 75.65977820148692,104.6770059109549 76.90358159993775,107.16925305698533 80.22039066255093,105.85390157747315" stroke="#4DD2FF" stroke-linecap="round" stroke-linejoin="round" stroke-width="0.5"><title>2025-05-07 2.1km</title><desc>1746628465614</desc></polyline><polyline fill="none" points="116.18920916481875,105.04515085351886 115.63045085011981,104.29874956019921 111.08056171494536,104.43869989883387 109.0450849966146,97.34782694870955 106.25129342195578,91.84299182283576 105.4929785663262,88.99724506700295 122.29563932004385,83.1190871547442 131.8344419808127,79.01366062223678 127.52402069466189,81.20633635963895 140.41537324455567,75.04815557645634 141.33333333325572,76.30779045005329 140.57501847739331,74.95484914648114 125.84774575033225,82.04608163135708 125.6881005174946,83.49230585628538 127.883222468663,92.58941416593734 121.49741315585561,95.29518458471284 109.36437546205707,98.5140967691259 105.33333333325572,89.69702055942616 105.89209164842032,88.81063808177714 108.48632668145001,87.87760197275202 105.65262379916385,88.90394158419804 105.4929785663262,89.79032387468033 109.20473022921942,98.14089076156961 112.15816703625023,97.72103362620692 109.52402069466189,98.56074749783147 110.92091648187488,104.11214903977816 116.0295639319811,104.29874956019921" stroke="#4DD2FF" stroke-linecap="round" stroke-linejoin="round" stroke-width="0.5"><title>2025-05-04 3.9km</title><desc>1746361657097</desc></polyline><polyline fill="none" points="163.59851301112212,105.14767173479777 160.47583643114194,105.72123105431092 158.0223048327025,105.14767173479777 156.8178438663017,99.3598994933709 152.17843866162002,89.71346163022099 152.22304832725786,88.14915664686123 173.68029739777558,80.64042372035328 188.0,74.27876894568908 174.97397769521922,80.37970177509123 177.15985130122863,92.059909811127 170.33457249053754,94.97991863795323 156.72862453525886,98.62990538284066 152.0,88.93130975816166 152.31226765783504,88.044869471516 154.6319702602923,87.21057127718814 152.22304832725786,87.99272587581072 156.86245353147388,98.57776290498441 158.46840148698539,105.09552994539263 162.3048327139113,104.73053726556827" stroke="#4DD2FF" stroke-linecap="round" stroke-linejoin="round" stroke-width="0.5"><title>2025-05-02 3.2km</title><desc>1746193621188</desc></polyline><polyline fill="none" points="22.31460674153641,145.0589177212678 17.50112359551713,145.29531331185717 16.044943820219487,139.29082662434666 12.0,130.59126995681436 12.283146067289636,129.69293653935893 35.58202247158624,121.13503832009155 48.0,115.36663891593344 47.27191011211835,114.70468668814283 32.952808988513425,121.13503832009155 32.426966292085126,122.93173770437716 34.69213483133353,133.19169863360003 32.02247190987691,134.70466836646665 16.28764044935815,139.33810636171256 12.566292134812102,131.4896015712875 16.28764044935815,139.3853860941308 17.662921348353848,145.0589177212678 22.435955056222156,145.20075509056915" stroke="#4DD2FF" stroke-linecap="round" stroke-linejoin="round" stroke-width="0.5"><title>2025-05-01 3.2km</title><desc>1746105997674</desc></polyline><polyline fill="none" points="67.17980422463734,143.80451027367963 66.23390005156398,142.66637814525166 64.45337454928085,143.18666764031514 63.062339000520296,143.2517037653597 62.53374549199361,142.86148680897895 61.587841318920255,139.25195651623653 58.72230808867607,133.07338302468997 58.77794951060787,132.2929228155117 68.48737764044199,129.00846441774047 79.75476558471564,124.32561164908111 94.66666666662786,116.78086567862192 94.27717671310529,116.19548972629127 90.91087068535853,117.52884444201482 90.21535291092005,118.2768213878735 78.3080886141397,124.22805145889288 66.12261720770039,129.07350353797665 65.81658938690089,129.85397190894582 58.97269448742736,132.0978074540617 58.66666666662786,132.65063399029896 61.50437918596435,138.73166037185 68.90468830498867,136.81306074018357 61.53219989698846,138.86173449034686 58.69448737765197,132.84574900139705 58.77794951060787,132.130326689512 65.26017516746651,130.11412759294035 59.39000515197404,131.8376534464478 58.77794951060787,132.39048044985975 62.95105615654029,143.02407726756064" stroke="yellow" stroke-linecap="round" stroke-linejoin="round" stroke-width="0.5"><title>2025-04-20 5.2km</title><desc>1745154044961</desc></polyline><polyline fill="none" points="121.91137971030548,146.373322694737 116.16305655241013,146.79767367703607 114.40830527292565,145.87824620888568 111.38287203200161,134.98647091409657 106.30014418717474,122.89214920374798 136.19142460706644,112.0 140.36652247956954,128.1967031644308 131.71378341061063,131.87450257508317 126.32851224183105,132.65249601571122 112.77457132283598,137.39116381574422 115.49746123957448,146.23187230766052 120.03561110096052,145.31244406255428 122.57697502314113,146.0196966708172 123.7266396547202,148.0 127.41766820871271,146.44404787721578" stroke="#4DD2FF" stroke-linecap="round" stroke-linejoin="round" stroke-width="0.5"><title>2025-03-23 2.1km</title><desc>1742729899087</desc></polyline><polyline fill="none" points="165.1741156678181,147.4295943044126 166.15013721818104,148.0 168.5359676743392,146.79580956237623 168.9155316108372,145.33810211508535 167.77683980204165,144.5141789483023 161.48692314443178,144.38742143753916 160.07711423840374,137.60585557908053 154.0040912583936,123.66220834391424 186.05013216100633,112.0 153.9498678392265,123.78897023265017 160.13133765780367,136.59178306924878 161.54114656383172,144.13390633597737 168.69863793277182,144.38742143753916 169.40354238590226,146.22540272201877 173.74141594278626,144.13390633597737 173.95830962061882,145.02120872336673" stroke="#4DD2FF" stroke-linecap="round" stroke-linejoin="round" stroke-width="0.5"><title>2025-03-16 2.5km</title><desc>1742128080108</desc></polyline><polyline fill="none" points="16.994413407868706,177.1082006659417 14.44692737434525,175.8158353663457 13.139664804562926,173.89686041264213 12.0,165.90755198677653 12.636871508439071,163.94936193039757 14.882681564311497,162.4219665180426 21.117318435688503,162.14781795852468 29.16201117320452,159.95462219632464 19.709497206727974,162.22614613905898 15.150837988825515,162.38280245053465 13.072625698405318,163.44023082434433 12.033519553020597,165.86838828693726 12.972067039227113,172.7611358712311 14.111731843673624,175.54169669435942 21.217877094983123,178.8705097360944 24.770949720637873,179.81040448736167 30.268156424630433,180.04537780364626 39.58659217879176,177.89145017400733 43.50837988825515,175.65918472138583 44.81564245803747,174.28848875960102 48.0,167.66991420913837 44.212290502735414,174.79760499313124 41.76536312839016,176.55992502748268 38.0446927373996,178.16558711155085 29.56424581015017,179.88872894263477 24.368715083808638,179.53626876394264 17.664804469328374,177.06903814719408 21.217877094983123,178.909672064794 26.379888268071227,179.967053381406 30.63687150843907,180.04537780364626 33.18435754196253,179.2621328381647 29.56424581015017,179.84956671713735 24.502793296123855,179.45794423448388 20.446927374228835,178.4005614684138 16.391061452566646,176.52076245093485 18.435754189966246,176.87322549146484" stroke="#4DD2FF" stroke-linecap="round" stroke-linejoin="round" stroke-width="0.5"><title>2025-03-08 4.9km</title><desc>1741407347536</desc></polyline><polyline fill="none" points="69.85310734482482,185.54813429020578 64.40225988719612,185.12021856565843 63.222598870052025,179.9851981435495 58.78870056499727,170.33310308106593 59.11412429390475,169.38214655502816 83.52090395474806,160.5857034456276 94.30056497175246,155.5455018171342 94.66666666674428,155.0700081839168 94.13785310741514,154.45186570979422 78.84293785295449,161.48912984810886 58.66666666674428,168.28854406622122 64.64632768370211,184.93003366864286 73.14802259881981,184.5496636336029 79.37175141251646,182.69535511004506" stroke="#4DD2FF" stroke-linecap="round" stroke-linejoin="round" stroke-width="0.5"><title>2025-03-02 3.1km</title><desc>1740908689410</desc></polyline><polyline fill="none" points="123.0986749434378,188.0 122.27737057954073,185.73720165336272 115.06162509717979,185.6686318833963 113.41901636961848,177.71448941912968 106.49659387441352,163.9316497533 106.78991686156951,163.10878439730732 136.47420315467753,152.82287943764823 140.17007279209793,167.90881760395132 131.95702915359288,171.6802473681746 113.12569338269532,176.75450011721114 106.73125226399861,163.10878439730732 137.41283671348356,152.0 136.5915323495865,153.1657455621753 139.93541440204717,167.90881760395132 130.54907881561667,171.81738985603442" stroke="#4DD2FF" stroke-linecap="round" stroke-linejoin="round" stroke-width="0.5"><title>2024-12-01 3.0km</title><desc>1733059607886</desc></polyline><polyline fill="none" points="169.2698412698228,187.8114124177955 160.8253968253266,187.88562474312494 158.92063492070884,179.64800877787638 152.0,163.61777655623155 183.30158730153926,152.11437525687506 185.58730158722028,157.08683634916088 188.0,168.8127992778318 180.57142857136205,172.5977202161448 158.7301587301772,178.38638339028694 152.12698412663303,163.9888508815202 184.25396825396456,152.11437525687506 187.93650793633424,169.03544225048972 177.71428571431898,174.0819973713369 159.23809523810633,180.01907463744283 161.20634920615703,187.8114124177955 167.68253968236968,187.44035067345249" stroke="#4DD2FF" stroke-linecap="round" stroke-linejoin="round" stroke-width="0.5"><title>2024-11-03 3.4km</title><desc>1730641178795</desc></polyline><polyline fill="none" points="34.77914555859752,228.0 31.12103414349258,226.8276174745988 29.940998202888295,227.3103634751751 30.0,226.20694352081046 28.642958668526262,225.51730510225752 21.975755605846643,225.44834122044267 18.67165497271344,214.00023586145835 13.302491443930194,202.8277949320036 43.09839893784374,192.06896741513629 47.16952293203212,207.79334783629747 38.614262364571914,211.4485223714728 19.43867833400145,216.4140097143245 12.889478865079582,203.10365997289773 14.836538166506216,201.44846797868377 43.21640253160149,192.0 47.11052113515325,207.7243820822914 39.32228392898105,211.03473005490378 19.91069270996377,216.68986901495373 18.376645987620577,215.10367644421058 12.830477067967877,202.8277949320036 42.921393546741456,192.13793482276378 47.16952293203212,207.9312793224235 38.7912677556742,211.4485223714728 20.44170888327062,216.68986901495373 19.969694507308304,219.9312070684391 21.149730447446927,225.37937733117724 29.3509802329354,225.03455777600175" stroke="yellow" stroke-linecap="round" stroke-linejoin="round" stroke-width="0.5"><title>2024-08-18 5.1km</title><desc>1723984957861</desc></polyline><polyline fill="none" points="74.73818773613311,228.0 76.89354654098861,226.74036635051016 75.75914716999978,223.95590405032272 71.1648297177162,224.95035628974438 68.49899119604379,224.3536851350218 66.74067217111588,217.25988461915404 60.67163553624414,202.74054761062143 90.22273915004916,192.0 89.7689794015605,194.18790423503378 92.66169779747725,207.0499749230803 84.43730235775001,211.29307444533333 66.96755204512738,216.00022941682255 63.73451383784413,210.6963903082069 60.55819559912197,202.74054761062143 88.91817987314425,192.4641015357338 91.0168187096715,198.03329319611657 92.7184177658055,207.11627357348334 85.68514166609384,210.89528508350486 66.79739213944413,215.8676339853555 60.44475566199981,203.07204306969652 87.50018065958284,192.79560242249863 89.42865958996117,193.06080300576286 92.88857767148875,207.58036393183284 83.81338270381093,211.49196903139818 67.53475173073821,215.8013362591737 66.91083207679912,216.92839665332576 68.61243113316596,224.02220091520576 73.6605083339382,224.28738830506336" stroke="yellow" stroke-linecap="round" stroke-linejoin="round" stroke-width="0.5"><title>2024-08-11 5.0km</title><desc>1723380974002</desc></polyline><polyline fill="none" points="119.13248467701487,226.1593020678265 112.81848184787668,226.6949534061714 111.08722300780937,220.14806879602838 121.52569542638958,216.27941940934397 119.23432343220338,202.2330229608924 141.33333333325572,193.30504659377038 131.9641678452026,197.47145317017566 131.8114097120706,199.85224309546174 134.30645921709947,210.98230255226372 126.26119754789397,214.79147026548162 110.83262611948885,218.7196474999655 105.58793022134341,207.94685359479627 106.19896275317296,206.2208066987805 119.8962753417436,201.87590662232833 139.1947194719687,194.0192899093381 132.26968411100097,196.8762541169417 131.35313531337306,198.00713178049773 134.2555398393888,210.86326564627234 127.02498821285553,214.37484380108071 110.98538425262086,218.60061222856166 105.33333333325572,207.47070325509412 108.13389910385013,205.68513589724898 130.84394153696485,197.5904929053504 136.0886374351103,218.24350626330124" stroke="yellow" stroke-linecap="round" stroke-linejoin="round" stroke-width="0.5"><title>2024-08-04 5.0km</title><desc>1722777733849</desc></polyline><polyline fill="none" points="157.42535211285576,227.98751201533014 160.77183098578826,226.38735403097235 160.1633802819997,225.14278355496936 153.52112676063552,224.9649875475443 152.0,218.86062378197676 162.2929577466566,214.77125557069667 162.647887323983,212.81546023843111 160.21408450696617,200.78420566068962 181.8647887322586,192.01248798466986 184.95774647896178,200.0137224397622 185.566197183216,206.17755858134478 187.84788732393645,214.2971239949111 186.93521126755513,215.77878383890493 179.7352112676017,218.5642937538214 178.11267605633475,219.98667646216927 163.56056338036433,224.31306837085867 153.72394366189837,224.9649875475443 152.25352112669498,218.4457616986474 162.74929577484727,215.00832120823907 159.6563380281441,201.0805450793705 181.61126760579646,192.3088320363313 185.10985915502533,200.1915263539413 188.0,215.00832120823907 179.2281690139789,218.8013577889651 178.46760563389398,219.92741058784304 172.73802816914394,221.29052411048906 172.89014084544033,223.42408645502292 173.75211267615668,223.3648209440289 172.9408450704068,224.2538029536372 162.5464788733516,225.9724975124118 158.18591549317352,227.51339160674252 165.74084507045336,224.49086458515376 170.8112676057499,224.07600666425424 174.3605633804109,222.7128999082488 166.7549295774661,225.3798448109883" stroke="yellow" stroke-linecap="round" stroke-linejoin="round" stroke-width="0.5"><title>2024-07-28 5.0km</title><desc>1722171325984</desc></polyline><polyline fill="none" points="28.839779005385935,266.08002219413174 28.574585635447875,263.3677903612843 20.419889502692968,263.6777602210059 18.430939226411283,254.92106127669103 32.02209944743663,250.58141952863662 32.154696132522076,247.1716830052901 28.375690607354045,232.6801259830827 27.51381215453148,232.2151514995494 12.0,237.3298546113656 28.176795579958707,232.83511741214897 35.403314916882664,259.64814182947157 34.209944751346484,261.9729243716574 29.303867403184995,263.135312880564 29.63535911613144,265.3825921090902 42.961325966520235,261.7404464489082 44.95027624280192,262.67035769787617 48.0,261.1205049614073 28.176795579958707,266.4674830662552 34.80662983423099,263.75525266560726 40.110497237415984,263.44528283836553 47.403314917115495,260.5005629500956 45.281767955515534,262.36038741248194 33.4806629831437,264.5301766602206 28.04419889487326,266.85494373360416 32.68508287309669,264.2976995478384 43.1602209941484,261.9729243716574 44.55248618777841,262.5153725715354 46.54143646382727,260.9655195076484 47.86740331444889,260.8880267686327 45.745856353547424,262.1279096126673 34.740331491688266,264.37519192678155 25.060773480683565,267.7848485004506 43.82320441957563,261.1205049614073 47.53591160196811,260.733041265863 45.61325966822915,262.205402220774 33.61325966846198,264.2202071605134 26.983425414422527,266.85494373360416 35.46961325965822,262.98032785236137 38.65193370147608,263.3677903612843 43.35911602177657,261.66295379179064 45.21546961297281,262.67035769787617 47.469613259192556,261.1979976760922 41.10497237555683,263.52277530753054 37.59116022102535,263.6777602210059 39.646408839849755,262.67035769787617 44.48618784500286,262.5153725715354 47.469613259192556,260.6555485021672 45.61325966822915,262.4378799959668" stroke="#4DD2FF" stroke-linecap="round" stroke-linejoin="round" stroke-width="0.5"><title>2024-07-21 4.9km</title><desc>1721568919550</desc></polyline><polyline fill="none" points="79.12304250570014,260.91983664711006 72.51901565957814,262.8025353109115 70.3445190154016,259.97848582372535 62.04921700200066,260.1667560680653 59.14988814294338,250.75319514021976 59.310961968265474,249.24701616476523 77.59284116281196,243.69295919477008 75.17673378065228,236.2561168484972 75.74049216974527,243.41054859379074 79.20357941789553,255.7423948154319 62.371364653110504,260.3550262723584 61.00223713601008,259.4136748526944 58.666666666511446,249.905969779531 58.908277404960245,247.3642888662289 75.57941834442317,242.46917927684262 74.61297539109364,236.2561168484972 75.74049216974527,243.22227480990114 79.92841163277626,254.23622427135706 78.8008948545903,256.77788558765315 62.04921700200066,259.88435068679973 60.84116331068799,259.0371340061538 58.666666666511446,250.18837832269492 59.713646532036364,247.55256177525735 74.61297539109364,242.93986405950272 74.85458612954244,237.57404280110495 79.28411633102223,254.5186314425082 78.72035794146359,257.06029195326846 62.12975391512737,259.97848582372535 58.908277404960245,251.41214764141478 58.908277404960245,248.21151664294302 75.09619686752558,242.84572712285444 76.78747203573585,244.63432721915888 79.28411633102223,256.2130725880852 71.95525727048516,259.6019452161272 72.6800894853659,262.8025353109115 84.76062639802694,258.4723224384361 94.66666666651145,256.96615650795866 73.48545861290768,261.3905116858077 70.74720357917249,263.7438831515028 80.33109619654715,260.6374315043795" stroke="#4DD2FF" stroke-linecap="round" stroke-linejoin="round" stroke-width="0.5"><title>2024-07-14 4.2km</title><desc>1720963947536</desc></polyline><polyline fill="none" points="105.33333333348855,254.47385299496818 128.09195402357727,246.73530982725788 140.91954022971913,245.16341185511556 139.16091954009607,244.3170043604914 135.33333333348855,247.4608004714828 115.67816091934219,250.7255026800558 106.67816091934219,254.2320243123686 106.47126436792314,255.6829956395086 117.64367816084996,250.36275845009368 141.33333333348855,245.04249653674196 135.5402298849076,247.94446064555086 117.02298850566149,250.4836732064141 109.8850574712269,253.99019557912834 108.02298850566149,253.7483667950146 116.81609195424244,249.8790992978029 140.19540229905397,244.3170043604914 135.0229885056615,247.70263058389537 129.12643678160384,247.8235456213588 108.02298850566149,253.8692811934743 126.6436781603843,246.73530982725788 131.50574712641537,247.09805520693772 140.19540229905397,244.67975050618406 137.40229885047302,246.97714009310585 116.09195402264595,250.241843681084 107.09195402311161,254.2320243123686 114.43678160943091,251.57190543680917 120.74712643679231,245.64707299962174 124.57471264339983,248.06537565717008 134.50574712688103,246.49347951076925 125.71264367783442,249.51635479961988" stroke="#4DD2FF" stroke-linecap="round" stroke-linejoin="round" stroke-width="0.5"><title>2024-07-07 3.0km</title><desc>1720361789036</desc></polyline></svg>