<?xml version="1.0" encoding="utf-8" ?>
<svg baseProfile="full" height="300mm" version="1.1" viewBox="0,0,200,300" width="200mm" xmlns="http://www.w3.org/2000/svg" xmlns:ev="http://www.w3.org/2001/xml-events" xmlns:xlink="http://www.w3.org/1999/xlink"><defs /><rect fill="#222222" height="300" width="200" x="0" y="0" /><text fill="#FFFFFF" style="font-size:12px; font-family:Arial; font-weight:bold;" x="10" y="20">Runs</text><text fill="#FFFFFF" style="font-size:4px; font-family:Arial" x="10" y="280">Runner</text><text fill="#FFFFFF" style="font-size:9px; font-family:Arial" x="10" y="290">Jay</text><text fill="#FFFFFF" style="font-size:4px; font-family:Arial" x="65" y="280">SPECIAL TRACKS</text><rect fill="yellow" height="2.6" width="2.6" x="65" y="283" /><text fill="#FFFFFF" style="font-size:3px; font-family:Arial" x="70" y="285.5">Over 5.0 km</text><rect fill="red" height="2.6" width="2.6" x="65" y="287" /><text fill="#FFFFFF" style="font-size:3px; font-family:Arial" x="70" y="289.5">Over 10.0 km</text><text fill="#FFFFFF" style="font-size:4px; font-family:Arial" x="120" y="280">STATISTICS</text><text fill="#FFFFFF" style="font-size:3px; font-family:Arial" x="120" y="285">Number: 31</text><text fill="#FFFFFF" style="font-size:3px; font-family:Arial" x="120" y="290">Weekly: 1.3</text><text fill="#FFFFFF" style="font-size:3px; font-family:Arial" x="141" y="285">Total: 125.0 km</text><text fill="#FFFFFF" style="font-size:3px; font-family:Arial" x="141" y="290">Avg: 4.0 km</text><text fill="#FFFFFF" style="font-size:3px; font-family:Arial" x="167" y="285">Min: 2.1 km</text><text fill="#FFFFFF" style="font-size:3px; font-family:Arial" x="167" y="290">Max: 5.2 km</text><polyline fill="none" points="20.46194926579483,58.94093430339126 16.32843791740015,58.903481334331445 15.142857143073343,54.40909633375122 11.714285714318976,47.330324441572884 11.93858477997128,46.468876946979435 28.24833110824693,40.77578001501388 40.45660881185904,35.34477998231887 42.571428571478464,44.221612762106815 33.855807743850164,48.30413213252905 20.87850467301905,52.91095534138731 15.399198932107538,54.259282519313274 12.419225634308532,48.86594304544269 11.874499332509004,46.468876946979435 25.813084112247452,41.82451526573277 40.136181575478986,35.457146343105705 41.03337783727329,37.51718997844728 42.47530040075071,44.521248809673125 28.66488651558757,49.989562200702494" stroke="#4DD2FF" stroke-linecap="round" stroke-linejoin="round" stroke-width="0.5"><title>2025-07-20 4.4km</title><desc>1753011103091</desc></polyline><polyline fill="none" points="58.999401645734906,58.92646467589657 59.0963350784732,59.757329732732615 58.96709050121717,58.88869803654961 57.09304412873462,59.60626350235543 56.446821241639555,58.246664557023905 52.698728496790864,58.28443126415368 51.406282722600736,53.450260323967086 48.14285714284051,46.5010250939813 48.27210172044579,45.6323611936823 59.0963350784732,42.11991607712116 76.96439790574368,34.52838455300662 79.0,43.81949060354964 61.584293193765916,50.80654544700519 51.406282722600736,53.374725884437794 52.92490650725085,58.28443126415368 55.50979805551469,57.717930237646215 56.93148840696085,58.17113113071537 60.51802543015219,57.30249558124342" stroke="#4DD2FF" stroke-linecap="round" stroke-linejoin="round" stroke-width="0.5"><title>2025-07-13 3.1km</title><desc>1752403896095</desc></polyline><polyline fill="none" points="91.9874608151149,59.93825576058589 93.47066726384219,59.33525367072434 93.47066726384219,58.76993828584091 92.82579489483032,57.978495242598 89.15002239157911,58.20462200554903 88.02149574586656,53.90818900585873 84.57142857147846,46.52121835152502 84.70040304539725,45.654369932221016 102.95029108831659,39.171784553298494 113.65517241379712,34.42283912093262 114.52575011178851,36.75962969358079 114.2355575459078,37.66418967710342 115.42857142863795,43.65684164382401 105.01388266915455,48.21722003709874 103.07926556211896,48.518730603915174 97.88804299163166,50.81774029805092 87.95700850873254,53.493618172680726 85.02283922990318,47.84033147041919 84.73264666378964,45.654369932221016 100.75772503355984,40.07633842129144 113.10703090007883,34.34745852512424 113.88087774300948,34.46052941295784 115.42857142863795,43.58146299884538 97.85579937323928,50.93080596625805 87.98925212724134,53.493618172680726 89.11777877318673,58.01618304644944 90.95566502481233,58.01618304644944" stroke="yellow" stroke-linecap="round" stroke-linejoin="round" stroke-width="0.5"><title>2025-07-06 5.2km</title><desc>1751801165138</desc></polyline><polyline fill="none" points="127.54545454552863,58.97722193560912 125.38513210939709,58.97722193560912 124.19211822655052,54.19084001920419 121.0,47.67070465889992 121.19346171081997,46.50234411627753 133.3170622481266,42.431896859023254 149.4388714734232,35.30850241432199 150.30944917164743,35.38388299429789 151.8571428571595,44.54250493727159 143.53828929702286,48.31141688054777 131.5114196150098,52.080289013363654 128.80295566504356,53.43707323592389 124.45006717427168,54.416969743761 121.25794894760475,48.047594340343494 121.09673085540999,46.5400332256977 138.95969547715504,40.28358652876341 150.34169279015623,35.15774120669812 151.27675772516523,38.66292280724156 150.92207792203408,39.303651204914786 151.82489923888352,44.5801942536782 145.66636811487842,47.444570658874 128.60949395434,53.47476161297527 124.32109270046931,54.3039048993669 123.67622033145744,52.871747103490634 125.48186296457425,58.97722193560912 126.15897895221133,59.12797307901201" stroke="yellow" stroke-linecap="round" stroke-linejoin="round" stroke-width="0.5"><title>2025-06-29 5.1km</title><desc>1751195618015</desc></polyline><polyline fill="none" points="164.1324621324893,59.81551000918262 166.60231660213321,59.028183073038235 165.76833976828493,57.82844343155739 161.88713988708332,58.20336250512628 160.92485892481636,54.079230916744564 157.52479952469002,46.955618038831744 157.42857142852154,45.86831718159374 167.62874962866772,42.38143334412598 185.78378378367051,34.47020427652751 186.93852093839087,35.70751713812933 188.2857142855646,43.73119889316149 176.7062667061109,48.45533789382898 176.0647460645996,49.955051412340254 176.77041877037846,55.12901441246504 173.78734778717626,56.21628690310172 174.17226017219946,57.34104804394883 173.46658746653702,57.790951502393 170.1306801305618,58.61577302857768 168.8476388475392,58.31583814989426 169.26462726469617,58.57828118267935 169.0400950399926,57.790951502393 168.78348678338807,58.39082189335022 169.2004752003122,58.09088682461879" stroke="#4DD2FF" stroke-linecap="round" stroke-linejoin="round" stroke-width="0.5"><title>2025-06-14 2.8km</title><desc>1749897609635</desc></polyline><polyline fill="none" points="19.887084760819562,93.84003207625938 16.28333085065242,93.72720453079091 14.99627588270232,88.98841534060193 11.714285714318976,82.10577586776344 12.06822583056055,81.16551424461068 29.379115149728023,75.07255874871043 40.28690600336995,70.03262787632411 41.15566810686141,70.93530730734346 41.76701921655331,73.19199587163166 42.571428571478464,79.32259426050587 34.72039326687809,82.85798337840242 30.473111872561276,84.06151209029485 28.31729480123613,75.52389236117597 42.02443021023646,69.01711078087101 28.124236556119286,75.90000326788868 29.958289885427803,84.1743426984176 29.08952778193634,84.81371546944138 25.003128258744255,86.43094735351042 15.15715775359422,89.06363470919314 11.746462088427506,82.25621749696438 11.778638462652452,81.46639823412988 27.77029643987771,75.74955895286985 30.987933859578334,88.61231825928553" stroke="yellow" stroke-linecap="round" stroke-linejoin="round" stroke-width="0.5"><title>2025-06-03 5.1km</title><desc>1748956863854</desc></polyline><polyline fill="none" points="55.54741896758787,92.96314516157145 52.176470588194206,93.1315262100834 50.82232893165201,88.48417663000873 48.14285714284051,82.79276494128862 48.20048019196838,81.98450888891239 63.98919567815028,76.39401509193704 79.0,69.1531695802114 78.798319327645,68.54695179720875 73.352941176272,71.37595825479366 73.52581032412127,71.88113533746218 72.45978391345125,72.55470353586134 63.24009603844024,76.89918422314804 65.0552220888203,84.37559377512662 71.39375750289764,81.91715412540361 75.62905162048992,79.76179417929961 73.72749099635985,71.98217065792414 62.894357742974535,77.1349295436521 64.50780312123243,84.57765646485495 61.62665066018235,86.0257686607365 54.625450180028565,88.34946983485133 51.13925570237916,88.9893266047875 48.54621848743409,83.80308212531963 48.25810324132908,82.01818626528257 48.71908763516694,81.81612195330672 48.14285714284051,82.5907011202653 51.22569027612917,89.0230032412801 52.147659063572064,92.89579271728871 55.48979591834359,92.7947640241764 55.97959183680359,93.03049759168061 56.382953181280755,94.31019105989253 56.901560624246486,94.2091628148919" stroke="yellow" stroke-linecap="round" stroke-linejoin="round" stroke-width="0.5"><title>2025-05-25 5.1km</title><desc>1748170625707</desc></polyline><polyline fill="none" points="91.28199681371916,94.38441190044978 92.57249070634134,93.88161803921685 92.19968135969248,93.01010679284809 90.73712161462754,93.31178403357626 88.58629846002441,92.90954764888738 87.43919277761597,88.71955499408068 84.57142857147846,81.88136816810584 95.15347849193495,78.39517699848511 103.46999468945432,75.00951237705885 115.42857142863795,69.00908732399694 115.28518321842421,68.47273095670971 104.44503451953642,73.83625383282197 104.61710037186276,74.67429609279498 99.71322357957251,76.75263134695706 101.26181625085883,83.92613555386197 100.28677642066032,84.9987951432995 96.61603823688347,86.47369615884963 87.86935740849003,88.88715576234972 84.65746149769984,82.65234758215956 84.7721720659174,81.81432639138075 99.77057886356488,76.65206705126911 110.20924057357479,71.89198726564064 112.07328730775043,80.17179843777558 97.04620286787394,86.37313494377304 92.05629314936232,87.71394852540107" stroke="yellow" stroke-linecap="round" stroke-linejoin="round" stroke-width="0.5"><title>2025-05-24 5.2km</title><desc>1748085426224</desc></polyline><polyline fill="none" points="127.39019189763349,94.51686201200937 129.03091684437823,93.84396912588272 128.77185501076747,92.96920624902123 124.91471215349156,92.86827191631892 123.93603411503136,88.83087238410371 121.0,82.67373957240488 121.02878464828245,81.5970702432096 135.9680170576321,76.38190167155699 144.86247334757354,72.47888093828806 151.8571428571595,68.77769640469342 151.42537313431967,68.34028084515012 146.41684434970375,70.93111809302354 146.3880597014213,71.60405938469921 145.5245202559745,72.1424113943358 135.4786780384602,76.95389207114931 137.0906183369225,84.52425647902419 133.0895522388164,86.17288975857082 123.93603411503136,88.69629151845584 125.05863539455459,92.7673375516897 127.8795309169218,92.80098234344041" stroke="#4DD2FF" stroke-linecap="round" stroke-linejoin="round" stroke-width="0.5"><title>2025-05-18 3.3km</title><desc>1747570670414</desc></polyline><polyline fill="none" points="168.04638903553132,93.59007877597469 165.71217712177895,94.25552329586935 164.85819715354592,92.82481584040215 161.5846072747372,93.05772214801982 160.189773326274,88.33301765238866 157.48550342663657,82.84295510814991 157.45703742757905,81.87802513808128 174.93516078032553,75.65581951817148 188.28571428568102,69.23384204044123 187.9156562994467,68.60161956129014 182.47865050088149,71.3301496016793 182.5071164998226,72.06219022520236 179.23352662101388,73.82573564970517 172.48708487092517,76.82041280745761 174.05271481291857,83.87442870397354 173.68265682656784,84.34025438220124 171.69003690045793,77.08660495470394 182.6494464945281,71.96236660395516 182.42171850288287,71.42997342327726 177.18397469690535,73.92555868034833 177.21244069584645,74.52449619982508 175.70374275173526,75.38962616183562 172.48708487092517,76.75386473548133 173.88191881927196,84.24043465204886 173.39799683727324,84.14061489020241 171.69003690045793,77.08660495470394 165.02899314719252,79.5821453948447 164.40274117037188,79.01649129451835 157.42857142852154,81.21255447095609 157.62783342134207,82.54349439925863 160.61676331050694,88.93192777800141 161.27148128626868,91.59373678240809" stroke="yellow" stroke-linecap="round" stroke-linejoin="round" stroke-width="0.5"><title>2025-05-17 5.1km</title><desc>1747484576135</desc></polyline><polyline fill="none" points="18.670359397190623,127.95936022809474 19.672034007380717,127.63413860742003 18.670359397190623,126.59342711279169 15.637511271401308,126.69099396481761 14.496715187444352,122.52811413118616 11.714285714318976,116.64144580363063 11.881231482606381,115.92593148493324 27.240242174477316,110.46194912868668 41.6254025506787,103.469211200485 42.571428571478464,106.168752106576 41.7088754348224,103.5342606571503 25.904676027363166,111.30757178796921 27.379363648127764,118.03994626185158 27.741079479572363,118.07246945271618 26.266391858807765,110.9498086386593 40.122890635277145,104.28232842232683 25.960324616753496,111.1774761454435 27.26806646923069,118.69040942686843 23.34484091203194,120.3490842784231 14.774958134745248,122.69072768092155 15.887929923948832,126.52838252761285 19.171196702402085,126.52838252761285 19.950276954798028,127.40648326851078 24.17956975393463,126.2031593954307" stroke="yellow" stroke-linecap="round" stroke-linejoin="round" stroke-width="0.5"><title>2025-05-11 5.2km</title><desc>1746960817262</desc></polyline><polyline fill="none" points="57.50833198521286,129.33692338765832 57.89273580349982,128.2340784543776 57.40349458041601,127.53969299397431 53.03526937402785,127.743924141163 51.74227471300401,122.84234684152761 48.14285714295693,115.12223661251483 48.24769454798661,114.26443707323051 66.83886102586985,107.72875905709225 79.00000000023283,102.09164804089232 60.129267109092325,110.50643571122782 48.24769454798661,114.18274177980493 51.74227471300401,122.51557281261194 53.34978158888407,128.02984756600927 61.177641158457845,126.92699890540098 69.0404465298634,124.19028679202893 70.19365798449144,128.02984756600927" stroke="#4DD2FF" stroke-linecap="round" stroke-linejoin="round" stroke-width="0.5"><title>2025-05-10 3.3km</title><desc>1746881233572</desc></polyline><polyline fill="none" points="93.00533049041405,128.21377211011713 92.02665245207027,127.17078554801992 91.4221748401178,127.60816742532188 88.6012793177506,127.0025615892082 87.68017057573888,123.60441859796993 84.57142857147846,116.13510560165741 100.11513859278057,110.5834757143457 115.42857142863795,103.21479931846261 99.36673773999792,110.95358738396317 100.54690831550397,118.69218742538942 96.8336886994075,120.5090488786227 87.68017057573888,122.99880515015684 88.51492537325248,126.96891678668908 91.50852878473233,127.03620638803113" stroke="#4DD2FF" stroke-linecap="round" stroke-linejoin="round" stroke-width="0.5"><title>2025-05-09 3.2km</title><desc>1746800655160</desc></polyline><polyline fill="none" points="135.81936160079204,131.1428571428405 134.95631434442475,128.8286302164197 129.32112343702465,128.29457649507094 127.69656389625743,122.30127214046661 122.36597790243104,110.96722476847935 122.21367544541135,109.06830441515194 147.59741827240214,100.28571428568102 150.64346741163172,113.81559326360002 143.6375543915201,116.84196896589128 127.79809886752628,121.29249185393564 129.27035595150664,128.29457649507094 135.5655241725035,128.29457649507094 136.63164137117565,130.43078833451727 139.4746205676347,129.30334420927102" stroke="#4DD2FF" stroke-linecap="round" stroke-linejoin="round" stroke-width="0.5"><title>2025-05-07 2.1km</title><desc>1746628465614</desc></polyline><polyline fill="none" points="166.73360785550904,128.61012930300785 166.2546721571125,127.97035676587257 162.35476718412247,128.09031419898383 160.6100728540914,122.01242309887311 158.21539436164312,117.29399299097713 157.56541019957513,114.85478148600669 171.9676908456022,109.81636041833553 180.14380741200875,106.29742339046788 176.44916059530806,108.17685973682092 187.49889135244302,102.89841906551737 188.28571428568102,103.97810610002489 187.6357301233802,102.81844212554279 175.01235350011848,108.89664139828528 174.8755147291813,110.13626216250123 176.75704783014953,117.93378357077017 171.2834969906835,120.25301535832114 160.88375039596576,123.01208294494427 157.42857142852154,115.45458905093255 157.90750712703448,114.69483264151495 160.13113715546206,113.89508740519523 157.7022489705123,114.77480707215727 157.56541019957513,115.53456332112546 160.74691162491217,122.6921920813329 163.27842888818122,122.33231453673216 161.02058916678652,123.05206928384723 162.21792841295246,127.81041346266284 166.59676908445545,127.97035676587257" stroke="#4DD2FF" stroke-linecap="round" stroke-linejoin="round" stroke-width="0.5"><title>2025-05-04 3.9km</title><desc>1746361657097</desc></polyline><polyline fill="none" points="21.655868295347318,162.98371862983913 18.97928836965002,163.47534090370755 16.876261285040528,162.98371862983913 15.843866171082482,158.02277099434286 11.867233138531446,149.7543956830632 11.905469994759187,148.41356284017093 30.297397769521922,141.9775060460379 42.57142857159488,136.52465909632156 31.40626659570262,141.7540300929395 33.27987254387699,151.76563698097016 27.429633563384414,154.26850168968667 15.767392458859831,157.39706175672472 11.714285714318976,149.0839797927183 11.981943706749007,148.32417383274878 13.97026022314094,147.60906109475764 11.905469994759187,148.279479322111 15.882103026844561,157.35236820427235 17.25862984592095,162.93902566746692 20.54699946893379,162.6261747990793" stroke="#4DD2FF" stroke-linecap="round" stroke-linejoin="round" stroke-width="0.5"><title>2025-05-02 3.2km</title><desc>1746193621188</desc></polyline><polyline fill="none" points="56.98394863551948,162.90764376104926 52.85810593899805,163.11026855302043 51.609951845835894,157.96356567798648 48.14285714284051,150.5068028201058 48.385553771979176,149.736802747997 68.35601926140953,142.4014614172047 79.0,137.4571190707793 78.37592295336071,136.88973144695046 66.10240770445671,142.4014614172047 65.65168539318256,143.94148946087807 67.59325842687394,152.7357416859304 65.30497592280153,154.03257288550958 51.817977528087795,158.0040911671531 48.628250401234254,151.27680134677212 51.817977528087795,158.04461665209965 52.99678972712718,162.90764376104926 57.08796147664543,163.029218649026" stroke="#4DD2FF" stroke-linecap="round" stroke-linejoin="round" stroke-width="0.5"><title>2025-05-01 3.2km</title><desc>1746105997674</desc></polyline><polyline fill="none" points="91.86840362125076,161.83243737745215 91.05762861575931,160.85689555309364 89.53146389953326,161.30285797742545 88.33914771489799,161.35860322747612 87.88606756471563,161.02413155057002 87.07529255922418,157.9302484424843 84.61912121903151,152.63432830691454 84.66681386635173,151.9653624133207 92.98918083473109,149.15011235806742 102.64694192982279,145.13623855638434 115.42857142863795,138.6693134388479 115.09472289704718,138.16756262254785 112.20931773039047,139.31043809317634 111.61315963801462,139.95156118960585 101.40693309798371,145.0526155362022 90.96224332100246,149.2058601754252 90.6999337603338,149.87483306482318 84.83373813214712,151.79812067491002 84.57142857147846,152.27197199169314 87.00375358818565,157.48428031874937 93.3468756901566,155.83976634874125 87.02759991178755,157.5957724203181 84.5952748953132,152.43921342978138 84.66681386635173,151.82599430531263 90.22300728654955,150.09782365110004 85.19143298757263,151.57513152554748 84.66681386635173,152.0489832427411 88.24376242002472,161.16349480079953" stroke="yellow" stroke-linecap="round" stroke-linejoin="round" stroke-width="0.5"><title>2025-04-20 5.2km</title><desc>1745154044961</desc></polyline><polyline fill="none" points="135.20975403720513,164.0342765955138 130.28261990193278,164.39800600893795 128.7785473766271,163.6099253219436 126.18531888443977,154.2741179263685 121.82869501737878,143.90755646041362 147.4497925201431,134.57142857142026 151.02844783943146,148.45431699813344 143.6118143517524,151.60671649297 138.9958676355891,152.27356801350834 127.37820399086922,156.3352832706878 129.7121096337214,163.91303340659942 133.60195237211883,163.1249520536512 135.7802643054165,163.7311685750028 136.7656911322847,165.42857142857974 139.92942989291623,164.09489818051225" stroke="#4DD2FF" stroke-linecap="round" stroke-linejoin="round" stroke-width="0.5"><title>2025-03-23 2.1km</title><desc>1742729899087</desc></polyline><polyline fill="none" points="168.72067057224922,164.93965226091677 169.5572604725603,165.42857142857974 171.60225800634362,164.39640819630586 171.92759852320887,163.14694467006484 170.95157697284594,162.44072481279727 165.5602198378183,162.33207551785745 164.35181220411323,156.51930478209397 159.14636393543333,144.5676071519265 186.61439899494871,134.57142857142026 159.09988671913743,144.6762601993978 164.39828942064196,155.65009977365844 165.60669705434702,162.11477685940918 171.74168965639547,162.33207551785745 172.3458934733644,163.90748804743635 176.06407080800273,162.11477685940918 176.2499796745833,162.87532176286913" stroke="#4DD2FF" stroke-linecap="round" stroke-linejoin="round" stroke-width="0.5"><title>2025-03-16 2.5km</title><desc>1742128080108</desc></polyline><polyline fill="none" points="15.995211492525414,190.37845771366847 13.811652035219595,189.2707160283171 12.69114126113709,187.62588035370572 11.714285714318976,180.77790170293883 12.260175578761846,179.0994530832104 14.185155626619235,177.79025701546925 19.529130087816156,177.55527253588662 26.424581005587243,175.67539045398007 18.322426177212037,177.62241097635706 14.415003990521654,177.75668781474815 12.63367917004507,178.6630549922993 11.74301675974857,180.7443328173831 12.547486033756286,186.65240217532846 13.524341580457985,189.0357400237408 19.61532322433777,191.88900834522792 22.66081404639408,192.6946324177552 27.372705506859347,192.89603811741108 35.35993615328334,191.04981443486759 38.721468475763686,189.13644404691877 39.84197924984619,187.9615617939562 42.571428571478464,182.28849789354717 39.32482043094933,188.3979471369821 37.22745411016513,189.90850716640125 34.03830806072801,191.28478895276203 26.769353551557288,192.7617676650989 22.316041500424035,192.45965894052642 16.56983240239788,190.34488984046038 19.61532322433777,191.92257605554187 24.039904229925014,192.82890289835632 27.688747007283382,192.89603811741108 29.8723064645892,192.22468528986792 26.769353551557288,192.72820004326059 22.43096568249166,192.39252362956177 18.95450917794369,191.486195544363 15.478052673744969,189.87493924365845 17.230646448675543,190.17705042124726" stroke="#4DD2FF" stroke-linecap="round" stroke-linejoin="round" stroke-width="0.5"><title>2025-03-08 4.9km</title><desc>1741407347536</desc></polyline><polyline fill="none" points="57.73123486712575,197.6126865344704 53.05907990341075,197.2459016276989 52.047941888682544,192.844455551618 48.24745762720704,184.57123121235054 48.52639225195162,183.75612561858725 69.4464891043026,176.21631723910104 78.68619854748249,171.89614441466983 79.00000000023283,171.48857844335726 78.54673123499379,170.95874203697895 65.43680387409404,176.99068272695877 48.14285714295693,182.81875205677352 53.268280871910974,197.08288600170636 60.55544794211164,196.75685454308405 65.89007263933308,195.16744723718148" stroke="#4DD2FF" stroke-linecap="round" stroke-linejoin="round" stroke-width="0.5"><title>2025-03-02 3.1km</title><desc>1740908689410</desc></polyline><polyline fill="none" points="99.79886423749849,199.71428571426077 99.09488906851038,197.77474427426932 92.90996436914429,197.71597018570174 91.50201403116807,190.89813378779218 85.56850903527811,179.08427121705608 85.81992873852141,178.37895805476 111.26360270404257,169.56246808933793 114.43149096472189,182.49327223189175 107.39173927460797,185.72592631552834 91.2505943281576,190.0752858146443 85.76964479777962,178.37895805476 112.06814575451426,168.85714285710128 111.36417058552615,169.85635333892424 114.23035520198755,182.49327223189175 106.18492469936609,185.84347701939987" stroke="#4DD2FF" stroke-linecap="round" stroke-linejoin="round" stroke-width="0.5"><title>2024-12-01 3.0km</title><desc>1733059607886</desc></polyline><polyline fill="none" points="135.80272108851932,199.5526392153115 128.564625850413,199.61624977982137 126.93197278911248,192.55543609533925 121.0,178.81523704819847 147.8299319727812,168.9551787916571 149.78911564638838,173.21728829928907 151.85714285704307,183.26811366673792 145.4897959183436,186.51233161386335 126.76870748307556,191.47404290596023 121.10884353728034,179.13330075563863 148.64625850343145,168.9551787916571 151.8027210882865,183.45895050041145 143.04081632662565,187.78456917544827 127.20408163266256,192.87349254637957 128.89115646248683,199.5526392153115 134.44217687053606,199.23458629153902" stroke="#4DD2FF" stroke-linecap="round" stroke-linejoin="round" stroke-width="0.5"><title>2024-11-03 3.4km</title><desc>1730641178795</desc></polyline><polyline fill="none" points="176.95355333574116,199.71428571426077 173.81802926561795,198.7093864067574 172.80656988802366,199.1231686930405 172.85714285704307,198.17738016066141 171.6939645728562,197.5862615162623 165.97921909042634,197.52714961749734 163.14713283372112,187.71448788122507 158.54499266599305,178.138109941734 184.08434194652364,168.91625778441085 187.57387679885142,182.3942981453729 180.24079631245695,185.52730488980887 163.804581428878,189.78343689802568 158.19098188425414,178.37456569104688 159.8598898567725,176.9558296960313 184.1854878840968,168.85714285710128 187.52330383006483,182.33518464193912 180.8476719390601,185.17262576136272 164.20916517986916,190.0198877271032 162.8942679890897,188.66029409505427 158.14040891523473,178.138109941734 183.93262303993106,168.97537270525936 187.57387679885142,182.51252513349755 180.39251521904953,185.52730488980887 164.66432189987972,190.0198877271032 164.25973814888857,192.7981774872169 165.27119752625003,197.46803771238774 172.30084019945934,197.17247809370747" stroke="yellow" stroke-linecap="round" stroke-linejoin="round" stroke-width="0.5"><title>2024-08-18 5.1km</title><desc>1723984957861</desc></polyline><polyline fill="none" points="25.489875202067196,234.0 27.337325606495142,232.92031401465647 26.36498328857124,230.5336320430506 22.426996900700033,231.38601967686554 20.141992453485727,230.87458725855686 18.63486186065711,224.79418681637617 13.432830459438264,212.34904080902925 38.7623478427995,203.1428571428405 38.37341091549024,205.0182036299957 40.85288382624276,216.04283564828802 33.8034020208288,219.67977809591684 18.829330324195325,223.71448235720163 16.058154717786238,219.1683345498168 13.335596227785572,212.34904080902925 37.64415417681448,203.54065845912555 39.442987465299666,208.31425131094875 40.90150094195269,216.09966306295246 34.872978570871055,219.33881578582805 18.68347897636704,223.60082913021324 13.23836199590005,212.633179773984 36.4287262794096,203.82480207638582 38.08170821983367,204.05211686203256 41.047352289780974,216.49745479866397 33.268613745924085,219.85025916970335 19.315501483157277,223.54400250781327 18.780713208485395,224.51005427422933 20.23922668537125,230.590457927261 24.566150000318885,230.8177614043234" stroke="yellow" stroke-linecap="round" stroke-linejoin="round" stroke-width="0.5"><title>2024-08-11 5.0km</title><desc>1723380974002</desc></polyline><polyline fill="none" points="59.970701151993126,232.42225891529233 54.558698727050796,232.8813886338612 53.07476257835515,227.26977325373446 62.02202465152368,223.95378806517692 60.057991513516754,211.9140196807857 79.00000000023283,204.2614685089793 70.96928672469221,207.83267414587317 70.83835118217394,209.87335122469813 72.97696504369378,219.41340218763798 66.0810264700558,222.67840308471932 52.85653667431325,226.04541214284836 48.36108304723166,216.8115887955646 48.88482521730475,215.33212002753862 60.62537886458449,211.60791996199987 77.16690240474418,204.87367706515943 71.23115780972876,207.32250352879055 70.44554455461912,208.29182724040584 72.93331986269914,219.31137055394356 66.73570418264717,222.32129468666972 52.98747221683152,225.94338191021234 48.14285714295693,216.40345993294613 50.543342089280486,214.87297362624668 70.00909274630249,207.93470820461516 74.50454637315124,225.63729108282132" stroke="yellow" stroke-linecap="round" stroke-linejoin="round" stroke-width="0.5"><title>2024-08-04 5.0km</title><desc>1722777733849</desc></polyline><polyline fill="none" points="89.22173038241453,233.98929601314012 92.0901408449281,232.61773202655604 91.56861167005263,231.55095733285998 85.87525150901638,231.39856075504213 84.57142857136205,226.1662489560258 93.39396378258243,222.6610762034834 93.69818913470954,220.98468020441942 91.61207243450917,210.6721762805828 110.16981891309842,203.1535611297295 112.82092555309646,210.0117620912497 113.34245472820476,215.29505021261866 115.29818913456984,222.25467770994874 114.5158953720238,223.52467186193098 108.34446680056863,225.9122517890064 106.95372233400121,227.13143696758198 94.48048289725557,230.83977288936148 86.0490945673082,231.39856075504213 84.78873239411041,225.8106528845674 93.78511066408828,222.8642753213935 91.13400402409025,210.92618149661575 109.95251509058289,203.4075703168637 112.95130784693174,210.16416544627282 115.42857142840512,222.8642753213935 107.90985915483907,226.11544953339035 107.25794768612832,227.0806376467517 102.34688128787093,228.24902066617506 102.47726358147338,230.0777883900446 103.21609657933004,230.0269893805962 102.52072434592992,230.78897396026878 93.61126760556363,232.2621407249244 89.87364185112529,233.58290709150606 96.34929577447474,230.99216964445077 100.69537223340012,230.63657714083092 103.73762575443834,229.46819992139353 97.21851106639951,231.7541526951827" stroke="yellow" stroke-linecap="round" stroke-linejoin="round" stroke-width="0.5"><title>2024-07-28 5.0km</title><desc>1722171325984</desc></polyline><polyline fill="none" points="135.4340962904971,232.3543047378771 135.2067876874935,230.0295345953782 128.21704814536497,230.29522304661805 126.51223362283781,222.78948109433986 138.16179952630773,219.06978816742776 138.27545382804237,216.14715686172713 135.03630623500794,203.7258222711971 134.297553275479,203.32727271388285 121.0,207.7113039526157 134.86582478298806,203.8586720675812 141.0599842146039,226.84126442531124 140.0370955010876,228.8339351757313 135.83188634575345,229.83026818331564 136.11602209950797,231.7565075220773 147.53827939997427,228.63466838479508 149.24309392250143,229.43173516960815 151.8571428572759,228.10328996693715 134.86582478298806,232.68641405680683 140.54853985807858,230.3616451419657 145.09471191791818,230.09595671860734 151.34569850051776,227.57191110006534 149.52722967625596,229.1660463535809 139.41199684282765,231.02586570882704 134.75217048148625,233.01852320024045 138.73007103404962,230.82659961248282 147.708760852227,228.8339351757313 148.90213101822883,229.29889077565167 150.60694554052316,227.97044529230334 151.74348855554126,227.90402294456726 149.92501973174512,228.96677966800053 140.49171270732768,230.89302165154368 132.1949486976955,233.81558442895766 148.27703235973604,228.10328996693715 151.45935280178674,227.7711782279075 149.81136543001048,229.03320190357044 139.5256511445623,230.76017756620422 133.8429360697046,233.01852320024045 141.11681136558764,229.69742387346923 143.84451460139826,230.0295345953782 147.8792423044797,228.56824610725744 149.47040252550505,229.43173516960815 151.402525650803,228.16971229377668 145.94711917918175,230.16237883502617 142.9352801896166,230.29522304661805 144.69692186266184,229.43173516960815 148.8453038672451,229.29889077565167 151.402525650803,227.70475585904205 149.81136543001048,229.23246856796322" stroke="#4DD2FF" stroke-linecap="round" stroke-linejoin="round" stroke-width="0.5"><title>2024-07-21 4.9km</title><desc>1721568919550</desc></polyline><polyline fill="none" points="174.962607862195,227.9312885546824 169.30201342259534,229.54503026651219 167.43815915635787,227.12441642035265 160.3279002874624,227.28579091548454 157.84276126534678,219.21702440589434 157.98082454456016,217.92601385549642 173.65100671118125,213.16539359552553 171.58005752647296,206.79095729871187 172.0632790029049,212.92332736612298 175.03163950121962,223.49348127038684 160.60402684588917,227.44716537633212 159.4304889740888,226.6402927308809 157.42857142863795,218.49083123961464 157.63566634710878,216.3122475995915 171.92521572392434,212.11643938015914 171.09683604957536,206.79095729871187 172.0632790029049,212.76194983709138 175.65292425686494,222.20247794687748 174.68648130400106,224.38104478939204 160.3279002874624,227.04372916009743 159.29242569510825,226.31754343386274 157.42857142863795,218.73289570515044 158.32598274201155,216.473624378792 171.09683604957536,212.51988347957376 171.30393096827902,207.92060811526608 175.10067114094272,222.4445412364439 174.61744966427796,224.6231073884992 160.3969319271855,227.12441642035265 157.63566634710878,219.78184083552333 157.63566634710878,217.03844283678336 171.51102588674985,212.43919467675732 172.96069031651132,213.97228047356475 175.10067114094272,223.89691936125746 168.81879194639623,226.80166732810903 169.44007670204155,229.54503026651219 179.79482262698002,225.83341923292028 188.28571428568102,224.5424198639812 170.13039309694432,228.3347243021126 167.78331735357642,230.35189984418685 175.99808245454915,227.6892270037788" stroke="#4DD2FF" stroke-linecap="round" stroke-linejoin="round" stroke-width="0.5"><title>2024-07-14 4.2km</title><desc>1720963947536</desc></polyline><polyline fill="none" points="11.714285714086145,256.69187399564544 31.22167487675324,250.0588369947509 42.21674876799807,248.71149587573018 40.709359605330974,247.98600373754743 37.42857142817229,250.68068611843046 20.581280787475407,253.47900229715742 12.866995073389262,256.48459226771956 12.689655172172934,257.72828197671333 22.266009851824492,253.16807867150055 42.57142857089639,248.60785417433362 37.60591132938862,251.09525198180927 21.733990147244185,253.2717198911705 15.615763545967638,256.2773104963708 14.019704432692379,256.07002868136624 21.556650246027857,252.7535136837978 41.5960591128096,247.98600373754743 37.16256157588214,250.88796907191863 32.108374383766204,250.9916105325683 14.019704432692379,256.17366959439823 29.980295565444976,250.0588369947509 34.147783250547945,250.36976160592167 41.5960591128096,248.29692900524242 39.20197044266388,250.26612007973017 20.935960590373725,253.06443744082935 13.22167487628758,256.48459226771956 19.517241378780454,254.20449037430808 24.926108373794705,249.12606257101288 28.206896550953388,251.19889342039824 36.719211822375655,249.8515538663487 29.182266009040177,252.44258982816245" stroke="#4DD2FF" stroke-linecap="round" stroke-linejoin="round" stroke-width="0.5"><title>2024-07-07 3.0km</title><desc>1720361789036</desc></polyline></svg>