<?xml version="1.0" encoding="utf-8" ?>
<svg baseProfile="full" height="300mm" version="1.1" viewBox="0,0,200,300" width="200mm" xmlns="http://www.w3.org/2000/svg" xmlns:ev="http://www.w3.org/2001/xml-events" xmlns:xlink="http://www.w3.org/1999/xlink"><defs /><rect fill="#222222" height="300" width="200" x="0" y="0" /><text fill="#FFFFFF" style="font-size:12px; font-family:Arial; font-weight:bold;" x="10" y="20">Runs</text><text fill="#FFFFFF" style="font-size:4px; font-family:Arial" x="10" y="280">ATHLETE</text><text fill="#FFFFFF" style="font-size:9px; font-family:Arial" x="10" y="290">Jay</text><text fill="#FFFFFF" style="font-size:4px; font-family:Arial" x="120" y="280">STATISTICS</text><text fill="#FFFFFF" style="font-size:3px; font-family:Arial" x="120" y="285">Number: 10</text><text fill="#FFFFFF" style="font-size:3px; font-family:Arial" x="120" y="290">Weekly: 1.0</text><text fill="#FFFFFF" style="font-size:3px; font-family:Arial" x="141" y="285">Total: 41.8 km</text><text fill="#FFFFFF" style="font-size:3px; font-family:Arial" x="141" y="290">Avg: 4.2 km</text><text fill="#FFFFFF" style="font-size:3px; font-family:Arial" x="167" y="285">Min: 3.0 km</text><text fill="#FFFFFF" style="font-size:3px; font-family:Arial" x="167" y="290">Max: 5.1 km</text><polyline fill="none" points="29.7796610170044,83.32220143527957 21.603389830561355,82.6803278484731 19.83389830496162,74.97779721528059 13.18305084737949,60.49965462158434 13.671186440624297,59.07321983249858 50.281355932122096,45.878555168397725 66.4508474576287,38.318252725643106 67.0,37.605012275860645 66.20677966112271,36.677798564662226 43.26440677954815,47.233694772119634 13.0,57.43281609931728 21.969491525553167,82.3950505029643 34.722033898346126,81.8244954503607 44.057627118658274,79.04303266503848" stroke="#4dd2ff" stroke-linecap="round" stroke-linejoin="round" stroke-width="0.5"><title>2025-03-02 3.1km</title><desc>1740908689410</desc></polyline><polyline fill="none" points="99.64801241550595,87.0 98.41605586977676,83.60580247995676 87.5924376458861,83.50294782506535 85.12852455489337,71.57173412863631 74.74489081185311,50.89747462992091 75.18487529270351,49.66317659593187 119.7113047321327,34.234319156443235 125.25510918814689,56.86322640586877 112.93554373038933,62.5203710522037 84.68854007404298,70.1317501757294 75.09687839634717,49.66317659593187 121.11925507057458,33.0 119.88729852484539,34.74861834314652 124.90312160365283,56.86322640586877 110.82361822389066,62.72608478402253" stroke="#4dd2ff" stroke-linecap="round" stroke-linejoin="round" stroke-width="0.5"><title>2024-12-01 3.0km</title><desc>1733059607886</desc></polyline><polyline fill="none" points="158.9047619048506,86.71711862669326 146.23809523833916,86.82843711471651 143.38095238106325,74.47201316687278 133.0,50.426664834376425 179.9523809524253,33.17156288528349 183.38095238106325,40.63025452371221 187.0,58.21919891680591 175.8571428572759,63.89658032427542 143.0952380951494,72.5795750854304 133.1904761902988,50.983276322251186 181.38095238106325,33.17156288528349 186.90476190438494,58.55316337570548 171.57142857136205,66.12299605691805 143.8571428572759,75.02861195616424 146.80952380923554,86.71711862669326 156.5238095233217,86.16052601020783" stroke="#4dd2ff" stroke-linecap="round" stroke-linejoin="round" stroke-width="0.5"><title>2024-11-03 3.4km</title><desc>1730641178795</desc></polyline><polyline fill="none" points="47.168718337547034,147.0 41.68155121477321,145.24142621195642 39.91149730421603,145.96554521284997 40.0,144.3104152812739 37.96443800255656,143.2759576534736 27.963633408304304,143.1725118306931 23.00748245883733,126.00035379221663 14.953737165778875,109.24169239809271 59.64759840629995,93.10345112276264 65.7542843981646,116.69002175447531 52.921393546741456,122.1727835572674 24.158017500769347,129.62101457157405 14.334218297619373,109.6554899594048 17.25480724964291,107.17270196811296 59.82460379740223,93.0 65.66578170238063,116.58657312346622 53.98342589335516,121.55209508241387 24.866039064712822,130.0348035224597 22.56496898084879,127.65551466634497 14.2457156018354,109.24169239809271 59.38209031987935,93.20690223423298 65.7542843981646,116.89691898372257 53.18690163316205,122.1727835572674 25.662563324905932,130.0348035224597 24.954541760496795,134.89681060268776 26.724595671053976,143.06906599679496 39.02647034917027,142.55183666408993" stroke="#ff0000" stroke-linecap="round" stroke-linejoin="round" stroke-width="0.5"><title>2024-08-18 5.1km</title><desc>1723984957861</desc></polyline><polyline fill="none" points="97.10728160385042,147.0 100.3403198113665,145.11054952570703 98.63872075499967,140.93385607545497 91.74724457645789,142.42553443455836 87.74848679360002,141.5305277024745 85.11100825620815,130.88982692867285 76.0074533042498,109.11082141590305 120.3341087247245,93.0 119.6534691019915,96.28185635257978 123.9925466957502,115.57496238453314 111.65595353627577,121.93961166794179 85.45132806757465,129.00034412520472 80.60177075630054,121.04458546225214 75.83729339856654,109.11082141590305 118.37726980959997,93.69615230354248 121.52522806404158,102.04993979417486 124.077626648359,115.6744103601668 113.52771249879152,121.34292762522819 85.19608820881695,128.80145097797504 75.6671334928833,109.60806460451568 116.25027098925784,94.19340363377705 119.1429893844761,94.59120450861519 124.3328665071167,116.37054589769104 110.72007405525073,122.23795354709728 86.3021275959909,128.70200438873144 85.36624811496586,130.39259497995954 87.91864669974893,141.03330137277953 95.49076250055805,141.43108245759504" stroke="#ff0d00" stroke-linecap="round" stroke-linejoin="round" stroke-width="0.5"><title>2024-08-11 5.0km</title><desc>1723380974002</desc></polyline><polyline fill="none" points="153.6987270154059,144.23895310179796 144.22772277193144,145.04243010928622 141.63083451148123,135.22210319404257 157.28854313958436,129.41912911413237 153.8514851485379,108.34953444142593 187.0,94.95756989077199 172.9462517676875,101.2071797553217 172.7171145682223,104.77836464327993 176.45968882599846,121.47345382842468 164.3917963220738,127.18720539833885 141.2489391793497,133.07947125000646 133.38189533213153,116.92028039228171 134.29844412999228,114.33121004822897 154.84441301273182,107.8138599335798 183.79207920795307,96.02893486403627 173.40452616661787,100.31438117544167 172.02970297029242,102.0106976707466 176.38330975919962,121.29489846946672 165.53748231939971,126.56226570170838 141.47807637881488,132.9009183428716 133.0,116.20605488267029 137.2008486557752,113.52770384598989 171.2659123055637,101.38573935814202 179.13295615278184,132.36525939498097" stroke="#ff0c00" stroke-linecap="round" stroke-linejoin="round" stroke-width="0.5"><title>2024-08-04 5.0km</title><desc>1722777733849</desc></polyline><polyline fill="none" points="21.138028169050813,206.9812680230243 26.157746478449553,204.58103104645852 25.2450704225339,202.71417533251224 15.281690140720457,202.44748132134555 13.0,193.29093567305245 28.43943661963567,187.1568833561032 28.97183098597452,184.22319035773398 25.32112676044926,166.17630849103443 57.79718309827149,153.0187319770339 62.436619718093425,165.02058365970151 63.34929577447474,174.2663378721336 66.77183098578826,186.44568599236663 65.40281690098345,188.6681757583865 54.60281690116972,192.8464406307903 52.16901408461854,194.980014693283 30.340845070313662,201.46960255637532 15.585915492847562,202.44748132134555 13.380281690042466,192.6686425479711 29.123943661805242,187.5124818124459 24.484507041983306,166.62081761908485 57.416901408694685,153.46324805455515 62.66478873230517,165.28728953097016 67.0,187.5124818124459 53.842253521084785,193.20203668344766 52.701408450491726,194.89111588185187 44.10704225348309,196.9357861658209 44.33521126769483,200.13612968259258 45.62816901411861,200.04723141604336 44.41126760514453,201.38070443051402 28.819718309678137,203.9587462686468 22.278873239643872,206.27008741017198 33.611267605330795,201.73629687778885 41.21690140850842,201.11400999646867 46.54084507049993,199.0693498624605 35.13239436596632,203.06976721656974" stroke="#ff0c00" stroke-linecap="round" stroke-linejoin="round" stroke-width="0.5"><title>2024-07-28 5.0km</title><desc>1722171325984</desc></polyline><polyline fill="none" points="98.25966850854456,204.1200332911685 97.86187845328823,200.0516855418682 85.62983425427228,200.51664033147972 82.64640884008259,187.38159191503655 103.03314917115495,180.87212929292582 103.23204419901595,175.75752450793516 97.56353591149673,154.02018897456583 96.27071823226288,153.32272724923678 73.0,160.9947819170775 97.26519337017089,154.25267611816525 108.10497237555683,194.47221274417825 106.31491712713614,197.95938655745704 98.95580110512674,199.70296932081692 99.45303867431358,203.07388816366438 119.4419889501296,197.61066967330407 122.4254143643193,199.00553654681426 127.0,196.68075744214002 97.26519337017089,204.70122459938284 107.20994475157931,200.6328789984109 115.16574585624039,200.16792425746098 126.10497237555683,195.75084442505613 122.92265193350613,198.5405811186647 105.22099447483197,201.7952649903018 97.06629834230989,205.28241560037713 104.02762430952862,201.44654932175763 119.74033149145544,197.95938655745704 121.82872928166762,198.7730588573031 124.81215469585732,196.44827926147263 126.801104972139,196.33204015297815 123.61878453055397,198.1918644189136 107.11049723764881,201.56278789008502 92.59116022102535,206.6772727506468 120.73480662936345,196.68075744214002 126.30386740295216,196.09956189873628 123.4198895022273,198.30810333113186 105.41988950315863,201.33031074074097 95.4751381217502,205.28241560037713 108.20441988948733,199.47049177845474 112.97790055256337,200.0516855418682 120.03867403278127,197.49443068762776 122.82320441957563,199.00553654681426 126.20441988902166,196.7969965140801 116.65745856333524,200.2841629611794 111.38674033153802,200.51664033147972 114.46961325965822,199.00553654681426 121.72928176773712,198.7730588573031 126.20441988902166,195.98332275322173 123.4198895022273,198.65681999386288" stroke="#4dd2ff" stroke-linecap="round" stroke-linejoin="round" stroke-width="0.5"><title>2024-07-21 4.9km</title><desc>1721568919550</desc></polyline><polyline fill="none" points="163.68456375878304,196.3797549707815 153.77852348936722,199.20380296651274 150.51677852356806,194.96772873564623 138.07382550323382,195.25013410218526 133.72483221441507,181.12979271041695 133.96644295286387,178.87052424717695 161.38926174445078,170.53943879227154 157.7651006714441,159.38417527277488 158.61073825508356,170.11582289077342 163.80536912707612,188.61359222326428 138.55704698013142,195.53253940865397 136.50335570424795,194.12051227909978 133.0,179.8589546693256 133.3624161076732,176.04643329943065 158.36912751663476,168.70376891538035 156.9194630868733,159.38417527277488 158.61073825508356,169.83341221499722 164.89261744963005,186.354336407152 163.20134228188545,190.16682838147972 138.07382550323382,194.8265260301996 136.26174496673048,193.5557010093471 133.0,180.28256748407148 134.5704697985202,176.32884266297333 156.9194630868733,169.4097960892832 157.2818791945465,161.36106420180295 163.92617449676618,186.7779471637914 163.08053691219538,190.5904379299609 138.19463087245822,194.96772873564623 133.3624161076732,182.11822146223858 133.3624161076732,177.31727496453095 157.64429530175403,169.26859068439808 160.18120805360377,171.95149082888383 163.92617449676618,189.31960888230242 152.9328859061934,194.40291782433633 154.02013422828168,199.20380296651274 172.14093959704041,192.70848365768325 187.0,190.4492347619962 155.22818791959435,197.0857675288571 151.12080536875874,200.61582472734153 165.4966442952864,195.95614725665655" stroke="#4dd2ff" stroke-linecap="round" stroke-linejoin="round" stroke-width="0.5"><title>2024-07-14 4.2km</title><desc>1720963947536</desc></polyline><polyline fill="none" points="13.0,246.71077949227765 47.13793103490025,235.1029647408286 66.37931034434587,232.7451177824987 63.74137931037694,231.4755065406207 58.0,236.1912007072242 28.517241379246116,241.08825401996728 15.017241379246116,246.34803646849468 14.70689655188471,248.52449345926289 31.46551724150777,240.5441376750823 67.0,232.56374480505474 58.31034482643008,236.91669096820988 30.53448275849223,240.72550980956294 19.82758620660752,245.9852933686925 17.03448275849223,245.62255019240547 30.224137931130826,239.81864894658793 65.29310344811529,231.4755065406207 57.53448275849223,236.55394587584306 48.68965517170727,236.73531843197998 17.03448275849223,245.80392179021146 44.965517240576446,235.1029647408286 52.25862068962306,235.64708281040657 65.29310344811529,232.01962575910147 61.103448275476694,235.46571013960056 29.137931033968925,240.36276552150957 15.637931034900248,246.34803646849468 26.65517241321504,242.35785815503914 36.12068965472281,233.470609499258 41.86206896416843,237.0980634856969 56.75862068962306,234.74021926615387 43.56896551605314,239.2745321992552" stroke="#4dd2ff" stroke-linecap="round" stroke-linejoin="round" stroke-width="0.5"><title>2024-07-07 3.0km</title><desc>1720361789036</desc></polyline></svg>