<?xml version="1.0" encoding="utf-8" ?>
<svg baseProfile="full" height="300mm" version="1.1" viewBox="0,0,200,300" width="200mm" xmlns="http://www.w3.org/2000/svg" xmlns:ev="http://www.w3.org/2001/xml-events" xmlns:xlink="http://www.w3.org/1999/xlink"><defs /><rect fill="#222222" height="300" width="200" x="0" y="0" /><text fill="#FFFFFF" style="font-size:12px; font-family:Arial; font-weight:bold;" x="10" y="20">Runs</text><text fill="#FFFFFF" style="font-size:4px; font-family:Arial" x="10" y="280">Runner</text><text fill="#FFFFFF" style="font-size:9px; font-family:Arial" x="10" y="290">Jay</text><text fill="#FFFFFF" style="font-size:4px; font-family:Arial" x="65" y="280">SPECIAL TRACKS</text><rect fill="yellow" height="2.6" width="2.6" x="65" y="283" /><text fill="#FFFFFF" style="font-size:3px; font-family:Arial" x="70" y="285.5">Over 5.0 km</text><rect fill="red" height="2.6" width="2.6" x="65" y="287" /><text fill="#FFFFFF" style="font-size:3px; font-family:Arial" x="70" y="289.5">Over 10.0 km</text><text fill="#FFFFFF" style="font-size:4px; font-family:Arial" x="120" y="280">STATISTICS</text><text fill="#FFFFFF" style="font-size:3px; font-family:Arial" x="120" y="285">Number: 19</text><text fill="#FFFFFF" style="font-size:3px; font-family:Arial" x="120" y="290">Weekly: 1.2</text><text fill="#FFFFFF" style="font-size:3px; font-family:Arial" x="141" y="285">Total: 72.0 km</text><text fill="#FFFFFF" style="font-size:3px; font-family:Arial" x="141" y="290">Avg: 3.8 km</text><text fill="#FFFFFF" style="font-size:3px; font-family:Arial" x="167" y="285">Min: 2.1 km</text><text fill="#FFFFFF" style="font-size:3px; font-family:Arial" x="167" y="290">Max: 5.2 km</text><polyline fill="none" points="23.31949626863934,68.90557589451782 22.034981343429536,67.53665603179252 21.24160447763279,68.11071974574588 17.53917910461314,67.31586208581575 16.330223880708218,62.8557994098519 12.25,53.05232610218809 32.65111940307543,45.76581187508418 52.75,36.094424105482176 31.668843283783644,46.25158344145166 33.21781716425903,56.40849599582725 28.3442164179869,58.79312665318139 16.330223880708218,62.060931759595405 17.425839552422985,67.27170328251668 21.354944030055776,67.36002088428359" stroke="#4DD2FF" stroke-linecap="round" stroke-linejoin="round" stroke-width="0.5"><title>2025-05-09 3.2km</title><desc>1746800655160</desc></polyline><polyline fill="none" points="76.7004121011123,72.75 75.5676625771448,69.71257715905085 68.17147451126948,69.01163164980244 66.03924011392519,61.145419684413355 59.04284599726088,46.26948250859277 58.8429490220733,43.77714954485418 92.15911148255691,32.25 96.15705097769387,50.00796615850413 86.96179013885558,53.98008426773595 66.17250476358458,59.821395558305085 68.10484218643978,69.01163164980244 76.36725047649816,69.01163164980244 77.76652929978445,71.81540968909394 81.49793949513696,70.33563927467912" stroke="#4DD2FF" stroke-linecap="round" stroke-linejoin="round" stroke-width="0.5"><title>2025-05-07 2.1km</title><desc>1746628465614</desc></polyline><polyline fill="none" points="114.46286031068303,69.42579471023055 113.8342572064139,68.5860932552605 108.71563192922622,68.74353738620994 106.42572062113322,60.76630531731644 103.2827051000204,54.573365800693864 102.42960088723339,51.37190070041106 121.33259423519485,44.75897304908722 132.0637472285889,40.14036820002366 127.21452328166924,42.60712840463384 141.71729490021244,35.679175023542484 142.75,37.09626425630995 141.896895787213,35.574205289798556 125.32871396909468,43.55184183528763 125.14911308232695,45.17884408833925 127.61862527718768,55.41309093669406 120.43458980042487,58.457082657841966 106.78492239490151,62.07835886528483 102.25,52.15914812940173 102.87860310450196,51.16196784202475 105.79711751686409,50.11230221934966 102.60920177400112,51.26693428226281 102.42960088723339,52.26411435904447 106.60532150790095,61.65850210678764 109.92793791601434,61.186162829515524 106.96452328166924,62.13084093507496 108.53603104222566,68.3761676697759 114.28325942368247,68.5860932552605" stroke="#4DD2FF" stroke-linecap="round" stroke-linejoin="round" stroke-width="0.5"><title>2025-05-04 3.9km</title><desc>1746361657097</desc></polyline><polyline fill="none" points="160.29832713748328,69.54113070160383 156.7853159850929,70.18638493609615 154.0250929365866,69.54113070160383 152.6700743495021,63.0298869300168 147.4507434940897,52.17764433397679 147.50092936796136,50.41780122771161 171.64033457217738,41.97047668538289 187.75,34.81361506390385 173.0957249070052,41.67716449697036 175.55483271367848,54.81739853747422 167.8763940515928,58.10240846767556 152.56970260222442,62.20864355569938 147.25,51.297723477880936 147.6013011150062,50.300478155433666 150.210966542596,49.36189268680755 147.50092936796136,50.24181661027251 152.72026022267528,62.14998326811474 154.52695167274214,69.48247118853033 158.8429368028883,69.07185442373157" stroke="#4DD2FF" stroke-linecap="round" stroke-linejoin="round" stroke-width="0.5"><title>2025-05-02 3.2km</title><desc>1746193621188</desc></polyline><polyline fill="none" points="23.853932584170252,118.19128243639716 18.438764045014977,118.45722747585387 16.80056179780513,111.70217995237908 12.25,101.91517870139796 12.56853932584636,100.90455360675696 38.77977528073825,91.27691811008845 52.75,84.7874687804142 51.930898876162246,84.04277252414613 35.821910112164915,91.27691811008845 35.23033707868308,93.29820491740247 37.77865168522112,104.84066096280003 34.775280898669735,106.54275191226043 17.07359550567344,111.755369656923 12.887078651692718,102.9258017676766 17.07359550567344,111.80855935587897 18.620786516927183,118.19128243639716 23.990449438104406,118.35084947687574" stroke="#4DD2FF" stroke-linecap="round" stroke-linejoin="round" stroke-width="0.5"><title>2025-05-01 3.2km</title><desc>1746105997674</desc></polyline><polyline fill="none" points="66.82727975281887,116.78007405789685 65.76313755800948,115.49967541344813 63.760046367999166,116.08500109537272 62.1951313756872,116.15816673604422 61.60046367859468,115.71917266011587 60.5363214839017,111.65845108075882 57.31259659992065,104.70755590280169 57.37519319949206,103.8295381674834 68.2982998455409,100.13452246997622 80.97411128284875,94.86631310524535 97.75,86.37847388847149 97.31182380230166,85.71992594210315 93.5247295210138,87.21994999729213 92.74227202485781,88.06142406136496 79.34659969096538,94.75655789126176 65.63794435875025,100.20769148026011 65.2936630602926,101.08571839757496 57.59428129834123,103.61003338583396 57.25,104.23196323911543 60.44242658431176,111.0731179183349 68.76777434314135,108.9146933327429 60.473724884097464,111.21945130164386 57.28129829990212,104.4514676265826 57.37519319949206,103.64661752572283 64.66769706341438,101.37839354205062 58.0637557960581,103.31736012728652 57.37519319949206,103.93929050609586 62.06993817619514,115.9020869260421" stroke="yellow" stroke-linecap="round" stroke-linejoin="round" stroke-width="0.5"><title>2025-04-20 5.2km</title><desc>1745154044961</desc></polyline><polyline fill="none" points="120.90030217403546,119.66998803167371 114.43343862146139,120.14738288673107 112.45934343198314,119.1130269850255 109.05573103600182,106.8597797784023 103.33766221045516,93.25366785429651 136.96535268286243,81.0 141.66233778954484,99.22129106003558 131.92800633702427,103.3588153970195 125.8695762718562,104.23405801772606 110.62139273807406,109.56505929277046 113.68464389443398,119.51085634616902 118.79006248852238,118.47649957041722 121.64909690106288,119.27215875469847 122.94246961129829,121.5 127.0948767347727,119.74955386191141" stroke="#4DD2FF" stroke-linecap="round" stroke-linejoin="round" stroke-width="0.5"><title>2025-03-23 2.1km</title><desc>1742729899087</desc></polyline><polyline fill="none" points="162.0708801264409,120.85829359246418 163.1689043706283,121.5 165.85296363383532,120.1452857577242 166.27997306222096,118.50536487950012 164.99894477729686,117.5784513168037 157.92278853757307,117.43584911723156 156.3367535180878,109.80658752651652 149.5046026657801,94.11998438695446 185.55639868113212,81.0 149.4436013191007,94.26259151170962 156.39775486500002,108.66575595294125 157.98378988425247,117.15064462798182 166.03596767457202,117.43584911723156 166.82898518419825,119.50357806222746 171.70909293578006,117.15064462798182 171.953098323429,118.14885981375119" stroke="#4DD2FF" stroke-linecap="round" stroke-linejoin="round" stroke-width="0.5"><title>2025-03-16 2.5km</title><desc>1742128080108</desc></polyline><polyline fill="none" points="17.868715083692223,157.99672574919532 15.00279329600744,156.5428147871571 13.532122905133292,154.3839679642697 12.25,145.3959959851345 12.966480446979403,143.19303217172273 15.493016759632155,141.47471233282704 22.506983240135014,141.1662952033803 31.55726256966591,138.69894997088704 20.923184357583523,141.25441440645955 15.794692737283185,141.43065275688423 13.45670391060412,142.6202596774092 12.287709497148171,145.35193682281533 13.343575419159606,153.10627785514225 14.625698324060068,156.23440878119436 22.620111731812358,159.97932345312438 26.617318435572088,161.03670504831825 32.80167597765103,161.30105002911296 43.28491620114073,158.87788144580554 47.696927374228835,156.36658281157725 49.16759776510298,154.82454985458753 52.75,147.37865348529886 48.48882681550458,155.39730561728356 45.73603351949714,157.37991565593984 41.550279329530895,159.18628550053108 32.009776536375284,161.12482006047503 26.164804469095543,160.72830235946458 18.622905027819797,157.95266791561153 22.620111731812358,160.02338107291143 28.427374301478267,161.21293505409267 33.2164804469794,161.30105002911296 36.08240223466419,160.41989944296074 32.009776536375284,161.08076255681226 26.31564245815389,160.6401872638089 21.75279329600744,159.45063165196916 17.18994413409382,157.335857757309 19.490223463624716,157.73237867790158" stroke="#4DD2FF" stroke-linecap="round" stroke-linejoin="round" stroke-width="0.5"><title>2025-03-08 4.9km</title><desc>1741407347536</desc></polyline><polyline fill="none" points="69.83474576263689,167.49165107647423 63.70254237274639,167.01024588634027 62.375423728721216,161.233347911475 57.38728813524358,150.37474096615915 57.75338983046822,149.30491487440304 85.21101694903336,139.4089163763274 97.33813559310511,133.73868954423233 97.75,133.20375920686638 97.15508474572562,132.50834892352577 79.94830508460291,140.42527107908973 57.25,148.0746120744734 63.977118643932045,166.79628787722322 73.54152542352676,166.36837158777053 80.54322033887729,164.28227449880796" stroke="#4DD2FF" stroke-linecap="round" stroke-linejoin="round" stroke-width="0.5"><title>2025-03-02 3.1km</title><desc>1740908689410</desc></polyline><polyline fill="none" points="122.23600931162946,170.25 121.31204190244898,167.70435185998213 113.19432823476382,167.62721086881356 111.34639341617003,158.67880059650633 103.55866810888983,143.17310597246978 103.88865646952763,142.2473824469489 137.28347854921594,130.67573936731787 141.441331891343,147.64741980441613 132.2016577979084,151.89027828915277 111.01640505576506,157.59881263179705 103.82265879726037,142.2473824469489 138.33944130293094,129.75 137.41547389351763,131.0614637574181 141.17734120273963,147.64741980441613 130.617713667918,152.044563588046" stroke="#4DD2FF" stroke-linecap="round" stroke-linejoin="round" stroke-width="0.5"><title>2024-12-01 3.0km</title><desc>1733059607886</desc></polyline><polyline fill="none" points="166.67857142863795,170.03783897007816 157.1785714291036,170.12132783600828 155.03571428591385,160.8540098751546 147.25,142.81999862578232 182.4642857145518,129.87867216399172 185.03571428591385,135.47269089281326 187.75,148.66439918754622 179.39285714318976,152.92243524320656 154.8214285718277,159.4346813141019 147.3928571427241,143.2374572417466 183.53571428591385,129.87867216399172 187.67857142863795,148.9148725317791 176.17857142863795,154.59224704274675 155.39285714318976,161.27145896712318 157.6071428572759,170.03783897007816 164.8928571427241,169.62039450765587" stroke="#4DD2FF" stroke-linecap="round" stroke-linejoin="round" stroke-width="0.5"><title>2024-11-03 3.4km</title><desc>1730641178795</desc></polyline><polyline fill="none" points="37.87653875327669,219.0 33.76116341119632,217.68106965895277 32.43362297792919,218.22415890963748 32.49999999976717,216.98281146091176 30.973328501917422,216.20696824009065 23.472725056344643,216.12938387301983 19.755611844127998,203.25026534416247 13.715302874334157,190.68126929854043 47.23569880495779,178.57758834207198 51.815713298507035,196.26751631585648 42.19104516017251,200.379587667936 20.618513125460595,205.9657609286951 13.250663723098114,190.9916174695827 15.44110543699935,189.12952647608472 47.36845284793526,178.5 51.749336276901886,196.18992984259967 42.987569419899955,199.91407131182496 21.149529298534617,206.27610264183022 19.423726735869423,204.49163599975873 13.184286701260135,190.68126929854043 47.036567739909515,178.65517667564563 51.815713298507035,196.42268923774827 42.390176224987954,200.379587667936 21.74692249344662,206.27610264183022 21.215906320372596,209.92260795197217 22.543446753406897,216.05179949756712 31.7698527618777,215.66387749800924" stroke="yellow" stroke-linecap="round" stroke-linejoin="round" stroke-width="0.5"><title>2024-08-18 5.1km</title><desc>1723984957861</desc></polyline><polyline fill="none" points="75.33046120288782,219.0 77.75523985852487,217.58291214430938 76.47904056613334,214.45039205660578 71.310433432227,215.56915082596242 68.31136509520002,214.89789577684132 66.33325619227253,206.9173701965483 59.5055899778381,190.58311606192729 92.75058154342696,178.5 92.24010182637721,180.96139226440573 95.49441002192907,195.43122178839985 86.24196515232325,200.2047087509418 66.58849605056457,205.50025809393264 62.95132806710899,199.53343909670366 59.37797004892491,190.58311606192729 91.28295235708356,179.0221142277005 93.6439210481476,185.2874548456748 95.55821998626925,195.5058077701251 87.64578437409364,199.7571957189357 66.39706615637988,205.35108823346673 59.250350119546056,190.9560484534013 89.68770324182697,179.3950527253328 91.85724203847349,179.69340338144684 95.74964988022111,196.02790942328284 85.54005554155447,200.4284651603084 67.22659569676034,205.27650329156313 66.52468608599156,206.54444623494055 68.43898502457887,214.52497602958465 74.11807187530212,214.82331184321083" stroke="yellow" stroke-linecap="round" stroke-linejoin="round" stroke-width="0.5"><title>2024-08-11 5.0km</title><desc>1723380974002</desc></polyline><polyline fill="none" points="117.77404526178725,216.92921482631937 110.670792079065,217.5318225819501 108.72312588384375,210.16657739551738 120.4664073549211,205.81434683559928 117.88861386128701,190.0121508310549 142.75,179.9681774180499 132.20968882599846,184.65538481646217 132.03783592628315,187.3337734824163 134.84476661961526,199.85509037133306 125.79384724167176,204.14040404872503 108.43670438462868,208.5596034374903 102.53642149921507,196.44021029421128 103.22383309761062,194.49840753612807 118.63330975966528,189.6103949501412 140.34405940608121,180.77170114801265 132.55339462519623,183.98578588158125 131.52227722783573,185.25802325305995 134.78748231963255,199.72117385204183 126.65311173954979,203.67169927625218 108.60855728434399,208.4256887571537 102.25,195.90454116201727 105.40063649183139,193.8957778844633 130.94943422917277,184.7893045186065 136.8497171148192,208.02394454623573" stroke="yellow" stroke-linecap="round" stroke-linejoin="round" stroke-width="0.5"><title>2024-08-04 5.0km</title><desc>1722777733849</desc></polyline><polyline fill="none" points="153.35352112702094,218.98595101723913 157.11830985895358,217.185773284873 156.43380281701684,215.78563149936963 148.96126760565676,215.5856109909946 147.25,208.71820175478933 158.82957746484317,204.11766251706285 159.2288732395973,201.91739276825683 156.49084507022053,188.38223136827582 180.84788732370362,178.51404898276087 184.32746478868648,187.51543774473248 185.01197183108889,194.4497534040711 187.5788732394576,203.58426449430408 186.55211267597042,205.25113181874622 178.4521126758773,208.38483047304908 176.6267605633475,209.9850110199186 160.25563380285166,214.85220191726694 149.18943661963567,215.5856109909946 147.53521126741543,208.25148191099288 159.34295774670318,204.384361359349 155.8633802817203,188.71561321429908 180.562676056521,178.8474360408727 184.49859154922888,187.71546714822762 187.75,204.384361359349 177.8816901408136,208.65152751258574 177.02605633810163,209.9183369113598 170.58028169022873,211.45183962432202 170.75140845100395,213.85209726192988 171.72112676058896,213.78542356204707 170.80845070420764,214.7855283228564 159.1147887322586,216.7190597014269 154.2091549297329,218.45256555761443 162.70845070434734,215.05222265829798 168.41267605638131,214.58550749730784 172.40563380299136,213.05201239680173 163.84929577470757,216.0523254123982" stroke="yellow" stroke-linecap="round" stroke-linejoin="round" stroke-width="0.5"><title>2024-07-28 5.0km</title><desc>1722171325984</desc></polyline><polyline fill="none" points="31.194751380942762,265.5900249684346 30.896408839616925,262.53876415640116 21.72237569047138,262.8874802486389 19.48480662982911,253.0361939362483 34.774861878249794,248.15409696969436 34.924033149145544,244.31814338092227 30.67265193350613,228.01514173095347 29.703038673847914,227.4920454369858 12.25,233.246086437779 30.448895027395338,228.18950708868215 38.57872928166762,258.3541595581919 37.23618784500286,260.9695399181219 31.716850828845054,262.2772269906127 32.089779005385935,264.8054161227192 47.08149171248078,260.70800225500716 49.319060773123056,261.7541524100816 52.75,260.0105680815759 30.448895027395338,266.02591844956623 37.90745856333524,262.97465924877906 43.874309392180294,262.62594319315394 52.07872928166762,259.3131333187921 49.6919889501296,261.40543583902763 36.41574585577473,263.84644874278456 30.29972375649959,266.46181170031196 35.52071823226288,263.5849119913182 47.30524861859158,260.9695399181219 48.87154696136713,261.57979414297733 51.10911602154374,259.8362094461336 52.60082872863859,259.7490301147336 50.21408839803189,261.1438983142143 37.832872928120196,263.67209091759287 26.94337016576901,267.5079545630142 48.051104972139,260.0105680815759 52.22790055209771,259.5746714241104 50.06491712667048,261.2310774983489 36.56491712713614,263.4977330555557 29.10635359119624,266.46181170031196 38.653314916882664,262.10286883387016 42.233425414189696,262.53876415640116 47.52900552470237,260.6208230157499 49.61740331444889,261.7541524100816 52.153314916417,260.09774738556007 44.9930939222686,262.71312222094275 41.04005524888635,262.8874802486389 43.35220994474366,261.7541524100816 48.796961325686425,261.57979414297733 52.153314916417,259.4874920649454 50.06491712667048,261.49261499545537" stroke="#4DD2FF" stroke-linecap="round" stroke-linejoin="round" stroke-width="0.5"><title>2024-07-21 4.9km</title><desc>1721568919550</desc></polyline><polyline fill="none" points="80.26342281885445,259.7848162279697 72.833892616909,261.90285222476814 70.3875838923268,258.72579655167647 61.05536912754178,258.93760057660984 57.793624160811305,248.3473445327254 57.97483221441507,246.6528931853245 78.54194630822167,240.40457909414545 75.82382550323382,232.03813145455206 76.45805369131267,240.08686716802185 80.35402684519067,253.9601941673318 61.41778523521498,259.1494045564323 59.877516778185964,258.0903842092375 57.25,247.3942160019651 57.52181208040565,244.53482497448567 76.27684563724324,239.02782668644795 75.18959731515497,232.03813145455206 76.45805369131267,239.8750591611606 81.1694630868733,252.2657523052767 79.90100671118125,255.12512128608068 61.05536912754178,258.6198945225915 59.696308724582195,257.666775756923 57.25,247.7119256129954 58.427852348890156,244.7466319971718 75.18959731515497,239.5573470669333 75.46140939556062,233.5207981512649 80.44463087245822,252.58346037281444 79.81040268437937,255.44282844744157 61.145973154343665,258.72579655167647 57.52181208040565,249.08866609662073 57.52181208040565,245.4879562233109 75.73322147643194,239.45144301321125 77.63590604020283,241.46361812157556 80.44463087245822,254.4897066616104 72.19966442929581,258.30218836816493 73.01510067144409,261.90285222476814 86.60570469778031,257.03136274323333 97.75,255.33692607143894 73.92114093946293,260.3143256465555 70.84060402680188,262.96186854544794 81.62248322134838,259.4671104424633" stroke="#4DD2FF" stroke-linecap="round" stroke-linejoin="round" stroke-width="0.5"><title>2024-07-14 4.2km</title><desc>1720963947536</desc></polyline><polyline fill="none" points="102.25,252.53308461932465 127.85344827594236,243.82722355576698 142.28448275849223,242.05883833696134 140.30603448254988,241.10662990564015 135.99999999953434,244.64340053044725 113.88793103396893,248.31619051506277 103.76293103396893,252.26102735148743 103.5301724136807,253.89337009447627 116.09913793066517,247.90810325636994 142.75,241.92280860384926 136.23275862028822,245.18751822621562 115.40086206886917,248.0441323572304 107.37068965472281,251.9889700266067 105.27586206886917,251.71691264444962 115.16810344811529,247.36398670997005 141.46982758585364,241.10662990564015 135.65086206886917,244.9154594069114 129.01724137924612,245.0514888240723 105.27586206886917,251.8529413427459 126.2241379301995,243.82722355576698 131.69396551698446,244.23531210783403 141.46982758585364,241.51471931941342 138.32758620660752,244.09928260475863 114.3534482754767,247.7720741411904 104.22844827594236,252.26102735148743 112.49137931037694,249.26839361642487 119.59051724104211,242.6029571244726 123.89655172359198,245.32354761427268 135.06896551698446,243.55516444973182 125.17672413727269,246.9558991495287" stroke="#4DD2FF" stroke-linecap="round" stroke-linejoin="round" stroke-width="0.5"><title>2024-07-07 3.0km</title><desc>1720361789036</desc></polyline></svg>