<?xml version="1.0" encoding="utf-8" ?>
<svg baseProfile="full" height="300mm" version="1.1" viewBox="0,0,200,300" width="200mm" xmlns="http://www.w3.org/2000/svg" xmlns:ev="http://www.w3.org/2001/xml-events" xmlns:xlink="http://www.w3.org/1999/xlink"><defs /><rect fill="#222222" height="300" width="200" x="0" y="0" /><text fill="#FFFFFF" style="font-size:12px; font-family:Arial; font-weight:bold;" x="10" y="20">Runs</text><text fill="#FFFFFF" style="font-size:4px; font-family:Arial" x="10" y="280">Runner</text><text fill="#FFFFFF" style="font-size:9px; font-family:Arial" x="10" y="290">Jay</text><text fill="#FFFFFF" style="font-size:4px; font-family:Arial" x="65" y="280">SPECIAL TRACKS</text><rect fill="yellow" height="2.6" width="2.6" x="65" y="283" /><text fill="#FFFFFF" style="font-size:3px; font-family:Arial" x="70" y="285.5">Over 5.0 km</text><rect fill="red" height="2.6" width="2.6" x="65" y="287" /><text fill="#FFFFFF" style="font-size:3px; font-family:Arial" x="70" y="289.5">Over 10.0 km</text><text fill="#FFFFFF" style="font-size:4px; font-family:Arial" x="120" y="280">STATISTICS</text><text fill="#FFFFFF" style="font-size:3px; font-family:Arial" x="120" y="285">Number: 20</text><text fill="#FFFFFF" style="font-size:3px; font-family:Arial" x="120" y="290">Weekly: 1.2</text><text fill="#FFFFFF" style="font-size:3px; font-family:Arial" x="141" y="285">Total: 75.3 km</text><text fill="#FFFFFF" style="font-size:3px; font-family:Arial" x="141" y="290">Avg: 3.8 km</text><text fill="#FFFFFF" style="font-size:3px; font-family:Arial" x="167" y="285">Min: 2.1 km</text><text fill="#FFFFFF" style="font-size:3px; font-family:Arial" x="167" y="290">Max: 5.2 km</text><polyline fill="none" points="24.542185730533674,70.3797119462979 25.046715741744265,68.93222797138151 24.404586636461318,68.02084705460584 18.671291053295135,68.2889004352619 16.97423556051217,61.855580229486804 12.25,51.72293555390206 12.387599094072357,50.597073658631416 36.78850509622134,42.01899626242812 52.75,34.620288053672994 27.98216308024712,45.664696870953776 12.387599094072357,50.48984858600306 16.97423556051217,61.426689316518605 19.084088335279375,68.66417493036715 29.358154020272195,67.21668606332969 39.67808607011102,63.6247514145216 41.191676104441285,68.66417493036715" stroke="#4DD2FF" stroke-linecap="round" stroke-linejoin="round" stroke-width="0.5"><title>2025-05-10 3.3km</title><desc>1746881233572</desc></polyline><polyline fill="none" points="68.31949626863934,68.90557589451782 67.03498134342954,67.53665603179252 66.24160447763279,68.11071974574588 62.53917910461314,67.31586208581575 61.33022388070822,62.8557994098519 57.25,53.05232610218809 77.65111940307543,45.76581187508418 97.75,36.094424105482176 76.66884328378364,46.25158344145166 78.21781716425903,56.40849599582725 73.3442164179869,58.79312665318139 61.33022388070822,62.060931759595405 62.425839552422985,67.27170328251668 66.35494403005578,67.36002088428359" stroke="#4DD2FF" stroke-linecap="round" stroke-linejoin="round" stroke-width="0.5"><title>2025-05-09 3.2km</title><desc>1746800655160</desc></polyline><polyline fill="none" points="121.7004121011123,72.75 120.5676625771448,69.71257715905085 113.17147451126948,69.01163164980244 111.03924011392519,61.145419684413355 104.04284599726088,46.26948250859277 103.8429490220733,43.77714954485418 137.1591114825569,32.25 141.15705097769387,50.00796615850413 131.96179013885558,53.98008426773595 111.17250476358458,59.821395558305085 113.10484218643978,69.01163164980244 121.36725047649816,69.01163164980244 122.76652929978445,71.81540968909394 126.49793949513696,70.33563927467912" stroke="#4DD2FF" stroke-linecap="round" stroke-linejoin="round" stroke-width="0.5"><title>2025-05-07 2.1km</title><desc>1746628465614</desc></polyline><polyline fill="none" points="159.46286031068303,69.42579471023055 158.8342572064139,68.5860932552605 153.71563192922622,68.74353738620994 151.42572062113322,60.76630531731644 148.2827051000204,54.573365800693864 147.4296008872334,51.37190070041106 166.33259423519485,44.75897304908722 177.0637472285889,40.14036820002366 172.21452328166924,42.60712840463384 186.71729490021244,35.679175023542484 187.75,37.09626425630995 186.896895787213,35.574205289798556 170.32871396909468,43.55184183528763 170.14911308232695,45.17884408833925 172.61862527718768,55.41309093669406 165.43458980042487,58.457082657841966 151.7849223949015,62.07835886528483 147.25,52.15914812940173 147.87860310450196,51.16196784202475 150.7971175168641,50.11230221934966 147.60920177400112,51.26693428226281 147.4296008872334,52.26411435904447 151.60532150790095,61.65850210678764 154.92793791601434,61.186162829515524 151.96452328166924,62.13084093507496 153.53603104222566,68.3761676697759 159.28325942368247,68.5860932552605" stroke="#4DD2FF" stroke-linecap="round" stroke-linejoin="round" stroke-width="0.5"><title>2025-05-04 3.9km</title><desc>1746361657097</desc></polyline><polyline fill="none" points="25.298327137483284,118.29113070160383 21.785315985092893,118.93638493609615 19.02509293658659,118.29113070160383 17.6700743495021,111.7798869300168 12.450743494089693,100.92764433397679 12.500929367961362,99.1678012277116 36.64033457217738,90.72047668538289 52.75,83.56361506390385 38.095724907005206,90.42716449697036 40.55483271367848,103.56739853747422 32.8763940515928,106.85240846767556 17.569702602224424,110.95864355569938 12.25,100.04772347788094 12.601301115006208,99.05047815543367 15.210966542595997,98.11189268680755 12.500929367961362,98.99181661027251 17.72026022267528,110.89998326811474 19.526951672742143,118.23247118853033 23.84293680288829,117.82185442373157" stroke="#4DD2FF" stroke-linecap="round" stroke-linejoin="round" stroke-width="0.5"><title>2025-05-02 3.2km</title><desc>1746193621188</desc></polyline><polyline fill="none" points="68.85393258417025,118.19128243639716 63.43876404501498,118.45722747585387 61.80056179780513,111.70217995237908 57.25,101.91517870139796 57.56853932584636,100.90455360675696 83.77977528073825,91.27691811008845 97.75,84.7874687804142 96.93089887616225,84.04277252414613 80.82191011216491,91.27691811008845 80.23033707868308,93.29820491740247 82.77865168522112,104.84066096280003 79.77528089866973,106.54275191226043 62.07359550567344,111.755369656923 57.88707865169272,102.9258017676766 62.07359550567344,111.80855935587897 63.62078651692718,118.19128243639716 68.9904494381044,118.35084947687574" stroke="#4DD2FF" stroke-linecap="round" stroke-linejoin="round" stroke-width="0.5"><title>2025-05-01 3.2km</title><desc>1746105997674</desc></polyline><polyline fill="none" points="111.82727975281887,116.78007405789685 110.76313755800948,115.49967541344813 108.76004636799917,116.08500109537272 107.1951313756872,116.15816673604422 106.60046367859468,115.71917266011587 105.5363214839017,111.65845108075882 102.31259659992065,104.70755590280169 102.37519319949206,103.8295381674834 113.2982998455409,100.13452246997622 125.97411128284875,94.86631310524535 142.75,86.37847388847149 142.31182380230166,85.71992594210315 138.5247295210138,87.21994999729213 137.7422720248578,88.06142406136496 124.34659969096538,94.75655789126176 110.63794435875025,100.20769148026011 110.2936630602926,101.08571839757496 102.59428129834123,103.61003338583396 102.25,104.23196323911543 105.44242658431176,111.0731179183349 113.76777434314135,108.9146933327429 105.47372488409746,111.21945130164386 102.28129829990212,104.4514676265826 102.37519319949206,103.64661752572283 109.66769706341438,101.37839354205062 103.0637557960581,103.31736012728652 102.37519319949206,103.93929050609586 107.06993817619514,115.9020869260421" stroke="yellow" stroke-linecap="round" stroke-linejoin="round" stroke-width="0.5"><title>2025-04-20 5.2km</title><desc>1745154044961</desc></polyline><polyline fill="none" points="165.90030217403546,119.66998803167371 159.4334386214614,120.14738288673107 157.45934343198314,119.1130269850255 154.05573103600182,106.8597797784023 148.33766221045516,93.25366785429651 181.96535268286243,81.0 186.66233778954484,99.22129106003558 176.92800633702427,103.3588153970195 170.8695762718562,104.23405801772606 155.62139273807406,109.56505929277046 158.68464389443398,119.51085634616902 163.79006248852238,118.47649957041722 166.64909690106288,119.27215875469847 167.9424696112983,121.5 172.0948767347727,119.74955386191141" stroke="#4DD2FF" stroke-linecap="round" stroke-linejoin="round" stroke-width="0.5"><title>2025-03-23 2.1km</title><desc>1742729899087</desc></polyline><polyline fill="none" points="27.070880126440898,169.60829359246418 28.168904370628297,170.25 30.852963633835316,168.8952857577242 31.27997306222096,167.25536487950012 29.998944777296856,166.3284513168037 22.92278853757307,166.18584911723156 21.33675351808779,158.55658752651652 14.504602665780112,142.86998438695446 50.55639868113212,129.75 14.443601319100708,143.01259151170962 21.397754865000024,157.41575595294125 22.983789884252474,165.90064462798182 31.03596767457202,166.18584911723156 31.828985184198245,168.25357806222746 36.70909293578006,165.90064462798182 36.953098323429,166.8988598137512" stroke="#4DD2FF" stroke-linecap="round" stroke-linejoin="round" stroke-width="0.5"><title>2025-03-16 2.5km</title><desc>1742128080108</desc></polyline><polyline fill="none" points="62.86871508369222,157.99672574919532 60.00279329600744,156.5428147871571 58.53212290513329,154.3839679642697 57.25,145.3959959851345 57.9664804469794,143.19303217172273 60.493016759632155,141.47471233282704 67.50698324013501,141.1662952033803 76.55726256966591,138.69894997088704 65.92318435758352,141.25441440645955 60.794692737283185,141.43065275688423 58.45670391060412,142.6202596774092 57.28770949714817,145.35193682281533 58.343575419159606,153.10627785514225 59.62569832406007,156.23440878119436 67.62011173181236,159.97932345312438 71.61731843557209,161.03670504831825 77.80167597765103,161.30105002911296 88.28491620114073,158.87788144580554 92.69692737422884,156.36658281157725 94.16759776510298,154.82454985458753 97.75,147.37865348529886 93.48882681550458,155.39730561728356 90.73603351949714,157.37991565593984 86.5502793295309,159.18628550053108 77.00977653637528,161.12482006047503 71.16480446909554,160.72830235946458 63.6229050278198,157.95266791561153 67.62011173181236,160.02338107291143 73.42737430147827,161.21293505409267 78.2164804469794,161.30105002911296 81.08240223466419,160.41989944296074 77.00977653637528,161.08076255681226 71.31564245815389,160.6401872638089 66.75279329600744,159.45063165196916 62.18994413409382,157.335857757309 64.49022346362472,157.73237867790158" stroke="#4DD2FF" stroke-linecap="round" stroke-linejoin="round" stroke-width="0.5"><title>2025-03-08 4.9km</title><desc>1741407347536</desc></polyline><polyline fill="none" points="114.83474576263689,167.49165107647423 108.7025423727464,167.01024588634027 107.37542372872122,161.233347911475 102.38728813524358,150.37474096615915 102.75338983046822,149.30491487440304 130.21101694903336,139.4089163763274 142.3381355931051,133.73868954423233 142.75,133.20375920686638 142.15508474572562,132.50834892352577 124.94830508460291,140.42527107908973 102.25,148.0746120744734 108.97711864393204,166.79628787722322 118.54152542352676,166.36837158777053 125.54322033887729,164.28227449880796" stroke="#4DD2FF" stroke-linecap="round" stroke-linejoin="round" stroke-width="0.5"><title>2025-03-02 3.1km</title><desc>1740908689410</desc></polyline><polyline fill="none" points="167.23600931162946,170.25 166.31204190244898,167.70435185998213 158.19432823476382,167.62721086881356 156.34639341617003,158.67880059650633 148.55866810888983,143.17310597246978 148.88865646952763,142.2473824469489 182.28347854921594,130.67573936731787 186.441331891343,147.64741980441613 177.2016577979084,151.89027828915277 156.01640505576506,157.59881263179705 148.82265879726037,142.2473824469489 183.33944130293094,129.75 182.41547389351763,131.0614637574181 186.17734120273963,147.64741980441613 175.617713667918,152.044563588046" stroke="#4DD2FF" stroke-linecap="round" stroke-linejoin="round" stroke-width="0.5"><title>2024-12-01 3.0km</title><desc>1733059607886</desc></polyline><polyline fill="none" points="31.67857142863795,218.78783897007816 22.178571429103613,218.87132783600828 20.035714285913855,209.6040098751546 12.25,191.56999862578232 47.46428571455181,178.62867216399172 50.035714285913855,184.22269089281326 52.75,197.41439918754622 44.39285714318976,201.67243524320656 19.82142857182771,208.1846813141019 12.392857142724097,191.9874572417466 48.535714285913855,178.62867216399172 52.67857142863795,197.6648725317791 41.17857142863795,203.34224704274675 20.392857143189758,210.02145896712318 22.607142857275903,218.78783897007816 29.892857142724097,218.37039450765587" stroke="#4DD2FF" stroke-linecap="round" stroke-linejoin="round" stroke-width="0.5"><title>2024-11-03 3.4km</title><desc>1730641178795</desc></polyline><polyline fill="none" points="82.87653875327669,219.0 78.76116341119632,217.68106965895277 77.43362297792919,218.22415890963748 77.49999999976717,216.98281146091176 75.97332850191742,216.20696824009065 68.47272505634464,216.12938387301983 64.755611844128,203.25026534416247 58.71530287433416,190.68126929854043 92.23569880495779,178.57758834207198 96.81571329850703,196.26751631585648 87.19104516017251,200.379587667936 65.6185131254606,205.9657609286951 58.250663723098114,190.9916174695827 60.44110543699935,189.12952647608472 92.36845284793526,178.5 96.74933627690189,196.18992984259967 87.98756941989996,199.91407131182496 66.14952929853462,206.27610264183022 64.42372673586942,204.49163599975873 58.184286701260135,190.68126929854043 92.03656773990951,178.65517667564563 96.81571329850703,196.42268923774827 87.39017622498795,200.379587667936 66.74692249344662,206.27610264183022 66.2159063203726,209.92260795197217 67.5434467534069,216.05179949756712 76.7698527618777,215.66387749800924" stroke="yellow" stroke-linecap="round" stroke-linejoin="round" stroke-width="0.5"><title>2024-08-18 5.1km</title><desc>1723984957861</desc></polyline><polyline fill="none" points="120.33046120288782,219.0 122.75523985852487,217.58291214430938 121.47904056613334,214.45039205660578 116.310433432227,215.56915082596242 113.31136509520002,214.89789577684132 111.33325619227253,206.9173701965483 104.5055899778381,190.58311606192729 137.75058154342696,178.5 137.2401018263772,180.96139226440573 140.49441002192907,195.43122178839985 131.24196515232325,200.2047087509418 111.58849605056457,205.50025809393264 107.95132806710899,199.53343909670366 104.37797004892491,190.58311606192729 136.28295235708356,179.0221142277005 138.6439210481476,185.2874548456748 140.55821998626925,195.5058077701251 132.64578437409364,199.7571957189357 111.39706615637988,205.35108823346673 104.25035011954606,190.9560484534013 134.68770324182697,179.3950527253328 136.8572420384735,179.69340338144684 140.7496498802211,196.02790942328284 130.54005554155447,200.4284651603084 112.22659569676034,205.27650329156313 111.52468608599156,206.54444623494055 113.43898502457887,214.52497602958465 119.11807187530212,214.82331184321083" stroke="yellow" stroke-linecap="round" stroke-linejoin="round" stroke-width="0.5"><title>2024-08-11 5.0km</title><desc>1723380974002</desc></polyline><polyline fill="none" points="162.77404526178725,216.92921482631937 155.670792079065,217.5318225819501 153.72312588384375,210.16657739551738 165.4664073549211,205.81434683559928 162.888613861287,190.0121508310549 187.75,179.9681774180499 177.20968882599846,184.65538481646217 177.03783592628315,187.3337734824163 179.84476661961526,199.85509037133306 170.79384724167176,204.14040404872503 153.43670438462868,208.5596034374903 147.53642149921507,196.44021029421128 148.22383309761062,194.49840753612807 163.63330975966528,189.6103949501412 185.34405940608121,180.77170114801265 177.55339462519623,183.98578588158125 176.52227722783573,185.25802325305995 179.78748231963255,199.72117385204183 171.6531117395498,203.67169927625218 153.608557284344,208.4256887571537 147.25,195.90454116201727 150.4006364918314,193.8957778844633 175.94943422917277,184.7893045186065 181.8497171148192,208.02394454623573" stroke="yellow" stroke-linecap="round" stroke-linejoin="round" stroke-width="0.5"><title>2024-08-04 5.0km</title><desc>1722777733849</desc></polyline><polyline fill="none" points="18.35352112702094,267.73595101723913 22.11830985895358,265.935773284873 21.43380281701684,264.53563149936963 13.961267605656758,264.3356109909946 12.25,257.46820175478933 23.82957746484317,252.86766251706285 24.228873239597306,250.66739276825683 21.49084507022053,237.13223136827582 45.84788732370362,227.26404898276087 49.327464788686484,236.26543774473248 50.011971831088886,243.1997534040711 52.57887323945761,252.33426449430408 51.55211267597042,254.00113181874622 43.45211267587729,257.1348304730491 41.62676056334749,258.7350110199186 25.255633802851662,263.60220191726694 14.189436619635671,264.3356109909946 12.535211267415434,257.0014819109929 24.342957746703178,253.134361359349 20.86338028172031,237.46561321429908 45.56267605652101,227.5974360408727 49.49859154922888,236.46546714822762 52.75,253.134361359349 42.88169014081359,257.40152751258574 42.026056338101625,258.6683369113598 35.58028169022873,260.201839624322 35.751408451003954,262.6020972619299 36.72112676058896,262.5354235620471 35.808450704207644,263.5355283228564 24.114788732258603,265.4690597014269 19.209154929732904,267.20256555761443 27.708450704347342,263.802222658298 33.412676056381315,263.33550749730784 37.40563380299136,261.80201239680173 28.84929577470757,264.8023254123982" stroke="yellow" stroke-linecap="round" stroke-linejoin="round" stroke-width="0.5"><title>2024-07-28 5.0km</title><desc>1722171325984</desc></polyline><polyline fill="none" points="76.19475138094276,265.5900249684346 75.89640883961692,262.53876415640116 66.72237569047138,262.8874802486389 64.48480662982911,253.0361939362483 79.7748618782498,248.15409696969436 79.92403314914554,244.31814338092227 75.67265193350613,228.01514173095347 74.70303867384791,227.4920454369858 57.25,233.246086437779 75.44889502739534,228.18950708868215 83.57872928166762,258.3541595581919 82.23618784500286,260.9695399181219 76.71685082884505,262.2772269906127 77.08977900538594,264.8054161227192 92.08149171248078,260.70800225500716 94.31906077312306,261.7541524100816 97.75,260.0105680815759 75.44889502739534,266.02591844956623 82.90745856333524,262.97465924877906 88.8743093921803,262.62594319315394 97.07872928166762,259.3131333187921 94.6919889501296,261.40543583902763 81.41574585577473,263.84644874278456 75.29972375649959,266.46181170031196 80.52071823226288,263.5849119913182 92.30524861859158,260.9695399181219 93.87154696136713,261.57979414297733 96.10911602154374,259.8362094461336 97.60082872863859,259.7490301147336 95.21408839803189,261.1438983142143 82.8328729281202,263.67209091759287 71.94337016576901,267.5079545630142 93.051104972139,260.0105680815759 97.22790055209771,259.5746714241104 95.06491712667048,261.2310774983489 81.56491712713614,263.4977330555557 74.10635359119624,266.46181170031196 83.65331491688266,262.10286883387016 87.2334254141897,262.53876415640116 92.52900552470237,260.6208230157499 94.6174033144489,261.7541524100816 97.153314916417,260.09774738556007 89.9930939222686,262.71312222094275 86.04005524888635,262.8874802486389 88.35220994474366,261.7541524100816 93.79696132568642,261.57979414297733 97.153314916417,259.4874920649454 95.06491712667048,261.49261499545537" stroke="#4DD2FF" stroke-linecap="round" stroke-linejoin="round" stroke-width="0.5"><title>2024-07-21 4.9km</title><desc>1721568919550</desc></polyline><polyline fill="none" points="125.26342281885445,259.7848162279697 117.833892616909,261.90285222476814 115.3875838923268,258.72579655167647 106.05536912754178,258.93760057660984 102.7936241608113,248.3473445327254 102.97483221441507,246.6528931853245 123.54194630822167,240.40457909414545 120.82382550323382,232.03813145455206 121.45805369131267,240.08686716802185 125.35402684519067,253.9601941673318 106.41778523521498,259.1494045564323 104.87751677818596,258.0903842092375 102.25,247.3942160019651 102.52181208040565,244.53482497448567 121.27684563724324,239.02782668644795 120.18959731515497,232.03813145455206 121.45805369131267,239.8750591611606 126.1694630868733,252.2657523052767 124.90100671118125,255.12512128608068 106.05536912754178,258.6198945225915 104.6963087245822,257.666775756923 102.25,247.7119256129954 103.42785234889016,244.7466319971718 120.18959731515497,239.5573470669333 120.46140939556062,233.5207981512649 125.44463087245822,252.58346037281444 124.81040268437937,255.44282844744157 106.14597315434366,258.72579655167647 102.52181208040565,249.08866609662073 102.52181208040565,245.4879562233109 120.73322147643194,239.45144301321125 122.63590604020283,241.46361812157556 125.44463087245822,254.4897066616104 117.19966442929581,258.30218836816493 118.01510067144409,261.90285222476814 131.6057046977803,257.03136274323333 142.75,255.33692607143894 118.92114093946293,260.3143256465555 115.84060402680188,262.96186854544794 126.62248322134838,259.4671104424633" stroke="#4DD2FF" stroke-linecap="round" stroke-linejoin="round" stroke-width="0.5"><title>2024-07-14 4.2km</title><desc>1720963947536</desc></polyline><polyline fill="none" points="147.25,252.53308461932465 172.85344827594236,243.82722355576698 187.28448275849223,242.05883833696134 185.30603448254988,241.10662990564015 180.99999999953434,244.64340053044725 158.88793103396893,248.31619051506277 148.76293103396893,252.26102735148743 148.5301724136807,253.89337009447627 161.09913793066517,247.90810325636994 187.75,241.92280860384926 181.23275862028822,245.18751822621562 160.40086206886917,248.0441323572304 152.3706896547228,251.9889700266067 150.27586206886917,251.71691264444962 160.1681034481153,247.36398670997005 186.46982758585364,241.10662990564015 180.65086206886917,244.9154594069114 174.01724137924612,245.0514888240723 150.27586206886917,251.8529413427459 171.2241379301995,243.82722355576698 176.69396551698446,244.23531210783403 186.46982758585364,241.51471931941342 183.32758620660752,244.09928260475863 159.3534482754767,247.7720741411904 149.22844827594236,252.26102735148743 157.49137931037694,249.26839361642487 164.5905172410421,242.6029571244726 168.89655172359198,245.32354761427268 180.06896551698446,243.55516444973182 170.17672413727269,246.9558991495287" stroke="#4DD2FF" stroke-linecap="round" stroke-linejoin="round" stroke-width="0.5"><title>2024-07-07 3.0km</title><desc>1720361789036</desc></polyline></svg>