<?xml version="1.0" encoding="utf-8" ?>
<svg baseProfile="full" height="300mm" version="1.1" viewBox="0,0,200,300" width="200mm" xmlns="http://www.w3.org/2000/svg" xmlns:ev="http://www.w3.org/2001/xml-events" xmlns:xlink="http://www.w3.org/1999/xlink"><defs /><rect fill="#222222" height="300" width="200" x="0" y="0" /><text fill="#FFFFFF" style="font-size:12px; font-family:Arial; font-weight:bold;" x="10" y="20">Runs</text><text fill="#FFFFFF" style="font-size:4px; font-family:Arial" x="10" y="280">Runner</text><text fill="#FFFFFF" style="font-size:9px; font-family:Arial" x="10" y="290">Jay</text><text fill="#FFFFFF" style="font-size:4px; font-family:Arial" x="65" y="280">SPECIAL TRACKS</text><rect fill="yellow" height="2.6" width="2.6" x="65" y="283" /><text fill="#FFFFFF" style="font-size:3px; font-family:Arial" x="70" y="285.5">Over 5.0 km</text><rect fill="red" height="2.6" width="2.6" x="65" y="287" /><text fill="#FFFFFF" style="font-size:3px; font-family:Arial" x="70" y="289.5">Over 10.0 km</text><text fill="#FFFFFF" style="font-size:4px; font-family:Arial" x="120" y="280">STATISTICS</text><text fill="#FFFFFF" style="font-size:3px; font-family:Arial" x="120" y="285">Number: 25</text><text fill="#FFFFFF" style="font-size:3px; font-family:Arial" x="120" y="290">Weekly: 1.4</text><text fill="#FFFFFF" style="font-size:3px; font-family:Arial" x="141" y="285">Total: 99.3 km</text><text fill="#FFFFFF" style="font-size:3px; font-family:Arial" x="141" y="290">Avg: 4.0 km</text><text fill="#FFFFFF" style="font-size:3px; font-family:Arial" x="167" y="285">Min: 2.1 km</text><text fill="#FFFFFF" style="font-size:3px; font-family:Arial" x="167" y="290">Max: 5.2 km</text><polyline fill="none" points="19.574789916048758,60.11130241968203 16.035294117755257,60.28810252060066 14.613445378374308,55.40838546154555 11.800000000046566,49.43240318837343 11.860504201613367,48.58373433339875 28.438655462116003,42.71371584656299 44.20000000006985,35.1108280592307 43.98823529400397,34.47429938710411 38.270588235231116,37.444756167562446 38.45210084039718,37.975192104349844 37.33277310919948,38.682438712683506 27.65210084046703,43.244143434334546 29.557983193313703,51.09437346391496 36.213445378118195,48.51301183167379 40.66050420165993,46.24988388828933 38.66386554623023,38.08127919083927 27.289075630251318,43.49167602084344 28.98319327738136,51.3065392881108 25.957983193336986,52.827057093789335 18.606722689117305,55.26694332662737 14.946218487573788,55.938792935048696 12.223529411945492,50.493236231588526 11.921008403529413,48.61909557855688 12.40504201699514,48.40692805100116 11.800000000046566,49.22023617630475 15.036974790040404,55.97415340336738 16.00504201685544,60.040582353190985 19.514285714365542,59.93450222539832 20.028571428731084,60.18202247127192 20.45210084039718,61.52570061289589 20.99663865554612,61.419620955653954" stroke="yellow" stroke-linecap="round" stroke-linejoin="round" stroke-width="0.5"><title>2025-05-25 5.1km</title><desc>1748170625707</desc></polyline><polyline fill="none" points="54.84609665442258,61.60363249544753 56.201115241623484,61.075698941160226 55.80966542765964,60.16061213245848 54.2739776953822,60.47737323521869 52.01561338303145,60.055025031324476 50.81115241639782,55.6555327437527 47.800000000046566,48.47543657646747 58.91115241649095,44.81493584837881 67.6434944239445,41.25998799590161 80.20000000006985,34.9595416901866 80.04944237926975,34.39636750452337 68.6672862455016,40.02806652444997 68.84795539046172,40.90801089743036 63.698884758516215,43.090262914280174 65.32490706327371,50.62244233151432 64.3011152416002,51.74873490043683 60.44684014876839,53.297380966774654 51.26282527879812,55.831513550452655 47.890334572526626,49.28496496123262 48.01078066916671,48.40504271091777 63.75910780671984,42.984670403791824 74.71970260224771,37.9865866289183 76.67695167299826,46.680388359643985 60.898513011285104,53.19179169094423 55.65910780674312,54.59964595164638" stroke="yellow" stroke-linecap="round" stroke-linejoin="round" stroke-width="0.5"><title>2025-05-24 5.2km</title><desc>1748085426224</desc></polyline><polyline fill="none" points="90.5097014924977,61.7427051125851 92.23246268660296,61.03616758217686 91.96044776134659,60.11766656147665 87.9104477611836,60.011685512115946 86.88283582078293,55.772416003310354 83.80000000004657,49.30742655103677 83.83022388070822,48.17692375535262 99.51641791057773,42.70099675512756 108.8555970150046,38.602824985195184 116.19999999995343,34.71658122492954 115.7466417910764,34.2572948874149 110.48768656724133,36.97767399766599 110.45746268657967,37.6842623539269 109.55074626870919,38.249531964043854 99.00261194037739,43.30158667470096 100.69514925370459,51.2504693029623 96.49402985081542,52.981534246500814 86.88283582078293,55.631106094399 88.06156716425903,59.90570442925673 91.02350746281445,59.94103146062116" stroke="#4DD2FF" stroke-linecap="round" stroke-linejoin="round" stroke-width="0.5"><title>2025-05-18 3.3km</title><desc>1747570670414</desc></polyline><polyline fill="none" points="130.94870848732535,60.76958271479816 128.49778597790282,61.468299460655544 127.60110701119993,59.96605663243099 124.16383763845079,60.210608255438274 122.69926199270412,55.24966853501974 119.85977859806735,49.485102863574866 119.82988929899875,48.471926394995535 138.18191881943494,41.93861049410771 152.20000000006985,35.19553414249094 151.81143911438994,34.531700539344456 146.1025830260478,37.39665708175744 146.13247232488357,38.16529973648721 142.69520295213442,40.01702243220643 135.61143911455292,43.161433447821764 137.25535055366345,50.56815013918094 136.86678966798354,51.05726710133604 134.77453874563798,43.440935202437686 146.28191881929524,38.06048493416165 146.042804428027,37.50147209444549 140.5431734318845,40.121836614387576 140.57306273072027,40.75072100982652 138.9889298893977,41.6591074699536 135.61143911455292,43.09155797227868 137.07601476029959,50.9524563846644 136.56789667916019,50.84764563472709 134.77453874563798,43.440935202437686 127.7804428046802,46.06125266460003 127.1228782288963,45.46731585927773 119.80000000004657,47.773182194534456 120.00922509247903,49.17066911922302 123.14760147617199,55.878524166939314 123.83505535067525,58.67342362154159" stroke="yellow" stroke-linecap="round" stroke-linejoin="round" stroke-width="0.5"><title>2025-05-17 5.1km</title><desc>1747484576135</desc></polyline><polyline fill="none" points="163.10387736698613,60.857328239508206 164.15563570777886,60.51584553779685 163.10387736698613,59.42309846842545 159.9193868349539,59.525543663068675 158.72155094670597,55.15451983775711 155.80000000004657,48.97351809381507 155.97529305680655,48.22222805916681 172.1022542831488,42.48504658511956 187.2066726781195,35.1426717605209 188.20000000006985,37.97718971190625 187.2943192066159,35.210973690031096 170.69990982871968,43.37295037737931 172.2483318304876,50.441943574958714 172.62813345354516,50.476092925382545 171.07971145177726,42.99729907058645 185.62903516704682,35.996444843447534 170.75834084756207,43.23634995272732 172.1314697926864,51.12492989821476 168.01208295766264,52.86653849235154 159.01370604138356,55.32526406497345 160.1823264202103,59.35480165400077 163.6297565374989,59.35480165400077 164.44779080257285,60.27680743194651 168.8885482416954,59.01331736522843" stroke="yellow" stroke-linecap="round" stroke-linejoin="round" stroke-width="0.5"><title>2025-05-11 5.2km</title><desc>1746960817262</desc></polyline><polyline fill="none" points="21.63374858442694,113.30376955703832 22.03737259353511,112.1457823771052 21.52366930921562,111.41667764369049 16.937032842775807,111.6311203482037 15.579388448735699,106.48446418362437 11.800000000046566,98.37834844313329 11.910079275257885,97.47765892691677 31.430804077070206,90.61519700995996 44.200000000186265,84.69623044296168 24.385730464477092,93.53175749679212 11.910079275257885,97.39187886880245 15.579388448735699,106.14135145323235 17.267270668409765,111.93133994430536 25.486523216357455,110.77334885066375 33.74246885627508,107.89980113165802 34.953340883599594,111.93133994430536" stroke="#4DD2FF" stroke-linecap="round" stroke-linejoin="round" stroke-width="0.5"><title>2025-05-10 3.3km</title><desc>1746881233572</desc></polyline><polyline fill="none" points="56.655597014934756,112.1244607156259 55.627985074650496,111.02932482541655 54.9932835821528,111.4885757965967 52.031343283713795,110.8526896686526 51.06417910452001,107.2846395278757 47.800000000046566,99.44186088175047 64.12089552241378,93.61264950007899 80.20000000006985,85.8755392844032 63.335074626957066,94.0012667531555 64.57425373129081,102.12679679665598 60.675373134436086,104.03450132254511 51.06417910452001,106.64874540769961 51.940671641845256,110.81736262602499 55.08395522402134,110.88801670743851" stroke="#4DD2FF" stroke-linecap="round" stroke-linejoin="round" stroke-width="0.5"><title>2025-05-09 3.2km</title><desc>1746800655160</desc></polyline><polyline fill="none" points="99.36032968084328,115.20000000001164 98.45413006166928,112.77006172726396 92.53717960906215,112.20930531987688 90.83139209123328,105.91633574757725 85.23427679762244,94.01558600692078 85.07435921765864,92.02171963592991 111.7272891860921,82.80000000004657 114.92564078210853,97.00637292681495 107.56943211099133,100.1840674142586 90.9380038108211,104.85711644665571 92.48387374915183,112.20930531987688 99.09380038129166,112.20930531987688 100.21322343987413,114.45232775132172 103.19835159601644,113.26851141976658" stroke="#4DD2FF" stroke-linecap="round" stroke-linejoin="round" stroke-width="0.5"><title>2025-05-07 2.1km</title><desc>1746628465614</desc></polyline><polyline fill="none" points="129.57028824836016,112.54063576817862 129.06740576494485,111.86887460420257 124.97250554338098,111.99482990897377 123.14057649672031,105.61304425387061 120.62616407987662,100.65869264057255 119.94368070969358,98.09752056034631 135.06607538787648,92.80717843928142 143.65099778259173,89.11229456003639 139.77161862514913,91.08570272370707 151.37383592012338,85.54334001883399 152.19999999995343,86.6770114050596 151.51751662953757,85.45936423185049 138.26297117513604,91.8414734682301 138.11929046572186,93.14307527066558 140.09490022156388,101.33047274936689 134.3476718403399,103.76566612627357 123.42793791578151,106.66268709223368 119.80000000004657,98.72731850351556 120.30288248346187,97.92957427361398 122.63769401330501,97.08984177547973 120.08736141910776,98.0135474257986 119.94368070969358,98.81129148721811 123.2842572061345,106.32680168541265 125.94235033262521,105.9489302636066 123.5716186251957,106.70467274807743 124.82882483373396,111.70093413582072 129.42660753871314,111.86887460420257" stroke="#4DD2FF" stroke-linecap="round" stroke-linejoin="round" stroke-width="0.5"><title>2025-05-04 3.9km</title><desc>1746361657097</desc></polyline><polyline fill="none" points="166.23866170994006,112.63290456132381 163.42825278802775,113.14910794887692 161.220074349083,112.63290456132381 160.13605947955512,107.42390954404254 155.96059479517862,98.74211546720471 156.0007434943691,97.33424098216346 175.31226765783504,90.57638134833542 188.19999999995343,84.85089205112308 176.47657992551103,90.34173159758211 178.44386617094278,100.85391883002012 172.30111524136737,103.48192677416955 160.05576208163984,106.76691484457115 155.80000000004657,98.03817878235714 156.08104089205153,97.24038252438186 158.16877323412336,96.4895141494635 156.0007434943691,97.19345328822965 160.1762081780471,106.71998661450925 161.62156133819371,112.58597695085336 165.07434944226407,112.257483539026" stroke="#4DD2FF" stroke-linecap="round" stroke-linejoin="round" stroke-width="0.5"><title>2025-05-02 3.2km</title><desc>1746193621188</desc></polyline><polyline fill="none" points="21.083146067569032,163.5530259491352 16.751011236105114,163.76578198067727 15.44044943829067,158.36174396189745 11.800000000046566,150.53214296113583 12.054831460816786,149.72364288539393 33.02382022468373,142.02153448807076 44.200000000186265,136.82997502433136 43.54471910116263,136.23421801932273 30.657528089825064,142.02153448807076 30.184269662946463,143.6385639339278 32.22292134840973,152.87252877024002 29.820224719122052,154.23420152981998 15.658876404631883,158.4042957255151 12.309662921354175,151.34064141413546 15.658876404631883,158.446847484709 16.896629213588312,163.5530259491352 21.192359550623223,163.6806795815064" stroke="#4DD2FF" stroke-linecap="round" stroke-linejoin="round" stroke-width="0.5"><title>2025-05-01 3.2km</title><desc>1746105997674</desc></polyline><polyline fill="none" points="55.46182380232494,162.42405924631748 54.61051004647743,161.3997403307585 53.00803709437605,161.868000876304 51.75610510061961,161.92653338884702 51.280370942899026,161.57533812811016 50.42905718716793,158.32676086461288 47.850077279959805,152.7660447222297 47.900154559640214,152.06363053398672 56.638639876502566,149.10761797596933 66.779289026279,144.89305048418464 80.20000000006985,138.1027791107772 79.84945904184133,137.57594075368252 76.81978361681104,138.77595999784535 76.19381761993282,139.4491392491036 65.47727975284215,144.80524631301523 54.5103554870002,149.16615318419645 54.2349304483505,149.8685747180716 48.07542503881268,151.8880267086788 47.800000000046566,152.38557059128652 50.35394126747269,157.85849433467956 57.014219474513084,156.1317546661885 50.378979907371104,157.97556104132673 47.82503863994498,152.56117410125444 47.900154559640214,151.9172940205608 53.734157650731504,150.10271483365796 48.4510046368232,151.65388810183504 47.900154559640214,152.1514324048767 51.65595054102596,161.72166954082786" stroke="yellow" stroke-linecap="round" stroke-linejoin="round" stroke-width="0.5"><title>2025-04-20 5.2km</title><desc>1745154044961</desc></polyline><polyline fill="none" points="98.7202417391818,164.73599042528076 93.54675089707598,165.1179063093732 91.96747474558651,164.29042158799712 89.24458482861519,154.4878238227102 84.67012976831757,143.6029342834372 111.57228214619681,133.79999999998836 115.3298702314496,148.37703284801682 107.54240506957285,151.68705231760396 102.6956610174384,152.38724641420413 90.49711419036612,156.65204743418144 92.94771511550061,164.60868507693522 97.03204999072477,163.7811996563687 99.31927752075717,164.41772700374713 100.35397568903863,166.20000000001164 103.67590138758533,164.79964308952913" stroke="#4DD2FF" stroke-linecap="round" stroke-linejoin="round" stroke-width="0.5"><title>2025-03-23 2.1km</title><desc>1742729899087</desc></polyline><polyline fill="none" points="131.65670410101302,165.68663487397134 132.53512349631637,166.20000000001164 134.68237090692855,165.11622860614443 135.02397844963707,163.80429190356517 133.99915582174435,163.06276105344296 128.33823082991876,162.94867929379689 127.0694028143771,156.8452700211783 121.60368213243783,144.29598750954028 150.44511894485913,133.80000000004657 121.55488105514087,144.41007320937933 127.11820389190689,155.93260476231808 128.38703190744855,162.72051570238546 134.82877413951792,162.94867929379689 135.46318814717233,164.60286244982854 139.36727434862405,162.72051570238546 139.56247865851037,163.5190878509893" stroke="#4DD2FF" stroke-linecap="round" stroke-linejoin="round" stroke-width="0.5"><title>2025-03-16 2.5km</title><desc>1742128080108</desc></polyline><polyline fill="none" points="160.29497206723318,156.39738059934461 158.00223463703878,155.23425182973733 156.82569832424633,153.50717437142157 155.80000000004657,146.31679678810178 156.37318435765337,144.554425737384 158.3944134080084,143.1797698662558 164.0055865922477,142.9330361626926 171.24581005598884,140.95915997668635 162.73854748613667,143.00353152517346 158.6357541900361,143.14452220548992 156.765363128623,144.0962077419099 155.83016759785824,146.28154945827555 156.67486033542082,152.48502228411962 157.70055865950417,154.9875270249613 164.0960893855663,157.98345876249368 167.29385474871378,158.8293640386546 172.24134078226052,159.04084002328455 180.62793296098243,157.10230515664443 184.15754189959262,155.09326624925598 185.33407821226865,153.85963988365256 188.20000000006985,147.90292278825655 184.79106145258993,154.3178444938385 182.58882681571413,155.9039325247577 179.24022346374113,157.3490284004074 171.6078212291468,158.8998560483742 166.93184357543942,158.58264188756584 160.89832402253523,156.36213433247758 164.0960893855663,158.0187048583466 168.741899441462,158.97034804327996 172.57318435772322,159.04084002328455 174.8659217878012,158.3359195543744 171.6078212291468,158.8646100454498 167.0525139666861,158.51214981105295 163.40223463694565,157.5605053215695 159.75195530743804,155.868686205853 161.5921787711559,156.18590294232126" stroke="#4DD2FF" stroke-linecap="round" stroke-linejoin="round" stroke-width="0.5"><title>2025-03-08 4.9km</title><desc>1741407347536</desc></polyline><polyline fill="none" points="21.867796610109508,214.99332086119102 16.962033898336813,214.60819670907222 15.900338982930407,209.98667832918 11.909830508287996,201.29979277294478 12.202711864374578,200.44393189952825 34.16881355922669,192.52713310107356 43.87050847453065,187.99095163540915 44.199999999953434,187.56300736550475 43.72406779672019,187.00667913880898 29.95864406763576,193.34021686328924 11.800000000046566,199.45968965959037 17.181694915285334,214.43703030177858 24.833220338914543,214.09469727022224 30.434576271334663,212.42581959904055" stroke="#4DD2FF" stroke-linecap="round" stroke-linejoin="round" stroke-width="0.5"><title>2025-03-02 3.1km</title><desc>1740908689410</desc></polyline><polyline fill="none" points="63.7888074493967,217.20000000001164 63.04963352181949,215.16348148800898 56.55546258762479,215.10176869505085 55.077114732936025,207.94304047722835 48.84693448711187,195.5384847779642 49.11092517571524,194.79790595755912 75.82678283937275,185.54059149388922 79.15306551288813,199.1179358435329 71.76132623828016,202.51222263131058 54.813124044565484,207.07905010547256 49.05812703771517,194.79790595755912 76.67155304225162,184.79999999998836 75.93237911490723,185.84917100594612 78.941872962052,199.1179358435329 70.49417093442753,202.63565087044844" stroke="#4DD2FF" stroke-linecap="round" stroke-linejoin="round" stroke-width="0.5"><title>2024-12-01 3.0km</title><desc>1733059607886</desc></polyline><polyline fill="none" points="99.34285714291036,217.03027117601596 91.74285714305006,217.09706226881826 90.02857142873108,209.68320790008875 83.80000000004657,195.25599890056765 111.97142857150175,184.90293773118174 114.02857142873108,189.37815271422733 116.19999999995343,199.93151935003698 109.51428571436554,203.33794819453033 89.8571428572759,208.54774505126989 83.91428571403958,195.58996579336235 112.82857142877765,184.90293773118174 116.1428571427241,200.1318980254 106.9428571430035,204.6737976341392 90.31428571417928,210.01716717367526 92.08571428572759,217.03027117601596 97.91428571403958,216.6963156060665" stroke="#4DD2FF" stroke-linecap="round" stroke-linejoin="round" stroke-width="0.5"><title>2024-11-03 3.4km</title><desc>1730641178795</desc></polyline><polyline fill="none" points="140.30123100266792,217.20000000001164 137.00893072900362,216.14485572715057 135.94689838262275,216.57932712772163 136.0,215.5862491687294 134.7786628017202,214.96557459206088 128.77818004530855,214.90350709838094 125.8044894754421,204.60021227534162 120.97224229946733,194.54501543880906 147.7885590440128,184.86207067366922 151.4525706388522,199.0140130526852 143.75283612823114,202.30367013433715 126.49481050064787,206.7726087429328 120.60053097852506,194.79329397564288 122.35288434987888,193.3036211808212 147.89476227853447,184.79999999998836 151.39946902170777,198.9519438740681 144.39005553605966,201.93125704943668 126.91962343896739,207.02088211348746 125.53898138878867,205.5933087997837 120.5474293611478,194.54501543880906 147.62925419211388,184.9241413405398 151.4525706388522,199.13815139018698 143.91214098013006,202.30367013433715 127.397537994897,207.02088211348746 126.97272505657747,209.9380863615661 128.03475740272552,214.84143959806534 135.41588220954873,214.5311019984074" stroke="yellow" stroke-linecap="round" stroke-linejoin="round" stroke-width="0.5"><title>2024-08-18 5.1km</title><desc>1723984957861</desc></polyline><polyline fill="none" points="170.2643689622637,217.20000000001164 172.2041918868199,216.06632971548242 171.18323245295323,213.56031364528462 167.0483467457816,214.45532066078158 164.64909207634628,213.91831662150798 163.0666049537249,207.533896157227 157.60447198245674,194.46649284957675 184.20046523492783,184.80000000004657 183.79208146128803,186.76911381154787 186.39552801754326,198.34497743076645 178.99357212195173,202.16376700077672 163.2707968405448,206.4002064751694 160.3610624538269,201.62675127736293 157.5023760390468,194.46649284957675 183.0263618857134,185.2176913821604 184.91513683856465,190.22996387653984 186.44657598924823,198.404646216135 180.11662749946117,201.80575657519512 163.11765292519704,206.2808705868083 157.40028009563684,194.76483876275597 181.7501625935547,185.51604218030116 183.48579363082536,185.75472270522732 186.59971990413032,198.82232753862627 178.432044433197,202.3427721282933 163.7812765573617,206.22120263328543 163.21974886883982,207.23555698798737 164.75118801975623,213.6199808237143 169.29445750033483,213.85864947456867" stroke="yellow" stroke-linecap="round" stroke-linejoin="round" stroke-width="0.5"><title>2024-08-11 5.0km</title><desc>1723380974002</desc></polyline><polyline fill="none" points="24.219236209522933,266.54337186107296 18.53663366334513,267.0254580655601 16.978500707075,261.13326191646047 26.373125883983448,257.65147746846196 24.31089108902961,245.00972066484974 44.199999999953434,236.9745419344399 35.7677510608919,240.72430785317556 35.63026874116622,242.86701878596796 37.87581329559907,252.884072297049 30.63507779338397,256.31232323899167 16.749363507842645,259.84768275002716 12.029137199278921,250.1521682353923 12.57906647818163,248.59872602892574 24.90664780768566,244.68831596014206 42.275247524958104,237.6173609184334 36.04271570011042,240.18862870524754 35.21782178222202,241.20641860246542 37.829985855612904,252.7769390816684 31.322489391779527,255.9373594210192 16.886845827568322,259.7405510057288 11.800000000046566,249.7236329296138 14.320509193465114,248.11662230757065 34.75954738329165,240.8314436148794 39.47977369185537,259.41915563700604" stroke="yellow" stroke-linecap="round" stroke-linejoin="round" stroke-width="0.5"><title>2024-08-04 5.0km</title><desc>1722777733849</desc></polyline><polyline fill="none" points="52.682816901709884,268.1887608137913 55.694647887256,266.7486186278693 55.14704225375317,265.62850519950734 49.16901408461854,265.4684887928015 47.800000000046566,259.97456140379654 57.0636619720608,256.29413001364446 57.38309859158471,254.5339142146113 55.192676056409255,243.70578509461484 74.67830985900946,235.8112391862087 77.46197183104232,243.01235019578598 78.0095774650108,248.5598027232627 80.06309859151952,255.86741159541998 79.2416901406832,257.20090545501444 72.76169014093466,259.70786437846255 71.30140845081769,260.9880088159407 58.2045070421882,264.8817615338194 49.35154929570854,265.4684887928015 48.02816901402548,259.6011855287652 57.47436619736254,256.50748908746755 54.69070422532968,243.97249057143927 74.45014084526338,236.0779488327098 77.59887323947623,243.1723737185821 80.19999999995343,256.50748908746755 72.305352112744,259.9212220100744 71.62084507057443,260.93466952908784 66.46422535227612,262.1614716994809 66.60112676071003,264.08167780956137 67.3769014084246,264.02833884963184 66.64676056336612,264.82842265829095 57.29183098603971,266.3752477611706 53.367323943879455,267.7620524460799 60.16676056338474,265.0417781266442 64.73014084505849,264.6684059978579 67.92450704239309,263.4416099174414 61.07943661976606,265.8418603299069" stroke="yellow" stroke-linecap="round" stroke-linejoin="round" stroke-width="0.5"><title>2024-07-28 5.0km</title><desc>1722171325984</desc></polyline><polyline fill="none" points="98.95580110489391,266.4720199747826 98.71712707192637,264.03101132513257 91.37790055247024,264.30998419894604 89.58784530381672,256.42895514902193 101.81988950259984,252.52327757579042 101.93922651931643,249.4545147047611 98.53812154661864,236.41211338475114 97.7624309391249,235.99363634962356 83.80000000004657,240.59686915029306 98.3591160220094,236.55160567094572 104.86298342514783,260.6833276465768 103.78895027609542,262.7756319345208 99.37348066293634,263.8217815925018 99.67182320449501,265.84433289821027 111.66519336984493,262.56640180404065 113.45524861849844,263.40332192811184 116.19999999995343,262.0084544653073 98.3591160220094,266.82073475967627 104.32596685085446,264.3797273990349 109.09944751369767,264.1007545545581 115.66298342542723,261.4505066550919 113.75359116005711,263.12434867123375 103.13259668485261,265.077158994216 98.23977900552563,267.1694493602845 102.41657458571717,264.86792959307786 111.84419889491983,262.7756319345208 113.09723756904714,263.26383531442843 114.88729281746782,261.8689675569185 116.08066298323683,261.7992240918102 114.17127071833238,262.9151186514064 104.26629834249616,264.93767273414414 95.55469613266177,268.00636365043465 112.4408839775715,262.0084544653073 115.782320441911,261.6597371393 114.05193370138295,262.9848619987024 103.25193370180205,264.7981864445028 97.28508287295699,267.1694493602845 104.92265193373896,263.6822950671194 107.78674033144489,264.03101132513257 112.0232044197619,262.4966584126232 113.69392265169881,263.40332192811184 115.72265193331987,262.07819790847134 109.99447513790801,264.17049777676584 106.83204419887625,264.30998419894604 108.68176795588806,263.40332192811184 113.03756906045601,263.26383531442843 115.72265193331987,261.5899936520145 114.05193370138295,263.19409199635265" stroke="#4DD2FF" stroke-linecap="round" stroke-linejoin="round" stroke-width="0.5"><title>2024-07-21 4.9km</title><desc>1721568919550</desc></polyline><polyline fill="none" points="138.2107382551767,261.8278529824456 132.2671140935272,263.52228177984944 130.31006711395457,260.98063724138774 122.84429530194029,261.15008046128787 120.23489932855591,252.67787562619196 120.37986577162519,251.32231454830617 136.8335570464842,246.32366327533964 134.65906040277332,239.63050516363 135.16644295305014,246.0694937344524 138.28322147624567,257.16815533390036 123.13422818807885,261.31952364515746 121.90201342245564,260.47230736742495 119.79999999981374,251.91537280159537 120.01744966441765,249.6278599796351 135.02147650998086,245.22226134920493 134.15167785203084,239.63050516363 135.16644295305014,245.9000473289634 138.93557046959177,255.81260184425628 137.92080536903813,258.10009702888783 122.84429530194029,260.8959156181081 121.75704697985202,260.1334206055617 119.79999999981374,252.16954049043125 120.74228187883273,249.79730559774907 134.15167785203084,245.64587765355827 134.36912751663476,240.8166385210352 138.3557046977803,256.06676829827484 137.8483221475035,258.3542627579882 122.91677852347493,260.98063724138774 120.01744966441765,253.27093287731986 120.01744966441765,250.39036497863708 134.58657718077302,245.56115441059228 136.10872483206913,247.17089449730702 138.3557046977803,257.59176532929996 131.75973154371604,260.6417506945436 132.41208053706214,263.52228177984944 143.2845637584105,259.62509019463323 152.20000000018626,258.26954085717443 133.1369127514772,262.2514605172328 130.6724832211621,264.36949483637 139.29798657726496,261.57368835399393" stroke="#4DD2FF" stroke-linecap="round" stroke-linejoin="round" stroke-width="0.5"><title>2024-07-14 4.2km</title><desc>1720963947536</desc></polyline><polyline fill="none" points="155.79999999981374,256.026467695483 176.28275862056762,249.06177884456702 187.82758620660752,247.64707066956908 186.2448275857605,246.88530392444227 182.79999999934807,249.71472042438108 165.11034482717514,252.65295241202693 157.010344827082,255.80882188118994 156.8241379307583,257.11469607555773 166.87931034434587,252.32648260507267 188.1999999997206,247.5382468830794 182.98620689567178,250.15001458092593 166.32068965490907,252.43530588585418 159.89655172359198,255.59117602126207 158.22068965481594,255.37353011546656 166.13448275858536,251.89118936797604 187.17586206831038,246.88530392444227 182.52068965462968,249.93236752552912 177.2137931031175,250.04119105928112 158.22068965481594,255.48235307412688 174.97931034397334,249.06177884456702 179.3551724134013,249.38824968633708 187.17586206831038,247.21177545550745 184.6620689649135,249.27942608378362 165.48275862028822,252.21765931299888 157.38275862066075,255.80882188118994 163.9931034478359,253.41471489309333 169.67241379292682,248.08236569957808 173.11724137840793,250.25883809151128 182.05517241358757,248.8441315597156 174.1413793093525,251.5647193196928" stroke="#4DD2FF" stroke-linecap="round" stroke-linejoin="round" stroke-width="0.5"><title>2024-07-07 3.0km</title><desc>1720361789036</desc></polyline></svg>