<?xml version="1.0" encoding="utf-8" ?>
<svg baseProfile="full" height="300mm" version="1.1" viewBox="0,0,200,300" width="200mm" xmlns="http://www.w3.org/2000/svg" xmlns:ev="http://www.w3.org/2001/xml-events" xmlns:xlink="http://www.w3.org/1999/xlink"><defs /><rect fill="#222222" height="300" width="200" x="0" y="0" /><text fill="#FFFFFF" style="font-size:12px; font-family:Arial; font-weight:bold;" x="10" y="20">Runs</text><text fill="#FFFFFF" style="font-size:4px; font-family:Arial" x="10" y="280">ATHLETE</text><text fill="#FFFFFF" style="font-size:9px; font-family:Arial" x="10" y="290">Jay</text><text fill="#FFFFFF" style="font-size:4px; font-family:Arial" x="120" y="280">STATISTICS</text><text fill="#FFFFFF" style="font-size:3px; font-family:Arial" x="120" y="285">Number: 12</text><text fill="#FFFFFF" style="font-size:3px; font-family:Arial" x="120" y="290">Weekly: 1.0</text><text fill="#FFFFFF" style="font-size:3px; font-family:Arial" x="141" y="285">Total: 49.2 km</text><text fill="#FFFFFF" style="font-size:3px; font-family:Arial" x="141" y="290">Avg: 4.1 km</text><text fill="#FFFFFF" style="font-size:3px; font-family:Arial" x="167" y="285">Min: 2.5 km</text><text fill="#FFFFFF" style="font-size:3px; font-family:Arial" x="167" y="290">Max: 5.1 km</text><polyline fill="none" points="32.761173501610756,86.1443914565607 34.225205827038735,87.0 37.80395151115954,85.19371434353525 38.373297416139394,83.00715317256982 36.66525970259681,81.77126842236612 27.23038471629843,81.58113215625053 25.115671357139945,71.40878336859168 16.006136887241155,50.49331251584226 64.07519824104384,33.0 15.924801758490503,50.683455348946154 25.19700648635626,69.88767460384406 27.311719845514745,81.20085950387875 38.04795689880848,81.58113215625053 39.10531357862055,84.33810408296995 45.61212391406298,81.20085950387875 45.93746443092823,82.53181308496278" stroke="#4dd2ff" stroke-linecap="round" stroke-linejoin="round" stroke-width="0.5"><title>2025-03-16 2.5km</title><desc>1742128080108</desc></polyline><polyline fill="none" points="80.49162011197768,70.6623009989271 76.67039106157608,68.72375304956222 74.70949720684439,65.84529061900685 73.0,53.86132798017934 73.95530726271681,50.92404289561091 77.32402234640904,48.63294977712212 86.67597765359096,48.221726937859785 98.74301675986499,44.93193329451606 84.56424581026658,48.33921920863213 77.72625698335469,48.57420367584564 74.60893854754977,50.16034623654559 73.0502793295309,53.80258243042044 74.45810055895709,64.14170380687574 76.16759776556864,68.31254504155368 86.82681564241648,73.30576460418524 92.15642458107322,74.7156067310716 100.40223463694565,75.06806670548394 114.37988826818764,71.83717526105465 120.26256983238272,68.4887770821224 122.22346368711442,66.43273313943064 127.0,56.50487131375121 121.31843575416133,67.19640748971142 117.64804469281808,69.83988754125312 112.0670391060412,72.24838066735538 99.34636871516705,74.83309341396671 91.55307262577116,74.30440314597217 81.49720670399256,70.60355722077657 86.82681564241648,73.36450809723465 94.56983240228146,74.95058007212356 100.95530726271681,75.06806670548394 104.77653631288558,73.89319925726159 99.34636871516705,74.77435007574968 91.7541899443604,74.18691635172581 85.67039106134325,72.60084220260615 79.58659217902459,69.78114367643138 82.65363128506579,70.3098382371827" stroke="#4dd2ff" stroke-linecap="round" stroke-linejoin="round" stroke-width="0.5"><title>2025-03-08 4.9km</title><desc>1741407347536</desc></polyline><polyline fill="none" points="149.7796610170044,83.32220143527957 141.60338983056135,82.6803278484731 139.83389830496162,74.97779721528059 133.1830508473795,60.49965462158434 133.6711864406243,59.07321983249858 170.2813559321221,45.878555168397725 186.4508474576287,38.318252725643106 187.0,37.605012275860645 186.2067796611227,36.677798564662226 163.26440677954815,47.233694772119634 133.0,57.43281609931728 141.96949152555317,82.3950505029643 154.72203389834613,81.8244954503607 164.05762711865827,79.04303266503848" stroke="#4dd2ff" stroke-linecap="round" stroke-linejoin="round" stroke-width="0.5"><title>2025-03-02 3.1km</title><desc>1740908689410</desc></polyline><polyline fill="none" points="39.648012415505946,147.0 38.416055869776756,143.60580247995676 27.592437645886093,143.50294782506535 25.128524554893374,131.5717341286363 14.74489081185311,110.89747462992091 15.18487529270351,109.66317659593187 59.7113047321327,94.23431915644323 65.25510918814689,116.86322640586877 52.93554373038933,122.5203710522037 24.688540074042976,130.1317501757294 15.096878396347165,109.66317659593187 61.11925507057458,93.0 59.88729852484539,94.74861834314652 64.90312160365283,116.86322640586877 50.82361822389066,122.72608478402253" stroke="#4dd2ff" stroke-linecap="round" stroke-linejoin="round" stroke-width="0.5"><title>2024-12-01 3.0km</title><desc>1733059607886</desc></polyline><polyline fill="none" points="98.9047619048506,146.71711862669326 86.23809523833916,146.8284371147165 83.38095238106325,134.47201316687278 73.0,110.42666483437642 119.9523809524253,93.17156288528349 123.38095238106325,100.63025452371221 127.0,118.21919891680591 115.8571428572759,123.89658032427542 83.0952380951494,132.5795750854304 73.1904761902988,110.98327632225119 121.38095238106325,93.17156288528349 126.90476190438494,118.55316337570548 111.57142857136205,126.12299605691805 83.8571428572759,135.02861195616424 86.80952380923554,146.71711862669326 96.52380952332169,146.16052601020783" stroke="#4dd2ff" stroke-linecap="round" stroke-linejoin="round" stroke-width="0.5"><title>2024-11-03 3.4km</title><desc>1730641178795</desc></polyline><polyline fill="none" points="167.16871833754703,147.0 161.6815512147732,145.24142621195642 159.91149730421603,145.96554521284997 160.0,144.3104152812739 157.96443800255656,143.2759576534736 147.9636334083043,143.1725118306931 143.00748245883733,126.00035379221663 134.95373716577888,109.24169239809271 179.64759840629995,93.10345112276264 185.7542843981646,116.69002175447531 172.92139354674146,122.1727835572674 144.15801750076935,129.62101457157405 134.33421829761937,109.6554899594048 137.2548072496429,107.17270196811296 179.82460379740223,93.0 185.66578170238063,116.58657312346622 173.98342589335516,121.55209508241387 144.86603906471282,130.0348035224597 142.5649689808488,127.65551466634497 134.2457156018354,109.24169239809271 179.38209031987935,93.20690223423298 185.7542843981646,116.89691898372257 173.18690163316205,122.1727835572674 145.66256332490593,130.0348035224597 144.9545417604968,134.89681060268776 146.72459567105398,143.06906599679496 159.02647034917027,142.55183666408993" stroke="#ff0000" stroke-linecap="round" stroke-linejoin="round" stroke-width="0.5"><title>2024-08-18 5.1km</title><desc>1723984957861</desc></polyline><polyline fill="none" points="37.107281603850424,207.0 40.3403198113665,205.11054952570703 38.63872075499967,200.93385607545497 31.747244576457888,202.42553443455836 27.748486793600023,201.5305277024745 25.11100825620815,190.88982692867285 16.007453304249793,169.11082141590305 60.3341087247245,153.0 59.653469101991504,156.28185635257978 63.99254669575021,175.57496238453314 51.655953536275774,181.9396116679418 25.45132806757465,189.00034412520472 20.60177075630054,181.04458546225214 15.837293398566544,169.11082141590305 58.377269809599966,153.69615230354248 61.525228064041585,162.04993979417486 64.077626648359,175.6744103601668 53.527712498791516,181.34292762522819 25.196088208816946,188.80145097797504 15.667133492883295,169.60806460451568 56.25027098925784,154.19340363377705 59.142989384476095,154.5912045086152 64.3328665071167,176.37054589769104 50.720074055250734,182.23795354709728 26.302127595990896,188.70200438873144 25.366248114965856,190.39259497995954 27.918646699748933,201.03330137277953 35.49076250055805,201.43108245759504" stroke="#ff0b00" stroke-linecap="round" stroke-linejoin="round" stroke-width="0.5"><title>2024-08-11 5.0km</title><desc>1723380974002</desc></polyline><polyline fill="none" points="93.6987270154059,204.23895310179796 84.22772277193144,205.04243010928622 81.63083451148123,195.22210319404257 97.28854313958436,189.41912911413237 93.8514851485379,168.34953444142593 127.0,154.957569890772 112.9462517676875,161.2071797553217 112.71711456822231,164.77836464327993 116.45968882599846,181.47345382842468 104.39179632207379,187.18720539833885 81.24893917934969,193.07947125000646 73.38189533213153,176.9202803922817 74.29844412999228,174.33121004822897 94.84441301273182,167.8138599335798 123.79207920795307,156.02893486403627 113.40452616661787,160.31438117544167 112.02970297029242,162.0106976707466 116.38330975919962,181.29489846946672 105.53748231939971,186.56226570170838 81.47807637881488,192.9009183428716 73.0,176.2060548826703 77.20084865577519,173.5277038459899 111.26591230556369,161.38573935814202 119.13295615278184,192.36525939498097" stroke="#ff0a00" stroke-linecap="round" stroke-linejoin="round" stroke-width="0.5"><title>2024-08-04 5.0km</title><desc>1722777733849</desc></polyline><polyline fill="none" points="141.1380281690508,206.9812680230243 146.15774647844955,204.58103104645852 145.2450704225339,202.71417533251224 135.28169014072046,202.44748132134555 133.0,193.29093567305245 148.43943661963567,187.1568833561032 148.97183098597452,184.22319035773398 145.32112676044926,166.17630849103443 177.7971830982715,153.0187319770339 182.43661971809343,165.02058365970151 183.34929577447474,174.2663378721336 186.77183098578826,186.44568599236663 185.40281690098345,188.6681757583865 174.60281690116972,192.8464406307903 172.16901408461854,194.980014693283 150.34084507031366,201.46960255637532 135.58591549284756,202.44748132134555 133.38028169004247,192.6686425479711 149.12394366180524,187.5124818124459 144.4845070419833,166.62081761908485 177.41690140869468,153.46324805455515 182.66478873230517,165.28728953097016 187.0,187.5124818124459 173.84225352108479,193.20203668344766 172.70140845049173,194.89111588185187 164.1070422534831,196.9357861658209 164.33521126769483,200.13612968259258 165.6281690141186,200.04723141604336 164.41126760514453,201.38070443051402 148.81971830967814,203.9587462686468 142.27887323964387,206.27008741017198 153.6112676053308,201.73629687778885 161.21690140850842,201.11400999646867 166.54084507049993,199.0693498624605 155.13239436596632,203.06976721656974" stroke="#ff0a00" stroke-linecap="round" stroke-linejoin="round" stroke-width="0.5"><title>2024-07-28 5.0km</title><desc>1722171325984</desc></polyline><polyline fill="none" points="38.259668508544564,264.1200332911685 37.86187845328823,260.0516855418682 25.629834254272282,260.5166403314797 22.646408840082586,247.38159191503655 43.033149171154946,240.87212929292582 43.232044199015945,235.75752450793516 37.56353591149673,214.02018897456583 36.27071823226288,213.32272724923678 13.0,220.9947819170775 37.26519337017089,214.25267611816525 48.10497237555683,254.47221274417825 46.31491712713614,257.95938655745704 38.95580110512674,259.7029693208169 39.453038674313575,263.0738881636644 59.4419889501296,257.6106696733041 62.425414364319295,259.00553654681426 67.0,256.68075744214 37.26519337017089,264.70122459938284 47.209944751579314,260.6328789984109 55.16574585624039,260.167924257461 66.10497237555683,255.75084442505613 62.92265193350613,258.5405811186647 45.22099447483197,261.7952649903018 37.06629834230989,265.28241560037713 44.02762430952862,261.44654932175763 59.740331491455436,257.95938655745704 61.82872928166762,258.7730588573031 64.81215469585732,256.44827926147263 66.801104972139,256.33204015297815 63.61878453055397,258.1918644189136 47.110497237648815,261.562787890085 32.59116022102535,266.6772727506468 60.73480662936345,256.68075744214 66.30386740295216,256.0995618987363 63.419889502227306,258.30810333113186 45.41988950315863,261.33031074074097 35.475138121750206,265.28241560037713 48.204419889487326,259.47049177845474 52.97790055256337,260.0516855418682 60.03867403278127,257.49443068762776 62.82320441957563,259.00553654681426 66.20441988902166,256.7969965140801 56.65745856333524,260.2841629611794 51.38674033153802,260.5166403314797 54.46961325965822,259.00553654681426 61.72928176773712,258.7730588573031 66.20441988902166,255.98332275322173 63.419889502227306,258.6568199938629" stroke="#4dd2ff" stroke-linecap="round" stroke-linejoin="round" stroke-width="0.5"><title>2024-07-21 4.9km</title><desc>1721568919550</desc></polyline><polyline fill="none" points="103.68456375878304,256.3797549707815 93.77852348936722,259.20380296651274 90.51677852356806,254.96772873564623 78.07382550323382,255.25013410218526 73.72483221441507,241.12979271041695 73.96644295286387,238.87052424717695 101.38926174445078,230.53943879227154 97.76510067144409,219.38417527277488 98.61073825508356,230.11582289077342 103.80536912707612,248.61359222326428 78.55704698013142,255.53253940865397 76.50335570424795,254.12051227909978 73.0,239.8589546693256 73.3624161076732,236.04643329943065 98.36912751663476,228.70376891538035 96.9194630868733,219.38417527277488 98.61073825508356,229.83341221499722 104.89261744963005,246.354336407152 103.20134228188545,250.16682838147972 78.07382550323382,254.8265260301996 76.26174496673048,253.5557010093471 73.0,240.28256748407148 74.57046979852021,236.32884266297333 96.9194630868733,229.4097960892832 97.28187919454649,221.36106420180295 103.92617449676618,246.7779471637914 103.08053691219538,250.5904379299609 78.19463087245822,254.96772873564623 73.3624161076732,242.11822146223858 73.3624161076732,237.31727496453095 97.64429530175403,229.26859068439808 100.18120805360377,231.95149082888383 103.92617449676618,249.31960888230242 92.9328859061934,254.40291782433633 94.02013422828168,259.20380296651274 112.14093959704041,252.70848365768325 127.0,250.4492347619962 95.22818791959435,257.0857675288571 91.12080536875874,260.61582472734153 105.49664429528639,255.95614725665655" stroke="#4dd2ff" stroke-linecap="round" stroke-linejoin="round" stroke-width="0.5"><title>2024-07-14 4.2km</title><desc>1720963947536</desc></polyline><polyline fill="none" points="133.0,246.71077949227765 167.13793103490025,235.1029647408286 186.37931034434587,232.7451177824987 183.74137931037694,231.4755065406207 178.0,236.1912007072242 148.51724137924612,241.08825401996728 135.01724137924612,246.34803646849468 134.7068965518847,248.52449345926289 151.46551724150777,240.5441376750823 187.0,232.56374480505474 178.31034482643008,236.91669096820988 150.53448275849223,240.72550980956294 139.82758620660752,245.9852933686925 137.03448275849223,245.62255019240547 150.22413793113083,239.81864894658793 185.2931034481153,231.4755065406207 177.53448275849223,236.55394587584306 168.68965517170727,236.73531843197998 137.03448275849223,245.80392179021146 164.96551724057645,235.1029647408286 172.25862068962306,235.64708281040657 185.2931034481153,232.01962575910147 181.1034482754767,235.46571013960056 149.13793103396893,240.36276552150957 135.63793103490025,246.34803646849468 146.65517241321504,242.35785815503914 156.1206896547228,233.470609499258 161.86206896416843,237.0980634856969 176.75862068962306,234.74021926615387 163.56896551605314,239.2745321992552" stroke="#4dd2ff" stroke-linecap="round" stroke-linejoin="round" stroke-width="0.5"><title>2024-07-07 3.0km</title><desc>1720361789036</desc></polyline></svg>