<?xml version="1.0" encoding="utf-8" ?>
<svg baseProfile="full" height="300mm" version="1.1" viewBox="0,0,200,300" width="200mm" xmlns="http://www.w3.org/2000/svg" xmlns:ev="http://www.w3.org/2001/xml-events" xmlns:xlink="http://www.w3.org/1999/xlink"><defs /><rect fill="#222222" height="300" width="200" x="0" y="0" /><text fill="#FFFFFF" style="font-size:12px; font-family:Arial; font-weight:bold;" x="10" y="20">Runs</text><text fill="#FFFFFF" style="font-size:4px; font-family:Arial" x="10" y="280">Runner</text><text fill="#FFFFFF" style="font-size:9px; font-family:Arial" x="10" y="290">Jay</text><text fill="#FFFFFF" style="font-size:4px; font-family:Arial" x="65" y="280">SPECIAL TRACKS</text><rect fill="yellow" height="2.6" width="2.6" x="65" y="283" /><text fill="#FFFFFF" style="font-size:3px; font-family:Arial" x="70" y="285.5">Over 5.0 km</text><rect fill="red" height="2.6" width="2.6" x="65" y="287" /><text fill="#FFFFFF" style="font-size:3px; font-family:Arial" x="70" y="289.5">Over 10.0 km</text><text fill="#FFFFFF" style="font-size:4px; font-family:Arial" x="120" y="280">STATISTICS</text><text fill="#FFFFFF" style="font-size:3px; font-family:Arial" x="120" y="285">Number: 22</text><text fill="#FFFFFF" style="font-size:3px; font-family:Arial" x="120" y="290">Weekly: 1.3</text><text fill="#FFFFFF" style="font-size:3px; font-family:Arial" x="141" y="285">Total: 85.6 km</text><text fill="#FFFFFF" style="font-size:3px; font-family:Arial" x="141" y="290">Avg: 3.9 km</text><text fill="#FFFFFF" style="font-size:3px; font-family:Arial" x="167" y="285">Min: 2.1 km</text><text fill="#FFFFFF" style="font-size:3px; font-family:Arial" x="167" y="290">Max: 5.2 km</text><polyline fill="none" points="24.387453874805942,64.18842523865169 21.664206642075442,64.9647771785094 20.667896679136902,63.29561848047888 16.8487084871158,63.567342506023124 15.221402214025147,58.05518726113951 12.066420664428733,51.65011429286096 12.033210332272574,50.524362661119085 32.424354243674316,43.26512277123402 48.0,35.772815713862656 47.568265682668425,35.035222821490606 41.22509225108661,38.21850786861614 41.25830258312635,39.072555262740934 37.439114391221665,41.13002492467058 29.56826568278484,44.62381494202418 31.3948339484632,52.853500154655194 30.96309963101521,53.396963445906295 28.638376383925788,44.93437244714005 41.4243542435579,38.95609437130042 41.158671586657874,38.33496899381862 35.047970479819924,41.24648512710701 35.08118081185967,41.94524556645774 33.32103321037721,42.954563855484594 29.56826568278484,44.54617552476702 31.19557195575908,53.28050709408126 30.630996310152113,53.16405070523615 28.638376383925788,44.93437244714005 20.86715867172461,47.84583629400004 20.136531365453266,47.18590651030536 12.0,49.747980216139695 12.232472324860282,51.30074346580659 15.71955719566904,58.753915741021046 16.483394834096543,61.859359579510055" stroke="yellow" stroke-linecap="round" stroke-linejoin="round" stroke-width="0.5"><title>2025-05-17 5.1km</title><desc>1747484576135</desc></polyline><polyline fill="none" points="66.78208596317563,64.28592026612023 67.95070634176955,63.90649504197063 66.78208596317563,62.6923316315806 63.243763149832375,62.80615962561569 61.91283438517712,57.94946648637415 58.66666666662786,51.0816867708927 58.861436729552224,50.2469200657506 76.78028253675438,43.87227398346295 93.56296964222565,35.71407973387977 94.66666666662786,38.86354412432411 93.66035467386246,35.78997076669475 75.22212203184608,44.858833752630744 76.9425909225829,52.71327063883655 77.36459272599313,52.75121436151676 75.64412383513991,44.44144341174979 91.81003907427657,36.66271649271948 75.2870453861542,44.70705550300772 76.81274421396665,53.4721443313465 72.23564773052931,55.40726499148877 62.23745115706697,58.13918229439878 63.53591824450996,62.616446282190736 67.36639615264721,62.616446282190736 68.27532311377581,63.640897146600764 73.20949804619886,62.23701929466915" stroke="yellow" stroke-linecap="round" stroke-linejoin="round" stroke-width="0.5"><title>2025-05-11 5.2km</title><desc>1746960817262</desc></polyline><polyline fill="none" points="116.2597206493374,65.89307728561107 116.70819177036174,64.60642486345023 116.13741034339182,63.79630849297973 111.04114760272205,64.03457816469017 109.53265383164398,58.31607131511555 105.33333333325572,49.309276047948515 105.45564363896847,48.30850991877378 127.14533786312677,40.68355223326944 141.33333333325572,34.10692271438893 119.317478293553,43.92417499644216 105.45564363896847,48.2131987431203 109.53265383164398,57.93483494804241 111.40807852032594,64.36815549366293 120.54058135137893,63.081498722953256 129.7138542844914,59.888667924067704 131.0592676482629,64.36815549366293" stroke="#4DD2FF" stroke-linecap="round" stroke-linejoin="round" stroke-width="0.5"><title>2025-05-10 3.3km</title><desc>1746881233572</desc></polyline><polyline fill="none" points="161.8395522388164,64.58273412846029 160.69776119408198,63.36591647268506 159.99253731349017,63.87619532953249 156.7014925373951,63.16965518737561 155.62686567171477,59.20515503096976 152.0,50.490956535271835 170.1343283582246,44.01405500006513 188.0,35.41726587153971 169.26119402993936,44.445851947937626 170.6380597014213,53.47421866294462 166.30597014923114,55.593890358373756 155.62686567171477,58.49860600853572 156.60074626875576,63.130402917799074 160.09328358212952,63.20890745270299" stroke="#4DD2FF" stroke-linecap="round" stroke-linejoin="round" stroke-width="0.5"><title>2025-05-09 3.2km</title><desc>1746800655160</desc></polyline><polyline fill="none" points="29.289255201118067,108.0 28.282366735395044,105.30006858584238 21.70797734358348,104.6770059109549 19.812657879432663,97.68481749726925 13.59364088671282,84.46176222991198 13.415954686468467,82.2463551510009 43.030321317957714,72.0 46.58404531376436,87.78485880757216 38.41048012371175,91.3156304602162 19.93111534579657,96.50790716294432 21.648748610401526,104.6770059109549 28.99311153497547,104.6770059109549 30.236914933426306,107.16925305698533 33.55372399603948,105.85390157747315" stroke="#4DD2FF" stroke-linecap="round" stroke-linejoin="round" stroke-width="0.5"><title>2025-05-07 2.1km</title><desc>1746628465614</desc></polyline><polyline fill="none" points="69.5225424983073,105.04515085351886 68.96378418360837,104.29874956019921 64.41389504843391,104.43869989883387 62.37841833010316,97.34782694870955 59.58462675544433,91.84299182283576 58.826311899814755,88.99724506700295 75.6289726535324,83.1190871547442 85.16777531430125,79.01366062223678 80.85735402815044,81.20633635963895 93.74870657804422,75.04815557645634 94.66666666674428,76.30779045005329 93.90835181088187,74.95484914648114 79.1810790838208,82.04608163135708 79.02143385098316,83.49230585628538 81.21655580215156,92.58941416593734 74.83074648934416,95.29518458471284 62.69770879554562,98.5140967691259 58.66666666674428,89.69702055942616 59.22542498190887,88.81063808177714 61.81966001493856,87.87760197275202 58.9859571326524,88.90394158419804 58.826311899814755,89.79032387468033 62.538063562707976,98.14089076156961 65.49150036973879,97.72103362620692 62.85735402815044,98.56074749783147 64.25424981536344,104.11214903977816 69.36289726546966,104.29874956019921" stroke="#4DD2FF" stroke-linecap="round" stroke-linejoin="round" stroke-width="0.5"><title>2025-05-04 3.9km</title><desc>1746361657097</desc></polyline><polyline fill="none" points="116.93184634437785,105.14767173479777 113.80916976439767,105.72123105431092 111.35563816595823,105.14767173479777 110.15117719955742,99.3598994933709 105.51177199487574,89.71346163022099 105.55638166051358,88.14915664686123 127.0136307310313,80.64042372035328 141.33333333325572,74.27876894568908 128.30731102847494,80.37970177509123 130.49318463448435,92.059909811127 123.66790582379326,94.97991863795323 110.06195786851458,98.62990538284066 105.33333333325572,88.93130975816166 105.64560099109076,88.044869471516 107.96530359354801,87.21057127718814 105.55638166051358,87.99272587581072 110.1957868647296,98.57776290498441 111.80173482024111,105.09552994539263 115.63816604716703,104.73053726556827" stroke="#4DD2FF" stroke-linecap="round" stroke-linejoin="round" stroke-width="0.5"><title>2025-05-02 3.2km</title><desc>1746193621188</desc></polyline><polyline fill="none" points="162.3146067415364,105.05891772126779 157.50112359551713,105.29531331185717 156.0449438202195,99.29082662434666 152.0,90.59126995681436 152.28314606728964,89.69293653935893 175.58202247158624,81.13503832009155 188.0,75.36663891593344 187.27191011211835,74.70468668814283 172.95280898851342,81.13503832009155 172.42696629208513,82.93173770437716 174.69213483133353,93.19169863360003 172.0224719098769,94.70466836646665 156.28764044935815,99.33810636171256 152.5662921348121,91.4896015712875 156.28764044935815,99.38538609413081 157.66292134835385,105.05891772126779 162.43595505622216,105.20075509056915" stroke="#4DD2FF" stroke-linecap="round" stroke-linejoin="round" stroke-width="0.5"><title>2025-05-01 3.2km</title><desc>1746105997674</desc></polyline><polyline fill="none" points="20.513137558009475,143.80451027367963 19.567233384936117,142.66637814525166 17.78670788265299,143.18666764031514 16.395672333892435,143.2517037653597 15.867078825365752,142.86148680897895 14.921174652292393,139.25195651623653 12.055641422048211,133.07338302468997 12.111282843980007,132.2929228155117 21.82071097381413,129.00846441774047 33.08809891808778,124.32561164908111 48.0,116.78086567862192 47.61051004647743,116.19548972629127 44.24420401873067,117.52884444201482 43.548686244292185,118.2768213878735 31.641421947511844,124.22805145889288 19.455950541072525,129.07350353797665 19.149922720273025,129.85397190894582 12.3060278207995,132.0978074540617 12.0,132.65063399029896 14.837712519336492,138.73166037185 22.238021638360806,136.81306074018357 14.865533230360597,138.86173449034686 12.027820711024106,132.84574900139705 12.111282843980007,132.130326689512 18.593508500838652,130.11412759294035 12.723338485346176,131.8376534464478 12.111282843980007,132.39048044985975 16.284389489912428,143.02407726756064" stroke="yellow" stroke-linecap="round" stroke-linejoin="round" stroke-width="0.5"><title>2025-04-20 5.2km</title><desc>1745154044961</desc></polyline><polyline fill="none" points="75.2447130435612,146.373322694737 69.49638988566585,146.79767367703607 67.74163860618137,145.87824620888568 64.71620536525734,134.98647091409657 59.63347752043046,122.89214920374798 89.52475794032216,112.0 93.69985581282526,128.1967031644308 85.04711674386635,131.87450257508317 79.66184557508677,132.65249601571122 66.1079046560917,137.39116381574422 68.8307945728302,146.23187230766052 73.36894443421625,145.31244406255428 75.91030835639685,146.0196966708172 77.05997298797593,148.0 80.75100154196844,146.44404787721578" stroke="#4DD2FF" stroke-linecap="round" stroke-linejoin="round" stroke-width="0.5"><title>2025-03-23 2.1km</title><desc>1742729899087</desc></polyline><polyline fill="none" points="118.50744900107384,147.4295943044126 119.48347055143677,148.0 121.86930100759491,146.79580956237623 122.24886494409293,145.33810211508535 121.11017313529737,144.5141789483023 114.82025647768751,144.38742143753916 113.41044757165946,137.60585557908053 107.33742459164932,123.66220834391424 139.38346549426205,112.0 107.28320117248222,123.78897023265017 113.46467099105939,136.59178306924878 114.87447989708744,144.13390633597737 122.03197126602754,144.38742143753916 122.73687571915798,146.22540272201877 127.07474927604198,144.13390633597737 127.29164295387454,145.02120872336673" stroke="#4DD2FF" stroke-linecap="round" stroke-linejoin="round" stroke-width="0.5"><title>2025-03-16 2.5km</title><desc>1742128080108</desc></polyline><polyline fill="none" points="156.9944134078687,137.1082006659417 154.44692737434525,135.8158353663457 153.13966480456293,133.89686041264213 152.0,125.90755198677653 152.63687150843907,123.94936193039757 154.8826815643115,122.42196651804261 161.1173184356885,122.14781795852468 169.16201117320452,119.95462219632464 159.70949720672797,122.22614613905898 155.15083798882551,122.38280245053465 153.07262569840532,123.44023082434433 152.0335195530206,125.86838828693726 152.9720670392271,132.7611358712311 154.11173184367362,135.54169669435942 161.21787709498312,138.8705097360944 164.77094972063787,139.81040448736167 170.26815642463043,140.04537780364626 179.58659217879176,137.89145017400733 183.50837988825515,135.65918472138583 184.81564245803747,134.28848875960102 188.0,127.66991420913837 184.2122905027354,134.79760499313124 181.76536312839016,136.55992502748268 178.0446927373996,138.16558711155085 169.56424581015017,139.88872894263477 164.36871508380864,139.53626876394264 157.66480446932837,137.06903814719408 161.21787709498312,138.909672064794 166.37988826807123,139.967053381406 170.63687150843907,140.04537780364626 173.18435754196253,139.2621328381647 169.56424581015017,139.84956671713735 164.50279329612385,139.45794423448388 160.44692737422884,138.4005614684138 156.39106145256665,136.52076245093485 158.43575418996625,136.87322549146484" stroke="#4DD2FF" stroke-linecap="round" stroke-linejoin="round" stroke-width="0.5"><title>2025-03-08 4.9km</title><desc>1741407347536</desc></polyline><polyline fill="none" points="23.186440678080544,185.54813429020578 17.735593220451847,185.12021856565843 16.555932203307748,179.9851981435495 12.122033898252994,170.33310308106593 12.447457627160475,169.38214655502816 36.85423728800379,160.5857034456276 47.63389830500819,155.5455018171342 48.0,155.0700081839168 47.47118644067086,154.45186570979422 32.176271186210215,161.48912984810886 12.0,168.28854406622122 17.979661016957834,184.93003366864286 26.48135593207553,184.5496636336029 32.70508474577218,182.69535511004506" stroke="#4DD2FF" stroke-linecap="round" stroke-linejoin="round" stroke-width="0.5"><title>2025-03-02 3.1km</title><desc>1740908689410</desc></polyline><polyline fill="none" points="76.43200827692635,188.0 75.61070391302928,185.73720165336272 68.39495843066834,185.6686318833963 66.75234970310703,177.71448941912968 59.829927207902074,163.9316497533 60.12325019505806,163.10878439730732 89.80753648816608,152.82287943764823 93.50340612558648,167.90881760395132 85.29036248708144,171.6802473681746 66.45902671618387,176.75450011721114 60.06458559748717,163.10878439730732 90.74617004697211,152.0 89.92486568307504,153.1657455621753 93.26874773553573,167.90881760395132 83.88241214910522,171.81738985603442" stroke="#4DD2FF" stroke-linecap="round" stroke-linejoin="round" stroke-width="0.5"><title>2024-12-01 3.0km</title><desc>1733059607886</desc></polyline><polyline fill="none" points="122.60317460307851,187.8114124177955 114.15873015858233,187.88562474312494 112.25396825396456,179.64800877787638 105.33333333325572,163.61777655623155 136.63492063479498,152.11437525687506 138.920634920476,157.08683634916088 141.33333333325572,168.8127992778318 133.90476190461777,172.5977202161448 112.06349206343293,178.38638339028694 105.46031745988876,163.9888508815202 137.58730158722028,152.11437525687506 141.26984126958996,169.03544225048972 131.0476190475747,174.0819973713369 112.57142857136205,180.01907463744283 114.53968253941275,187.8114124177955 121.0158730156254,187.44035067345249" stroke="#4DD2FF" stroke-linecap="round" stroke-linejoin="round" stroke-width="0.5"><title>2024-11-03 3.4km</title><desc>1730641178795</desc></polyline><polyline fill="none" points="174.77914555859752,188.0 171.12103414349258,186.8276174745988 169.9409982028883,187.3103634751751 170.0,186.20694352081046 168.64295866852626,185.51730510225752 161.97575560584664,185.44834122044267 158.67165497271344,174.00023586145835 153.3024914439302,162.8277949320036 183.09839893784374,152.06896741513629 187.16952293203212,167.79334783629747 178.6142623645719,171.4485223714728 159.43867833400145,176.4140097143245 152.88947886507958,163.10365997289773 154.83653816650622,161.44846797868377 183.2164025316015,152.0 187.11052113515325,167.7243820822914 179.32228392898105,171.03473005490378 159.91069270996377,176.68986901495373 158.37664598762058,175.10367644421058 152.83047706796788,162.8277949320036 182.92139354674146,152.13793482276378 187.16952293203212,167.9312793224235 178.7912677556742,171.4485223714728 160.44170888327062,176.68986901495373 159.9696945073083,179.9312070684391 161.14973044744693,185.37937733117724 169.3509802329354,185.03455777600175" stroke="yellow" stroke-linecap="round" stroke-linejoin="round" stroke-width="0.5"><title>2024-08-18 5.1km</title><desc>1723984957861</desc></polyline><polyline fill="none" points="28.071521069388837,228.0 30.226879874244332,226.74036635051016 29.0924805032555,223.95590405032272 24.498163050971925,224.95035628974438 21.832324529299513,224.3536851350218 20.0740055043716,217.25988461915404 14.004968869499862,202.74054761062143 43.55607248330489,192.0 43.10231273481622,194.18790423503378 45.99503113073297,207.0499749230803 37.77063569100574,211.29307444533333 20.3008853783831,216.00022941682255 17.067847171099856,210.6963903082069 13.891528932377696,202.74054761062143 42.25151320639998,192.4641015357338 44.35015204292722,198.03329319611657 46.05175109906122,207.11627357348334 39.018474999349564,210.89528508350486 20.13072547269985,215.8676339853555 13.77808899525553,203.07204306969652 40.83351399283856,192.79560242249863 42.761992923216894,193.06080300576286 46.22191100474447,207.58036393183284 37.14671603706665,211.49196903139818 20.86808506399393,215.8013362591737 20.244165410054848,216.92839665332576 21.94576446642168,224.02220091520576 26.99384166719392,224.28738830506336" stroke="yellow" stroke-linecap="round" stroke-linejoin="round" stroke-width="0.5"><title>2024-08-11 5.0km</title><desc>1723380974002</desc></polyline><polyline fill="none" points="72.46581801050343,226.1593020678265 66.15181518136524,226.6949534061714 64.42055634129792,220.14806879602838 74.85902875987813,216.27941940934397 72.56765676569194,202.2330229608924 94.66666666674428,193.30504659377038 85.29750117869116,197.47145317017566 85.14474304555915,199.85224309546174 87.63979255058803,210.98230255226372 79.59453088138252,214.79147026548162 64.1659594529774,218.7196474999655 58.92126355483197,207.94685359479627 59.53229608666152,206.2208066987805 73.22960867523216,201.87590662232833 92.52805280545726,194.0192899093381 85.60301744448952,196.8762541169417 84.68646864686161,198.00713178049773 87.58887317287736,210.86326564627234 80.35832154634409,214.37484380108071 64.31871758610941,218.60061222856166 58.66666666674428,207.47070325509412 61.46723243733868,205.68513589724898 84.1772748704534,197.5904929053504 89.42197076859884,218.24350626330124" stroke="yellow" stroke-linecap="round" stroke-linejoin="round" stroke-width="0.5"><title>2024-08-04 5.0km</title><desc>1722777733849</desc></polyline><polyline fill="none" points="110.75868544611149,227.98751201533014 114.10516431904398,226.38735403097235 113.49671361525543,225.14278355496936 106.85446009389125,224.9649875475443 105.33333333325572,218.86062378197676 115.62629107991233,214.77125557069667 115.98122065723874,212.81546023843111 113.5474178402219,200.78420566068962 135.19812206551433,192.01248798466986 138.2910798122175,200.0137224397622 138.8995305164717,206.17755858134478 141.18122065719217,214.2971239949111 140.26854460081086,215.77878383890493 133.06854460085742,218.5642937538214 131.44600938959047,219.98667646216927 116.89389671362005,224.31306837085867 107.0572769951541,224.9649875475443 105.5868544599507,218.4457616986474 116.08262910810299,215.00832120823907 112.98967136139981,201.0805450793705 134.94460093905218,192.3088320363313 138.44319248828106,200.1915263539413 141.33333333325572,215.00832120823907 132.56150234723464,218.8013577889651 131.8009389671497,219.92741058784304 126.07136150239967,221.29052411048906 126.22347417869605,223.42408645502292 127.08544600941241,223.3648209440289 126.27417840366252,224.2538029536372 115.87981220660731,225.9724975124118 111.51924882642925,227.51339160674252 119.07417840370908,224.49086458515376 124.14460093900561,224.07600666425424 127.69389671366662,222.7128999082488 120.08826291072182,225.3798448109883" stroke="yellow" stroke-linecap="round" stroke-linejoin="round" stroke-width="0.5"><title>2024-07-28 5.0km</title><desc>1722171325984</desc></polyline><polyline fill="none" points="168.83977900538594,226.08002219413174 168.57458563544787,223.36779036128428 160.41988950269297,223.67776022100588 158.43093922641128,214.92106127669103 172.02209944743663,210.58141952863662 172.15469613252208,207.1716830052901 168.37569060735404,192.6801259830827 167.51381215453148,192.2151514995494 152.0,197.3298546113656 168.1767955799587,192.83511741214897 175.40331491688266,219.64814182947157 174.20994475134648,221.97292437165743 169.303867403185,223.13531288056402 169.63535911613144,225.38259210909018 182.96132596652023,221.7404464489082 184.95027624280192,222.67035769787617 188.0,221.12050496140728 168.1767955799587,226.46748306625523 174.806629834231,223.75525266560726 180.11049723741598,223.44528283836553 187.4033149171155,220.50056295009563 185.28176795551553,222.36038741248194 173.4806629831437,224.5301766602206 168.04419889487326,226.85494373360416 172.6850828730967,224.29769954783842 183.1602209941484,221.97292437165743 184.5524861877784,222.5153725715354 186.54143646382727,220.96551950764842 187.8674033144489,220.8880267686327 185.74585635354742,222.12790961266728 174.74033149168827,224.37519192678155 165.06077348068357,227.7848485004506 183.82320441957563,221.12050496140728 187.5359116019681,220.733041265863 185.61325966822915,222.20540222077398 173.61325966846198,224.22020716051338 166.98342541442253,226.85494373360416 175.46961325965822,222.98032785236137 178.65193370147608,223.36779036128428 183.35911602177657,221.66295379179064 185.2154696129728,222.67035769787617 187.46961325919256,221.1979976760922 181.10497237555683,223.52277530753054 177.59116022102535,223.67776022100588 179.64640883984976,222.67035769787617 184.48618784500286,222.5153725715354 187.46961325919256,220.65554850216722 185.61325966822915,222.4378799959668" stroke="#4DD2FF" stroke-linecap="round" stroke-linejoin="round" stroke-width="0.5"><title>2024-07-21 4.9km</title><desc>1721568919550</desc></polyline><polyline fill="none" points="32.456375839188695,260.91983664711006 25.8523489930667,262.8025353109115 23.677852348890156,259.97848582372535 15.382550335489213,260.1667560680653 12.483221476431936,250.75319514021976 12.644295301754028,249.24701616476523 30.92617449630052,243.69295919477008 28.51006711414084,236.2561168484972 29.07382550323382,243.41054859379074 32.53691275138408,255.7423948154319 15.704697986599058,260.3550262723584 14.335570469498634,259.4136748526944 12.0,249.905969779531 12.241610738448799,247.3642888662289 28.91275167791173,242.46917927684262 27.946308724582195,236.2561168484972 29.07382550323382,243.22227480990114 33.261744966264814,254.23622427135706 32.13422818807885,256.77788558765315 15.382550335489213,259.88435068679973 14.174496644176543,259.0371340061538 12.0,250.18837832269492 13.046979865524918,247.55256177525735 27.946308724582195,242.93986405950272 28.187919463030994,237.57404280110495 32.61744966451079,254.5186314425082 32.05369127495214,257.06029195326846 15.46308724861592,259.97848582372535 12.241610738448799,251.41214764141478 12.241610738448799,248.21151664294302 28.42953020101413,242.84572712285444 30.1208053692244,244.63432721915888 32.61744966451079,256.2130725880852 25.288590603973716,259.6019452161272 26.01342281885445,262.8025353109115 38.0939597315155,258.4723224384361 48.0,256.96615650795866 26.81879194639623,261.3905116858077 24.080536912661046,263.7438831515028 33.664429530035704,260.6374315043795" stroke="#4DD2FF" stroke-linecap="round" stroke-linejoin="round" stroke-width="0.5"><title>2024-07-14 4.2km</title><desc>1720963947536</desc></polyline><polyline fill="none" points="58.666666666511446,254.47385299496818 81.42528735660017,246.73530982725788 94.25287356274202,245.16341185511556 92.49425287311897,244.3170043604914 88.66666666651145,247.4608004714828 69.01149425236508,250.7255026800558 60.01149425236508,254.2320243123686 59.80459770094603,255.6829956395086 70.97701149387285,250.36275845009368 94.66666666651145,245.04249653674196 88.8735632179305,247.94446064555086 70.35632183868438,250.4836732064141 63.21839080424979,253.99019557912834 61.35632183868438,253.7483667950146 70.14942528726533,249.8790992978029 93.52873563207686,244.3170043604914 88.35632183868438,247.70263058389537 82.45977011462674,247.8235456213588 61.35632183868438,253.8692811934743 79.97701149340719,246.73530982725788 84.83908045943826,247.09805520693772 93.52873563207686,244.67975050618406 90.73563218349591,246.97714009310585 69.42528735566884,250.241843681084 60.425287356134504,254.2320243123686 67.7701149424538,251.57190543680917 74.0804597698152,245.64707299962174 77.90804597642273,248.06537565717008 87.83908045990393,246.49347951076925 79.04597701085731,249.51635479961988" stroke="#4DD2FF" stroke-linecap="round" stroke-linejoin="round" stroke-width="0.5"><title>2024-07-07 3.0km</title><desc>1720361789036</desc></polyline></svg>