<?xml version="1.0" encoding="utf-8" ?>
<svg baseProfile="full" height="300mm" version="1.1" viewBox="0,0,200,300" width="200mm" xmlns="http://www.w3.org/2000/svg" xmlns:ev="http://www.w3.org/2001/xml-events" xmlns:xlink="http://www.w3.org/1999/xlink"><defs /><rect fill="#222222" height="300" width="200" x="0" y="0" /><text fill="#FFFFFF" style="font-size:12px; font-family:Arial; font-weight:bold;" x="10" y="20">Runs</text><text fill="#FFFFFF" style="font-size:4px; font-family:Arial" x="10" y="280">Runner</text><text fill="#FFFFFF" style="font-size:9px; font-family:Arial" x="10" y="290">Jay</text><text fill="#FFFFFF" style="font-size:4px; font-family:Arial" x="65" y="280">SPECIAL TRACKS</text><rect fill="yellow" height="2.6" width="2.6" x="65" y="283" /><text fill="#FFFFFF" style="font-size:3px; font-family:Arial" x="70" y="285.5">Over 5.0 km</text><rect fill="red" height="2.6" width="2.6" x="65" y="287" /><text fill="#FFFFFF" style="font-size:3px; font-family:Arial" x="70" y="289.5">Over 10.0 km</text><text fill="#FFFFFF" style="font-size:4px; font-family:Arial" x="120" y="280">STATISTICS</text><text fill="#FFFFFF" style="font-size:3px; font-family:Arial" x="120" y="285">Number: 21</text><text fill="#FFFFFF" style="font-size:3px; font-family:Arial" x="120" y="290">Weekly: 1.3</text><text fill="#FFFFFF" style="font-size:3px; font-family:Arial" x="141" y="285">Total: 80.5 km</text><text fill="#FFFFFF" style="font-size:3px; font-family:Arial" x="141" y="290">Avg: 3.8 km</text><text fill="#FFFFFF" style="font-size:3px; font-family:Arial" x="167" y="285">Min: 2.1 km</text><text fill="#FFFFFF" style="font-size:3px; font-family:Arial" x="167" y="290">Max: 5.2 km</text><polyline fill="none" points="20.11541929654777,64.28592026612023 21.284039675141685,63.90649504197063 20.11541929654777,62.6923316315806 16.577096483204514,62.80615962561569 15.246167718549259,57.94946648637415 12.0,51.0816867708927 12.194770062924363,50.2469200657506 30.113615870126523,43.87227398346295 46.89630297559779,35.71407973387977 48.0,38.86354412432411 46.993688007234596,35.78997076669475 28.555455365218222,44.858833752630744 30.275924255955033,52.71327063883655 30.697926059365273,52.75121436151676 28.977457168512046,44.44144341174979 45.14337240764871,36.66271649271948 28.620378719526343,44.70705550300772 30.14607754733879,53.4721443313465 25.568981063901447,55.40726499148877 15.57078449043911,58.13918229439878 16.869251577882096,62.616446282190736 20.69972948601935,62.616446282190736 21.60865644714795,63.640897146600764 26.542831379571,62.23701929466915" stroke="yellow" stroke-linecap="round" stroke-linejoin="round" stroke-width="0.5"><title>2025-05-11 5.2km</title><desc>1746960817262</desc></polyline><polyline fill="none" points="69.59305398282595,65.89307728561107 70.04152510385029,64.60642486345023 69.47074367688037,63.79630849297973 64.3744809362106,64.03457816469017 62.86598716513254,58.31607131511555 58.66666666674428,49.309276047948515 58.78897697245702,48.30850991877378 80.47867119661532,40.68355223326944 94.66666666674428,34.10692271438893 72.65081162704155,43.92417499644216 58.78897697245702,48.2131987431203 62.86598716513254,57.93483494804241 64.7414118538145,64.36815549366293 73.87391468486749,63.081498722953256 83.04718761797994,59.888667924067704 84.39260098175146,64.36815549366293" stroke="#4DD2FF" stroke-linecap="round" stroke-linejoin="round" stroke-width="0.5"><title>2025-05-10 3.3km</title><desc>1746881233572</desc></polyline><polyline fill="none" points="115.17288557218853,64.58273412846029 114.03109452745412,63.36591647268506 113.32587064686231,63.87619532953249 110.03482587076724,63.16965518737561 108.9601990050869,59.20515503096976 105.33333333337214,50.490956535271835 123.46766169159673,44.01405500006513 141.33333333337214,35.41726587153971 122.5945273633115,44.445851947937626 123.97139303479344,53.47421866294462 119.63930348260328,55.593890358373756 108.9601990050869,58.49860600853572 109.9340796021279,63.130402917799074 113.42661691550165,63.20890745270299" stroke="#4DD2FF" stroke-linecap="round" stroke-linejoin="round" stroke-width="0.5"><title>2025-05-09 3.2km</title><desc>1746800655160</desc></polyline><polyline fill="none" points="169.28925520111807,68.0 168.28236673539504,65.30006858584238 161.70797734358348,64.6770059109549 159.81265787943266,57.68481749726925 153.59364088671282,44.46176222991198 153.41595468646847,42.2463551510009 183.0303213179577,32.0 186.58404531376436,47.784858807572164 178.41048012371175,51.3156304602162 159.93111534579657,56.50790716294432 161.64874861040153,64.6770059109549 168.99311153497547,64.6770059109549 170.2369149334263,67.16925305698533 173.55372399603948,65.85390157747315" stroke="#4DD2FF" stroke-linecap="round" stroke-linejoin="round" stroke-width="0.5"><title>2025-05-07 2.1km</title><desc>1746628465614</desc></polyline><polyline fill="none" points="22.855875831563026,105.04515085351886 22.29711751686409,104.29874956019921 17.747228381689638,104.43869989883387 15.711751663358882,97.34782694870955 12.917960088700056,91.84299182283576 12.159645233070478,88.99724506700295 28.962305986788124,83.1190871547442 38.501108647556975,79.01366062223678 34.19068736140616,81.20633635963895 47.082039911299944,75.04815557645634 48.0,76.30779045005329 47.24168514413759,74.95484914648114 32.51441241707653,82.04608163135708 32.35476718423888,83.49230585628538 34.549889135407284,92.58941416593734 28.164079822599888,95.29518458471284 16.031042128801346,98.5140967691259 12.0,89.69702055942616 12.558758315164596,88.81063808177714 15.152993348194286,87.87760197275202 12.319290465908125,88.90394158419804 12.159645233070478,89.79032387468033 15.871396895963699,98.14089076156961 18.82483370299451,97.72103362620692 16.190687361406162,98.56074749783147 17.58758314861916,104.11214903977816 22.69623059872538,104.29874956019921" stroke="#4DD2FF" stroke-linecap="round" stroke-linejoin="round" stroke-width="0.5"><title>2025-05-04 3.9km</title><desc>1746361657097</desc></polyline><polyline fill="none" points="70.2651796778664,105.14767173479777 67.14250309788622,105.72123105431092 64.68897149944678,105.14767173479777 63.48451053304598,99.3598994933709 58.8451053283643,89.71346163022099 58.889714994002134,88.14915664686123 80.34696406451985,80.64042372035328 94.66666666674428,74.27876894568908 81.6406443619635,80.37970177509123 83.8265179679729,92.059909811127 77.00123915728182,94.97991863795323 63.395291202003136,98.62990538284066 58.66666666674428,88.93130975816166 58.97893432457931,88.044869471516 61.29863692703657,87.21057127718814 58.889714994002134,87.99272587581072 63.52912019821815,98.57776290498441 65.13506815372966,105.09552994539263 68.97149938065559,104.73053726556827" stroke="#4DD2FF" stroke-linecap="round" stroke-linejoin="round" stroke-width="0.5"><title>2025-05-02 3.2km</title><desc>1746193621188</desc></polyline><polyline fill="none" points="115.64794007479213,105.05891772126779 110.83445692877285,105.29531331185717 109.37827715347521,99.29082662434666 105.33333333325572,90.59126995681436 105.61647940054536,89.69293653935893 128.91535580484197,81.13503832009155 141.33333333325572,75.36663891593344 140.60524344537407,74.70468668814283 126.28614232176915,81.13503832009155 125.76029962534085,82.93173770437716 128.02546816458926,93.19169863360003 125.35580524313264,94.70466836646665 109.62097378261387,99.33810636171256 105.89962546806782,91.4896015712875 109.62097378261387,99.38538609413081 110.99625468160957,105.05891772126779 115.76928838947788,105.20075509056915" stroke="#4DD2FF" stroke-linecap="round" stroke-linejoin="round" stroke-width="0.5"><title>2025-05-01 3.2km</title><desc>1746105997674</desc></polyline><polyline fill="none" points="160.51313755800948,103.80451027367963 159.56723338493612,102.66637814525166 157.786707882653,103.18666764031514 156.39567233389243,103.25170376535971 155.86707882536575,102.86148680897895 154.9211746522924,99.25195651623653 152.0556414220482,93.07338302468997 152.11128284398,92.2929228155117 161.82071097381413,89.00846441774047 173.08809891808778,84.32561164908111 188.0,76.78086567862192 187.61051004647743,76.19548972629127 184.24420401873067,77.52884444201482 183.54868624429218,78.2768213878735 171.64142194751184,84.22805145889288 159.45595054107253,89.07350353797665 159.14992272027303,89.85397190894582 152.3060278207995,92.0978074540617 152.0,92.65063399029896 154.8377125193365,98.73166037185001 162.2380216383608,96.81306074018357 154.8655332303606,98.86173449034686 152.0278207110241,92.84574900139705 152.11128284398,92.130326689512 158.59350850083865,90.11412759294035 152.72333848534618,91.8376534464478 152.11128284398,92.39048044985975 156.28438948991243,103.02407726756064" stroke="yellow" stroke-linecap="round" stroke-linejoin="round" stroke-width="0.5"><title>2025-04-20 5.2km</title><desc>1745154044961</desc></polyline><polyline fill="none" points="28.57804637681693,146.373322694737 22.829723218921572,146.79767367703607 21.07497193943709,145.87824620888568 18.04953869851306,134.98647091409657 12.966810853686184,122.89214920374798 42.858091273577884,112.0 47.033189146080986,128.1967031644308 38.38045007712208,131.87450257508317 32.995178908342496,132.65249601571122 19.441237989347428,137.39116381574422 22.164127906085923,146.23187230766052 26.70227776747197,145.31244406255428 29.243641689652577,146.0196966708172 30.39330632123165,148.0 34.08433487522416,146.44404787721578" stroke="#4DD2FF" stroke-linecap="round" stroke-linejoin="round" stroke-width="0.5"><title>2025-03-23 2.1km</title><desc>1742729899087</desc></polyline><polyline fill="none" points="71.84078233432956,147.4295943044126 72.81680388469249,148.0 75.20263434085064,146.79580956237623 75.58219827734865,145.33810211508535 74.4435064685531,144.5141789483023 68.15358981094323,144.38742143753916 66.74378090491518,137.60585557908053 60.67075792490505,123.66220834391424 92.71679882751778,112.0 60.616534505737945,123.78897023265017 66.79800432431512,136.59178306924878 68.20781323034316,144.13390633597737 75.36530459928326,144.38742143753916 76.0702090524137,146.22540272201877 80.40808260929771,144.13390633597737 80.62497628713027,145.02120872336673" stroke="#4DD2FF" stroke-linecap="round" stroke-linejoin="round" stroke-width="0.5"><title>2025-03-16 2.5km</title><desc>1742128080108</desc></polyline><polyline fill="none" points="110.32774674124084,137.1082006659417 107.78026070771739,135.8158353663457 106.47299813793506,133.89686041264213 105.33333333337214,125.90755198677653 105.97020484181121,123.94936193039757 108.21601489768364,122.42196651804261 114.45065176906064,122.14781795852468 122.49534450657666,119.95462219632464 113.04283054010011,122.22614613905898 108.48417132219765,122.38280245053465 106.40595903177746,123.44023082434433 105.36685288639273,125.86838828693726 106.30540037259925,132.7611358712311 107.44506517704576,135.54169669435942 114.55121042835526,138.8705097360944 118.10428305401001,139.81040448736167 123.60148975800257,140.04537780364626 132.9199255121639,137.89145017400733 136.8417132216273,135.65918472138583 138.1489757914096,134.28848875960102 141.33333333337214,127.66991420913837 137.54562383610755,134.79760499313124 135.0986964617623,136.55992502748268 131.37802607077174,138.16558711155085 122.89757914352231,139.88872894263477 117.70204841718078,139.53626876394264 110.99813780270051,137.06903814719408 114.55121042835526,138.909672064794 119.71322160144337,139.967053381406 123.97020484181121,140.04537780364626 126.51769087533467,139.2621328381647 122.89757914352231,139.84956671713735 117.836126629496,139.45794423448388 113.78026070760097,138.4005614684138 109.72439478593878,136.52076245093485 111.76908752333838,136.87322549146484" stroke="#4DD2FF" stroke-linecap="round" stroke-linejoin="round" stroke-width="0.5"><title>2025-03-08 4.9km</title><desc>1741407347536</desc></polyline><polyline fill="none" points="163.18644067808054,145.54813429020578 157.73559322045185,145.12021856565843 156.55593220330775,139.9851981435495 152.122033898253,130.33310308106593 152.44745762716047,129.38214655502816 176.8542372880038,120.58570344562759 187.6338983050082,115.54550181713421 188.0,115.0700081839168 187.47118644067086,114.45186570979422 172.17627118621022,121.48912984810886 152.0,128.28854406622122 157.97966101695783,144.93003366864286 166.48135593207553,144.5496636336029 172.70508474577218,142.69535511004506" stroke="#4DD2FF" stroke-linecap="round" stroke-linejoin="round" stroke-width="0.5"><title>2025-03-02 3.1km</title><desc>1740908689410</desc></polyline><polyline fill="none" points="29.765341610182077,188.0 28.944037246285006,185.73720165336272 21.728291763924062,185.6686318833963 20.085683036362752,177.71448941912968 13.163260541157797,163.9316497533 13.456583528313786,163.10878439730732 43.1408698214218,152.82287943764823 46.8367394588422,167.90881760395132 38.62369582033716,171.6802473681746 19.792360049439594,176.75450011721114 13.39791893074289,163.10878439730732 44.079503380227834,152.0 43.258199016330764,153.1657455621753 46.60208106879145,167.90881760395132 37.215745482360944,171.81738985603442" stroke="#4DD2FF" stroke-linecap="round" stroke-linejoin="round" stroke-width="0.5"><title>2024-12-01 3.0km</title><desc>1733059607886</desc></polyline><polyline fill="none" points="75.93650793656707,187.8114124177955 67.49206349207088,187.88562474312494 65.58730158745311,179.64800877787638 58.66666666674428,163.61777655623155 89.96825396828353,152.11437525687506 92.25396825396456,157.08683634916088 94.66666666674428,168.8127992778318 87.23809523810633,172.5977202161448 65.39682539692149,178.38638339028694 58.79365079337731,163.9888508815202 90.92063492070884,152.11437525687506 94.60317460307851,169.03544225048972 84.38095238106325,174.0819973713369 65.9047619048506,180.01907463744283 67.8730158729013,187.8114124177955 74.34920634911396,187.44035067345249" stroke="#4DD2FF" stroke-linecap="round" stroke-linejoin="round" stroke-width="0.5"><title>2024-11-03 3.4km</title><desc>1730641178795</desc></polyline><polyline fill="none" points="128.11247889185324,188.0 124.4543674767483,186.8276174745988 123.27433153614402,187.3103634751751 123.33333333325572,186.20694352081046 121.97629200178199,185.51730510225752 115.30908893910237,185.44834122044267 112.00498830596916,174.00023586145835 106.63582477718592,162.8277949320036 136.43173227109946,152.06896741513629 140.50285626528785,167.79334783629747 131.94759569782764,171.4485223714728 112.77201166725717,176.4140097143245 106.2228121983353,163.10365997289773 108.16987149976194,161.44846797868377 136.5497358648572,152.0 140.44385446840897,167.7243820822914 132.65561726223677,171.03473005490378 113.24402604321949,176.68986901495373 111.7099793208763,175.10367644421058 106.1638104012236,162.8277949320036 136.25472687999718,152.13793482276378 140.50285626528785,167.9312793224235 132.12460108892992,171.4485223714728 113.77504221652634,176.68986901495373 113.30302784056403,179.9312070684391 114.48306378070265,185.37937733117724 122.68431356619112,185.03455777600175" stroke="yellow" stroke-linecap="round" stroke-linejoin="round" stroke-width="0.5"><title>2024-08-18 5.1km</title><desc>1723984957861</desc></polyline><polyline fill="none" points="168.07152106938884,188.0 170.22687987424433,186.74036635051016 169.0924805032555,183.95590405032272 164.49816305097193,184.95035628974438 161.8323245292995,184.3536851350218 160.0740055043716,177.25988461915404 154.00496886949986,162.74054761062143 183.5560724833049,152.0 183.10231273481622,154.18790423503378 185.99503113073297,167.0499749230803 177.77063569100574,171.29307444533333 160.3008853783831,176.00022941682255 157.06784717109986,170.6963903082069 153.8915289323777,162.74054761062143 182.25151320639998,152.4641015357338 184.35015204292722,158.03329319611657 186.05175109906122,167.11627357348334 179.01847499934956,170.89528508350486 160.13072547269985,175.8676339853555 153.77808899525553,163.07204306969652 180.83351399283856,152.79560242249863 182.7619929232169,153.06080300576286 186.22191100474447,167.58036393183284 177.14671603706665,171.49196903139818 160.86808506399393,175.8013362591737 160.24416541005485,176.92839665332576 161.94576446642168,184.02220091520576 166.99384166719392,184.28738830506336" stroke="yellow" stroke-linecap="round" stroke-linejoin="round" stroke-width="0.5"><title>2024-08-11 5.0km</title><desc>1723380974002</desc></polyline><polyline fill="none" points="25.79915134375915,226.1593020678265 19.48514851462096,226.6949534061714 17.753889674553648,220.14806879602838 28.192362093133852,216.27941940934397 25.90099009894766,202.2330229608924 48.0,193.30504659377038 38.63083451194689,197.47145317017566 38.478076378814876,199.85224309546174 40.97312588384375,210.98230255226372 32.92786421463825,214.79147026548162 17.499292786233127,218.7196474999655 12.25459688808769,207.94685359479627 12.86562941991724,206.2208066987805 26.56294200848788,201.87590662232833 45.86138613871299,194.0192899093381 38.93635077774525,196.8762541169417 38.019801980117336,198.00713178049773 40.92220650613308,210.86326564627234 33.69165487959981,214.37484380108071 17.652050919365138,218.60061222856166 12.0,207.47070325509412 14.800565770594403,205.68513589724898 37.510608203709126,197.5904929053504 42.75530410185456,218.24350626330124" stroke="yellow" stroke-linecap="round" stroke-linejoin="round" stroke-width="0.5"><title>2024-08-04 5.0km</title><desc>1722777733849</desc></polyline><polyline fill="none" points="64.09201877960004,227.98751201533014 67.43849765253253,226.38735403097235 66.83004694874398,225.14278355496936 60.1877934273798,224.9649875475443 58.66666666674428,218.86062378197676 68.95962441340089,214.77125557069667 69.31455399072729,212.81546023843111 66.88075117371045,200.78420566068962 88.53145539900288,192.01248798466986 91.62441314570606,200.0137224397622 92.23286384996027,206.17755858134478 94.51455399068072,214.2971239949111 93.60187793429941,215.77878383890493 86.40187793434598,218.5642937538214 84.77934272307903,219.98667646216927 70.2272300471086,224.31306837085867 60.39061032864265,224.9649875475443 58.920187793439254,218.4457616986474 69.41596244159155,215.00832120823907 66.32300469488837,201.0805450793705 88.27793427254073,192.3088320363313 91.77652582176961,200.1915263539413 94.66666666674428,215.00832120823907 85.89483568072319,218.8013577889651 85.13427230063826,219.92741058784304 79.40469483588822,221.29052411048906 79.5568075121846,223.42408645502292 80.41877934290096,223.3648209440289 79.60751173715107,224.2538029536372 69.21314554009587,225.9724975124118 64.8525821599178,227.51339160674252 72.40751173719764,224.49086458515376 77.47793427249417,224.07600666425424 81.02723004715517,222.7128999082488 73.42159624421038,225.3798448109883" stroke="yellow" stroke-linecap="round" stroke-linejoin="round" stroke-width="0.5"><title>2024-07-28 5.0km</title><desc>1722171325984</desc></polyline><polyline fill="none" points="122.17311233864166,226.08002219413174 121.9079189687036,223.36779036128428 113.75322283594869,223.67776022100588 111.764272559667,214.92106127669103 125.35543278069235,210.58141952863662 125.4880294657778,207.1716830052901 121.70902394060977,192.6801259830827 120.8471454877872,192.2151514995494 105.33333333325572,197.3298546113656 121.51012891321443,192.83511741214897 128.7366482501384,219.64814182947157 127.5432780846022,221.97292437165743 122.63720073644072,223.13531288056402 122.96869244938716,225.38259210909018 136.29465929977596,221.7404464489082 138.28360957605764,222.67035769787617 141.33333333325572,221.12050496140728 121.51012891321443,226.46748306625523 128.1399631674867,223.75525266560726 133.4438305706717,223.44528283836553 140.73664825037122,220.50056295009563 138.61510128877126,222.36038741248194 126.81399631639943,224.5301766602206 121.37753222812898,226.85494373360416 126.01841620635241,224.29769954783842 136.49355432740413,221.97292437165743 137.88581952103414,222.5153725715354 139.874769797083,220.96551950764842 141.20073664770462,220.8880267686327 139.07918968680315,222.12790961266728 128.073664824944,224.37519192678155 118.39410681393929,227.7848485004506 137.15653775283135,221.12050496140728 140.86924493522383,220.733041265863 138.94659300148487,222.20540222077398 126.9465930017177,224.22020716051338 120.31675874767825,226.85494373360416 128.80294659291394,222.98032785236137 131.9852670347318,223.36779036128428 136.6924493550323,221.66295379179064 138.54880294622853,222.67035769787617 140.80294659244828,221.1979976760922 134.43830570881255,223.52277530753054 130.92449355428107,223.67776022100588 132.97974217310548,222.67035769787617 137.81952117825858,222.5153725715354 140.80294659244828,220.65554850216722 138.94659300148487,222.4378799959668" stroke="#4DD2FF" stroke-linecap="round" stroke-linejoin="round" stroke-width="0.5"><title>2024-07-21 4.9km</title><desc>1721568919550</desc></polyline><polyline fill="none" points="172.4563758391887,220.91983664711006 165.8523489930667,222.80253531091148 163.67785234889016,219.97848582372535 155.3825503354892,220.1667560680653 152.48322147643194,210.75319514021976 152.64429530175403,209.24701616476523 170.92617449630052,203.69295919477008 168.51006711414084,196.2561168484972 169.07382550323382,203.41054859379074 172.53691275138408,215.7423948154319 155.70469798659906,220.35502627235837 154.33557046949863,219.41367485269438 152.0,209.905969779531 152.2416107384488,207.3642888662289 168.91275167791173,202.46917927684262 167.9463087245822,196.2561168484972 169.07382550323382,203.22227480990114 173.2617449662648,214.23622427135706 172.13422818807885,216.77788558765315 155.3825503354892,219.88435068679973 154.17449664417654,219.0371340061538 152.0,210.18837832269492 153.04697986552492,207.55256177525735 167.9463087245822,202.93986405950272 168.187919463031,197.57404280110495 172.6174496645108,214.5186314425082 172.05369127495214,217.06029195326846 155.46308724861592,219.97848582372535 152.2416107384488,211.41214764141478 152.2416107384488,208.21151664294302 168.42953020101413,202.84572712285444 170.1208053692244,204.63432721915888 172.6174496645108,216.2130725880852 165.28859060397372,219.6019452161272 166.01342281885445,222.80253531091148 178.0939597315155,218.4723224384361 188.0,216.96615650795866 166.81879194639623,221.39051168580772 164.08053691266105,223.7438831515028 173.6644295300357,220.6374315043795" stroke="#4DD2FF" stroke-linecap="round" stroke-linejoin="round" stroke-width="0.5"><title>2024-07-14 4.2km</title><desc>1720963947536</desc></polyline><polyline fill="none" points="12.0,254.47385299496818 34.75862069008872,246.73530982725788 47.58620689623058,245.16341185511556 45.82758620660752,244.3170043604914 42.0,247.4608004714828 22.344827585853636,250.7255026800558 13.344827585853636,254.2320243123686 13.137931034434587,255.6829956395086 24.310344827361405,250.36275845009368 48.0,245.04249653674196 42.20689655141905,247.94446064555086 23.689655172172934,250.4836732064141 16.551724137738347,253.99019557912834 14.689655172172934,253.7483667950146 23.482758620753884,249.8790992978029 46.86206896556541,244.3170043604914 41.689655172172934,247.70263058389537 35.79310344811529,247.8235456213588 14.689655172172934,253.8692811934743 33.310344826895744,246.73530982725788 38.17241379292682,247.09805520693772 46.86206896556541,244.67975050618406 44.06896551698446,246.97714009310585 22.758620689157397,250.241843681084 13.758620689623058,254.2320243123686 21.103448275942355,251.57190543680917 27.41379310330376,245.64707299962174 31.24137930991128,248.06537565717008 41.17241379339248,246.49347951076925 32.37931034434587,249.51635479961988" stroke="#4DD2FF" stroke-linecap="round" stroke-linejoin="round" stroke-width="0.5"><title>2024-07-07 3.0km</title><desc>1720361789036</desc></polyline></svg>