<?xml version="1.0" encoding="utf-8" ?>
<svg baseProfile="full" height="300mm" version="1.1" viewBox="0,0,200,300" width="200mm" xmlns="http://www.w3.org/2000/svg" xmlns:ev="http://www.w3.org/2001/xml-events" xmlns:xlink="http://www.w3.org/1999/xlink"><defs /><rect fill="#222222" height="300" width="200" x="0" y="0" /><text fill="#FFFFFF" style="font-size:12px; font-family:Arial; font-weight:bold;" x="10" y="20">Runs</text><text fill="#FFFFFF" style="font-size:4px; font-family:Arial" x="10" y="280">Runner</text><text fill="#FFFFFF" style="font-size:9px; font-family:Arial" x="10" y="290">Jay</text><text fill="#FFFFFF" style="font-size:4px; font-family:Arial" x="65" y="280">SPECIAL TRACKS</text><rect fill="yellow" height="2.6" width="2.6" x="65" y="283" /><text fill="#FFFFFF" style="font-size:3px; font-family:Arial" x="70" y="285.5">Over 5.0 km</text><rect fill="red" height="2.6" width="2.6" x="65" y="287" /><text fill="#FFFFFF" style="font-size:3px; font-family:Arial" x="70" y="289.5">Over 10.0 km</text><text fill="#FFFFFF" style="font-size:4px; font-family:Arial" x="120" y="280">STATISTICS</text><text fill="#FFFFFF" style="font-size:3px; font-family:Arial" x="120" y="285">Number: 29</text><text fill="#FFFFFF" style="font-size:3px; font-family:Arial" x="120" y="290">Weekly: 1.3</text><text fill="#FFFFFF" style="font-size:3px; font-family:Arial" x="141" y="285">Total: 117.4 km</text><text fill="#FFFFFF" style="font-size:3px; font-family:Arial" x="141" y="290">Avg: 4.0 km</text><text fill="#FFFFFF" style="font-size:3px; font-family:Arial" x="167" y="285">Min: 2.1 km</text><text fill="#FFFFFF" style="font-size:3px; font-family:Arial" x="167" y="290">Max: 5.2 km</text><polyline fill="none" points="19.58683385583572,61.43516854860354 21.144200626993552,60.80201635425328 21.144200626993552,60.20843520012568 20.467084639589302,59.37742000471917 16.607523511047475,59.61485310582793 15.422570533002727,55.103598456131294 11.800000000046566,47.34727926910273 11.935423197573982,46.437088428850984 31.097805642639287,39.630373780964874 42.33793103438802,34.64398107698071 43.25203761737794,37.09761117826565 42.94733542308677,38.047399160976056 44.199999999953434,44.33968372599338 33.26457680249587,49.128081038972596 31.233228840166703,49.44466713411384 25.782445141114295,51.858627312933095 15.354858934064396,54.66829908132786 12.273981191334315,48.732348043937236 11.969278996926732,46.437088428850984 28.79561128525529,40.58015534238075 41.762382444925606,34.564831451367354 42.57492162997369,34.68355588361737 44.199999999953434,44.26053614879493 25.748589341761544,51.97734626458259 15.388714733533561,54.66829908132786 16.573667711694725,59.416992198792286 18.50344827596564,59.416992198792286" stroke="yellow" stroke-linecap="round" stroke-linejoin="round" stroke-width="0.5"><title>2025-07-06 5.2km</title><desc>1751801165138</desc></polyline><polyline fill="none" points="54.672727272845805,60.426083032391034 52.40438871481456,60.426083032391034 51.15172413783148,55.40038202019059 47.800000000046566,48.55423989184783 48.00313479627948,47.327461322100135 60.73291536059696,43.053491701954044 77.66081504710019,35.57392753503518 78.57492163020652,35.653077144001145 80.20000000006985,45.26963018413517 71.46520376193803,49.22698772457079 58.836990595795214,53.184303464047844 55.993103448301554,54.608926897722995 51.42257053300273,55.63781823092722 48.07084639498498,48.94997405735194 47.90156739810482,47.36703488699277 66.65768025093712,40.797765855211765 78.60877742967568,35.41562826704467 79.5905956113711,39.09606894760509 79.2181818181416,39.768833765148884 80.16614420083351,45.309203966346104 73.69968652050011,48.316799191816244 55.78996865206864,54.64849969360512 51.28714733547531,55.51910014433088 50.61003134807106,54.01533445864334 52.50595611287281,60.426083032391034 53.216927899746224,60.58437173295533" stroke="yellow" stroke-linecap="round" stroke-linejoin="round" stroke-width="0.5"><title>2025-06-29 5.1km</title><desc>1751195618015</desc></polyline><polyline fill="none" points="90.83908523921855,61.30628550963593 93.43243243242614,60.479592226678506 92.55675675685052,59.21986560311052 88.4814968816936,59.613530630391324 87.47110187122598,55.28319246254978 83.90103950118646,47.80339894077042 83.80000000004657,46.661733040673425 94.51018711028155,43.0005050112959 113.57297297311015,34.69371449033497 114.78544698550832,35.992892995040165 116.20000000006985,44.41775883777882 104.04158004163764,49.37810478848405 103.36798336799257,50.952803982945625 104.10893970902544,56.3854651330621 100.97671517671552,57.5271012482408 101.38087318104226,58.70810044615064 100.6399168401258,59.180499077483546 97.13721413724124,60.04656167997746 95.7900207900675,59.73163005738752 96.22785862802994,60.007195241807494 95.99209979223087,59.180499077483546 95.72266112279613,59.81036298800609 96.16049896052573,59.49543116582208" stroke="#4DD2FF" stroke-linecap="round" stroke-linejoin="round" stroke-width="0.5"><title>2025-06-14 2.8km</title><desc>1749897609635</desc></polyline><polyline fill="none" points="128.38143899885472,61.03203368006507 124.5974973931443,60.913564757298445 123.2460896767443,55.9378361076233 119.80000000004657,48.71106466115452 120.17163712205365,47.723789956828114 138.34807090717368,41.32618668611394 149.80125130352098,36.03425927014905 150.71345151215792,36.98207267271937 151.35537017742172,39.35159566521179 152.20000000006985,45.78872397352825 143.95641293027438,49.500882547319634 139.49676746607292,50.76458769477904 137.23315954138525,41.8000869792304 151.62565172079485,34.96796631990583 137.0304483838845,42.19500343129039 138.9562043796759,50.883059833344305 138.04400417103898,51.554401242901804 133.7532846715767,53.252494721178664 123.41501564125065,56.01681644463679 119.83378519280814,48.86902837181697 119.86757038580254,48.039718145824736 136.65881126187742,42.03703690049588 140.03733055258635,55.5429341722338" stroke="yellow" stroke-linecap="round" stroke-linejoin="round" stroke-width="0.5"><title>2025-06-03 5.1km</title><desc>1748956863854</desc></polyline><polyline fill="none" points="163.57478991604876,60.11130241968203 160.03529411775526,60.28810252060066 158.6134453783743,55.40838546154555 155.80000000004657,49.43240318837343 155.86050420161337,48.58373433339875 172.438655462116,42.71371584656299 188.20000000006985,35.1108280592307 187.98823529400397,34.47429938710411 182.27058823523112,37.444756167562446 182.45210084039718,37.975192104349844 181.33277310919948,38.682438712683506 171.65210084046703,43.244143434334546 173.5579831933137,51.09437346391496 180.2134453781182,48.51301183167379 184.66050420165993,46.24988388828933 182.66386554623023,38.08127919083927 171.28907563025132,43.49167602084344 172.98319327738136,51.3065392881108 169.957983193337,52.827057093789335 162.6067226891173,55.26694332662737 158.9462184875738,55.938792935048696 156.2235294119455,50.493236231588526 155.9210084035294,48.61909557855688 156.40504201699514,48.40692805100116 155.80000000004657,49.22023617630475 159.0369747900404,55.97415340336738 160.00504201685544,60.040582353190985 163.51428571436554,59.93450222539832 164.02857142873108,60.18202247127192 164.45210084039718,61.52570061289589 164.99663865554612,61.419620955653954" stroke="yellow" stroke-linecap="round" stroke-linejoin="round" stroke-width="0.5"><title>2025-05-25 5.1km</title><desc>1748170625707</desc></polyline><polyline fill="none" points="18.84609665442258,102.40363249546499 20.201115241623484,101.87569894117769 19.80966542765964,100.96061213247594 18.2739776953822,101.27737323523615 16.01561338303145,100.85502503134194 14.811152416397817,96.45553274377016 11.800000000046566,89.27543657648494 22.91115241649095,85.61493584839627 31.643494423944503,82.05998799591907 44.20000000006985,75.75954169020406 44.04944237926975,75.19636750454083 32.6672862455016,80.82806652446743 32.84795539046172,81.70801089744782 27.698884758516215,83.89026291429764 29.324907063273713,91.42244233153178 28.3011152416002,92.54873490045429 24.446840148768388,94.09738096679212 15.262825278798118,96.63151355047012 11.890334572526626,90.08496496125008 12.010780669166707,89.20504271093523 27.75910780671984,83.78467040380929 38.71970260224771,78.78658662893577 40.67695167299826,87.48038835966145 24.898513011285104,93.99179169096169 19.659107806743123,95.39964595166384" stroke="yellow" stroke-linecap="round" stroke-linejoin="round" stroke-width="0.5"><title>2025-05-24 5.2km</title><desc>1748085426224</desc></polyline><polyline fill="none" points="54.5097014924977,102.54270511260256 56.23246268660296,101.83616758219432 55.960447761346586,100.91766656149412 51.910447761183605,100.81168551213341 50.88283582078293,96.57241600332782 47.800000000046566,90.10742655105423 47.83022388070822,88.97692375537008 63.51641791057773,83.50099675514502 72.8555970150046,79.40282498521265 80.19999999995343,75.516581224947 79.7466417910764,75.05729488743236 74.48768656724133,77.77767399768345 74.45746268657967,78.48426235394436 73.55074626870919,79.04953196406132 63.00261194037739,84.10158667471842 64.69514925370459,92.05046930297976 60.49402985081542,93.78153424651828 50.88283582078293,96.43110609441646 52.06156716425903,100.70570442927419 55.02350746281445,100.74103146063862" stroke="#4DD2FF" stroke-linecap="round" stroke-linejoin="round" stroke-width="0.5"><title>2025-05-18 3.3km</title><desc>1747570670414</desc></polyline><polyline fill="none" points="94.94870848732535,101.56958271478652 92.49778597790282,102.2682994606439 91.60110701119993,100.76605663241935 88.16383763845079,101.01060825542663 86.69926199270412,96.0496685350081 83.85977859806735,90.28510286356322 83.82988929899875,89.2719263949839 102.18191881943494,82.73861049409606 116.20000000006985,75.9955341424793 115.81143911438994,75.33170053933281 110.1025830260478,78.1966570817458 110.13247232488357,78.96529973647557 106.69520295213442,80.81702243219479 99.61143911455292,83.96143344781012 101.25535055366345,91.3681501391693 100.86678966798354,91.8572671013244 98.77453874563798,84.24093520242604 110.28191881929524,78.86048493415001 110.04280442802701,78.30147209443385 104.5431734318845,80.92183661437593 104.57306273072027,81.55072100981488 102.9889298893977,82.45910746994196 99.61143911455292,83.89155797226704 101.07601476029959,91.75245638465276 100.56789667916019,91.64764563471545 98.77453874563798,84.24093520242604 91.7804428046802,86.86125266458839 91.1228782288963,86.26731585926609 83.80000000004657,88.57318219452281 84.00922509247903,89.97066911921138 87.14760147617199,96.67852416692767 87.83505535067525,99.47342362152995" stroke="yellow" stroke-linecap="round" stroke-linejoin="round" stroke-width="0.5"><title>2025-05-17 5.1km</title><desc>1747484576135</desc></polyline><polyline fill="none" points="127.10387736698613,101.65732823949656 128.15563570777886,101.31584553778521 127.10387736698613,100.22309846841381 123.91938683495391,100.32554366305703 122.72155094670597,95.95451983774547 119.80000000004657,89.77351809380343 119.97529305680655,89.02222805915517 136.1022542831488,83.28504658510792 151.2066726781195,75.94267176050926 152.20000000006985,78.77718971189461 151.2943192066159,76.01097369001945 134.69990982871968,84.17295037736767 136.2483318304876,91.24194357494707 136.62813345354516,91.2760929253709 135.07971145177726,83.79729907057481 149.62903516704682,76.79644484343589 134.75834084756207,84.03634995271568 136.1314697926864,91.92492989820312 132.01208295766264,93.6665384923399 123.01370604138356,96.12526406496181 124.1823264202103,100.15480165398913 127.6297565374989,100.15480165398913 128.44779080257285,101.07680743193487 132.8885482416954,99.81331736521679" stroke="yellow" stroke-linecap="round" stroke-linejoin="round" stroke-width="0.5"><title>2025-05-11 5.2km</title><desc>1746960817262</desc></polyline><polyline fill="none" points="165.63374858442694,103.10376955705578 166.0373725935351,101.94578237712267 165.52366930921562,101.21667764370795 160.9370328427758,101.43112034822116 159.5793884487357,96.28446418364183 155.80000000004657,88.17834844315075 155.91007927525789,87.27765892693424 175.4308040770702,80.41519700997742 188.20000000018626,74.49623044297914 168.3857304644771,83.33175749680959 155.91007927525789,87.19187886881991 159.5793884487357,95.94135145324981 161.26727066840976,101.73133994432283 169.48652321635745,100.57334885068121 177.74246885627508,97.69980113167549 178.9533408835996,101.73133994432283" stroke="#4DD2FF" stroke-linecap="round" stroke-linejoin="round" stroke-width="0.5"><title>2025-05-10 3.3km</title><desc>1746881233572</desc></polyline><polyline fill="none" points="20.655597014934756,142.72446071560262 19.627985074650496,141.62932482539327 18.9932835821528,142.08857579657342 16.031343283713795,141.45268966862932 15.064179104520008,137.8846395278524 11.800000000046566,130.0418608817272 28.120895522413775,124.2126495000557 44.20000000006985,116.47553928437992 27.335074626957066,124.60126675313222 28.57425373129081,132.7267967966327 24.675373134436086,134.63450132252183 15.064179104520008,137.24874540767632 15.940671641845256,141.4173626260017 19.083955224021338,141.48801670741523" stroke="#4DD2FF" stroke-linecap="round" stroke-linejoin="round" stroke-width="0.5"><title>2025-05-09 3.2km</title><desc>1746800655160</desc></polyline><polyline fill="none" points="63.36032968084328,145.79999999998836 62.454130061669275,143.37006172724068 56.53717960906215,142.8093053198536 54.83139209123328,136.51633574755397 49.23427679762244,124.6155860068975 49.07435921765864,122.62171963590663 75.7272891860921,113.40000000002328 78.92564078210853,127.60637292679166 71.56943211099133,130.78406741423532 54.9380038108211,135.45711644663243 56.483873749151826,142.8093053198536 63.09380038129166,142.8093053198536 64.21322343987413,145.05232775129844 67.19835159601644,143.8685114197433" stroke="#4DD2FF" stroke-linecap="round" stroke-linejoin="round" stroke-width="0.5"><title>2025-05-07 2.1km</title><desc>1746628465614</desc></polyline><polyline fill="none" points="93.57028824836016,143.14063576818444 93.06740576494485,142.4688746042084 88.97250554338098,142.5948299089796 87.14057649672031,136.21304425387643 84.62616407987662,131.25869264057837 83.94368070969358,128.69752056035213 99.06607538787648,123.40717843928724 107.65099778259173,119.71229456004221 103.77161862514913,121.6857027237129 115.37383592012338,116.14334001883981 116.19999999995343,117.27701140506542 115.51751662953757,116.0593642318563 102.26297117513604,122.44147346823593 102.11929046572186,123.7430752706714 104.09490022156388,131.9304727493727 98.3476718403399,134.3656661262794 87.42793791578151,137.2626870922395 83.80000000004657,129.32731850352138 84.30288248346187,128.5295742736198 86.63769401330501,127.68984177548555 84.08736141910776,128.61354742580443 83.94368070969358,129.41129148722393 87.2842572061345,136.92680168541847 89.94235033262521,136.54893026361242 87.5716186251957,137.30467274808325 88.82882483373396,142.30093413582654 93.42660753871314,142.4688746042084" stroke="#4DD2FF" stroke-linecap="round" stroke-linejoin="round" stroke-width="0.5"><title>2025-05-04 3.9km</title><desc>1746361657097</desc></polyline><polyline fill="none" points="130.23866170994006,143.23290456132963 127.42825278802775,143.74910794888274 125.220074349083,143.23290456132963 124.13605947955512,138.02390954404837 119.96059479517862,129.34211546721053 120.00074349436909,127.93424098216929 139.31226765783504,121.17638134834124 152.19999999995343,115.4508920511289 140.47657992551103,120.94173159758793 142.44386617094278,131.45391883002594 136.30111524136737,134.08192677417537 124.05576208163984,137.36691484457697 119.80000000004657,128.63817878236296 120.08104089205153,127.84038252438768 122.16877323412336,127.08951414946932 120.00074349436909,127.79345328823547 124.17620817804709,137.31998661451507 125.62156133819371,143.18597695085919 129.07434944226407,142.85748353903182" stroke="#4DD2FF" stroke-linecap="round" stroke-linejoin="round" stroke-width="0.5"><title>2025-05-02 3.2km</title><desc>1746193621188</desc></polyline><polyline fill="none" points="165.08314606756903,143.153025949141 160.75101123610511,143.3657819806831 159.44044943829067,137.96174396190327 155.80000000004657,130.13214296114165 156.05483146081679,129.32364288539975 177.02382022468373,121.62153448807658 188.20000000018626,116.42997502433718 187.54471910116263,115.83421801932855 174.65752808982506,121.62153448807658 174.18426966294646,123.23856393393362 176.22292134840973,132.47252877024584 173.82022471912205,133.8342015298258 159.65887640463188,138.00429572552093 156.30966292135417,130.94064141414128 159.65887640463188,138.04684748471482 160.8966292135883,143.153025949141 165.19235955062322,143.28067958151223" stroke="#4DD2FF" stroke-linecap="round" stroke-linejoin="round" stroke-width="0.5"><title>2025-05-01 3.2km</title><desc>1746105997674</desc></polyline><polyline fill="none" points="19.461823802324943,182.82405924631166 18.61051004647743,181.79974033075268 17.00803709437605,182.26800087629817 15.756105100619607,182.3265333888412 15.280370942899026,181.97533812810434 14.429057187167928,178.72676086460706 11.850077279959805,173.1660447222239 11.900154559640214,172.4636305339809 20.638639876502566,169.5076179759635 30.779289026279002,165.29305048417882 44.20000000006985,158.50277911077137 43.84945904184133,157.9759407536767 40.81978361681104,159.17595999783953 40.193817619932815,159.8491392490978 29.47727975284215,165.2052463130094 18.510355487000197,169.56615318419063 18.234930448350497,170.2685747180658 12.075425038812682,172.288026708673 11.800000000046566,172.7855705912807 14.353941267472692,178.25849433467374 21.014219474513084,176.53175466618268 14.378979907371104,178.3755610413209 11.825038639944978,172.96117410124862 11.900154559640214,172.31729402055498 17.734157650731504,170.50271483365213 12.4510046368232,172.05388810182922 11.900154559640214,172.55143240487087 15.655950541025959,182.12166954082204" stroke="yellow" stroke-linecap="round" stroke-linejoin="round" stroke-width="0.5"><title>2025-04-20 5.2km</title><desc>1745154044961</desc></polyline><polyline fill="none" points="62.7202417391818,185.13599042524584 57.54675089707598,185.5179063093383 55.967474745586514,184.6904215879622 53.24458482861519,174.88782382267527 48.670129768317565,164.00293428340228 75.57228214619681,154.19999999995343 79.3298702314496,168.7770328479819 71.54240506957285,172.08705231756903 66.6956610174384,172.7872464141692 54.49711419036612,177.05204743414652 56.947715115500614,185.0086850769003 61.03204999072477,184.18119965633377 63.31927752075717,184.8177270037122 64.35397568903863,186.59999999997672 67.67590138758533,185.1996430894942" stroke="#4DD2FF" stroke-linecap="round" stroke-linejoin="round" stroke-width="0.5"><title>2025-03-23 2.1km</title><desc>1742729899087</desc></polyline><polyline fill="none" points="95.65670410101302,186.08663487393642 96.53512349631637,186.59999999997672 98.68237090692855,185.5162286061095 99.02397844963707,184.20429190353025 97.99915582174435,183.46276105340803 92.33823082991876,183.34867929376196 91.0694028143771,177.24527002114337 85.60368213243783,164.69598750950536 114.44511894485913,154.20000000001164 85.55488105514087,164.8100732093444 91.11820389190689,176.33260476228315 92.38703190744855,183.12051570235053 98.82877413951792,183.34867929376196 99.46318814717233,185.0028624497936 103.36727434862405,183.12051570235053 103.56247865851037,183.91908785095438" stroke="#4DD2FF" stroke-linecap="round" stroke-linejoin="round" stroke-width="0.5"><title>2025-03-16 2.5km</title><desc>1742128080108</desc></polyline><polyline fill="none" points="124.29497206723318,176.7973805993679 122.00223463703878,175.63425182976061 120.82569832424633,173.90717437144485 119.80000000004657,166.71679678812507 120.37318435765337,164.9544257374073 122.3944134080084,163.5797698662791 128.0055865922477,163.33303616271587 135.24581005598884,161.35915997670963 126.73854748613667,163.40353152519674 122.6357541900361,163.5445222055132 120.765363128623,164.49620774193318 119.83016759785824,166.68154945829883 120.67486033542082,172.8850222841429 121.70055865950417,175.3875270249846 128.0960893855663,178.38345876251697 131.29385474871378,179.2293640386779 136.24134078226052,179.44084002330783 144.62793296098243,177.50230515666772 148.15754189959262,175.49326624927926 149.33407821226865,174.25963988367585 152.20000000006985,168.30292278827983 148.79106145258993,174.71784449386178 146.58882681571413,176.30393252478098 143.24022346374113,177.7490284004307 135.6078212291468,179.2998560483975 130.93184357543942,178.98264188758912 124.89832402253523,176.76213433250086 128.0960893855663,178.4187048583699 132.741899441462,179.37034804330324 136.57318435772322,179.44084002330783 138.8659217878012,178.7359195543977 135.6078212291468,179.2646100454731 131.0525139666861,178.91214981107623 127.40223463694565,177.9605053215928 123.75195530743804,176.2686862058763 125.59217877115589,176.58590294234455" stroke="#4DD2FF" stroke-linecap="round" stroke-linejoin="round" stroke-width="0.5"><title>2025-03-08 4.9km</title><desc>1741407347536</desc></polyline><polyline fill="none" points="165.8677966101095,184.3933208611852 160.9620338983368,184.0081967090664 159.9003389829304,179.38667832917417 155.909830508288,170.69979277293896 156.20271186437458,169.84393189952243 178.1688135592267,161.92713310106774 187.87050847453065,157.39095163540333 188.19999999995343,156.96300736549892 187.7240677967202,156.40667913880316 173.95864406763576,162.74021686328342 155.80000000004657,168.85968965958455 161.18169491528533,183.83703030177276 168.83322033891454,183.49469727021642 174.43457627133466,181.82581959903473" stroke="#4DD2FF" stroke-linecap="round" stroke-linejoin="round" stroke-width="0.5"><title>2025-03-02 3.1km</title><desc>1740908689410</desc></polyline><polyline fill="none" points="27.7888074493967,227.40000000002328 27.049633521819487,225.36348148802062 20.55546258762479,225.3017686950625 19.077114732936025,218.14304047724 12.846934487111866,205.73848477797583 13.110925175715238,204.99790595757077 39.826782839372754,195.74059149390087 43.15306551288813,209.31793584354455 35.76132623828016,212.71222263132222 18.813124044565484,217.2790501054842 13.058127037715167,204.99790595757077 40.67155304225162,195.0 39.932379114907235,196.04917100595776 42.941872962052,209.31793584354455 34.49417093442753,212.83565087046009" stroke="#4DD2FF" stroke-linecap="round" stroke-linejoin="round" stroke-width="0.5"><title>2024-12-01 3.0km</title><desc>1733059607886</desc></polyline><polyline fill="none" points="63.34285714291036,227.2302711760276 55.74285714305006,227.2970622688299 54.028571428731084,219.8832079001004 47.800000000046566,205.4559989005793 75.97142857150175,195.10293773119338 78.02857142873108,199.57815271423897 80.19999999995343,210.13151935004862 73.51428571436554,213.53794819454197 53.8571428572759,218.74774505128153 47.91428571403958,205.789965793374 76.82857142877765,195.10293773119338 80.1428571427241,210.33189802541165 70.9428571430035,214.87379763415083 54.31428571417928,220.2171671736869 56.08571428572759,227.2302711760276 61.91428571403958,226.89631560607813" stroke="#4DD2FF" stroke-linecap="round" stroke-linejoin="round" stroke-width="0.5"><title>2024-11-03 3.4km</title><desc>1730641178795</desc></polyline><polyline fill="none" points="104.30123100266792,227.40000000002328 101.00893072900362,226.3448557271622 99.94689838262275,226.77932712773327 100.0,225.78624916874105 98.7786628017202,225.16557459207252 92.77818004530855,225.10350709839258 89.8044894754421,214.80021227535326 84.97224229946733,204.7450154388207 111.7885590440128,195.06207067368086 115.4525706388522,209.21401305269683 107.75283612823114,212.5036701343488 90.49481050064787,216.97260874294443 84.60053097852506,204.99329397565452 86.35288434987888,203.50362118083285 111.89476227853447,195.0 115.39946902170777,209.15194387407973 108.39005553605966,212.13125704944832 90.91962343896739,217.2208821134991 89.53898138878867,215.79330879979534 84.5474293611478,204.7450154388207 111.62925419211388,195.12414134055143 115.4525706388522,209.33815139019862 107.91214098013006,212.5036701343488 91.397537994897,217.2208821134991 90.97272505657747,220.13808636157773 92.03475740272552,225.04143959807698 99.41588220954873,224.73110199841904" stroke="yellow" stroke-linecap="round" stroke-linejoin="round" stroke-width="0.5"><title>2024-08-18 5.1km</title><desc>1723984957861</desc></polyline><polyline fill="none" points="134.2643689622637,227.40000000002328 136.2041918868199,226.26632971549407 135.18323245295323,223.76031364529626 131.0483467457816,224.65532066079322 128.64909207634628,224.11831662151963 127.06660495372489,217.73389615723863 121.60447198245674,204.6664928495884 148.20046523492783,195.0000000000582 147.79208146128803,196.9691138115595 150.39552801754326,208.5449774307781 142.99357212195173,212.36376700078836 127.27079684054479,216.60020647518104 124.36106245382689,211.82675127737457 121.5023760390468,204.6664928495884 147.0263618857134,195.41769138217205 148.91513683856465,200.42996387655148 150.44657598924823,208.60464621614665 144.11662749946117,212.00575657520676 127.11765292519704,216.48087058681995 121.40028009563684,204.9648387627676 145.7501625935547,195.7160421803128 147.48579363082536,195.95472270523896 150.59971990413032,209.0223275386379 142.432044433197,212.54277212830493 127.7812765573617,216.42120263329707 127.21974886883982,217.435556987999 128.75118801975623,223.81998082372593 133.29445750033483,224.0586494745803" stroke="yellow" stroke-linecap="round" stroke-linejoin="round" stroke-width="0.5"><title>2024-08-11 5.0km</title><desc>1723380974002</desc></polyline><polyline fill="none" points="168.21923620952293,225.7433718610846 162.53663366334513,226.22545806557173 160.978500707075,220.3332619164721 170.37312588398345,216.8514774684736 168.3108910890296,204.20972066486138 188.19999999995343,196.17454193445155 179.7677510608919,199.9243078531872 179.63026874116622,202.0670187859796 181.87581329559907,212.08407229706063 174.63507779338397,215.5123232390033 160.74936350784265,219.0476827500388 156.02913719927892,209.35216823540395 156.57906647818163,207.79872602893738 168.90664780768566,203.8883159601537 186.2752475249581,196.81736091844505 180.04271570011042,199.38862870525918 179.21782178222202,200.40641860247706 181.8299858556129,211.97693908168003 175.32248939177953,215.13735942103085 160.88684582756832,218.94055100574042 155.80000000004657,208.92363292962546 158.3205091934651,207.3166223075823 178.75954738329165,200.03144361489103 183.47977369185537,218.61915563701768" stroke="yellow" stroke-linecap="round" stroke-linejoin="round" stroke-width="0.5"><title>2024-08-04 5.0km</title><desc>1722777733849</desc></polyline><polyline fill="none" points="16.682816901709884,268.1887608137913 19.694647887255996,266.7486186278693 19.14704225375317,265.62850519950734 13.169014084618539,265.4684887928015 11.800000000046566,259.97456140379654 21.0636619720608,256.29413001364446 21.383098591584712,254.5339142146113 19.192676056409255,243.70578509461484 38.67830985900946,235.8112391862087 41.46197183104232,243.01235019578598 42.00957746501081,248.5598027232627 44.06309859151952,255.86741159541998 43.241690140683204,257.20090545501444 36.76169014093466,259.70786437846255 35.30140845081769,260.9880088159407 22.204507042188197,264.8817615338194 13.351549295708537,265.4684887928015 12.02816901402548,259.6011855287652 21.474366197362542,256.50748908746755 18.690704225329682,243.97249057143927 38.45014084526338,236.0779488327098 41.598873239476234,243.1723737185821 44.199999999953434,256.50748908746755 36.305352112744,259.9212220100744 35.62084507057443,260.93466952908784 30.464225352276117,262.1614716994809 30.60112676071003,264.08167780956137 31.3769014084246,264.02833884963184 30.646760563366115,264.82842265829095 21.291830986039713,266.3752477611706 17.367323943879455,267.7620524460799 24.16676056338474,265.0417781266442 28.730140845058486,264.6684059978579 31.92450704239309,263.4416099174414 25.079436619766057,265.8418603299069" stroke="yellow" stroke-linecap="round" stroke-linejoin="round" stroke-width="0.5"><title>2024-07-28 5.0km</title><desc>1722171325984</desc></polyline><polyline fill="none" points="62.95580110489391,266.4720199747826 62.71712707192637,264.03101132513257 55.37790055247024,264.30998419894604 53.58784530381672,256.42895514902193 65.81988950259984,252.52327757579042 65.93922651931643,249.4545147047611 62.53812154661864,236.41211338475114 61.7624309391249,235.99363634962356 47.800000000046566,240.59686915029306 62.3591160220094,236.55160567094572 68.86298342514783,260.6833276465768 67.78895027609542,262.7756319345208 63.373480662936345,263.8217815925018 63.67182320449501,265.84433289821027 75.66519336984493,262.56640180404065 77.45524861849844,263.40332192811184 80.19999999995343,262.0084544653073 62.3591160220094,266.82073475967627 68.32596685085446,264.3797273990349 73.09944751369767,264.1007545545581 79.66298342542723,261.4505066550919 77.75359116005711,263.12434867123375 67.13259668485261,265.077158994216 62.239779005525634,267.1694493602845 66.41657458571717,264.86792959307786 75.84419889491983,262.7756319345208 77.09723756904714,263.26383531442843 78.88729281746782,261.8689675569185 80.08066298323683,261.7992240918102 78.17127071833238,262.9151186514064 68.26629834249616,264.93767273414414 59.554696132661775,268.00636365043465 76.4408839775715,262.0084544653073 79.782320441911,261.6597371393 78.05193370138295,262.9848619987024 67.25193370180205,264.7981864445028 61.28508287295699,267.1694493602845 68.92265193373896,263.6822950671194 71.78674033144489,264.03101132513257 76.0232044197619,262.4966584126232 77.69392265169881,263.40332192811184 79.72265193331987,262.07819790847134 73.99447513790801,264.17049777676584 70.83204419887625,264.30998419894604 72.68176795588806,263.40332192811184 77.03756906045601,263.26383531442843 79.72265193331987,261.5899936520145 78.05193370138295,263.19409199635265" stroke="#4DD2FF" stroke-linecap="round" stroke-linejoin="round" stroke-width="0.5"><title>2024-07-21 4.9km</title><desc>1721568919550</desc></polyline><polyline fill="none" points="102.2107382551767,261.8278529824456 96.2671140935272,263.52228177984944 94.31006711395457,260.98063724138774 86.84429530194029,261.15008046128787 84.23489932855591,252.67787562619196 84.37986577162519,251.32231454830617 100.8335570464842,246.32366327533964 98.65906040277332,239.63050516363 99.16644295305014,246.0694937344524 102.28322147624567,257.16815533390036 87.13422818807885,261.31952364515746 85.90201342245564,260.47230736742495 83.79999999981374,251.91537280159537 84.01744966441765,249.6278599796351 99.02147650998086,245.22226134920493 98.15167785203084,239.63050516363 99.16644295305014,245.9000473289634 102.93557046959177,255.81260184425628 101.92080536903813,258.10009702888783 86.84429530194029,260.8959156181081 85.75704697985202,260.1334206055617 83.79999999981374,252.16954049043125 84.74228187883273,249.79730559774907 98.15167785203084,245.64587765355827 98.36912751663476,240.8166385210352 102.35570469778031,256.06676829827484 101.8483221475035,258.3542627579882 86.91677852347493,260.98063724138774 84.01744966441765,253.27093287731986 84.01744966441765,250.39036497863708 98.58657718077302,245.56115441059228 100.10872483206913,247.17089449730702 102.35570469778031,257.59176532929996 95.75973154371604,260.6417506945436 96.41208053706214,263.52228177984944 107.28456375841051,259.62509019463323 116.20000000018626,258.26954085717443 97.13691275147721,262.2514605172328 94.67248322116211,264.36949483637 103.29798657726496,261.57368835399393" stroke="#4DD2FF" stroke-linecap="round" stroke-linejoin="round" stroke-width="0.5"><title>2024-07-14 4.2km</title><desc>1720963947536</desc></polyline><polyline fill="none" points="119.79999999981374,256.026467695483 140.28275862056762,249.06177884456702 151.82758620660752,247.64707066956908 150.2448275857605,246.88530392444227 146.79999999934807,249.71472042438108 129.11034482717514,252.65295241202693 121.01034482708201,255.80882188118994 120.8241379307583,257.11469607555773 130.87931034434587,252.32648260507267 152.1999999997206,247.5382468830794 146.98620689567178,250.15001458092593 130.32068965490907,252.43530588585418 123.89655172359198,255.59117602126207 122.22068965481594,255.37353011546656 130.13448275858536,251.89118936797604 151.17586206831038,246.88530392444227 146.52068965462968,249.93236752552912 141.2137931031175,250.04119105928112 122.22068965481594,255.48235307412688 138.97931034397334,249.06177884456702 143.3551724134013,249.38824968633708 151.17586206831038,247.21177545550745 148.6620689649135,249.27942608378362 129.48275862028822,252.21765931299888 121.38275862066075,255.80882188118994 127.99310344783589,253.41471489309333 133.67241379292682,248.08236569957808 137.11724137840793,250.25883809151128 146.05517241358757,248.8441315597156 138.1413793093525,251.5647193196928" stroke="#4DD2FF" stroke-linecap="round" stroke-linejoin="round" stroke-width="0.5"><title>2024-07-07 3.0km</title><desc>1720361789036</desc></polyline></svg>