<?xml version="1.0" encoding="utf-8" ?>
<svg baseProfile="full" height="300mm" version="1.1" viewBox="0,0,200,300" width="200mm" xmlns="http://www.w3.org/2000/svg" xmlns:ev="http://www.w3.org/2001/xml-events" xmlns:xlink="http://www.w3.org/1999/xlink"><defs /><rect fill="#222222" height="300" width="200" x="0" y="0" /><text fill="#FFFFFF" style="font-size:12px; font-family:Arial; font-weight:bold;" x="10" y="20">Runs</text><text fill="#FFFFFF" style="font-size:4px; font-family:Arial" x="10" y="280">Runner</text><text fill="#FFFFFF" style="font-size:9px; font-family:Arial" x="10" y="290">Jay</text><text fill="#FFFFFF" style="font-size:4px; font-family:Arial" x="65" y="280">SPECIAL TRACKS</text><rect fill="yellow" height="2.6" width="2.6" x="65" y="283" /><text fill="#FFFFFF" style="font-size:3px; font-family:Arial" x="70" y="285.5">Over 5.0 km</text><rect fill="red" height="2.6" width="2.6" x="65" y="287" /><text fill="#FFFFFF" style="font-size:3px; font-family:Arial" x="70" y="289.5">Over 10.0 km</text><text fill="#FFFFFF" style="font-size:4px; font-family:Arial" x="120" y="280">STATISTICS</text><text fill="#FFFFFF" style="font-size:3px; font-family:Arial" x="120" y="285">Number: 24</text><text fill="#FFFFFF" style="font-size:3px; font-family:Arial" x="120" y="290">Weekly: 1.3</text><text fill="#FFFFFF" style="font-size:3px; font-family:Arial" x="141" y="285">Total: 94.1 km</text><text fill="#FFFFFF" style="font-size:3px; font-family:Arial" x="141" y="290">Avg: 3.9 km</text><text fill="#FFFFFF" style="font-size:3px; font-family:Arial" x="167" y="285">Min: 2.1 km</text><text fill="#FFFFFF" style="font-size:3px; font-family:Arial" x="167" y="290">Max: 5.2 km</text><polyline fill="none" points="19.828996282652952,65.11514721717685 21.33457249077037,64.52855437906692 20.899628252955154,63.51179125832277 19.193308550398797,63.86374803917715 16.68401486997027,63.39447225703043 15.345724907121621,58.50614749308443 12.0,50.52826286276104 24.345724907238036,46.46103983154171 34.0483271375997,42.51109777324018 48.0,35.510601877991576 47.83271375473123,34.884852782823145 35.18587360600941,41.14229613827774 35.38661710044835,42.120012108265655 29.66542750946246,44.54473657143535 31.47211895918008,52.91382481282926 30.334572490653954,54.16526100051124 26.052044609677978,55.88597885199124 15.84758364316076,58.70168172274134 12.100371747277677,51.42773884584312 12.234200743492693,50.45004745660117 29.732342007453553,44.427411559794564 41.910780669073574,38.87398514326196 44.08550185896456,48.53376484406181 26.553903345833533,55.768657434382476 20.732342007453553,57.33293994626729" stroke="yellow" stroke-linecap="round" stroke-linejoin="round" stroke-width="0.5"><title>2025-05-24 5.2km</title><desc>1748085426224</desc></polyline><polyline fill="none" points="66.12189054721966,65.26967234732001 68.0360696518328,64.48463064685347 67.73383084591478,63.46407395720598 63.233830845798366,63.34631723570055 62.09203980094753,58.63601778144948 58.66666666662786,51.4526961678057 58.70024875632953,50.1965819504112 76.12935323396232,44.112218616792234 86.50621890556067,39.558694428007584 94.66666666662786,35.2406458054611 94.16293532343116,34.73032765267999 88.31965174130164,37.75297110853717 88.28606965171639,38.53806928213453 87.27860696520656,39.16614662669599 75.55845771159511,44.77954074964509 77.43905472639017,53.611632558866404 72.77114427869674,55.535038051661104 62.09203980094753,58.47900677155121 63.40174129360821,63.228560476971325 66.69278606970329,63.26781273400411" stroke="#4DD2FF" stroke-linecap="round" stroke-linejoin="round" stroke-width="0.5"><title>2025-05-18 3.3km</title><desc>1747570670414</desc></polyline><polyline fill="none" points="117.72078720817808,64.18842523865169 114.99753997544758,64.9647771785094 114.00123001250904,63.29561848047888 110.18204182048794,63.567342506023124 108.55473554739729,58.05518726113951 105.39975399780087,51.65011429286096 105.36654366564471,50.524362661119085 125.75768757704645,43.26512277123402 141.33333333337214,35.772815713862656 140.90159901604056,35.035222821490606 134.55842558445875,38.21850786861614 134.5916359164985,39.072555262740934 130.7724477245938,41.13002492467058 122.90159901615698,44.62381494202418 124.72816728183534,52.853500154655194 124.29643296438735,53.396963445906295 121.97170971729793,44.93437244714005 134.75768757693004,38.95609437130042 134.49200492003,38.33496899381862 128.38130381319206,41.24648512710701 128.4145141452318,41.94524556645774 126.65436654374935,42.954563855484594 122.90159901615698,44.54617552476702 124.52890528913122,53.28050709408126 123.96432964352425,53.16405070523615 121.97170971729793,44.93437244714005 114.20049200509675,47.84583629400004 113.4698646988254,47.18590651030536 105.33333333337214,49.747980216139695 105.56580565823242,51.30074346580659 109.05289052904118,58.753915741021046 109.81672816746868,61.859359579510055" stroke="yellow" stroke-linecap="round" stroke-linejoin="round" stroke-width="0.5"><title>2025-05-17 5.1km</title><desc>1747484576135</desc></polyline><polyline fill="none" points="160.11541929654777,64.28592026612023 161.28403967514168,63.90649504197063 160.11541929654777,62.6923316315806 156.5770964832045,62.80615962561569 155.24616771854926,57.94946648637415 152.0,51.0816867708927 152.19477006292436,50.2469200657506 170.11361587012652,43.87227398346295 186.8963029755978,35.71407973387977 188.0,38.86354412432411 186.9936880072346,35.78997076669475 168.55545536521822,44.858833752630744 170.27592425595503,52.71327063883655 170.69792605936527,52.75121436151676 168.97745716851205,44.44144341174979 185.1433724076487,36.66271649271948 168.62037871952634,44.70705550300772 170.1460775473388,53.4721443313465 165.56898106390145,55.40726499148877 155.5707844904391,58.13918229439878 156.8692515778821,62.616446282190736 160.69972948601935,62.616446282190736 161.60865644714795,63.640897146600764 166.542831379571,62.23701929466915" stroke="yellow" stroke-linecap="round" stroke-linejoin="round" stroke-width="0.5"><title>2025-05-11 5.2km</title><desc>1746960817262</desc></polyline><polyline fill="none" points="22.926387316081673,105.89307728561107 23.374858437106013,104.60642486345023 22.804077010136098,103.79630849297973 17.707814269466326,104.03457816469017 16.19932049838826,98.31607131511555 12.0,89.30927604794852 12.122310305712745,88.30850991877378 33.81200452987105,80.68355223326944 48.0,74.10692271438893 25.98414496029727,83.92417499644216 12.122310305712745,88.2131987431203 16.19932049838826,97.93483494804241 18.07474518707022,104.36815549366293 27.20724801812321,103.08149872295326 36.38052095123567,99.8886679240677 37.72593431500718,104.36815549366293" stroke="#4DD2FF" stroke-linecap="round" stroke-linejoin="round" stroke-width="0.5"><title>2025-05-10 3.3km</title><desc>1746881233572</desc></polyline><polyline fill="none" points="68.50621890544426,104.58273412846029 67.36442786070984,103.36591647268506 66.65920398011804,103.8761953295325 63.36815920402296,103.16965518737561 62.29353233834263,99.20515503096976 58.66666666662786,90.49095653527183 76.80099502485245,84.01405500006513 94.66666666662786,75.41726587153971 75.92786069656722,84.44585194793763 77.30472636804916,93.47421866294462 72.972636815859,95.59389035837376 62.29353233834263,98.49860600853572 63.26741293538362,103.13040291779907 66.75995024875738,103.20890745270299" stroke="#4DD2FF" stroke-linecap="round" stroke-linejoin="round" stroke-width="0.5"><title>2025-05-09 3.2km</title><desc>1746800655160</desc></polyline><polyline fill="none" points="122.62258853437379,108.0 121.61570006865077,105.30006858584238 115.0413106768392,104.6770059109549 113.14599121268839,97.68481749726925 106.92697421996854,84.46176222991198 106.74928801972419,82.2463551510009 136.36365465121344,72.0 139.9173786470201,87.78485880757216 131.74381345696747,91.3156304602162 113.2644486790523,96.50790716294432 114.98208194365725,104.6770059109549 122.32644486823119,104.6770059109549 123.57024826668203,107.16925305698533 126.8870573292952,105.85390157747315" stroke="#4DD2FF" stroke-linecap="round" stroke-linejoin="round" stroke-width="0.5"><title>2025-05-07 2.1km</title><desc>1746628465614</desc></polyline><polyline fill="none" points="162.85587583156303,105.04515085351886 162.2971175168641,104.29874956019921 157.74722838168964,104.43869989883387 155.71175166335888,97.34782694870955 152.91796008870006,91.84299182283576 152.15964523307048,88.99724506700295 168.96230598678812,83.1190871547442 178.50110864755698,79.01366062223678 174.19068736140616,81.20633635963895 187.08203991129994,75.04815557645634 188.0,76.30779045005329 187.2416851441376,74.95484914648114 172.51441241707653,82.04608163135708 172.35476718423888,83.49230585628538 174.54988913540728,92.58941416593734 168.1640798225999,95.29518458471284 156.03104212880135,98.5140967691259 152.0,89.69702055942616 152.5587583151646,88.81063808177714 155.1529933481943,87.87760197275202 152.31929046590813,88.90394158419804 152.15964523307048,89.79032387468033 155.8713968959637,98.14089076156961 158.8248337029945,97.72103362620692 156.19068736140616,98.56074749783147 157.58758314861916,104.11214903977816 162.69623059872538,104.29874956019921" stroke="#4DD2FF" stroke-linecap="round" stroke-linejoin="round" stroke-width="0.5"><title>2025-05-04 3.9km</title><desc>1746361657097</desc></polyline><polyline fill="none" points="23.598513011122122,145.14767173479777 20.475836431141943,145.72123105431092 18.022304832702503,145.14767173479777 16.8178438663017,139.3598994933709 12.17843866162002,129.713461630221 12.223048327257857,128.14915664686123 33.680297397775576,120.64042372035328 48.0,114.27876894568908 34.97397769521922,120.37970177509123 37.15985130122863,132.059909811127 30.33457249053754,134.97991863795323 16.72862453525886,138.62990538284066 12.0,128.93130975816166 12.312267657835037,128.044869471516 14.631970260292292,127.21057127718814 12.223048327257857,127.99272587581072 16.862453531473875,138.5777629049844 18.468401486985385,145.09552994539263 22.30483271391131,144.73053726556827" stroke="#4DD2FF" stroke-linecap="round" stroke-linejoin="round" stroke-width="0.5"><title>2025-05-02 3.2km</title><desc>1746193621188</desc></polyline><polyline fill="none" points="68.98127340828069,145.0589177212678 64.1677902622614,145.29531331185717 62.711610486963764,139.29082662434666 58.66666666674428,130.59126995681436 58.94981273403391,129.69293653935893 82.24868913833052,121.13503832009155 94.66666666674428,115.36663891593344 93.93857677886263,114.70468668814283 79.6194756552577,121.13503832009155 79.0936329588294,122.93173770437716 81.35880149807781,133.19169863360003 78.68913857662119,134.70466836646665 62.95430711610243,139.33810636171256 59.23295880155638,131.4896015712875 62.95430711610243,139.3853860941308 64.32958801509812,145.0589177212678 69.10262172296643,145.20075509056915" stroke="#4DD2FF" stroke-linecap="round" stroke-linejoin="round" stroke-width="0.5"><title>2025-05-01 3.2km</title><desc>1746105997674</desc></polyline><polyline fill="none" points="113.84647089138161,143.80451027367963 112.90056671830826,142.66637814525166 111.12004121602513,143.18666764031514 109.72900566726457,143.2517037653597 109.20041215873789,142.86148680897895 108.25450798566453,139.25195651623653 105.38897475542035,133.07338302468997 105.44461617735215,132.2929228155117 115.15404430718627,129.00846441774047 126.42143225145992,124.32561164908111 141.33333333337214,116.78086567862192 140.94384337984957,116.19548972629127 137.5775373521028,117.52884444201482 136.88201957766432,118.2768213878735 124.97475528088398,124.22805145889288 112.78928387444466,129.07350353797665 112.48325605364516,129.85397190894582 105.63936115417164,132.0978074540617 105.33333333337214,132.65063399029896 108.17104585270863,138.73166037185 115.57135497173294,136.81306074018357 108.19886656373274,138.86173449034686 105.36115404439624,132.84574900139705 105.44461617735215,132.130326689512 111.92684183421079,130.11412759294035 106.05667181871831,131.8376534464478 105.44461617735215,132.39048044985975 109.61772282328457,143.02407726756064" stroke="yellow" stroke-linecap="round" stroke-linejoin="round" stroke-width="0.5"><title>2025-04-20 5.2km</title><desc>1745154044961</desc></polyline><polyline fill="none" points="168.57804637681693,146.373322694737 162.82972321892157,146.79767367703607 161.0749719394371,145.87824620888568 158.04953869851306,134.98647091409657 152.96681085368618,122.89214920374798 182.85809127357788,112.0 187.03318914608099,128.1967031644308 178.38045007712208,131.87450257508317 172.9951789083425,132.65249601571122 159.44123798934743,137.39116381574422 162.16412790608592,146.23187230766052 166.70227776747197,145.31244406255428 169.24364168965258,146.0196966708172 170.39330632123165,148.0 174.08433487522416,146.44404787721578" stroke="#4DD2FF" stroke-linecap="round" stroke-linejoin="round" stroke-width="0.5"><title>2025-03-23 2.1km</title><desc>1742729899087</desc></polyline><polyline fill="none" points="25.174115667818114,187.4295943044126 26.150137218181044,188.0 28.53596767433919,186.79580956237623 28.915531610837206,185.33810211508535 27.77683980204165,184.5141789483023 21.486923144431785,184.38742143753916 20.077114238403738,177.60585557908053 14.0040912583936,163.66220834391424 46.05013216100633,152.0 13.9498678392265,163.78897023265017 20.13133765780367,176.59178306924878 21.541146563831717,184.13390633597737 28.698637932771817,184.38742143753916 29.403542385902256,186.22540272201877 33.74141594278626,184.13390633597737 33.95830962061882,185.02120872336673" stroke="#4DD2FF" stroke-linecap="round" stroke-linejoin="round" stroke-width="0.5"><title>2025-03-16 2.5km</title><desc>1742128080108</desc></polyline><polyline fill="none" points="63.66108007449657,177.1082006659417 61.11359404097311,175.8158353663457 59.80633147119079,173.89686041264213 58.66666666662786,165.90755198677653 59.30353817506693,163.94936193039757 61.54934823093936,162.4219665180426 67.78398510231636,162.14781795852468 75.82867783983238,159.95462219632464 66.37616387335584,162.22614613905898 61.81750465545338,162.38280245053465 59.73929236503318,163.44023082434433 58.70018621964846,165.86838828693726 59.638733705854975,172.7611358712311 60.778398510301486,175.54169669435942 67.88454376161098,178.8705097360944 71.43761638726573,179.81040448736167 76.9348230912583,180.04537780364626 86.25325884541962,177.89145017400733 90.17504655488301,175.65918472138583 91.48230912466533,174.28848875960102 94.66666666662786,167.66991420913837 90.87895716936328,174.79760499313124 88.43202979501802,176.55992502748268 84.71135940402746,178.16558711155085 76.23091247677803,179.88872894263477 71.0353817504365,179.53626876394264 64.33147113595624,177.06903814719408 67.88454376161098,178.909672064794 73.04655493469909,179.967053381406 77.30353817506693,180.04537780364626 79.85102420859039,179.2621328381647 76.23091247677803,179.84956671713735 71.16945996275172,179.45794423448388 67.1135940408567,178.4005614684138 63.05772811919451,176.52076245093485 65.10242085659411,176.87322549146484" stroke="#4DD2FF" stroke-linecap="round" stroke-linejoin="round" stroke-width="0.5"><title>2025-03-08 4.9km</title><desc>1741407347536</desc></polyline><polyline fill="none" points="116.51977401133627,185.54813429020578 111.06892655370757,185.12021856565843 109.88926553656347,179.9851981435495 105.45536723150872,170.33310308106593 105.7807909604162,169.38214655502816 130.1875706212595,160.5857034456276 140.9672316382639,155.5455018171342 141.33333333325572,155.0700081839168 140.8045197739266,154.45186570979422 125.50960451946594,161.48912984810886 105.33333333325572,168.28854406622122 111.31299435021356,184.93003366864286 119.81468926533125,184.5496636336029 126.0384180790279,182.69535511004506" stroke="#4DD2FF" stroke-linecap="round" stroke-linejoin="round" stroke-width="0.5"><title>2025-03-02 3.1km</title><desc>1740908689410</desc></polyline><polyline fill="none" points="169.76534161018208,188.0 168.944037246285,185.73720165336272 161.72829176392406,185.6686318833963 160.08568303636275,177.71448941912968 153.1632605411578,163.9316497533 153.4565835283138,163.10878439730732 183.1408698214218,152.82287943764823 186.8367394588422,167.90881760395132 178.62369582033716,171.6802473681746 159.7923600494396,176.75450011721114 153.3979189307429,163.10878439730732 184.07950338022783,152.0 183.25819901633076,153.1657455621753 186.60208106879145,167.90881760395132 177.21574548236094,171.81738985603442" stroke="#4DD2FF" stroke-linecap="round" stroke-linejoin="round" stroke-width="0.5"><title>2024-12-01 3.0km</title><desc>1733059607886</desc></polyline><polyline fill="none" points="29.26984126982279,227.8114124177955 20.825396825326607,227.88562474312494 18.920634920708835,219.64800877787638 12.0,203.61777655623155 43.30158730153926,192.11437525687506 45.58730158722028,197.08683634916088 48.0,208.8127992778318 40.57142857136205,212.5977202161448 18.73015873017721,218.38638339028694 12.126984126633033,203.9888508815202 44.25396825396456,192.11437525687506 47.93650793633424,209.03544225048972 37.714285714318976,214.0819973713369 19.238095238106325,220.01907463744283 21.20634920615703,227.8114124177955 27.68253968236968,227.44035067345249" stroke="#4DD2FF" stroke-linecap="round" stroke-linejoin="round" stroke-width="0.5"><title>2024-11-03 3.4km</title><desc>1730641178795</desc></polyline><polyline fill="none" points="81.44581222510897,228.0 77.78770081000403,226.8276174745988 76.60766486939974,227.3103634751751 76.66666666651145,226.20694352081046 75.30962533503771,225.51730510225752 68.64242227235809,225.44834122044267 65.33832163922489,214.00023586145835 59.96915811044164,202.8277949320036 89.76506560435519,192.06896741513629 93.83618959854357,207.79334783629747 85.28092903108336,211.4485223714728 66.1053450005129,216.4140097143245 59.55614553159103,203.10365997289773 61.50320483301766,201.44846797868377 89.88306919811293,192.0 93.7771878016647,207.7243820822914 85.9889505954925,211.03473005490378 66.57735937647521,216.68986901495373 65.04331265413202,215.10367644421058 59.49714373447932,202.8277949320036 89.5880602132529,192.13793482276378 93.83618959854357,207.9312793224235 85.45793442218564,211.4485223714728 67.10837554978207,216.68986901495373 66.63636117381975,219.9312070684391 67.81639711395837,225.37937733117724 76.01764689944685,225.03455777600175" stroke="yellow" stroke-linecap="round" stroke-linejoin="round" stroke-width="0.5"><title>2024-08-18 5.1km</title><desc>1723984957861</desc></polyline><polyline fill="none" points="121.40485440264456,228.0 123.56021320750006,226.74036635051016 122.42581383651122,223.95590405032272 117.83149638422765,224.95035628974438 115.16565786255524,224.3536851350218 113.40733883762732,217.25988461915404 107.33830220275559,202.74054761062143 136.8894058165606,192.0 136.43564606807195,194.18790423503378 139.3283644639887,207.0499749230803 131.10396902426146,211.29307444533333 113.63421871163882,216.00022941682255 110.40118050435558,210.6963903082069 107.22486226563342,202.74054761062143 135.5848465396557,192.4641015357338 137.68348537618294,198.03329319611657 139.38508443231694,207.11627357348334 132.3518083326053,210.89528508350486 113.46405880595557,215.8676339853555 107.11142232851125,203.07204306969652 134.16684732609428,192.79560242249863 136.09532625647262,193.06080300576286 139.5552443380002,207.58036393183284 130.48004937032238,211.49196903139818 114.20141839724965,215.8013362591737 113.57749874331057,216.92839665332576 115.2790977996774,224.02220091520576 120.32717500044964,224.28738830506336" stroke="yellow" stroke-linecap="round" stroke-linejoin="round" stroke-width="0.5"><title>2024-08-11 5.0km</title><desc>1723380974002</desc></polyline><polyline fill="none" points="165.79915134375915,226.1593020678265 159.48514851462096,226.6949534061714 157.75388967455365,220.14806879602838 168.19236209313385,216.27941940934397 165.90099009894766,202.2330229608924 188.0,193.30504659377038 178.6308345119469,197.47145317017566 178.47807637881488,199.85224309546174 180.97312588384375,210.98230255226372 172.92786421463825,214.79147026548162 157.49929278623313,218.7196474999655 152.2545968880877,207.94685359479627 152.86562941991724,206.2208066987805 166.56294200848788,201.87590662232833 185.861386138713,194.0192899093381 178.93635077774525,196.8762541169417 178.01980198011734,198.00713178049773 180.92220650613308,210.86326564627234 173.6916548795998,214.37484380108071 157.65205091936514,218.60061222856166 152.0,207.47070325509412 154.8005657705944,205.68513589724898 177.51060820370913,197.5904929053504 182.75530410185456,218.24350626330124" stroke="yellow" stroke-linecap="round" stroke-linejoin="round" stroke-width="0.5"><title>2024-08-04 5.0km</title><desc>1722777733849</desc></polyline><polyline fill="none" points="17.425352112855762,267.98751201533014 20.771830985788256,266.38735403097235 20.163380281999707,265.14278355496936 13.521126760635525,264.9649875475443 12.0,258.86062378197676 22.29295774665661,254.77125557069667 22.647887323983014,252.81546023843111 20.214084506966174,240.78420566068962 41.8647887322586,232.01248798466986 44.95774647896178,240.0137224397622 45.56619718321599,246.17755858134478 47.84788732393645,254.2971239949111 46.93521126755513,255.77878383890493 39.7352112676017,258.5642937538214 38.11267605633475,259.98667646216927 23.56056338036433,264.3130683708587 13.723943661898375,264.9649875475443 12.253521126694977,258.4457616986474 22.74929577484727,255.00832120823907 19.65633802814409,241.0805450793705 41.611267605796456,232.3088320363313 45.10985915502533,240.1915263539413 48.0,255.00832120823907 39.22816901397891,258.8013577889651 38.46760563389398,259.92741058784304 32.738028169143945,261.29052411048906 32.89014084544033,263.4240864550229 33.752112676156685,263.3648209440289 32.940845070406795,264.2538029536372 22.54647887335159,265.9724975124118 18.185915493173525,267.5133916067425 25.74084507045336,264.49086458515376 30.81126760574989,264.07600666425424 34.360563380410895,262.7128999082488 26.7549295774661,265.3798448109883" stroke="yellow" stroke-linecap="round" stroke-linejoin="round" stroke-width="0.5"><title>2024-07-28 5.0km</title><desc>1722171325984</desc></polyline><polyline fill="none" points="75.50644567213021,266.08002219413174 75.24125230219215,263.3677903612843 67.08655616943724,263.6777602210059 65.09760589315556,254.92106127669103 78.68876611418091,250.58141952863662 78.82136279926635,247.1716830052901 75.04235727409832,232.6801259830827 74.18047882127576,232.2151514995494 58.66666666674428,237.3298546113656 74.84346224670298,232.83511741214897 82.06998158362694,259.64814182947157 80.87661141809076,261.9729243716574 75.97053406992927,263.135312880564 76.30202578287572,265.3825921090902 89.62799263326451,261.7404464489082 91.6169429095462,262.67035769787617 94.66666666674428,261.1205049614073 74.84346224670298,266.4674830662552 81.47329650097527,263.75525266560726 86.77716390416026,263.44528283836553 94.06998158385977,260.5005629500956 91.94843462225981,262.36038741248194 80.14732964988798,264.5301766602206 74.71086556161754,266.85494373360416 79.35174953984097,264.2976995478384 89.82688766089268,261.9729243716574 91.21915285452269,262.5153725715354 93.20810313057154,260.9655195076484 94.53406998119317,260.8880267686327 92.4125230202917,262.1279096126673 81.40699815843254,264.37519192678155 71.72744014742784,267.7848485004506 90.48987108631991,261.1205049614073 94.20257826871239,260.733041265863 92.27992633497342,262.205402220774 80.27992633520626,264.2202071605134 73.6500920811668,266.85494373360416 82.1362799264025,262.98032785236137 85.31860036822036,263.3677903612843 90.02578268852085,261.66295379179064 91.88213627971709,262.67035769787617 94.13627992593683,261.1979976760922 87.7716390423011,263.52277530753054 84.25782688776962,263.6777602210059 86.31307550659403,262.67035769787617 91.15285451174714,262.5153725715354 94.13627992593683,260.6555485021672 92.27992633497342,262.4378799959668" stroke="#4DD2FF" stroke-linecap="round" stroke-linejoin="round" stroke-width="0.5"><title>2024-07-21 4.9km</title><desc>1721568919550</desc></polyline><polyline fill="none" points="125.78970917267725,260.91983664711006 119.18568232655525,262.8025353109115 117.01118568237871,259.97848582372535 108.71588366897777,260.1667560680653 105.81655480992049,250.75319514021976 105.97762863524258,249.24701616476523 124.25950782978907,243.69295919477008 121.84340044762939,236.2561168484972 122.40715883672237,243.41054859379074 125.87024608487263,255.7423948154319 109.03803132008761,260.3550262723584 107.66890380298719,259.4136748526944 105.33333333348855,249.905969779531 105.57494407193735,247.3642888662289 122.24608501140028,242.46917927684262 121.27964205807075,236.2561168484972 122.40715883672237,243.22227480990114 126.59507829975337,254.23622427135706 125.4675615215674,256.77788558765315 108.71588366897777,259.88435068679973 107.5078299776651,259.0371340061538 105.33333333348855,250.18837832269492 106.38031319901347,247.55256177525735 121.27964205807075,242.93986405950272 121.52125279651955,237.57404280110495 125.95078299799934,254.5186314425082 125.3870246084407,257.06029195326846 108.79642058210447,259.97848582372535 105.57494407193735,251.41214764141478 105.57494407193735,248.21151664294302 121.76286353450269,242.84572712285444 123.45413870271295,244.63432721915888 125.95078299799934,256.2130725880852 118.62192393746227,259.6019452161272 119.346756152343,262.8025353109115 131.42729306500405,258.4723224384361 141.33333333348855,256.96615650795866 120.15212527988479,261.3905116858077 117.4138702461496,263.7438831515028 126.99776286352426,260.6374315043795" stroke="#4DD2FF" stroke-linecap="round" stroke-linejoin="round" stroke-width="0.5"><title>2024-07-14 4.2km</title><desc>1720963947536</desc></polyline><polyline fill="none" points="152.0,254.47385299496818 174.75862069008872,246.73530982725788 187.58620689623058,245.16341185511556 185.82758620660752,244.3170043604914 182.0,247.4608004714828 162.34482758585364,250.7255026800558 153.34482758585364,254.2320243123686 153.1379310344346,255.6829956395086 164.3103448273614,250.36275845009368 188.0,245.04249653674196 182.20689655141905,247.94446064555086 163.68965517217293,250.4836732064141 156.55172413773835,253.99019557912834 154.68965517217293,253.7483667950146 163.48275862075388,249.8790992978029 186.8620689655654,244.3170043604914 181.68965517217293,247.70263058389537 175.7931034481153,247.8235456213588 154.68965517217293,253.8692811934743 173.31034482689574,246.73530982725788 178.17241379292682,247.09805520693772 186.8620689655654,244.67975050618406 184.06896551698446,246.97714009310585 162.7586206891574,250.241843681084 153.75862068962306,254.2320243123686 161.10344827594236,251.57190543680917 167.41379310330376,245.64707299962174 171.24137930991128,248.06537565717008 181.17241379339248,246.49347951076925 172.37931034434587,249.51635479961988" stroke="#4DD2FF" stroke-linecap="round" stroke-linejoin="round" stroke-width="0.5"><title>2024-07-07 3.0km</title><desc>1720361789036</desc></polyline></svg>