<?xml version="1.0" encoding="utf-8" ?>
<svg baseProfile="full" height="300mm" version="1.1" viewBox="0,0,200,300" width="200mm" xmlns="http://www.w3.org/2000/svg" xmlns:ev="http://www.w3.org/2001/xml-events" xmlns:xlink="http://www.w3.org/1999/xlink"><defs /><rect fill="#222222" height="300" width="200" x="0" y="0" /><text fill="#FFFFFF" style="font-size:12px; font-family:Arial; font-weight:bold;" x="10" y="20">Runs</text><text fill="#FFFFFF" style="font-size:4px; font-family:Arial" x="10" y="280">ATHLETE</text><text fill="#FFFFFF" style="font-size:9px; font-family:Arial" x="10" y="290">Jay</text><text fill="#FFFFFF" style="font-size:4px; font-family:Arial" x="120" y="280">STATISTICS</text><text fill="#FFFFFF" style="font-size:3px; font-family:Arial" x="120" y="285">Number: 8</text><text fill="#FFFFFF" style="font-size:3px; font-family:Arial" x="120" y="290">Weekly: 1.0</text><text fill="#FFFFFF" style="font-size:3px; font-family:Arial" x="141" y="285">Total: 35.7 km</text><text fill="#FFFFFF" style="font-size:3px; font-family:Arial" x="141" y="290">Avg: 4.5 km</text><text fill="#FFFFFF" style="font-size:3px; font-family:Arial" x="167" y="285">Min: 3.0 km</text><text fill="#FFFFFF" style="font-size:3px; font-family:Arial" x="167" y="290">Max: 5.1 km</text><polyline fill="none" points="38.9047619048506,86.71711862669326 26.238095238339156,86.82843711471651 23.380952381063253,74.47201316687278 13.0,50.426664834376425 59.9523809524253,33.17156288528349 63.38095238106325,40.63025452371221 67.0,58.21919891680591 55.8571428572759,63.89658032427542 23.095238095149398,72.5795750854304 13.190476190298796,50.983276322251186 61.38095238106325,33.17156288528349 66.90476190438494,58.55316337570548 51.57142857136205,66.12299605691805 23.857142857275903,75.02861195616424 26.809523809235543,86.71711862669326 36.52380952332169,86.16052601020783" stroke="#4dd2ff" stroke-linecap="round" stroke-linejoin="round" stroke-width="0.5"><title>2024-11-03 3.4km</title><desc>1730641178795</desc></polyline><polyline fill="none" points="167.16871833754703,87.0 161.6815512147732,85.24142621195642 159.91149730421603,85.96554521284997 160.0,84.31041528127389 157.96443800255656,83.2759576534736 147.9636334083043,83.17251183069311 143.00748245883733,66.00035379221663 134.95373716577888,49.24169239809271 179.64759840629995,33.103451122762635 185.7542843981646,56.69002175447531 172.92139354674146,62.172783557267394 144.15801750076935,69.62101457157405 134.33421829761937,49.655489959404804 137.2548072496429,47.17270196811296 179.82460379740223,33.0 185.66578170238063,56.58657312346622 173.98342589335516,61.55209508241387 144.86603906471282,70.0348035224597 142.5649689808488,67.65551466634497 134.2457156018354,49.24169239809271 179.38209031987935,33.206902234232984 185.7542843981646,56.89691898372257 173.18690163316205,62.172783557267394 145.66256332490593,70.0348035224597 144.9545417604968,74.89681060268776 146.72459567105398,83.06906599679496 159.02647034917027,82.55183666408993" stroke="#ff0000" stroke-linecap="round" stroke-linejoin="round" stroke-width="0.5"><title>2024-08-18 5.1km</title><desc>1723984957861</desc></polyline><polyline fill="none" points="37.107281603850424,147.0 40.3403198113665,145.11054952570703 38.63872075499967,140.93385607545497 31.747244576457888,142.42553443455836 27.748486793600023,141.5305277024745 25.11100825620815,130.88982692867285 16.007453304249793,109.11082141590305 60.3341087247245,93.0 59.653469101991504,96.28185635257978 63.99254669575021,115.57496238453314 51.655953536275774,121.93961166794179 25.45132806757465,129.00034412520472 20.60177075630054,121.04458546225214 15.837293398566544,109.11082141590305 58.377269809599966,93.69615230354248 61.525228064041585,102.04993979417486 64.077626648359,115.6744103601668 53.527712498791516,121.34292762522819 25.196088208816946,128.80145097797504 15.667133492883295,109.60806460451568 56.25027098925784,94.19340363377705 59.142989384476095,94.59120450861519 64.3328665071167,116.37054589769104 50.720074055250734,122.23795354709728 26.302127595990896,128.70200438873144 25.366248114965856,130.39259497995954 27.918646699748933,141.03330137277953 35.49076250055805,141.43108245759504" stroke="#ff0d00" stroke-linecap="round" stroke-linejoin="round" stroke-width="0.5"><title>2024-08-11 5.0km</title><desc>1723380974002</desc></polyline><polyline fill="none" points="153.6987270154059,144.23895310179796 144.22772277193144,145.04243010928622 141.63083451148123,135.22210319404257 157.28854313958436,129.41912911413237 153.8514851485379,108.34953444142593 187.0,94.95756989077199 172.9462517676875,101.2071797553217 172.7171145682223,104.77836464327993 176.45968882599846,121.47345382842468 164.3917963220738,127.18720539833885 141.2489391793497,133.07947125000646 133.38189533213153,116.92028039228171 134.29844412999228,114.33121004822897 154.84441301273182,107.8138599335798 183.79207920795307,96.02893486403627 173.40452616661787,100.31438117544167 172.02970297029242,102.0106976707466 176.38330975919962,121.29489846946672 165.53748231939971,126.56226570170838 141.47807637881488,132.9009183428716 133.0,116.20605488267029 137.2008486557752,113.52770384598989 171.2659123055637,101.38573935814202 179.13295615278184,132.36525939498097" stroke="#ff0c00" stroke-linecap="round" stroke-linejoin="round" stroke-width="0.5"><title>2024-08-04 5.0km</title><desc>1722777733849</desc></polyline><polyline fill="none" points="21.138028169050813,206.9812680230243 26.157746478449553,204.58103104645852 25.2450704225339,202.71417533251224 15.281690140720457,202.44748132134555 13.0,193.29093567305245 28.43943661963567,187.1568833561032 28.97183098597452,184.22319035773398 25.32112676044926,166.17630849103443 57.79718309827149,153.0187319770339 62.436619718093425,165.02058365970151 63.34929577447474,174.2663378721336 66.77183098578826,186.44568599236663 65.40281690098345,188.6681757583865 54.60281690116972,192.8464406307903 52.16901408461854,194.980014693283 30.340845070313662,201.46960255637532 15.585915492847562,202.44748132134555 13.380281690042466,192.6686425479711 29.123943661805242,187.5124818124459 24.484507041983306,166.62081761908485 57.416901408694685,153.46324805455515 62.66478873230517,165.28728953097016 67.0,187.5124818124459 53.842253521084785,193.20203668344766 52.701408450491726,194.89111588185187 44.10704225348309,196.9357861658209 44.33521126769483,200.13612968259258 45.62816901411861,200.04723141604336 44.41126760514453,201.38070443051402 28.819718309678137,203.9587462686468 22.278873239643872,206.27008741017198 33.611267605330795,201.73629687778885 41.21690140850842,201.11400999646867 46.54084507049993,199.0693498624605 35.13239436596632,203.06976721656974" stroke="#ff0c00" stroke-linecap="round" stroke-linejoin="round" stroke-width="0.5"><title>2024-07-28 5.0km</title><desc>1722171325984</desc></polyline><polyline fill="none" points="158.25966850854456,204.1200332911685 157.86187845328823,200.0516855418682 145.62983425427228,200.51664033147972 142.6464088400826,187.38159191503655 163.03314917115495,180.87212929292582 163.23204419901595,175.75752450793516 157.56353591149673,154.02018897456583 156.27071823226288,153.32272724923678 133.0,160.9947819170775 157.2651933701709,154.25267611816525 168.10497237555683,194.47221274417825 166.31491712713614,197.95938655745704 158.95580110512674,199.70296932081692 159.45303867431358,203.07388816366438 179.4419889501296,197.61066967330407 182.4254143643193,199.00553654681426 187.0,196.68075744214002 157.2651933701709,204.70122459938284 167.20994475157931,200.6328789984109 175.1657458562404,200.16792425746098 186.10497237555683,195.75084442505613 182.92265193350613,198.5405811186647 165.22099447483197,201.7952649903018 157.0662983423099,205.28241560037713 164.02762430952862,201.44654932175763 179.74033149145544,197.95938655745704 181.82872928166762,198.7730588573031 184.81215469585732,196.44827926147263 186.801104972139,196.33204015297815 183.61878453055397,198.1918644189136 167.11049723764881,201.56278789008502 152.59116022102535,206.6772727506468 180.73480662936345,196.68075744214002 186.30386740295216,196.09956189873628 183.4198895022273,198.30810333113186 165.41988950315863,201.33031074074097 155.4751381217502,205.28241560037713 168.20441988948733,199.47049177845474 172.97790055256337,200.0516855418682 180.03867403278127,197.49443068762776 182.82320441957563,199.00553654681426 186.20441988902166,196.7969965140801 176.65745856333524,200.2841629611794 171.38674033153802,200.51664033147972 174.46961325965822,199.00553654681426 181.72928176773712,198.7730588573031 186.20441988902166,195.98332275322173 183.4198895022273,198.65681999386288" stroke="#4dd2ff" stroke-linecap="round" stroke-linejoin="round" stroke-width="0.5"><title>2024-07-21 4.9km</title><desc>1721568919550</desc></polyline><polyline fill="none" points="43.68456375878304,256.3797549707815 33.77852348936722,259.20380296651274 30.516778523568064,254.96772873564623 18.07382550323382,255.25013410218526 13.724832214415073,241.12979271041695 13.966442952863872,238.87052424717695 41.38926174445078,230.53943879227154 37.76510067144409,219.38417527277488 38.61073825508356,230.11582289077342 43.80536912707612,248.61359222326428 18.557046980131418,255.53253940865397 16.50335570424795,254.12051227909978 13.0,239.8589546693256 13.362416107673198,236.04643329943065 38.36912751663476,228.70376891538035 36.91946308687329,219.38417527277488 38.61073825508356,229.83341221499722 44.89261744963005,246.354336407152 43.201342281885445,250.16682838147972 18.07382550323382,254.8265260301996 16.261744966730475,253.5557010093471 13.0,240.28256748407148 14.570469798520207,236.32884266297333 36.91946308687329,229.4097960892832 37.28187919454649,221.36106420180295 43.92617449676618,246.7779471637914 43.080536912195385,250.5904379299609 18.19463087245822,254.96772873564623 13.362416107673198,242.11822146223858 13.362416107673198,237.31727496453095 37.64429530175403,229.26859068439808 40.18120805360377,231.95149082888383 43.92617449676618,249.31960888230242 32.932885906193405,254.40291782433633 34.02013422828168,259.20380296651274 52.140939597040415,252.70848365768325 67.0,250.4492347619962 35.22818791959435,257.0857675288571 31.120805368758738,260.61582472734153 45.49664429528639,255.95614725665655" stroke="#4dd2ff" stroke-linecap="round" stroke-linejoin="round" stroke-width="0.5"><title>2024-07-14 4.2km</title><desc>1720963947536</desc></polyline><polyline fill="none" points="133.0,246.71077949227765 167.13793103490025,235.1029647408286 186.37931034434587,232.7451177824987 183.74137931037694,231.4755065406207 178.0,236.1912007072242 148.51724137924612,241.08825401996728 135.01724137924612,246.34803646849468 134.7068965518847,248.52449345926289 151.46551724150777,240.5441376750823 187.0,232.56374480505474 178.31034482643008,236.91669096820988 150.53448275849223,240.72550980956294 139.82758620660752,245.9852933686925 137.03448275849223,245.62255019240547 150.22413793113083,239.81864894658793 185.2931034481153,231.4755065406207 177.53448275849223,236.55394587584306 168.68965517170727,236.73531843197998 137.03448275849223,245.80392179021146 164.96551724057645,235.1029647408286 172.25862068962306,235.64708281040657 185.2931034481153,232.01962575910147 181.1034482754767,235.46571013960056 149.13793103396893,240.36276552150957 135.63793103490025,246.34803646849468 146.65517241321504,242.35785815503914 156.1206896547228,233.470609499258 161.86206896416843,237.0980634856969 176.75862068962306,234.74021926615387 163.56896551605314,239.2745321992552" stroke="#4dd2ff" stroke-linecap="round" stroke-linejoin="round" stroke-width="0.5"><title>2024-07-07 3.0km</title><desc>1720361789036</desc></polyline></svg>