<?xml version="1.0" encoding="utf-8" ?>
<svg baseProfile="full" height="300mm" version="1.1" viewBox="0,0,200,300" width="200mm" xmlns="http://www.w3.org/2000/svg" xmlns:ev="http://www.w3.org/2001/xml-events" xmlns:xlink="http://www.w3.org/1999/xlink"><defs /><rect fill="#222222" height="300" width="200" x="0" y="0" /><text fill="#FFFFFF" style="font-size:12px; font-family:Arial; font-weight:bold;" x="10" y="20">Runs</text><text fill="#FFFFFF" style="font-size:4px; font-family:Arial" x="10" y="280">Runner</text><text fill="#FFFFFF" style="font-size:9px; font-family:Arial" x="10" y="290">Jay</text><text fill="#FFFFFF" style="font-size:4px; font-family:Arial" x="65" y="280">SPECIAL TRACKS</text><rect fill="yellow" height="2.6" width="2.6" x="65" y="283" /><text fill="#FFFFFF" style="font-size:3px; font-family:Arial" x="70" y="285.5">Over 5.0 km</text><rect fill="red" height="2.6" width="2.6" x="65" y="287" /><text fill="#FFFFFF" style="font-size:3px; font-family:Arial" x="70" y="289.5">Over 10.0 km</text><text fill="#FFFFFF" style="font-size:4px; font-family:Arial" x="120" y="280">STATISTICS</text><text fill="#FFFFFF" style="font-size:3px; font-family:Arial" x="120" y="285">Number: 16</text><text fill="#FFFFFF" style="font-size:3px; font-family:Arial" x="120" y="290">Weekly: 1.1</text><text fill="#FFFFFF" style="font-size:3px; font-family:Arial" x="141" y="285">Total: 62.8 km</text><text fill="#FFFFFF" style="font-size:3px; font-family:Arial" x="141" y="290">Avg: 3.9 km</text><text fill="#FFFFFF" style="font-size:3px; font-family:Arial" x="167" y="285">Min: 2.1 km</text><text fill="#FFFFFF" style="font-size:3px; font-family:Arial" x="167" y="290">Max: 5.2 km</text><polyline fill="none" points="25.298327137483284,69.54113070160383 21.785315985092893,70.18638493609615 19.02509293658659,69.54113070160383 17.6700743495021,63.0298869300168 12.450743494089693,52.17764433397679 12.500929367961362,50.41780122771161 36.64033457217738,41.97047668538289 52.75,34.81361506390385 38.095724907005206,41.67716449697036 40.55483271367848,54.81739853747422 32.8763940515928,58.10240846767556 17.569702602224424,62.20864355569938 12.25,51.297723477880936 12.601301115006208,50.300478155433666 15.210966542595997,49.36189268680755 12.500929367961362,50.24181661027251 17.72026022267528,62.14998326811474 19.526951672742143,69.48247118853033 23.84293680288829,69.07185442373157" stroke="#4DD2FF" stroke-linecap="round" stroke-linejoin="round" stroke-width="0.5"><title>2025-05-02 3.2km</title><desc>1746193621188</desc></polyline><polyline fill="none" points="68.85393258417025,69.44128243639716 63.43876404501498,69.70722747585387 61.80056179780513,62.95217995237908 57.25,53.16517870139796 57.56853932584636,52.15455360675696 83.77977528073825,42.526918110088445 97.75,36.0374687804142 96.93089887616225,35.29277252414613 80.82191011216491,42.526918110088445 80.23033707868308,44.54820491740247 82.77865168522112,56.09066096280003 79.77528089866973,57.79275191226043 62.07359550567344,63.005369656922994 57.88707865169272,54.1758017676766 62.07359550567344,63.05855935587897 63.62078651692718,69.44128243639716 68.9904494381044,69.60084947687574" stroke="#4DD2FF" stroke-linecap="round" stroke-linejoin="round" stroke-width="0.5"><title>2025-05-01 3.2km</title><desc>1746105997674</desc></polyline><polyline fill="none" points="111.82727975281887,68.03007405789685 110.76313755800948,66.74967541344813 108.76004636799917,67.33500109537272 107.1951313756872,67.40816673604422 106.60046367859468,66.96917266011587 105.5363214839017,62.90845108075882 102.31259659992065,55.95755590280169 102.37519319949206,55.079538167483406 113.2982998455409,51.38452246997622 125.97411128284875,46.116313105245354 142.75,37.62847388847149 142.31182380230166,36.969925942103146 138.5247295210138,38.46994999729213 137.7422720248578,39.31142406136496 124.34659969096538,46.006557891261764 110.63794435875025,51.45769148026011 110.2936630602926,52.335718397574965 102.59428129834123,54.86003338583396 102.25,55.48196323911543 105.44242658431176,62.3231179183349 113.76777434314135,60.1646933327429 105.47372488409746,62.46945130164386 102.28129829990212,55.7014676265826 102.37519319949206,54.89661752572283 109.66769706341438,52.62839354205062 103.0637557960581,54.56736012728652 102.37519319949206,55.18929050609586 107.06993817619514,67.1520869260421" stroke="yellow" stroke-linecap="round" stroke-linejoin="round" stroke-width="0.5"><title>2025-04-20 5.2km</title><desc>1745154044961</desc></polyline><polyline fill="none" points="165.90030217403546,70.91998803167371 159.4334386214614,71.39738288673107 157.45934343198314,70.3630269850255 154.05573103600182,58.1097797784023 148.33766221045516,44.50366785429651 181.96535268286243,32.25 186.66233778954484,50.47129106003558 176.92800633702427,54.6088153970195 170.8695762718562,55.484058017726056 155.62139273807406,60.81505929277046 158.68464389443398,70.76085634616902 163.79006248852238,69.72649957041722 166.64909690106288,70.52215875469847 167.9424696112983,72.75 172.0948767347727,70.99955386191141" stroke="#4DD2FF" stroke-linecap="round" stroke-linejoin="round" stroke-width="0.5"><title>2025-03-23 2.1km</title><desc>1742729899087</desc></polyline><polyline fill="none" points="27.070880126440898,137.10829359246418 28.168904370628297,137.75 30.852963633835316,136.3952857577242 31.27997306222096,134.75536487950012 29.998944777296856,133.8284513168037 22.92278853757307,133.68584911723156 21.33675351808779,126.05658752651652 14.504602665780112,110.36998438695446 50.55639868113212,97.25 14.443601319100708,110.51259151170962 21.397754865000024,124.91575595294125 22.983789884252474,133.40064462798182 31.03596767457202,133.68584911723156 31.828985184198245,135.75357806222746 36.70909293578006,133.40064462798182 36.953098323429,134.3988598137512" stroke="#4DD2FF" stroke-linecap="round" stroke-linejoin="round" stroke-width="0.5"><title>2025-03-16 2.5km</title><desc>1742128080108</desc></polyline><polyline fill="none" points="62.86871508369222,125.49672574919532 60.00279329600744,124.04281478715711 58.53212290513329,121.88396796426969 57.25,112.8959959851345 57.9664804469794,110.69303217172273 60.493016759632155,108.97471233282704 67.50698324013501,108.66629520338029 76.55726256966591,106.19894997088704 65.92318435758352,108.75441440645955 60.794692737283185,108.93065275688423 58.45670391060412,110.1202596774092 57.28770949714817,112.85193682281533 58.343575419159606,120.60627785514225 59.62569832406007,123.73440878119436 67.62011173181236,127.47932345312438 71.61731843557209,128.53670504831825 77.80167597765103,128.80105002911296 88.28491620114073,126.37788144580554 92.69692737422884,123.86658281157725 94.16759776510298,122.32454985458753 97.75,114.87865348529886 93.48882681550458,122.89730561728356 90.73603351949714,124.87991565593984 86.5502793295309,126.68628550053108 77.00977653637528,128.62482006047503 71.16480446909554,128.22830235946458 63.6229050278198,125.45266791561153 67.62011173181236,127.52338107291143 73.42737430147827,128.71293505409267 78.2164804469794,128.80105002911296 81.08240223466419,127.91989944296074 77.00977653637528,128.58076255681226 71.31564245815389,128.1401872638089 66.75279329600744,126.95063165196916 62.18994413409382,124.83585775730899 64.49022346362472,125.23237867790158" stroke="#4DD2FF" stroke-linecap="round" stroke-linejoin="round" stroke-width="0.5"><title>2025-03-08 4.9km</title><desc>1741407347536</desc></polyline><polyline fill="none" points="114.83474576263689,134.99165107647423 108.7025423727464,134.51024588634027 107.37542372872122,128.733347911475 102.38728813524358,117.87474096615915 102.75338983046822,116.80491487440304 130.21101694903336,106.9089163763274 142.3381355931051,101.23868954423233 142.75,100.70375920686638 142.15508474572562,100.00834892352577 124.94830508460291,107.92527107908973 102.25,115.57461207447341 108.97711864393204,134.29628787722322 118.54152542352676,133.86837158777053 125.54322033887729,131.78227449880796" stroke="#4DD2FF" stroke-linecap="round" stroke-linejoin="round" stroke-width="0.5"><title>2025-03-02 3.1km</title><desc>1740908689410</desc></polyline><polyline fill="none" points="167.23600931162946,137.75 166.31204190244898,135.20435185998213 158.19432823476382,135.12721086881356 156.34639341617003,126.17880059650633 148.55866810888983,110.67310597246978 148.88865646952763,109.7473824469489 182.28347854921594,98.17573936731787 186.441331891343,115.14741980441613 177.2016577979084,119.39027828915277 156.01640505576506,125.09881263179705 148.82265879726037,109.7473824469489 183.33944130293094,97.25 182.41547389351763,98.5614637574181 186.17734120273963,115.14741980441613 175.617713667918,119.544563588046" stroke="#4DD2FF" stroke-linecap="round" stroke-linejoin="round" stroke-width="0.5"><title>2024-12-01 3.0km</title><desc>1733059607886</desc></polyline><polyline fill="none" points="31.67857142863795,202.53783897007816 22.178571429103613,202.62132783600828 20.035714285913855,193.3540098751546 12.25,175.31999862578232 47.46428571455181,162.37867216399172 50.035714285913855,167.97269089281326 52.75,181.16439918754622 44.39285714318976,185.42243524320656 19.82142857182771,191.9346813141019 12.392857142724097,175.7374572417466 48.535714285913855,162.37867216399172 52.67857142863795,181.4148725317791 41.17857142863795,187.09224704274675 20.392857143189758,193.77145896712318 22.607142857275903,202.53783897007816 29.892857142724097,202.12039450765587" stroke="#4DD2FF" stroke-linecap="round" stroke-linejoin="round" stroke-width="0.5"><title>2024-11-03 3.4km</title><desc>1730641178795</desc></polyline><polyline fill="none" points="82.87653875327669,202.75 78.76116341119632,201.43106965895277 77.43362297792919,201.97415890963748 77.49999999976717,200.73281146091176 75.97332850191742,199.95696824009065 68.47272505634464,199.87938387301983 64.755611844128,187.00026534416247 58.71530287433416,174.43126929854043 92.23569880495779,162.32758834207198 96.81571329850703,180.01751631585648 87.19104516017251,184.129587667936 65.6185131254606,189.7157609286951 58.250663723098114,174.7416174695827 60.44110543699935,172.87952647608472 92.36845284793526,162.25 96.74933627690189,179.93992984259967 87.98756941989996,183.66407131182496 66.14952929853462,190.02610264183022 64.42372673586942,188.24163599975873 58.184286701260135,174.43126929854043 92.03656773990951,162.40517667564563 96.81571329850703,180.17268923774827 87.39017622498795,184.129587667936 66.74692249344662,190.02610264183022 66.2159063203726,193.67260795197217 67.5434467534069,199.80179949756712 76.7698527618777,199.41387749800924" stroke="yellow" stroke-linecap="round" stroke-linejoin="round" stroke-width="0.5"><title>2024-08-18 5.1km</title><desc>1723984957861</desc></polyline><polyline fill="none" points="120.33046120288782,202.75 122.75523985852487,201.33291214430938 121.47904056613334,198.20039205660578 116.310433432227,199.31915082596242 113.31136509520002,198.64789577684132 111.33325619227253,190.6673701965483 104.5055899778381,174.33311606192729 137.75058154342696,162.25 137.2401018263772,164.71139226440573 140.49441002192907,179.18122178839985 131.24196515232325,183.9547087509418 111.58849605056457,189.25025809393264 107.95132806710899,183.28343909670366 104.37797004892491,174.33311606192729 136.28295235708356,162.7721142277005 138.6439210481476,169.0374548456748 140.55821998626925,179.2558077701251 132.64578437409364,183.5071957189357 111.39706615637988,189.10108823346673 104.25035011954606,174.7060484534013 134.68770324182697,163.1450527253328 136.8572420384735,163.44340338144684 140.7496498802211,179.77790942328284 130.54005554155447,184.1784651603084 112.22659569676034,189.02650329156313 111.52468608599156,190.29444623494055 113.43898502457887,198.27497602958465 119.11807187530212,198.57331184321083" stroke="yellow" stroke-linecap="round" stroke-linejoin="round" stroke-width="0.5"><title>2024-08-11 5.0km</title><desc>1723380974002</desc></polyline><polyline fill="none" points="162.77404526178725,200.67921482631937 155.670792079065,201.2818225819501 153.72312588384375,193.91657739551738 165.4664073549211,189.56434683559928 162.888613861287,173.7621508310549 187.75,163.7181774180499 177.20968882599846,168.40538481646217 177.03783592628315,171.0837734824163 179.84476661961526,183.60509037133306 170.79384724167176,187.89040404872503 153.43670438462868,192.3096034374903 147.53642149921507,180.19021029421128 148.22383309761062,178.24840753612807 163.63330975966528,173.3603949501412 185.34405940608121,164.52170114801265 177.55339462519623,167.73578588158125 176.52227722783573,169.00802325305995 179.78748231963255,183.47117385204183 171.6531117395498,187.42169927625218 153.608557284344,192.1756887571537 147.25,179.65454116201727 150.4006364918314,177.6457778844633 175.94943422917277,168.5393045186065 181.8497171148192,191.77394454623573" stroke="yellow" stroke-linecap="round" stroke-linejoin="round" stroke-width="0.5"><title>2024-08-04 5.0km</title><desc>1722777733849</desc></polyline><polyline fill="none" points="18.35352112702094,267.73595101723913 22.11830985895358,265.935773284873 21.43380281701684,264.53563149936963 13.961267605656758,264.3356109909946 12.25,257.46820175478933 23.82957746484317,252.86766251706285 24.228873239597306,250.66739276825683 21.49084507022053,237.13223136827582 45.84788732370362,227.26404898276087 49.327464788686484,236.26543774473248 50.011971831088886,243.1997534040711 52.57887323945761,252.33426449430408 51.55211267597042,254.00113181874622 43.45211267587729,257.1348304730491 41.62676056334749,258.7350110199186 25.255633802851662,263.60220191726694 14.189436619635671,264.3356109909946 12.535211267415434,257.0014819109929 24.342957746703178,253.134361359349 20.86338028172031,237.46561321429908 45.56267605652101,227.5974360408727 49.49859154922888,236.46546714822762 52.75,253.134361359349 42.88169014081359,257.40152751258574 42.026056338101625,258.6683369113598 35.58028169022873,260.201839624322 35.751408451003954,262.6020972619299 36.72112676058896,262.5354235620471 35.808450704207644,263.5355283228564 24.114788732258603,265.4690597014269 19.209154929732904,267.20256555761443 27.708450704347342,263.802222658298 33.412676056381315,263.33550749730784 37.40563380299136,261.80201239680173 28.84929577470757,264.8023254123982" stroke="yellow" stroke-linecap="round" stroke-linejoin="round" stroke-width="0.5"><title>2024-07-28 5.0km</title><desc>1722171325984</desc></polyline><polyline fill="none" points="76.19475138094276,265.5900249684346 75.89640883961692,262.53876415640116 66.72237569047138,262.8874802486389 64.48480662982911,253.0361939362483 79.7748618782498,248.15409696969436 79.92403314914554,244.31814338092227 75.67265193350613,228.01514173095347 74.70303867384791,227.4920454369858 57.25,233.246086437779 75.44889502739534,228.18950708868215 83.57872928166762,258.3541595581919 82.23618784500286,260.9695399181219 76.71685082884505,262.2772269906127 77.08977900538594,264.8054161227192 92.08149171248078,260.70800225500716 94.31906077312306,261.7541524100816 97.75,260.0105680815759 75.44889502739534,266.02591844956623 82.90745856333524,262.97465924877906 88.8743093921803,262.62594319315394 97.07872928166762,259.3131333187921 94.6919889501296,261.40543583902763 81.41574585577473,263.84644874278456 75.29972375649959,266.46181170031196 80.52071823226288,263.5849119913182 92.30524861859158,260.9695399181219 93.87154696136713,261.57979414297733 96.10911602154374,259.8362094461336 97.60082872863859,259.7490301147336 95.21408839803189,261.1438983142143 82.8328729281202,263.67209091759287 71.94337016576901,267.5079545630142 93.051104972139,260.0105680815759 97.22790055209771,259.5746714241104 95.06491712667048,261.2310774983489 81.56491712713614,263.4977330555557 74.10635359119624,266.46181170031196 83.65331491688266,262.10286883387016 87.2334254141897,262.53876415640116 92.52900552470237,260.6208230157499 94.6174033144489,261.7541524100816 97.153314916417,260.09774738556007 89.9930939222686,262.71312222094275 86.04005524888635,262.8874802486389 88.35220994474366,261.7541524100816 93.79696132568642,261.57979414297733 97.153314916417,259.4874920649454 95.06491712667048,261.49261499545537" stroke="#4DD2FF" stroke-linecap="round" stroke-linejoin="round" stroke-width="0.5"><title>2024-07-21 4.9km</title><desc>1721568919550</desc></polyline><polyline fill="none" points="125.26342281885445,259.7848162279697 117.833892616909,261.90285222476814 115.3875838923268,258.72579655167647 106.05536912754178,258.93760057660984 102.7936241608113,248.3473445327254 102.97483221441507,246.6528931853245 123.54194630822167,240.40457909414545 120.82382550323382,232.03813145455206 121.45805369131267,240.08686716802185 125.35402684519067,253.9601941673318 106.41778523521498,259.1494045564323 104.87751677818596,258.0903842092375 102.25,247.3942160019651 102.52181208040565,244.53482497448567 121.27684563724324,239.02782668644795 120.18959731515497,232.03813145455206 121.45805369131267,239.8750591611606 126.1694630868733,252.2657523052767 124.90100671118125,255.12512128608068 106.05536912754178,258.6198945225915 104.6963087245822,257.666775756923 102.25,247.7119256129954 103.42785234889016,244.7466319971718 120.18959731515497,239.5573470669333 120.46140939556062,233.5207981512649 125.44463087245822,252.58346037281444 124.81040268437937,255.44282844744157 106.14597315434366,258.72579655167647 102.52181208040565,249.08866609662073 102.52181208040565,245.4879562233109 120.73322147643194,239.45144301321125 122.63590604020283,241.46361812157556 125.44463087245822,254.4897066616104 117.19966442929581,258.30218836816493 118.01510067144409,261.90285222476814 131.6057046977803,257.03136274323333 142.75,255.33692607143894 118.92114093946293,260.3143256465555 115.84060402680188,262.96186854544794 126.62248322134838,259.4671104424633" stroke="#4DD2FF" stroke-linecap="round" stroke-linejoin="round" stroke-width="0.5"><title>2024-07-14 4.2km</title><desc>1720963947536</desc></polyline><polyline fill="none" points="147.25,252.53308461932465 172.85344827594236,243.82722355576698 187.28448275849223,242.05883833696134 185.30603448254988,241.10662990564015 180.99999999953434,244.64340053044725 158.88793103396893,248.31619051506277 148.76293103396893,252.26102735148743 148.5301724136807,253.89337009447627 161.09913793066517,247.90810325636994 187.75,241.92280860384926 181.23275862028822,245.18751822621562 160.40086206886917,248.0441323572304 152.3706896547228,251.9889700266067 150.27586206886917,251.71691264444962 160.1681034481153,247.36398670997005 186.46982758585364,241.10662990564015 180.65086206886917,244.9154594069114 174.01724137924612,245.0514888240723 150.27586206886917,251.8529413427459 171.2241379301995,243.82722355576698 176.69396551698446,244.23531210783403 186.46982758585364,241.51471931941342 183.32758620660752,244.09928260475863 159.3534482754767,247.7720741411904 149.22844827594236,252.26102735148743 157.49137931037694,249.26839361642487 164.5905172410421,242.6029571244726 168.89655172359198,245.32354761427268 180.06896551698446,243.55516444973182 170.17672413727269,246.9558991495287" stroke="#4DD2FF" stroke-linecap="round" stroke-linejoin="round" stroke-width="0.5"><title>2024-07-07 3.0km</title><desc>1720361789036</desc></polyline></svg>