<?xml version="1.0" encoding="utf-8" ?>
<svg baseProfile="full" height="300mm" version="1.1" viewBox="0,0,200,300" width="200mm" xmlns="http://www.w3.org/2000/svg" xmlns:ev="http://www.w3.org/2001/xml-events" xmlns:xlink="http://www.w3.org/1999/xlink"><defs /><rect fill="#222222" height="300" width="200" x="0" y="0" /><text fill="#FFFFFF" style="font-size:12px; font-family:Arial; font-weight:bold;" x="10" y="20">Runs</text><text fill="#FFFFFF" style="font-size:4px; font-family:Arial" x="10" y="280">ATHLETE</text><text fill="#FFFFFF" style="font-size:9px; font-family:Arial" x="10" y="290">Jay</text><text fill="#FFFFFF" style="font-size:4px; font-family:Arial" x="120" y="280">STATISTICS</text><text fill="#FFFFFF" style="font-size:3px; font-family:Arial" x="120" y="285">Number: 7</text><text fill="#FFFFFF" style="font-size:3px; font-family:Arial" x="120" y="290">Weekly: 1.0</text><text fill="#FFFFFF" style="font-size:3px; font-family:Arial" x="141" y="285">Total: 32.3 km</text><text fill="#FFFFFF" style="font-size:3px; font-family:Arial" x="141" y="290">Avg: 4.6 km</text><text fill="#FFFFFF" style="font-size:3px; font-family:Arial" x="167" y="285">Min: 3.0 km</text><text fill="#FFFFFF" style="font-size:3px; font-family:Arial" x="167" y="290">Max: 5.1 km</text><polyline fill="none" points="47.168718337547034,87.0 41.68155121477321,85.24142621195642 39.91149730421603,85.96554521284997 40.0,84.31041528127389 37.96443800255656,83.2759576534736 27.963633408304304,83.17251183069311 23.00748245883733,66.00035379221663 14.953737165778875,49.24169239809271 59.64759840629995,33.103451122762635 65.7542843981646,56.69002175447531 52.921393546741456,62.172783557267394 24.158017500769347,69.62101457157405 14.334218297619373,49.655489959404804 17.25480724964291,47.17270196811296 59.82460379740223,33.0 65.66578170238063,56.58657312346622 53.98342589335516,61.55209508241387 24.866039064712822,70.0348035224597 22.56496898084879,67.65551466634497 14.2457156018354,49.24169239809271 59.38209031987935,33.206902234232984 65.7542843981646,56.89691898372257 53.18690163316205,62.172783557267394 25.662563324905932,70.0348035224597 24.954541760496795,74.89681060268776 26.724595671053976,83.06906599679496 39.02647034917027,82.55183666408993" stroke="#ff0000" stroke-linecap="round" stroke-linejoin="round" stroke-width="0.5"><title>2024-08-18 5.1km</title><desc>1723984957861</desc></polyline><polyline fill="none" points="157.10728160385042,87.0 160.3403198113665,85.11054952570703 158.63872075499967,80.93385607545497 151.7472445764579,82.42553443455836 147.74848679360002,81.5305277024745 145.11100825620815,70.88982692867285 136.0074533042498,49.11082141590305 180.3341087247245,33.0 179.6534691019915,36.28185635257978 183.9925466957502,55.57496238453314 171.65595353627577,61.93961166794179 145.45132806757465,69.00034412520472 140.60177075630054,61.044585462252144 135.83729339856654,49.11082141590305 178.37726980959997,33.696152303542476 181.52522806404158,42.04993979417486 184.077626648359,55.6744103601668 173.52771249879152,61.342927625228185 145.19608820881695,68.80145097797504 135.6671334928833,49.608064604515675 176.25027098925784,34.19340363377705 179.1429893844761,34.59120450861519 184.3328665071167,56.370545897691045 170.72007405525073,62.23795354709728 146.3021275959909,68.70200438873144 145.36624811496586,70.39259497995954 147.91864669974893,81.03330137277953 155.49076250055805,81.43108245759504" stroke="#ff0d00" stroke-linecap="round" stroke-linejoin="round" stroke-width="0.5"><title>2024-08-11 5.0km</title><desc>1723380974002</desc></polyline><polyline fill="none" points="33.69872701540589,144.23895310179796 24.22772277193144,145.04243010928622 21.630834511481225,135.22210319404257 37.28854313958436,129.41912911413237 33.851485148537904,108.34953444142593 67.0,94.95756989077199 52.9462517676875,101.2071797553217 52.717114568222314,104.77836464327993 56.459688825998455,121.47345382842468 44.39179632207379,127.18720539833885 21.24893917934969,133.07947125000646 13.381895332131535,116.92028039228171 14.298444129992276,114.33121004822897 34.84441301273182,107.8138599335798 63.792079207953066,96.02893486403627 53.40452616661787,100.31438117544167 52.02970297029242,102.0106976707466 56.38330975919962,121.29489846946672 45.537482319399714,126.56226570170838 21.478076378814876,132.9009183428716 13.0,116.20605488267029 17.20084865577519,113.52770384598989 51.26591230556369,101.38573935814202 59.132956152781844,132.36525939498097" stroke="#ff0c00" stroke-linecap="round" stroke-linejoin="round" stroke-width="0.5"><title>2024-08-04 5.0km</title><desc>1722777733849</desc></polyline><polyline fill="none" points="141.1380281690508,146.9812680230243 146.15774647844955,144.58103104645852 145.2450704225339,142.71417533251224 135.28169014072046,142.44748132134555 133.0,133.29093567305245 148.43943661963567,127.15688335610321 148.97183098597452,124.22319035773398 145.32112676044926,106.17630849103443 177.7971830982715,93.0187319770339 182.43661971809343,105.02058365970151 183.34929577447474,114.26633787213359 186.77183098578826,126.44568599236663 185.40281690098345,128.6681757583865 174.60281690116972,132.8464406307903 172.16901408461854,134.980014693283 150.34084507031366,141.46960255637532 135.58591549284756,142.44748132134555 133.38028169004247,132.6686425479711 149.12394366180524,127.51248181244591 144.4845070419833,106.62081761908485 177.41690140869468,93.46324805455515 182.66478873230517,105.28728953097016 187.0,127.51248181244591 173.84225352108479,133.20203668344766 172.70140845049173,134.89111588185187 164.1070422534831,136.9357861658209 164.33521126769483,140.13612968259258 165.6281690141186,140.04723141604336 164.41126760514453,141.38070443051402 148.81971830967814,143.9587462686468 142.27887323964387,146.27008741017198 153.6112676053308,141.73629687778885 161.21690140850842,141.11400999646867 166.54084507049993,139.0693498624605 155.13239436596632,143.06976721656974" stroke="#ff0c00" stroke-linecap="round" stroke-linejoin="round" stroke-width="0.5"><title>2024-07-28 5.0km</title><desc>1722171325984</desc></polyline><polyline fill="none" points="38.259668508544564,204.1200332911685 37.86187845328823,200.0516855418682 25.629834254272282,200.51664033147972 22.646408840082586,187.38159191503655 43.033149171154946,180.87212929292582 43.232044199015945,175.75752450793516 37.56353591149673,154.02018897456583 36.27071823226288,153.32272724923678 13.0,160.9947819170775 37.26519337017089,154.25267611816525 48.10497237555683,194.47221274417825 46.31491712713614,197.95938655745704 38.95580110512674,199.70296932081692 39.453038674313575,203.07388816366438 59.4419889501296,197.61066967330407 62.425414364319295,199.00553654681426 67.0,196.68075744214002 37.26519337017089,204.70122459938284 47.209944751579314,200.6328789984109 55.16574585624039,200.16792425746098 66.10497237555683,195.75084442505613 62.92265193350613,198.5405811186647 45.22099447483197,201.7952649903018 37.06629834230989,205.28241560037713 44.02762430952862,201.44654932175763 59.740331491455436,197.95938655745704 61.82872928166762,198.7730588573031 64.81215469585732,196.44827926147263 66.801104972139,196.33204015297815 63.61878453055397,198.1918644189136 47.110497237648815,201.56278789008502 32.59116022102535,206.6772727506468 60.73480662936345,196.68075744214002 66.30386740295216,196.09956189873628 63.419889502227306,198.30810333113186 45.41988950315863,201.33031074074097 35.475138121750206,205.28241560037713 48.204419889487326,199.47049177845474 52.97790055256337,200.0516855418682 60.03867403278127,197.49443068762776 62.82320441957563,199.00553654681426 66.20441988902166,196.7969965140801 56.65745856333524,200.2841629611794 51.38674033153802,200.51664033147972 54.46961325965822,199.00553654681426 61.72928176773712,198.7730588573031 66.20441988902166,195.98332275322173 63.419889502227306,198.65681999386288" stroke="#4dd2ff" stroke-linecap="round" stroke-linejoin="round" stroke-width="0.5"><title>2024-07-21 4.9km</title><desc>1721568919550</desc></polyline><polyline fill="none" points="163.68456375878304,196.3797549707815 153.77852348936722,199.20380296651274 150.51677852356806,194.96772873564623 138.07382550323382,195.25013410218526 133.72483221441507,181.12979271041695 133.96644295286387,178.87052424717695 161.38926174445078,170.53943879227154 157.7651006714441,159.38417527277488 158.61073825508356,170.11582289077342 163.80536912707612,188.61359222326428 138.55704698013142,195.53253940865397 136.50335570424795,194.12051227909978 133.0,179.8589546693256 133.3624161076732,176.04643329943065 158.36912751663476,168.70376891538035 156.9194630868733,159.38417527277488 158.61073825508356,169.83341221499722 164.89261744963005,186.354336407152 163.20134228188545,190.16682838147972 138.07382550323382,194.8265260301996 136.26174496673048,193.5557010093471 133.0,180.28256748407148 134.5704697985202,176.32884266297333 156.9194630868733,169.4097960892832 157.2818791945465,161.36106420180295 163.92617449676618,186.7779471637914 163.08053691219538,190.5904379299609 138.19463087245822,194.96772873564623 133.3624161076732,182.11822146223858 133.3624161076732,177.31727496453095 157.64429530175403,169.26859068439808 160.18120805360377,171.95149082888383 163.92617449676618,189.31960888230242 152.9328859061934,194.40291782433633 154.02013422828168,199.20380296651274 172.14093959704041,192.70848365768325 187.0,190.4492347619962 155.22818791959435,197.0857675288571 151.12080536875874,200.61582472734153 165.4966442952864,195.95614725665655" stroke="#4dd2ff" stroke-linecap="round" stroke-linejoin="round" stroke-width="0.5"><title>2024-07-14 4.2km</title><desc>1720963947536</desc></polyline><polyline fill="none" points="13.0,246.71077949227765 47.13793103490025,235.1029647408286 66.37931034434587,232.7451177824987 63.74137931037694,231.4755065406207 58.0,236.1912007072242 28.517241379246116,241.08825401996728 15.017241379246116,246.34803646849468 14.70689655188471,248.52449345926289 31.46551724150777,240.5441376750823 67.0,232.56374480505474 58.31034482643008,236.91669096820988 30.53448275849223,240.72550980956294 19.82758620660752,245.9852933686925 17.03448275849223,245.62255019240547 30.224137931130826,239.81864894658793 65.29310344811529,231.4755065406207 57.53448275849223,236.55394587584306 48.68965517170727,236.73531843197998 17.03448275849223,245.80392179021146 44.965517240576446,235.1029647408286 52.25862068962306,235.64708281040657 65.29310344811529,232.01962575910147 61.103448275476694,235.46571013960056 29.137931033968925,240.36276552150957 15.637931034900248,246.34803646849468 26.65517241321504,242.35785815503914 36.12068965472281,233.470609499258 41.86206896416843,237.0980634856969 56.75862068962306,234.74021926615387 43.56896551605314,239.2745321992552" stroke="#4dd2ff" stroke-linecap="round" stroke-linejoin="round" stroke-width="0.5"><title>2024-07-07 3.0km</title><desc>1720361789036</desc></polyline></svg>