<?xml version="1.0" encoding="utf-8" ?>
<svg baseProfile="full" height="300mm" version="1.1" viewBox="0,0,200,300" width="200mm" xmlns="http://www.w3.org/2000/svg" xmlns:ev="http://www.w3.org/2001/xml-events" xmlns:xlink="http://www.w3.org/1999/xlink"><defs /><rect fill="#222222" height="300" width="200" x="0" y="0" /><text fill="#FFFFFF" style="font-size:12px; font-family:Arial; font-weight:bold;" x="10" y="20">Runs</text><text fill="#FFFFFF" style="font-size:4px; font-family:Arial" x="10" y="280">Runner</text><text fill="#FFFFFF" style="font-size:9px; font-family:Arial" x="10" y="290">Jay</text><text fill="#FFFFFF" style="font-size:4px; font-family:Arial" x="65" y="280">SPECIAL TRACKS</text><rect fill="yellow" height="2.6" width="2.6" x="65" y="283" /><text fill="#FFFFFF" style="font-size:3px; font-family:Arial" x="70" y="285.5">Over 5.0 km</text><rect fill="red" height="2.6" width="2.6" x="65" y="287" /><text fill="#FFFFFF" style="font-size:3px; font-family:Arial" x="70" y="289.5">Over 10.0 km</text><text fill="#FFFFFF" style="font-size:4px; font-family:Arial" x="120" y="280">STATISTICS</text><text fill="#FFFFFF" style="font-size:3px; font-family:Arial" x="120" y="285">Number: 17</text><text fill="#FFFFFF" style="font-size:3px; font-family:Arial" x="120" y="290">Weekly: 1.1</text><text fill="#FFFFFF" style="font-size:3px; font-family:Arial" x="141" y="285">Total: 66.7 km</text><text fill="#FFFFFF" style="font-size:3px; font-family:Arial" x="141" y="290">Avg: 3.9 km</text><text fill="#FFFFFF" style="font-size:3px; font-family:Arial" x="167" y="285">Min: 2.1 km</text><text fill="#FFFFFF" style="font-size:3px; font-family:Arial" x="167" y="290">Max: 5.2 km</text><polyline fill="none" points="24.462860310683027,69.42579471023055 23.834257206413895,68.5860932552605 18.71563192922622,68.74353738620994 16.425720621133223,60.76630531731644 13.282705100020394,54.573365800693864 12.429600887233391,51.37190070041106 31.332594235194847,44.75897304908722 42.06374722858891,40.14036820002366 37.214523281669244,42.60712840463384 51.71729490021244,35.679175023542484 52.75,37.09626425630995 51.896895787213,35.574205289798556 35.32871396909468,43.55184183528763 35.14911308232695,45.17884408833925 37.618625277187675,55.41309093669406 30.434589800424874,58.457082657841966 16.784922394901514,62.07835886528483 12.25,52.15914812940173 12.878603104501963,51.16196784202475 15.797117516864091,50.11230221934966 12.609201774001122,51.26693428226281 12.429600887233391,52.26411435904447 16.605321507900953,61.65850210678764 19.927937916014344,61.186162829515524 16.964523281669244,62.13084093507496 18.53603104222566,68.3761676697759 24.283259423682466,68.5860932552605" stroke="#4DD2FF" stroke-linecap="round" stroke-linejoin="round" stroke-width="0.5"><title>2025-05-04 3.9km</title><desc>1746361657097</desc></polyline><polyline fill="none" points="70.29832713748328,69.54113070160383 66.7853159850929,70.18638493609615 64.02509293658659,69.54113070160383 62.6700743495021,63.0298869300168 57.45074349408969,52.17764433397679 57.50092936796136,50.41780122771161 81.64033457217738,41.97047668538289 97.75,34.81361506390385 83.0957249070052,41.67716449697036 85.55483271367848,54.81739853747422 77.8763940515928,58.10240846767556 62.569702602224424,62.20864355569938 57.25,51.297723477880936 57.60130111500621,50.300478155433666 60.210966542596,49.36189268680755 57.50092936796136,50.24181661027251 62.72026022267528,62.14998326811474 64.52695167274214,69.48247118853033 68.84293680288829,69.07185442373157" stroke="#4DD2FF" stroke-linecap="round" stroke-linejoin="round" stroke-width="0.5"><title>2025-05-02 3.2km</title><desc>1746193621188</desc></polyline><polyline fill="none" points="113.85393258417025,69.44128243639716 108.43876404501498,69.70722747585387 106.80056179780513,62.95217995237908 102.25,53.16517870139796 102.56853932584636,52.15455360675696 128.77977528073825,42.526918110088445 142.75,36.0374687804142 141.93089887616225,35.29277252414613 125.82191011216491,42.526918110088445 125.23033707868308,44.54820491740247 127.77865168522112,56.09066096280003 124.77528089866973,57.79275191226043 107.07359550567344,63.005369656922994 102.88707865169272,54.1758017676766 107.07359550567344,63.05855935587897 108.62078651692718,69.44128243639716 113.9904494381044,69.60084947687574" stroke="#4DD2FF" stroke-linecap="round" stroke-linejoin="round" stroke-width="0.5"><title>2025-05-01 3.2km</title><desc>1746105997674</desc></polyline><polyline fill="none" points="156.82727975281887,68.03007405789685 155.76313755800948,66.74967541344813 153.76004636799917,67.33500109537272 152.1951313756872,67.40816673604422 151.60046367859468,66.96917266011587 150.5363214839017,62.90845108075882 147.31259659992065,55.95755590280169 147.37519319949206,55.079538167483406 158.2982998455409,51.38452246997622 170.97411128284875,46.116313105245354 187.75,37.62847388847149 187.31182380230166,36.969925942103146 183.5247295210138,38.46994999729213 182.7422720248578,39.31142406136496 169.34659969096538,46.006557891261764 155.63794435875025,51.45769148026011 155.2936630602926,52.335718397574965 147.59428129834123,54.86003338583396 147.25,55.48196323911543 150.44242658431176,62.3231179183349 158.76777434314135,60.1646933327429 150.47372488409746,62.46945130164386 147.28129829990212,55.7014676265826 147.37519319949206,54.89661752572283 154.66769706341438,52.62839354205062 148.0637557960581,54.56736012728652 147.37519319949206,55.18929050609586 152.06993817619514,67.1520869260421" stroke="yellow" stroke-linecap="round" stroke-linejoin="round" stroke-width="0.5"><title>2025-04-20 5.2km</title><desc>1745154044961</desc></polyline><polyline fill="none" points="30.90030217403546,119.66998803167371 24.43343862146139,120.14738288673107 22.459343431983143,119.1130269850255 19.055731036001816,106.8597797784023 13.337662210455164,93.25366785429651 46.96535268286243,81.0 51.662337789544836,99.22129106003558 41.92800633702427,103.3588153970195 35.869576271856204,104.23405801772606 20.621392738074064,109.56505929277046 23.684643894433975,119.51085634616902 28.79006248852238,118.47649957041722 31.649096901062876,119.27215875469847 32.94246961129829,121.5 37.0948767347727,119.74955386191141" stroke="#4DD2FF" stroke-linecap="round" stroke-linejoin="round" stroke-width="0.5"><title>2025-03-23 2.1km</title><desc>1742729899087</desc></polyline><polyline fill="none" points="72.0708801264409,120.85829359246418 73.1689043706283,121.5 75.85296363383532,120.1452857577242 76.27997306222096,118.50536487950012 74.99894477729686,117.5784513168037 67.92278853757307,117.43584911723156 66.33675351808779,109.80658752651652 59.50460266578011,94.11998438695446 95.55639868113212,81.0 59.44360131910071,94.26259151170962 66.39775486500002,108.66575595294125 67.98378988425247,117.15064462798182 76.03596767457202,117.43584911723156 76.82898518419825,119.50357806222746 81.70909293578006,117.15064462798182 81.953098323429,118.14885981375119" stroke="#4DD2FF" stroke-linecap="round" stroke-linejoin="round" stroke-width="0.5"><title>2025-03-16 2.5km</title><desc>1742128080108</desc></polyline><polyline fill="none" points="107.86871508369222,109.24672574919532 105.00279329600744,107.79281478715711 103.53212290513329,105.63396796426969 102.25,96.6459959851345 102.9664804469794,94.44303217172273 105.49301675963216,92.72471233282704 112.50698324013501,92.41629520338029 121.55726256966591,89.94894997088704 110.92318435758352,92.50441440645955 105.79469273728319,92.68065275688423 103.45670391060412,93.8702596774092 102.28770949714817,96.60193682281533 103.3435754191596,104.35627785514225 104.62569832406007,107.48440878119436 112.62011173181236,111.22932345312438 116.61731843557209,112.28670504831825 122.80167597765103,112.55105002911296 133.28491620114073,110.12788144580554 137.69692737422884,107.61658281157725 139.16759776510298,106.07454985458753 142.75,98.62865348529886 138.48882681550458,106.64730561728356 135.73603351949714,108.62991565593984 131.5502793295309,110.43628550053108 122.00977653637528,112.37482006047503 116.16480446909554,111.97830235946458 108.6229050278198,109.20266791561153 112.62011173181236,111.27338107291143 118.42737430147827,112.46293505409267 123.2164804469794,112.55105002911296 126.08240223466419,111.66989944296074 122.00977653637528,112.33076255681226 116.31564245815389,111.89018726380891 111.75279329600744,110.70063165196916 107.18994413409382,108.58585775730899 109.49022346362472,108.98237867790158" stroke="#4DD2FF" stroke-linecap="round" stroke-linejoin="round" stroke-width="0.5"><title>2025-03-08 4.9km</title><desc>1741407347536</desc></polyline><polyline fill="none" points="159.83474576263689,118.74165107647423 153.7025423727464,118.26024588634027 152.37542372872122,112.483347911475 147.38728813524358,101.62474096615915 147.75338983046822,100.55491487440304 175.21101694903336,90.6589163763274 187.3381355931051,84.98868954423233 187.75,84.45375920686638 187.15508474572562,83.75834892352577 169.9483050846029,91.67527107908973 147.25,99.32461207447341 153.97711864393204,118.04628787722322 163.54152542352676,117.61837158777053 170.5432203388773,115.53227449880796" stroke="#4DD2FF" stroke-linecap="round" stroke-linejoin="round" stroke-width="0.5"><title>2025-03-02 3.1km</title><desc>1740908689410</desc></polyline><polyline fill="none" points="32.23600931162946,170.25 31.312041902448982,167.70435185998213 23.194328234763816,167.62721086881356 21.34639341617003,158.67880059650633 13.558668108889833,143.17310597246978 13.888656469527632,142.2473824469489 47.28347854921594,130.67573936731787 51.441331891343,147.64741980441613 42.20165779790841,151.89027828915277 21.016405055765063,157.59881263179705 13.822658797260374,142.2473824469489 48.339441302930936,129.75 47.41547389351763,131.0614637574181 51.177341202739626,147.64741980441613 40.617713667918,152.044563588046" stroke="#4DD2FF" stroke-linecap="round" stroke-linejoin="round" stroke-width="0.5"><title>2024-12-01 3.0km</title><desc>1733059607886</desc></polyline><polyline fill="none" points="76.67857142863795,170.03783897007816 67.17857142910361,170.12132783600828 65.03571428591385,160.8540098751546 57.25,142.81999862578232 92.4642857145518,129.87867216399172 95.03571428591385,135.47269089281326 97.75,148.66439918754622 89.39285714318976,152.92243524320656 64.82142857182771,159.4346813141019 57.3928571427241,143.2374572417466 93.53571428591385,129.87867216399172 97.67857142863795,148.9148725317791 86.17857142863795,154.59224704274675 65.39285714318976,161.27145896712318 67.6071428572759,170.03783897007816 74.8928571427241,169.62039450765587" stroke="#4DD2FF" stroke-linecap="round" stroke-linejoin="round" stroke-width="0.5"><title>2024-11-03 3.4km</title><desc>1730641178795</desc></polyline><polyline fill="none" points="127.87653875327669,170.25 123.76116341119632,168.93106965895277 122.43362297792919,169.47415890963748 122.49999999976717,168.23281146091176 120.97332850191742,167.45696824009065 113.47272505634464,167.37938387301983 109.755611844128,154.50026534416247 103.71530287433416,141.93126929854043 137.2356988049578,129.82758834207198 141.81571329850703,147.51751631585648 132.1910451601725,151.629587667936 110.6185131254606,157.2157609286951 103.25066372309811,142.2416174695827 105.44110543699935,140.37952647608472 137.36845284793526,129.75 141.7493362769019,147.43992984259967 132.98756941989996,151.16407131182496 111.14952929853462,157.52610264183022 109.42372673586942,155.74163599975873 103.18428670126013,141.93126929854043 137.03656773990951,129.90517667564563 141.81571329850703,147.67268923774827 132.39017622498795,151.629587667936 111.74692249344662,157.52610264183022 111.2159063203726,161.17260795197217 112.5434467534069,167.30179949756712 121.7698527618777,166.91387749800924" stroke="yellow" stroke-linecap="round" stroke-linejoin="round" stroke-width="0.5"><title>2024-08-18 5.1km</title><desc>1723984957861</desc></polyline><polyline fill="none" points="165.33046120288782,170.25 167.75523985852487,168.83291214430938 166.47904056613334,165.70039205660578 161.310433432227,166.81915082596242 158.31136509520002,166.14789577684132 156.33325619227253,158.1673701965483 149.5055899778381,141.83311606192729 182.75058154342696,129.75 182.2401018263772,132.21139226440573 185.49441002192907,146.68122178839985 176.24196515232325,151.4547087509418 156.58849605056457,156.75025809393264 152.951328067109,150.78343909670366 149.3779700489249,141.83311606192729 181.28295235708356,130.2721142277005 183.6439210481476,136.5374548456748 185.55821998626925,146.7558077701251 177.64578437409364,151.0071957189357 156.39706615637988,156.60108823346673 149.25035011954606,142.2060484534013 179.68770324182697,130.6450527253328 181.8572420384735,130.94340338144684 185.7496498802211,147.27790942328284 175.54005554155447,151.6784651603084 157.22659569676034,156.52650329156313 156.52468608599156,157.79444623494055 158.43898502457887,165.77497602958465 164.11807187530212,166.07331184321083" stroke="yellow" stroke-linecap="round" stroke-linejoin="round" stroke-width="0.5"><title>2024-08-11 5.0km</title><desc>1723380974002</desc></polyline><polyline fill="none" points="27.77404526178725,216.92921482631937 20.670792079064995,217.5318225819501 18.72312588384375,210.16657739551738 30.466407354921103,205.81434683559928 27.888613861287013,190.0121508310549 52.75,179.9681774180499 42.209688825998455,184.65538481646217 42.03783592628315,187.3337734824163 44.84476661961526,199.85509037133306 35.793847241671756,204.14040404872503 18.436704384628683,208.5596034374903 12.536421499215066,196.44021029421128 13.223833097610623,194.49840753612807 28.63330975966528,189.6103949501412 50.344059406081215,180.77170114801265 42.55339462519623,183.98578588158125 41.52227722783573,185.25802325305995 44.787482319632545,199.72117385204183 36.653111739549786,203.67169927625218 18.608557284343988,208.4256887571537 12.25,195.90454116201727 15.400636491831392,193.8957778844633 40.949434229172766,184.7893045186065 46.849717114819214,208.02394454623573" stroke="yellow" stroke-linecap="round" stroke-linejoin="round" stroke-width="0.5"><title>2024-08-04 5.0km</title><desc>1722777733849</desc></polyline><polyline fill="none" points="63.35352112702094,218.98595101723913 67.11830985895358,217.185773284873 66.43380281701684,215.78563149936963 58.96126760565676,215.5856109909946 57.25,208.71820175478933 68.82957746484317,204.11766251706285 69.2288732395973,201.91739276825683 66.49084507022053,188.38223136827582 90.84788732370362,178.51404898276087 94.32746478868648,187.51543774473248 95.01197183108889,194.4497534040711 97.57887323945761,203.58426449430408 96.55211267597042,205.25113181874622 88.45211267587729,208.38483047304908 86.62676056334749,209.9850110199186 70.25563380285166,214.85220191726694 59.18943661963567,215.5856109909946 57.535211267415434,208.25148191099288 69.34295774670318,204.384361359349 65.86338028172031,188.71561321429908 90.56267605652101,178.8474360408727 94.49859154922888,187.71546714822762 97.75,204.384361359349 87.88169014081359,208.65152751258574 87.02605633810163,209.9183369113598 80.58028169022873,211.45183962432202 80.75140845100395,213.85209726192988 81.72112676058896,213.78542356204707 80.80845070420764,214.7855283228564 69.1147887322586,216.7190597014269 64.2091549297329,218.45256555761443 72.70845070434734,215.05222265829798 78.41267605638131,214.58550749730784 82.40563380299136,213.05201239680173 73.84929577470757,216.0523254123982" stroke="yellow" stroke-linecap="round" stroke-linejoin="round" stroke-width="0.5"><title>2024-07-28 5.0km</title><desc>1722171325984</desc></polyline><polyline fill="none" points="121.19475138094276,216.8400249684346 120.89640883961692,213.78876415640116 111.72237569047138,214.1374802486389 109.48480662982911,204.2861939362483 124.7748618782498,199.40409696969436 124.92403314914554,195.56814338092227 120.67265193350613,179.26514173095347 119.70303867384791,178.7420454369858 102.25,184.496086437779 120.44889502739534,179.43950708868215 128.57872928166762,209.6041595581919 127.23618784500286,212.21953991812188 121.71685082884505,213.5272269906127 122.08977900538594,216.05541612271918 137.08149171248078,211.95800225500716 139.31906077312306,213.0041524100816 142.75,211.2605680815759 120.44889502739534,217.27591844956623 127.90745856333524,214.22465924877906 133.8743093921803,213.87594319315394 142.07872928166762,210.5631333187921 139.6919889501296,212.65543583902763 126.41574585577473,215.09644874278456 120.29972375649959,217.71181170031196 125.52071823226288,214.83491199131822 137.30524861859158,212.21953991812188 138.87154696136713,212.82979414297733 141.10911602154374,211.08620944613358 142.6008287286386,210.9990301147336 140.2140883980319,212.3938983142143 127.8328729281202,214.92209091759287 116.94337016576901,218.7579545630142 138.051104972139,211.2605680815759 142.2279005520977,210.82467142411042 140.06491712667048,212.4810774983489 126.56491712713614,214.74773305555573 119.10635359119624,217.71181170031196 128.65331491688266,213.35286883387016 132.2334254141897,213.78876415640116 137.52900552470237,211.87082301574992 139.6174033144489,213.0041524100816 142.153314916417,211.34774738556007 134.9930939222686,213.96312222094275 131.04005524888635,214.1374802486389 133.35220994474366,213.0041524100816 138.79696132568642,212.82979414297733 142.153314916417,210.7374920649454 140.06491712667048,212.74261499545537" stroke="#4DD2FF" stroke-linecap="round" stroke-linejoin="round" stroke-width="0.5"><title>2024-07-21 4.9km</title><desc>1721568919550</desc></polyline><polyline fill="none" points="170.26342281885445,211.0348162279697 162.833892616909,213.15285222476814 160.3875838923268,209.97579655167647 151.05536912754178,210.18760057660984 147.7936241608113,199.5973445327254 147.97483221441507,197.9028931853245 168.54194630822167,191.65457909414545 165.82382550323382,183.28813145455206 166.45805369131267,191.33686716802185 170.35402684519067,205.2101941673318 151.41778523521498,210.39940455643227 149.87751677818596,209.34038420923753 147.25,198.6442160019651 147.52181208040565,195.78482497448567 166.27684563724324,190.27782668644795 165.18959731515497,183.28813145455206 166.45805369131267,191.1250591611606 171.1694630868733,203.5157523052767 169.90100671118125,206.37512128608068 151.05536912754178,209.8698945225915 149.6963087245822,208.91677575692302 147.25,198.9619256129954 148.42785234889016,195.9966319971718 165.18959731515497,190.8073470669333 165.46140939556062,184.7707981512649 170.44463087245822,203.83346037281444 169.81040268437937,206.69282844744157 151.14597315434366,209.97579655167647 147.52181208040565,200.33866609662073 147.52181208040565,196.7379562233109 165.73322147643194,190.70144301321125 167.63590604020283,192.71361812157556 170.44463087245822,205.7397066616104 162.1996644292958,209.55218836816493 163.0151006714441,213.15285222476814 176.6057046977803,208.28136274323333 187.75,206.58692607143894 163.92114093946293,211.56432564655552 160.84060402680188,214.21186854544794 171.62248322134838,210.7171104424633" stroke="#4DD2FF" stroke-linecap="round" stroke-linejoin="round" stroke-width="0.5"><title>2024-07-14 4.2km</title><desc>1720963947536</desc></polyline><polyline fill="none" points="12.25,252.53308461932465 37.853448275942355,243.82722355576698 52.28448275849223,242.05883833696134 50.306034482549876,241.10662990564015 45.99999999953434,244.64340053044725 23.887931033968925,248.31619051506277 13.762931033968925,252.26102735148743 13.530172413680702,253.89337009447627 26.099137930665165,247.90810325636994 52.75,241.92280860384926 46.23275862028822,245.18751822621562 25.400862068869174,248.0441323572304 17.37068965472281,251.9889700266067 15.275862068869174,251.71691264444962 25.16810344811529,247.36398670997005 51.469827585853636,241.10662990564015 45.65086206886917,244.9154594069114 39.017241379246116,245.0514888240723 15.275862068869174,251.8529413427459 36.224137930199504,243.82722355576698 41.69396551698446,244.23531210783403 51.469827585853636,241.51471931941342 48.32758620660752,244.09928260475863 24.353448275476694,247.7720741411904 14.228448275942355,252.26102735148743 22.491379310376942,249.26839361642487 29.590517241042107,242.6029571244726 33.89655172359198,245.32354761427268 45.06896551698446,243.55516444973182 35.176724137272686,246.9558991495287" stroke="#4DD2FF" stroke-linecap="round" stroke-linejoin="round" stroke-width="0.5"><title>2024-07-07 3.0km</title><desc>1720361789036</desc></polyline></svg>