<?xml version="1.0" encoding="utf-8" ?>
<svg baseProfile="full" height="300mm" version="1.1" viewBox="0,0,200,300" width="200mm" xmlns="http://www.w3.org/2000/svg" xmlns:ev="http://www.w3.org/2001/xml-events" xmlns:xlink="http://www.w3.org/1999/xlink"><defs /><rect fill="#222222" height="300" width="200" x="0" y="0" /><text fill="#FFFFFF" style="font-size:12px; font-family:Arial; font-weight:bold;" x="10" y="20">Runs</text><text fill="#FFFFFF" style="font-size:4px; font-family:Arial" x="10" y="280">Runner</text><text fill="#FFFFFF" style="font-size:9px; font-family:Arial" x="10" y="290">Jay</text><text fill="#FFFFFF" style="font-size:4px; font-family:Arial" x="65" y="280">SPECIAL TRACKS</text><rect fill="yellow" height="2.6" width="2.6" x="65" y="283" /><text fill="#FFFFFF" style="font-size:3px; font-family:Arial" x="70" y="285.5">Over 5.0 km</text><rect fill="red" height="2.6" width="2.6" x="65" y="287" /><text fill="#FFFFFF" style="font-size:3px; font-family:Arial" x="70" y="289.5">Over 10.0 km</text><text fill="#FFFFFF" style="font-size:4px; font-family:Arial" x="120" y="280">STATISTICS</text><text fill="#FFFFFF" style="font-size:3px; font-family:Arial" x="120" y="285">Number: 18</text><text fill="#FFFFFF" style="font-size:3px; font-family:Arial" x="120" y="290">Weekly: 1.1</text><text fill="#FFFFFF" style="font-size:3px; font-family:Arial" x="141" y="285">Total: 68.8 km</text><text fill="#FFFFFF" style="font-size:3px; font-family:Arial" x="141" y="290">Avg: 3.8 km</text><text fill="#FFFFFF" style="font-size:3px; font-family:Arial" x="167" y="285">Min: 2.1 km</text><text fill="#FFFFFF" style="font-size:3px; font-family:Arial" x="167" y="290">Max: 5.2 km</text><polyline fill="none" points="31.700412101112306,72.75 30.5676625771448,69.71257715905085 23.17147451126948,69.01163164980244 21.03924011392519,61.145419684413355 14.042845997260883,46.26948250859277 13.842949022073299,43.77714954485418 47.15911148255691,32.25 51.15705097769387,50.00796615850413 41.96179013885558,53.98008426773595 21.172504763584584,59.821395558305085 23.104842186439782,69.01163164980244 31.367250476498157,69.01163164980244 32.76652929978445,71.81540968909394 36.49793949513696,70.33563927467912" stroke="#4DD2FF" stroke-linecap="round" stroke-linejoin="round" stroke-width="0.5"><title>2025-05-07 2.1km</title><desc>1746628465614</desc></polyline><polyline fill="none" points="69.46286031068303,69.42579471023055 68.8342572064139,68.5860932552605 63.71563192922622,68.74353738620994 61.42572062113322,60.76630531731644 58.282705100020394,54.573365800693864 57.42960088723339,51.37190070041106 76.33259423519485,44.75897304908722 87.06374722858891,40.14036820002366 82.21452328166924,42.60712840463384 96.71729490021244,35.679175023542484 97.75,37.09626425630995 96.896895787213,35.574205289798556 80.32871396909468,43.55184183528763 80.14911308232695,45.17884408833925 82.61862527718768,55.41309093669406 75.43458980042487,58.457082657841966 61.784922394901514,62.07835886528483 57.25,52.15914812940173 57.87860310450196,51.16196784202475 60.79711751686409,50.11230221934966 57.60920177400112,51.26693428226281 57.42960088723339,52.26411435904447 61.60532150790095,61.65850210678764 64.92793791601434,61.186162829515524 61.964523281669244,62.13084093507496 63.53603104222566,68.3761676697759 69.28325942368247,68.5860932552605" stroke="#4DD2FF" stroke-linecap="round" stroke-linejoin="round" stroke-width="0.5"><title>2025-05-04 3.9km</title><desc>1746361657097</desc></polyline><polyline fill="none" points="115.29832713748328,69.54113070160383 111.7853159850929,70.18638493609615 109.02509293658659,69.54113070160383 107.6700743495021,63.0298869300168 102.45074349408969,52.17764433397679 102.50092936796136,50.41780122771161 126.64033457217738,41.97047668538289 142.75,34.81361506390385 128.0957249070052,41.67716449697036 130.55483271367848,54.81739853747422 122.8763940515928,58.10240846767556 107.56970260222442,62.20864355569938 102.25,51.297723477880936 102.60130111500621,50.300478155433666 105.210966542596,49.36189268680755 102.50092936796136,50.24181661027251 107.72026022267528,62.14998326811474 109.52695167274214,69.48247118853033 113.84293680288829,69.07185442373157" stroke="#4DD2FF" stroke-linecap="round" stroke-linejoin="round" stroke-width="0.5"><title>2025-05-02 3.2km</title><desc>1746193621188</desc></polyline><polyline fill="none" points="158.85393258417025,69.44128243639716 153.43876404501498,69.70722747585387 151.80056179780513,62.95217995237908 147.25,53.16517870139796 147.56853932584636,52.15455360675696 173.77977528073825,42.526918110088445 187.75,36.0374687804142 186.93089887616225,35.29277252414613 170.82191011216491,42.526918110088445 170.23033707868308,44.54820491740247 172.77865168522112,56.09066096280003 169.77528089866973,57.79275191226043 152.07359550567344,63.005369656922994 147.88707865169272,54.1758017676766 152.07359550567344,63.05855935587897 153.62078651692718,69.44128243639716 158.9904494381044,69.60084947687574" stroke="#4DD2FF" stroke-linecap="round" stroke-linejoin="round" stroke-width="0.5"><title>2025-05-01 3.2km</title><desc>1746105997674</desc></polyline><polyline fill="none" points="21.827279752818868,116.78007405789685 20.763137558009475,115.49967541344813 18.760046367999166,116.08500109537272 17.195131375687197,116.15816673604422 16.60046367859468,115.71917266011587 15.536321483901702,111.65845108075882 12.312596599920653,104.70755590280169 12.37519319949206,103.8295381674834 23.298299845540896,100.13452246997622 35.97411128284875,94.86631310524535 52.75,86.37847388847149 52.31182380230166,85.71992594210315 48.524729521013796,87.21994999729213 47.74227202485781,88.06142406136496 34.34659969096538,94.75655789126176 20.637944358750246,100.20769148026011 20.2936630602926,101.08571839757496 12.59428129834123,103.61003338583396 12.25,104.23196323911543 15.442426584311761,111.0731179183349 23.767774343141355,108.9146933327429 15.473724884097464,111.21945130164386 12.281298299902119,104.4514676265826 12.37519319949206,103.64661752572283 19.66769706341438,101.37839354205062 13.063755796058103,103.31736012728652 12.37519319949206,103.93929050609586 17.069938176195137,115.9020869260421" stroke="yellow" stroke-linecap="round" stroke-linejoin="round" stroke-width="0.5"><title>2025-04-20 5.2km</title><desc>1745154044961</desc></polyline><polyline fill="none" points="75.90030217403546,119.66998803167371 69.43343862146139,120.14738288673107 67.45934343198314,119.1130269850255 64.05573103600182,106.8597797784023 58.337662210455164,93.25366785429651 91.96535268286243,81.0 96.66233778954484,99.22129106003558 86.92800633702427,103.3588153970195 80.8695762718562,104.23405801772606 65.62139273807406,109.56505929277046 68.68464389443398,119.51085634616902 73.79006248852238,118.47649957041722 76.64909690106288,119.27215875469847 77.94246961129829,121.5 82.0948767347727,119.74955386191141" stroke="#4DD2FF" stroke-linecap="round" stroke-linejoin="round" stroke-width="0.5"><title>2025-03-23 2.1km</title><desc>1742729899087</desc></polyline><polyline fill="none" points="117.0708801264409,120.85829359246418 118.1689043706283,121.5 120.85296363383532,120.1452857577242 121.27997306222096,118.50536487950012 119.99894477729686,117.5784513168037 112.92278853757307,117.43584911723156 111.33675351808779,109.80658752651652 104.50460266578011,94.11998438695446 140.55639868113212,81.0 104.44360131910071,94.26259151170962 111.39775486500002,108.66575595294125 112.98378988425247,117.15064462798182 121.03596767457202,117.43584911723156 121.82898518419825,119.50357806222746 126.70909293578006,117.15064462798182 126.953098323429,118.14885981375119" stroke="#4DD2FF" stroke-linecap="round" stroke-linejoin="round" stroke-width="0.5"><title>2025-03-16 2.5km</title><desc>1742128080108</desc></polyline><polyline fill="none" points="152.86871508369222,109.24672574919532 150.00279329600744,107.79281478715711 148.5321229051333,105.63396796426969 147.25,96.6459959851345 147.9664804469794,94.44303217172273 150.49301675963216,92.72471233282704 157.506983240135,92.41629520338029 166.5572625696659,89.94894997088704 155.92318435758352,92.50441440645955 150.79469273728319,92.68065275688423 148.45670391060412,93.8702596774092 147.28770949714817,96.60193682281533 148.3435754191596,104.35627785514225 149.62569832406007,107.48440878119436 157.62011173181236,111.22932345312438 161.6173184355721,112.28670504831825 167.80167597765103,112.55105002911296 178.28491620114073,110.12788144580554 182.69692737422884,107.61658281157725 184.16759776510298,106.07454985458753 187.75,98.62865348529886 183.48882681550458,106.64730561728356 180.73603351949714,108.62991565593984 176.5502793295309,110.43628550053108 167.00977653637528,112.37482006047503 161.16480446909554,111.97830235946458 153.6229050278198,109.20266791561153 157.62011173181236,111.27338107291143 163.42737430147827,112.46293505409267 168.2164804469794,112.55105002911296 171.0824022346642,111.66989944296074 167.00977653637528,112.33076255681226 161.3156424581539,111.89018726380891 156.75279329600744,110.70063165196916 152.18994413409382,108.58585775730899 154.49022346362472,108.98237867790158" stroke="#4DD2FF" stroke-linecap="round" stroke-linejoin="round" stroke-width="0.5"><title>2025-03-08 4.9km</title><desc>1741407347536</desc></polyline><polyline fill="none" points="24.834745762636885,167.49165107647423 18.702542372746393,167.01024588634027 17.375423728721216,161.233347911475 12.38728813524358,150.37474096615915 12.753389830468222,149.30491487440304 40.211016949033365,139.4089163763274 52.33813559310511,133.73868954423233 52.75,133.20375920686638 52.15508474572562,132.50834892352577 34.94830508460291,140.42527107908973 12.25,148.0746120744734 18.977118643932045,166.79628787722322 28.541525423526764,166.36837158777053 35.54322033887729,164.28227449880796" stroke="#4DD2FF" stroke-linecap="round" stroke-linejoin="round" stroke-width="0.5"><title>2025-03-02 3.1km</title><desc>1740908689410</desc></polyline><polyline fill="none" points="77.23600931162946,170.25 76.31204190244898,167.70435185998213 68.19432823476382,167.62721086881356 66.34639341617003,158.67880059650633 58.55866810888983,143.17310597246978 58.88865646952763,142.2473824469489 92.28347854921594,130.67573936731787 96.441331891343,147.64741980441613 87.20165779790841,151.89027828915277 66.01640505576506,157.59881263179705 58.822658797260374,142.2473824469489 93.33944130293094,129.75 92.41547389351763,131.0614637574181 96.17734120273963,147.64741980441613 85.617713667918,152.044563588046" stroke="#4DD2FF" stroke-linecap="round" stroke-linejoin="round" stroke-width="0.5"><title>2024-12-01 3.0km</title><desc>1733059607886</desc></polyline><polyline fill="none" points="121.67857142863795,170.03783897007816 112.17857142910361,170.12132783600828 110.03571428591385,160.8540098751546 102.25,142.81999862578232 137.4642857145518,129.87867216399172 140.03571428591385,135.47269089281326 142.75,148.66439918754622 134.39285714318976,152.92243524320656 109.82142857182771,159.4346813141019 102.3928571427241,143.2374572417466 138.53571428591385,129.87867216399172 142.67857142863795,148.9148725317791 131.17857142863795,154.59224704274675 110.39285714318976,161.27145896712318 112.6071428572759,170.03783897007816 119.8928571427241,169.62039450765587" stroke="#4DD2FF" stroke-linecap="round" stroke-linejoin="round" stroke-width="0.5"><title>2024-11-03 3.4km</title><desc>1730641178795</desc></polyline><polyline fill="none" points="172.8765387532767,170.25 168.76116341119632,168.93106965895277 167.4336229779292,169.47415890963748 167.49999999976717,168.23281146091176 165.97332850191742,167.45696824009065 158.47272505634464,167.37938387301983 154.755611844128,154.50026534416247 148.71530287433416,141.93126929854043 182.2356988049578,129.82758834207198 186.81571329850703,147.51751631585648 177.1910451601725,151.629587667936 155.6185131254606,157.2157609286951 148.2506637230981,142.2416174695827 150.44110543699935,140.37952647608472 182.36845284793526,129.75 186.7493362769019,147.43992984259967 177.98756941989996,151.16407131182496 156.14952929853462,157.52610264183022 154.42372673586942,155.74163599975873 148.18428670126013,141.93126929854043 182.03656773990951,129.90517667564563 186.81571329850703,147.67268923774827 177.39017622498795,151.629587667936 156.74692249344662,157.52610264183022 156.2159063203726,161.17260795197217 157.5434467534069,167.30179949756712 166.7698527618777,166.91387749800924" stroke="yellow" stroke-linecap="round" stroke-linejoin="round" stroke-width="0.5"><title>2024-08-18 5.1km</title><desc>1723984957861</desc></polyline><polyline fill="none" points="30.330461202887818,219.0 32.755239858524874,217.58291214430938 31.479040566133335,214.45039205660578 26.310433432227,215.56915082596242 23.311365095200017,214.89789577684132 21.33325619227253,206.9173701965483 14.505589977838099,190.58311606192729 47.75058154342696,178.5 47.24010182637721,180.96139226440573 50.49441002192907,195.43122178839985 41.241965152323246,200.2047087509418 21.588496050564572,205.50025809393264 17.95132806710899,199.53343909670366 14.377970048924908,190.58311606192729 46.28295235708356,179.0221142277005 48.643921048147604,185.2874548456748 50.55821998626925,195.5058077701251 42.64578437409364,199.7571957189357 21.39706615637988,205.35108823346673 14.250350119546056,190.9560484534013 44.687703241826966,179.3950527253328 46.85724203847349,179.69340338144684 50.749649880221114,196.02790942328284 40.540055541554466,200.4284651603084 22.22659569676034,205.27650329156313 21.52468608599156,206.54444623494055 23.43898502457887,214.52497602958465 29.11807187530212,214.82331184321083" stroke="yellow" stroke-linecap="round" stroke-linejoin="round" stroke-width="0.5"><title>2024-08-11 5.0km</title><desc>1723380974002</desc></polyline><polyline fill="none" points="72.77404526178725,216.92921482631937 65.670792079065,217.5318225819501 63.72312588384375,210.16657739551738 75.4664073549211,205.81434683559928 72.88861386128701,190.0121508310549 97.75,179.9681774180499 87.20968882599846,184.65538481646217 87.03783592628315,187.3337734824163 89.84476661961526,199.85509037133306 80.79384724167176,204.14040404872503 63.43670438462868,208.5596034374903 57.536421499215066,196.44021029421128 58.22383309761062,194.49840753612807 73.63330975966528,189.6103949501412 95.34405940608121,180.77170114801265 87.55339462519623,183.98578588158125 86.52227722783573,185.25802325305995 89.78748231963255,199.72117385204183 81.65311173954979,203.67169927625218 63.60855728434399,208.4256887571537 57.25,195.90454116201727 60.40063649183139,193.8957778844633 85.94943422917277,184.7893045186065 91.84971711481921,208.02394454623573" stroke="yellow" stroke-linecap="round" stroke-linejoin="round" stroke-width="0.5"><title>2024-08-04 5.0km</title><desc>1722777733849</desc></polyline><polyline fill="none" points="108.35352112702094,218.98595101723913 112.11830985895358,217.185773284873 111.43380281701684,215.78563149936963 103.96126760565676,215.5856109909946 102.25,208.71820175478933 113.82957746484317,204.11766251706285 114.2288732395973,201.91739276825683 111.49084507022053,188.38223136827582 135.84788732370362,178.51404898276087 139.32746478868648,187.51543774473248 140.01197183108889,194.4497534040711 142.5788732394576,203.58426449430408 141.55211267597042,205.25113181874622 133.4521126758773,208.38483047304908 131.6267605633475,209.9850110199186 115.25563380285166,214.85220191726694 104.18943661963567,215.5856109909946 102.53521126741543,208.25148191099288 114.34295774670318,204.384361359349 110.86338028172031,188.71561321429908 135.562676056521,178.8474360408727 139.49859154922888,187.71546714822762 142.75,204.384361359349 132.8816901408136,208.65152751258574 132.02605633810163,209.9183369113598 125.58028169022873,211.45183962432202 125.75140845100395,213.85209726192988 126.72112676058896,213.78542356204707 125.80845070420764,214.7855283228564 114.1147887322586,216.7190597014269 109.2091549297329,218.45256555761443 117.70845070434734,215.05222265829798 123.41267605638131,214.58550749730784 127.40563380299136,213.05201239680173 118.84929577470757,216.0523254123982" stroke="yellow" stroke-linecap="round" stroke-linejoin="round" stroke-width="0.5"><title>2024-07-28 5.0km</title><desc>1722171325984</desc></polyline><polyline fill="none" points="166.19475138094276,216.8400249684346 165.89640883961692,213.78876415640116 156.72237569047138,214.1374802486389 154.4848066298291,204.2861939362483 169.7748618782498,199.40409696969436 169.92403314914554,195.56814338092227 165.67265193350613,179.26514173095347 164.7030386738479,178.7420454369858 147.25,184.496086437779 165.44889502739534,179.43950708868215 173.57872928166762,209.6041595581919 172.23618784500286,212.21953991812188 166.71685082884505,213.5272269906127 167.08977900538594,216.05541612271918 182.08149171248078,211.95800225500716 184.31906077312306,213.0041524100816 187.75,211.2605680815759 165.44889502739534,217.27591844956623 172.90745856333524,214.22465924877906 178.8743093921803,213.87594319315394 187.07872928166762,210.5631333187921 184.6919889501296,212.65543583902763 171.41574585577473,215.09644874278456 165.2997237564996,217.71181170031196 170.52071823226288,214.83491199131822 182.30524861859158,212.21953991812188 183.87154696136713,212.82979414297733 186.10911602154374,211.08620944613358 187.6008287286386,210.9990301147336 185.2140883980319,212.3938983142143 172.8328729281202,214.92209091759287 161.943370165769,218.7579545630142 183.051104972139,211.2605680815759 187.2279005520977,210.82467142411042 185.06491712667048,212.4810774983489 171.56491712713614,214.74773305555573 164.10635359119624,217.71181170031196 173.65331491688266,213.35286883387016 177.2334254141897,213.78876415640116 182.52900552470237,211.87082301574992 184.6174033144489,213.0041524100816 187.153314916417,211.34774738556007 179.9930939222686,213.96312222094275 176.04005524888635,214.1374802486389 178.35220994474366,213.0041524100816 183.79696132568642,212.82979414297733 187.153314916417,210.7374920649454 185.06491712667048,212.74261499545537" stroke="#4DD2FF" stroke-linecap="round" stroke-linejoin="round" stroke-width="0.5"><title>2024-07-21 4.9km</title><desc>1721568919550</desc></polyline><polyline fill="none" points="35.26342281885445,259.7848162279697 27.833892616908997,261.90285222476814 25.387583892326802,258.72579655167647 16.05536912754178,258.93760057660984 12.793624160811305,248.3473445327254 12.974832214415073,246.6528931853245 33.54194630822167,240.40457909414545 30.82382550323382,232.03813145455206 31.45805369131267,240.08686716802185 35.354026845190674,253.9601941673318 16.41778523521498,259.1494045564323 14.877516778185964,258.0903842092375 12.25,247.3942160019651 12.521812080405653,244.53482497448567 31.27684563724324,239.02782668644795 30.18959731515497,232.03813145455206 31.45805369131267,239.8750591611606 36.16946308687329,252.2657523052767 34.90100671118125,255.12512128608068 16.05536912754178,258.6198945225915 14.696308724582195,257.666775756923 12.25,247.7119256129954 13.427852348890156,244.7466319971718 30.18959731515497,239.5573470669333 30.461409395560622,233.5207981512649 35.44463087245822,252.58346037281444 34.81040268437937,255.44282844744157 16.145973154343665,258.72579655167647 12.521812080405653,249.08866609662073 12.521812080405653,245.4879562233109 30.733221476431936,239.45144301321125 32.635906040202826,241.46361812157556 35.44463087245822,254.4897066616104 27.199664429295808,258.30218836816493 28.015100671444088,261.90285222476814 41.60570469778031,257.03136274323333 52.75,255.33692607143894 28.92114093946293,260.3143256465555 25.840604026801884,262.96186854544794 36.622483221348375,259.4671104424633" stroke="#4DD2FF" stroke-linecap="round" stroke-linejoin="round" stroke-width="0.5"><title>2024-07-14 4.2km</title><desc>1720963947536</desc></polyline><polyline fill="none" points="57.25,252.53308461932465 82.85344827594236,243.82722355576698 97.28448275849223,242.05883833696134 95.30603448254988,241.10662990564015 90.99999999953434,244.64340053044725 68.88793103396893,248.31619051506277 58.762931033968925,252.26102735148743 58.5301724136807,253.89337009447627 71.09913793066517,247.90810325636994 97.75,241.92280860384926 91.23275862028822,245.18751822621562 70.40086206886917,248.0441323572304 62.37068965472281,251.9889700266067 60.27586206886917,251.71691264444962 70.16810344811529,247.36398670997005 96.46982758585364,241.10662990564015 90.65086206886917,244.9154594069114 84.01724137924612,245.0514888240723 60.27586206886917,251.8529413427459 81.2241379301995,243.82722355576698 86.69396551698446,244.23531210783403 96.46982758585364,241.51471931941342 93.32758620660752,244.09928260475863 69.3534482754767,247.7720741411904 59.228448275942355,252.26102735148743 67.49137931037694,249.26839361642487 74.59051724104211,242.6029571244726 78.89655172359198,245.32354761427268 90.06896551698446,243.55516444973182 80.17672413727269,246.9558991495287" stroke="#4DD2FF" stroke-linecap="round" stroke-linejoin="round" stroke-width="0.5"><title>2024-07-07 3.0km</title><desc>1720361789036</desc></polyline></svg>