<?xml version="1.0" encoding="utf-8" ?>
<svg baseProfile="full" height="300mm" version="1.1" viewBox="0,0,200,300" width="200mm" xmlns="http://www.w3.org/2000/svg" xmlns:ev="http://www.w3.org/2001/xml-events" xmlns:xlink="http://www.w3.org/1999/xlink"><defs /><rect fill="#222222" height="300" width="200" x="0" y="0" /><text fill="#FFFFFF" style="font-size:12px; font-family:Arial; font-weight:bold;" x="10" y="20">Runs</text><text fill="#FFFFFF" style="font-size:4px; font-family:Arial" x="10" y="280">Runner</text><text fill="#FFFFFF" style="font-size:9px; font-family:Arial" x="10" y="290">Jay</text><text fill="#FFFFFF" style="font-size:4px; font-family:Arial" x="65" y="280">SPECIAL TRACKS</text><rect fill="yellow" height="2.6" width="2.6" x="65" y="283" /><text fill="#FFFFFF" style="font-size:3px; font-family:Arial" x="70" y="285.5">Over 5.0 km</text><rect fill="red" height="2.6" width="2.6" x="65" y="287" /><text fill="#FFFFFF" style="font-size:3px; font-family:Arial" x="70" y="289.5">Over 10.0 km</text><text fill="#FFFFFF" style="font-size:4px; font-family:Arial" x="120" y="280">STATISTICS</text><text fill="#FFFFFF" style="font-size:3px; font-family:Arial" x="120" y="285">Number: 30</text><text fill="#FFFFFF" style="font-size:3px; font-family:Arial" x="120" y="290">Weekly: 1.3</text><text fill="#FFFFFF" style="font-size:3px; font-family:Arial" x="141" y="285">Total: 120.5 km</text><text fill="#FFFFFF" style="font-size:3px; font-family:Arial" x="141" y="290">Avg: 4.0 km</text><text fill="#FFFFFF" style="font-size:3px; font-family:Arial" x="167" y="285">Min: 2.1 km</text><text fill="#FFFFFF" style="font-size:3px; font-family:Arial" x="167" y="290">Max: 5.2 km</text><polyline fill="none" points="23.199371728114784,60.37278790966957 23.301151832565665,61.24519621935906 23.16544502635952,60.33313293836545 21.197696335148066,61.086576677451376 20.5191623037681,59.658997784834355 16.583664921694435,59.698652827355545 15.226596858818084,54.62277334014652 11.800000000046566,47.326076348661445 11.935706806485541,46.41397925335332 23.301151832565665,42.72591188093065 42.06261780112982,34.75480378064094 44.20000000006985,44.51046513370238 25.91350785351824,51.846872719353996 15.226596858818084,54.543462178640766 16.821151832700707,59.698652827355545 19.535287958336994,59.10382674948778 21.02806282741949,59.57968768721912 24.793926701764576,58.667620360298315" stroke="#4DD2FF" stroke-linecap="round" stroke-linejoin="round" stroke-width="0.5"><title>2025-07-13 3.1km</title><desc>1752403896095</desc></polyline><polyline fill="none" points="55.58683385583572,61.43516854860354 57.14420062699355,60.80201635425328 57.14420062699355,60.20843520012568 56.4670846395893,59.37742000471917 52.607523511047475,59.61485310582793 51.42257053300273,55.103598456131294 47.800000000046566,47.34727926910273 47.93542319757398,46.437088428850984 67.09780564263929,39.630373780964874 78.33793103438802,34.64398107698071 79.25203761737794,37.09761117826565 78.94733542308677,38.047399160976056 80.19999999995343,44.33968372599338 69.26457680249587,49.128081038972596 67.2332288401667,49.44466713411384 61.782445141114295,51.858627312933095 51.354858934064396,54.66829908132786 48.273981191334315,48.732348043937236 47.96927899692673,46.437088428850984 64.79561128525529,40.58015534238075 77.7623824449256,34.564831451367354 78.57492162997369,34.68355588361737 80.19999999995343,44.26053614879493 61.748589341761544,51.97734626458259 51.38871473353356,54.66829908132786 52.573667711694725,59.416992198792286 54.50344827596564,59.416992198792286" stroke="yellow" stroke-linecap="round" stroke-linejoin="round" stroke-width="0.5"><title>2025-07-06 5.2km</title><desc>1751801165138</desc></polyline><polyline fill="none" points="90.6727272728458,60.426083032391034 88.40438871481456,60.426083032391034 87.15172413783148,55.40038202019059 83.80000000004657,48.55423989184783 84.00313479627948,47.327461322100135 96.73291536059696,43.053491701954044 113.66081504710019,35.57392753503518 114.57492163020652,35.653077144001145 116.20000000006985,45.26963018413517 107.46520376193803,49.22698772457079 94.83699059579521,53.184303464047844 91.99310344830155,54.608926897722995 87.42257053300273,55.63781823092722 84.07084639498498,48.94997405735194 83.90156739810482,47.36703488699277 102.65768025093712,40.797765855211765 114.60877742967568,35.41562826704467 115.5905956113711,39.09606894760509 115.2181818181416,39.768833765148884 116.16614420083351,45.309203966346104 109.69968652050011,48.316799191816244 91.78996865206864,54.64849969360512 87.28714733547531,55.51910014433088 86.61003134807106,54.01533445864334 88.50595611287281,60.426083032391034 89.21692789974622,60.58437173295533" stroke="yellow" stroke-linecap="round" stroke-linejoin="round" stroke-width="0.5"><title>2025-06-29 5.1km</title><desc>1751195618015</desc></polyline><polyline fill="none" points="126.83908523921855,61.30628550963593 129.43243243242614,60.479592226678506 128.55675675685052,59.21986560311052 124.4814968816936,59.613530630391324 123.47110187122598,55.28319246254978 119.90103950118646,47.80339894077042 119.80000000004657,46.661733040673425 130.51018711028155,43.0005050112959 149.57297297311015,34.69371449033497 150.78544698550832,35.992892995040165 152.20000000006985,44.41775883777882 140.04158004163764,49.37810478848405 139.36798336799257,50.952803982945625 140.10893970902544,56.3854651330621 136.97671517671552,57.5271012482408 137.38087318104226,58.70810044615064 136.6399168401258,59.180499077483546 133.13721413724124,60.04656167997746 131.7900207900675,59.73163005738752 132.22785862802994,60.007195241807494 131.99209979223087,59.180499077483546 131.72266112279613,59.81036298800609 132.16049896052573,59.49543116582208" stroke="#4DD2FF" stroke-linecap="round" stroke-linejoin="round" stroke-width="0.5"><title>2025-06-14 2.8km</title><desc>1749897609635</desc></polyline><polyline fill="none" points="164.38143899885472,61.03203368006507 160.5974973931443,60.913564757298445 159.2460896767443,55.9378361076233 155.80000000004657,48.71106466115452 156.17163712205365,47.723789956828114 174.34807090717368,41.32618668611394 185.80125130352098,36.03425927014905 186.71345151215792,36.98207267271937 187.35537017742172,39.35159566521179 188.20000000006985,45.78872397352825 179.95641293027438,49.500882547319634 175.49676746607292,50.76458769477904 173.23315954138525,41.8000869792304 187.62565172079485,34.96796631990583 173.0304483838845,42.19500343129039 174.9562043796759,50.883059833344305 174.04400417103898,51.554401242901804 169.7532846715767,53.252494721178664 159.41501564125065,56.01681644463679 155.83378519280814,48.86902837181697 155.86757038580254,48.039718145824736 172.65881126187742,42.03703690049588 176.03733055258635,55.5429341722338" stroke="yellow" stroke-linecap="round" stroke-linejoin="round" stroke-width="0.5"><title>2025-06-03 5.1km</title><desc>1748956863854</desc></polyline><polyline fill="none" points="19.574789916048758,100.91130241967039 16.035294117755257,101.08810252058902 14.613445378374308,96.20838546153391 11.800000000046566,90.23240318836179 11.860504201613367,89.38373433338711 28.438655462116003,83.51371584655135 44.20000000006985,75.91082805921906 43.98823529400397,75.27429938709247 38.270588235231116,78.2447561675508 38.45210084039718,78.7751921043382 37.33277310919948,79.48243871267186 27.65210084046703,84.0441434343229 29.557983193313703,91.89437346390332 36.213445378118195,89.31301183166215 40.66050420165993,87.04988388827769 38.66386554623023,78.88127919082763 27.289075630251318,84.2916760208318 28.98319327738136,92.10653928809916 25.957983193336986,93.6270570937777 18.606722689117305,96.06694332661573 14.946218487573788,96.73879293503705 12.223529411945492,91.29323623157688 11.921008403529413,89.41909557854524 12.40504201699514,89.20692805098952 11.800000000046566,90.02023617629311 15.036974790040404,96.77415340335574 16.00504201685544,100.84058235317934 19.514285714365542,100.73450222538668 20.028571428731084,100.98202247126028 20.45210084039718,102.32570061288425 20.99663865554612,102.21962095564231" stroke="yellow" stroke-linecap="round" stroke-linejoin="round" stroke-width="0.5"><title>2025-05-25 5.1km</title><desc>1748170625707</desc></polyline><polyline fill="none" points="54.84609665442258,102.40363249546499 56.201115241623484,101.87569894117769 55.80966542765964,100.96061213247594 54.2739776953822,101.27737323523615 52.01561338303145,100.85502503134194 50.81115241639782,96.45553274377016 47.800000000046566,89.27543657648494 58.91115241649095,85.61493584839627 67.6434944239445,82.05998799591907 80.20000000006985,75.75954169020406 80.04944237926975,75.19636750454083 68.6672862455016,80.82806652446743 68.84795539046172,81.70801089744782 63.698884758516215,83.89026291429764 65.32490706327371,91.42244233153178 64.3011152416002,92.54873490045429 60.44684014876839,94.09738096679212 51.26282527879812,96.63151355047012 47.890334572526626,90.08496496125008 48.01078066916671,89.20504271093523 63.75910780671984,83.78467040380929 74.71970260224771,78.78658662893577 76.67695167299826,87.48038835966145 60.898513011285104,93.99179169096169 55.65910780674312,95.39964595166384" stroke="yellow" stroke-linecap="round" stroke-linejoin="round" stroke-width="0.5"><title>2025-05-24 5.2km</title><desc>1748085426224</desc></polyline><polyline fill="none" points="90.5097014924977,102.54270511260256 92.23246268660296,101.83616758219432 91.96044776134659,100.91766656149412 87.9104477611836,100.81168551213341 86.88283582078293,96.57241600332782 83.80000000004657,90.10742655105423 83.83022388070822,88.97692375537008 99.51641791057773,83.50099675514502 108.8555970150046,79.40282498521265 116.19999999995343,75.516581224947 115.7466417910764,75.05729488743236 110.48768656724133,77.77767399768345 110.45746268657967,78.48426235394436 109.55074626870919,79.04953196406132 99.00261194037739,84.10158667471842 100.69514925370459,92.05046930297976 96.49402985081542,93.78153424651828 86.88283582078293,96.43110609441646 88.06156716425903,100.70570442927419 91.02350746281445,100.74103146063862" stroke="#4DD2FF" stroke-linecap="round" stroke-linejoin="round" stroke-width="0.5"><title>2025-05-18 3.3km</title><desc>1747570670414</desc></polyline><polyline fill="none" points="130.94870848732535,101.56958271478652 128.49778597790282,102.2682994606439 127.60110701119993,100.76605663241935 124.16383763845079,101.01060825542663 122.69926199270412,96.0496685350081 119.85977859806735,90.28510286356322 119.82988929899875,89.2719263949839 138.18191881943494,82.73861049409606 152.20000000006985,75.9955341424793 151.81143911438994,75.33170053933281 146.1025830260478,78.1966570817458 146.13247232488357,78.96529973647557 142.69520295213442,80.81702243219479 135.61143911455292,83.96143344781012 137.25535055366345,91.3681501391693 136.86678966798354,91.8572671013244 134.77453874563798,84.24093520242604 146.28191881929524,78.86048493415001 146.042804428027,78.30147209443385 140.5431734318845,80.92183661437593 140.57306273072027,81.55072100981488 138.9889298893977,82.45910746994196 135.61143911455292,83.89155797226704 137.07601476029959,91.75245638465276 136.56789667916019,91.64764563471545 134.77453874563798,84.24093520242604 127.7804428046802,86.86125266458839 127.1228782288963,86.26731585926609 119.80000000004657,88.57318219452281 120.00922509247903,89.97066911921138 123.14760147617199,96.67852416692767 123.83505535067525,99.47342362152995" stroke="yellow" stroke-linecap="round" stroke-linejoin="round" stroke-width="0.5"><title>2025-05-17 5.1km</title><desc>1747484576135</desc></polyline><polyline fill="none" points="163.10387736698613,101.65732823949656 164.15563570777886,101.31584553778521 163.10387736698613,100.22309846841381 159.9193868349539,100.32554366305703 158.72155094670597,95.95451983774547 155.80000000004657,89.77351809380343 155.97529305680655,89.02222805915517 172.1022542831488,83.28504658510792 187.2066726781195,75.94267176050926 188.20000000006985,78.77718971189461 187.2943192066159,76.01097369001945 170.69990982871968,84.17295037736767 172.2483318304876,91.24194357494707 172.62813345354516,91.2760929253709 171.07971145177726,83.79729907057481 185.62903516704682,76.79644484343589 170.75834084756207,84.03634995271568 172.1314697926864,91.92492989820312 168.01208295766264,93.6665384923399 159.01370604138356,96.12526406496181 160.1823264202103,100.15480165398913 163.6297565374989,100.15480165398913 164.44779080257285,101.07680743193487 168.8885482416954,99.81331736521679" stroke="yellow" stroke-linecap="round" stroke-linejoin="round" stroke-width="0.5"><title>2025-05-11 5.2km</title><desc>1746960817262</desc></polyline><polyline fill="none" points="21.63374858442694,143.90376955704414 22.03737259353511,142.74578237711103 21.52366930921562,142.0166776436963 16.937032842775807,142.23112034820952 15.579388448735699,137.0844641836302 11.800000000046566,128.9783484431391 11.910079275257885,128.0776589269226 31.430804077070206,121.21519700996578 44.200000000186265,115.2962304429675 24.385730464477092,124.13175749679795 11.910079275257885,127.99187886880827 15.579388448735699,136.74135145323817 17.267270668409765,142.53133994431118 25.486523216357455,141.37334885066957 33.74246885627508,138.49980113166384 34.953340883599594,142.53133994431118" stroke="#4DD2FF" stroke-linecap="round" stroke-linejoin="round" stroke-width="0.5"><title>2025-05-10 3.3km</title><desc>1746881233572</desc></polyline><polyline fill="none" points="56.655597014934756,142.72446071560262 55.627985074650496,141.62932482539327 54.9932835821528,142.08857579657342 52.031343283713795,141.45268966862932 51.06417910452001,137.8846395278524 47.800000000046566,130.0418608817272 64.12089552241378,124.2126495000557 80.20000000006985,116.47553928437992 63.335074626957066,124.60126675313222 64.57425373129081,132.7267967966327 60.675373134436086,134.63450132252183 51.06417910452001,137.24874540767632 51.940671641845256,141.4173626260017 55.08395522402134,141.48801670741523" stroke="#4DD2FF" stroke-linecap="round" stroke-linejoin="round" stroke-width="0.5"><title>2025-05-09 3.2km</title><desc>1746800655160</desc></polyline><polyline fill="none" points="99.36032968084328,145.79999999998836 98.45413006166928,143.37006172724068 92.53717960906215,142.8093053198536 90.83139209123328,136.51633574755397 85.23427679762244,124.6155860068975 85.07435921765864,122.62171963590663 111.7272891860921,113.40000000002328 114.92564078210853,127.60637292679166 107.56943211099133,130.78406741423532 90.9380038108211,135.45711644663243 92.48387374915183,142.8093053198536 99.09380038129166,142.8093053198536 100.21322343987413,145.05232775129844 103.19835159601644,143.8685114197433" stroke="#4DD2FF" stroke-linecap="round" stroke-linejoin="round" stroke-width="0.5"><title>2025-05-07 2.1km</title><desc>1746628465614</desc></polyline><polyline fill="none" points="129.57028824836016,143.14063576818444 129.06740576494485,142.4688746042084 124.97250554338098,142.5948299089796 123.14057649672031,136.21304425387643 120.62616407987662,131.25869264057837 119.94368070969358,128.69752056035213 135.06607538787648,123.40717843928724 143.65099778259173,119.71229456004221 139.77161862514913,121.6857027237129 151.37383592012338,116.14334001883981 152.19999999995343,117.27701140506542 151.51751662953757,116.0593642318563 138.26297117513604,122.44147346823593 138.11929046572186,123.7430752706714 140.09490022156388,131.9304727493727 134.3476718403399,134.3656661262794 123.42793791578151,137.2626870922395 119.80000000004657,129.32731850352138 120.30288248346187,128.5295742736198 122.63769401330501,127.68984177548555 120.08736141910776,128.61354742580443 119.94368070969358,129.41129148722393 123.2842572061345,136.92680168541847 125.94235033262521,136.54893026361242 123.5716186251957,137.30467274808325 124.82882483373396,142.30093413582654 129.42660753871314,142.4688746042084" stroke="#4DD2FF" stroke-linecap="round" stroke-linejoin="round" stroke-width="0.5"><title>2025-05-04 3.9km</title><desc>1746361657097</desc></polyline><polyline fill="none" points="166.23866170994006,143.23290456132963 163.42825278802775,143.74910794888274 161.220074349083,143.23290456132963 160.13605947955512,138.02390954404837 155.96059479517862,129.34211546721053 156.0007434943691,127.93424098216929 175.31226765783504,121.17638134834124 188.19999999995343,115.4508920511289 176.47657992551103,120.94173159758793 178.44386617094278,131.45391883002594 172.30111524136737,134.08192677417537 160.05576208163984,137.36691484457697 155.80000000004657,128.63817878236296 156.08104089205153,127.84038252438768 158.16877323412336,127.08951414946932 156.0007434943691,127.79345328823547 160.1762081780471,137.31998661451507 161.62156133819371,143.18597695085919 165.07434944226407,142.85748353903182" stroke="#4DD2FF" stroke-linecap="round" stroke-linejoin="round" stroke-width="0.5"><title>2025-05-02 3.2km</title><desc>1746193621188</desc></polyline><polyline fill="none" points="21.083146067569032,183.95302594912937 16.751011236105114,184.16578198067145 15.44044943829067,178.76174396189163 11.800000000046566,170.93214296113 12.054831460816786,170.1236428853881 33.02382022468373,162.42153448806494 44.200000000186265,157.22997502432554 43.54471910116263,156.6342180193169 30.657528089825064,162.42153448806494 30.184269662946463,164.03856393392198 32.22292134840973,173.2725287702342 29.820224719122052,174.63420152981416 15.658876404631883,178.8042957255093 12.309662921354175,171.74064141412964 15.658876404631883,178.84684748470318 16.896629213588312,183.95302594912937 21.192359550623223,184.0806795815006" stroke="#4DD2FF" stroke-linecap="round" stroke-linejoin="round" stroke-width="0.5"><title>2025-05-01 3.2km</title><desc>1746105997674</desc></polyline><polyline fill="none" points="55.46182380232494,182.82405924631166 54.61051004647743,181.79974033075268 53.00803709437605,182.26800087629817 51.75610510061961,182.3265333888412 51.280370942899026,181.97533812810434 50.42905718716793,178.72676086460706 47.850077279959805,173.1660447222239 47.900154559640214,172.4636305339809 56.638639876502566,169.5076179759635 66.779289026279,165.29305048417882 80.20000000006985,158.50277911077137 79.84945904184133,157.9759407536767 76.81978361681104,159.17595999783953 76.19381761993282,159.8491392490978 65.47727975284215,165.2052463130094 54.5103554870002,169.56615318419063 54.2349304483505,170.2685747180658 48.07542503881268,172.288026708673 47.800000000046566,172.7855705912807 50.35394126747269,178.25849433467374 57.014219474513084,176.53175466618268 50.378979907371104,178.3755610413209 47.82503863994498,172.96117410124862 47.900154559640214,172.31729402055498 53.734157650731504,170.50271483365213 48.4510046368232,172.05388810182922 47.900154559640214,172.55143240487087 51.65595054102596,182.12166954082204" stroke="yellow" stroke-linecap="round" stroke-linejoin="round" stroke-width="0.5"><title>2025-04-20 5.2km</title><desc>1745154044961</desc></polyline><polyline fill="none" points="98.7202417391818,185.13599042524584 93.54675089707598,185.5179063093383 91.96747474558651,184.6904215879622 89.24458482861519,174.88782382267527 84.67012976831757,164.00293428340228 111.57228214619681,154.19999999995343 115.3298702314496,168.7770328479819 107.54240506957285,172.08705231756903 102.6956610174384,172.7872464141692 90.49711419036612,177.05204743414652 92.94771511550061,185.0086850769003 97.03204999072477,184.18119965633377 99.31927752075717,184.8177270037122 100.35397568903863,186.59999999997672 103.67590138758533,185.1996430894942" stroke="#4DD2FF" stroke-linecap="round" stroke-linejoin="round" stroke-width="0.5"><title>2025-03-23 2.1km</title><desc>1742729899087</desc></polyline><polyline fill="none" points="131.65670410101302,186.08663487393642 132.53512349631637,186.59999999997672 134.68237090692855,185.5162286061095 135.02397844963707,184.20429190353025 133.99915582174435,183.46276105340803 128.33823082991876,183.34867929376196 127.0694028143771,177.24527002114337 121.60368213243783,164.69598750950536 150.44511894485913,154.20000000001164 121.55488105514087,164.8100732093444 127.11820389190689,176.33260476228315 128.38703190744855,183.12051570235053 134.82877413951792,183.34867929376196 135.46318814717233,185.0028624497936 139.36727434862405,183.12051570235053 139.56247865851037,183.91908785095438" stroke="#4DD2FF" stroke-linecap="round" stroke-linejoin="round" stroke-width="0.5"><title>2025-03-16 2.5km</title><desc>1742128080108</desc></polyline><polyline fill="none" points="160.29497206723318,176.7973805993679 158.00223463703878,175.63425182976061 156.82569832424633,173.90717437144485 155.80000000004657,166.71679678812507 156.37318435765337,164.9544257374073 158.3944134080084,163.5797698662791 164.0055865922477,163.33303616271587 171.24581005598884,161.35915997670963 162.73854748613667,163.40353152519674 158.6357541900361,163.5445222055132 156.765363128623,164.49620774193318 155.83016759785824,166.68154945829883 156.67486033542082,172.8850222841429 157.70055865950417,175.3875270249846 164.0960893855663,178.38345876251697 167.29385474871378,179.2293640386779 172.24134078226052,179.44084002330783 180.62793296098243,177.50230515666772 184.15754189959262,175.49326624927926 185.33407821226865,174.25963988367585 188.20000000006985,168.30292278827983 184.79106145258993,174.71784449386178 182.58882681571413,176.30393252478098 179.24022346374113,177.7490284004307 171.6078212291468,179.2998560483975 166.93184357543942,178.98264188758912 160.89832402253523,176.76213433250086 164.0960893855663,178.4187048583699 168.741899441462,179.37034804330324 172.57318435772322,179.44084002330783 174.8659217878012,178.7359195543977 171.6078212291468,179.2646100454731 167.0525139666861,178.91214981107623 163.40223463694565,177.9605053215928 159.75195530743804,176.2686862058763 161.5921787711559,176.58590294234455" stroke="#4DD2FF" stroke-linecap="round" stroke-linejoin="round" stroke-width="0.5"><title>2025-03-08 4.9km</title><desc>1741407347536</desc></polyline><polyline fill="none" points="21.867796610109508,225.19332086117356 16.962033898336813,224.80819670905476 15.900338982930407,220.18667832916253 11.909830508287996,211.49979277292732 12.202711864374578,210.6439318995108 34.16881355922669,202.7271331010561 43.87050847453065,198.19095163539168 44.199999999953434,197.76300736548728 43.72406779672019,197.20667913879151 29.95864406763576,203.54021686327178 11.800000000046566,209.6596896595729 17.181694915285334,224.63703030176111 24.833220338914543,224.29469727020478 30.434576271334663,222.6258195990231" stroke="#4DD2FF" stroke-linecap="round" stroke-linejoin="round" stroke-width="0.5"><title>2025-03-02 3.1km</title><desc>1740908689410</desc></polyline><polyline fill="none" points="63.7888074493967,227.40000000002328 63.04963352181949,225.36348148802062 56.55546258762479,225.3017686950625 55.077114732936025,218.14304047724 48.84693448711187,205.73848477797583 49.11092517571524,204.99790595757077 75.82678283937275,195.74059149390087 79.15306551288813,209.31793584354455 71.76132623828016,212.71222263132222 54.813124044565484,217.2790501054842 49.05812703771517,204.99790595757077 76.67155304225162,195.0 75.93237911490723,196.04917100595776 78.941872962052,209.31793584354455 70.49417093442753,212.83565087046009" stroke="#4DD2FF" stroke-linecap="round" stroke-linejoin="round" stroke-width="0.5"><title>2024-12-01 3.0km</title><desc>1733059607886</desc></polyline><polyline fill="none" points="99.34285714291036,227.2302711760276 91.74285714305006,227.2970622688299 90.02857142873108,219.8832079001004 83.80000000004657,205.4559989005793 111.97142857150175,195.10293773119338 114.02857142873108,199.57815271423897 116.19999999995343,210.13151935004862 109.51428571436554,213.53794819454197 89.8571428572759,218.74774505128153 83.91428571403958,205.789965793374 112.82857142877765,195.10293773119338 116.1428571427241,210.33189802541165 106.9428571430035,214.87379763415083 90.31428571417928,220.2171671736869 92.08571428572759,227.2302711760276 97.91428571403958,226.89631560607813" stroke="#4DD2FF" stroke-linecap="round" stroke-linejoin="round" stroke-width="0.5"><title>2024-11-03 3.4km</title><desc>1730641178795</desc></polyline><polyline fill="none" points="140.30123100266792,227.40000000002328 137.00893072900362,226.3448557271622 135.94689838262275,226.77932712773327 136.0,225.78624916874105 134.7786628017202,225.16557459207252 128.77818004530855,225.10350709839258 125.8044894754421,214.80021227535326 120.97224229946733,204.7450154388207 147.7885590440128,195.06207067368086 151.4525706388522,209.21401305269683 143.75283612823114,212.5036701343488 126.49481050064787,216.97260874294443 120.60053097852506,204.99329397565452 122.35288434987888,203.50362118083285 147.89476227853447,195.0 151.39946902170777,209.15194387407973 144.39005553605966,212.13125704944832 126.91962343896739,217.2208821134991 125.53898138878867,215.79330879979534 120.5474293611478,204.7450154388207 147.62925419211388,195.12414134055143 151.4525706388522,209.33815139019862 143.91214098013006,212.5036701343488 127.397537994897,217.2208821134991 126.97272505657747,220.13808636157773 128.03475740272552,225.04143959807698 135.41588220954873,224.73110199841904" stroke="yellow" stroke-linecap="round" stroke-linejoin="round" stroke-width="0.5"><title>2024-08-18 5.1km</title><desc>1723984957861</desc></polyline><polyline fill="none" points="170.2643689622637,227.40000000002328 172.2041918868199,226.26632971549407 171.18323245295323,223.76031364529626 167.0483467457816,224.65532066079322 164.64909207634628,224.11831662151963 163.0666049537249,217.73389615723863 157.60447198245674,204.6664928495884 184.20046523492783,195.0000000000582 183.79208146128803,196.9691138115595 186.39552801754326,208.5449774307781 178.99357212195173,212.36376700078836 163.2707968405448,216.60020647518104 160.3610624538269,211.82675127737457 157.5023760390468,204.6664928495884 183.0263618857134,195.41769138217205 184.91513683856465,200.42996387655148 186.44657598924823,208.60464621614665 180.11662749946117,212.00575657520676 163.11765292519704,216.48087058681995 157.40028009563684,204.9648387627676 181.7501625935547,195.7160421803128 183.48579363082536,195.95472270523896 186.59971990413032,209.0223275386379 178.432044433197,212.54277212830493 163.7812765573617,216.42120263329707 163.21974886883982,217.435556987999 164.75118801975623,223.81998082372593 169.29445750033483,224.0586494745803" stroke="yellow" stroke-linecap="round" stroke-linejoin="round" stroke-width="0.5"><title>2024-08-11 5.0km</title><desc>1723380974002</desc></polyline><polyline fill="none" points="24.219236209522933,266.54337186107296 18.53663366334513,267.0254580655601 16.978500707075,261.13326191646047 26.373125883983448,257.65147746846196 24.31089108902961,245.00972066484974 44.199999999953434,236.9745419344399 35.7677510608919,240.72430785317556 35.63026874116622,242.86701878596796 37.87581329559907,252.884072297049 30.63507779338397,256.31232323899167 16.749363507842645,259.84768275002716 12.029137199278921,250.1521682353923 12.57906647818163,248.59872602892574 24.90664780768566,244.68831596014206 42.275247524958104,237.6173609184334 36.04271570011042,240.18862870524754 35.21782178222202,241.20641860246542 37.829985855612904,252.7769390816684 31.322489391779527,255.9373594210192 16.886845827568322,259.7405510057288 11.800000000046566,249.7236329296138 14.320509193465114,248.11662230757065 34.75954738329165,240.8314436148794 39.47977369185537,259.41915563700604" stroke="yellow" stroke-linecap="round" stroke-linejoin="round" stroke-width="0.5"><title>2024-08-04 5.0km</title><desc>1722777733849</desc></polyline><polyline fill="none" points="52.682816901709884,268.1887608137913 55.694647887256,266.7486186278693 55.14704225375317,265.62850519950734 49.16901408461854,265.4684887928015 47.800000000046566,259.97456140379654 57.0636619720608,256.29413001364446 57.38309859158471,254.5339142146113 55.192676056409255,243.70578509461484 74.67830985900946,235.8112391862087 77.46197183104232,243.01235019578598 78.0095774650108,248.5598027232627 80.06309859151952,255.86741159541998 79.2416901406832,257.20090545501444 72.76169014093466,259.70786437846255 71.30140845081769,260.9880088159407 58.2045070421882,264.8817615338194 49.35154929570854,265.4684887928015 48.02816901402548,259.6011855287652 57.47436619736254,256.50748908746755 54.69070422532968,243.97249057143927 74.45014084526338,236.0779488327098 77.59887323947623,243.1723737185821 80.19999999995343,256.50748908746755 72.305352112744,259.9212220100744 71.62084507057443,260.93466952908784 66.46422535227612,262.1614716994809 66.60112676071003,264.08167780956137 67.3769014084246,264.02833884963184 66.64676056336612,264.82842265829095 57.29183098603971,266.3752477611706 53.367323943879455,267.7620524460799 60.16676056338474,265.0417781266442 64.73014084505849,264.6684059978579 67.92450704239309,263.4416099174414 61.07943661976606,265.8418603299069" stroke="yellow" stroke-linecap="round" stroke-linejoin="round" stroke-width="0.5"><title>2024-07-28 5.0km</title><desc>1722171325984</desc></polyline><polyline fill="none" points="98.95580110489391,266.4720199747826 98.71712707192637,264.03101132513257 91.37790055247024,264.30998419894604 89.58784530381672,256.42895514902193 101.81988950259984,252.52327757579042 101.93922651931643,249.4545147047611 98.53812154661864,236.41211338475114 97.7624309391249,235.99363634962356 83.80000000004657,240.59686915029306 98.3591160220094,236.55160567094572 104.86298342514783,260.6833276465768 103.78895027609542,262.7756319345208 99.37348066293634,263.8217815925018 99.67182320449501,265.84433289821027 111.66519336984493,262.56640180404065 113.45524861849844,263.40332192811184 116.19999999995343,262.0084544653073 98.3591160220094,266.82073475967627 104.32596685085446,264.3797273990349 109.09944751369767,264.1007545545581 115.66298342542723,261.4505066550919 113.75359116005711,263.12434867123375 103.13259668485261,265.077158994216 98.23977900552563,267.1694493602845 102.41657458571717,264.86792959307786 111.84419889491983,262.7756319345208 113.09723756904714,263.26383531442843 114.88729281746782,261.8689675569185 116.08066298323683,261.7992240918102 114.17127071833238,262.9151186514064 104.26629834249616,264.93767273414414 95.55469613266177,268.00636365043465 112.4408839775715,262.0084544653073 115.782320441911,261.6597371393 114.05193370138295,262.9848619987024 103.25193370180205,264.7981864445028 97.28508287295699,267.1694493602845 104.92265193373896,263.6822950671194 107.78674033144489,264.03101132513257 112.0232044197619,262.4966584126232 113.69392265169881,263.40332192811184 115.72265193331987,262.07819790847134 109.99447513790801,264.17049777676584 106.83204419887625,264.30998419894604 108.68176795588806,263.40332192811184 113.03756906045601,263.26383531442843 115.72265193331987,261.5899936520145 114.05193370138295,263.19409199635265" stroke="#4DD2FF" stroke-linecap="round" stroke-linejoin="round" stroke-width="0.5"><title>2024-07-21 4.9km</title><desc>1721568919550</desc></polyline><polyline fill="none" points="138.2107382551767,261.8278529824456 132.2671140935272,263.52228177984944 130.31006711395457,260.98063724138774 122.84429530194029,261.15008046128787 120.23489932855591,252.67787562619196 120.37986577162519,251.32231454830617 136.8335570464842,246.32366327533964 134.65906040277332,239.63050516363 135.16644295305014,246.0694937344524 138.28322147624567,257.16815533390036 123.13422818807885,261.31952364515746 121.90201342245564,260.47230736742495 119.79999999981374,251.91537280159537 120.01744966441765,249.6278599796351 135.02147650998086,245.22226134920493 134.15167785203084,239.63050516363 135.16644295305014,245.9000473289634 138.93557046959177,255.81260184425628 137.92080536903813,258.10009702888783 122.84429530194029,260.8959156181081 121.75704697985202,260.1334206055617 119.79999999981374,252.16954049043125 120.74228187883273,249.79730559774907 134.15167785203084,245.64587765355827 134.36912751663476,240.8166385210352 138.3557046977803,256.06676829827484 137.8483221475035,258.3542627579882 122.91677852347493,260.98063724138774 120.01744966441765,253.27093287731986 120.01744966441765,250.39036497863708 134.58657718077302,245.56115441059228 136.10872483206913,247.17089449730702 138.3557046977803,257.59176532929996 131.75973154371604,260.6417506945436 132.41208053706214,263.52228177984944 143.2845637584105,259.62509019463323 152.20000000018626,258.26954085717443 133.1369127514772,262.2514605172328 130.6724832211621,264.36949483637 139.29798657726496,261.57368835399393" stroke="#4DD2FF" stroke-linecap="round" stroke-linejoin="round" stroke-width="0.5"><title>2024-07-14 4.2km</title><desc>1720963947536</desc></polyline><polyline fill="none" points="155.79999999981374,256.026467695483 176.28275862056762,249.06177884456702 187.82758620660752,247.64707066956908 186.2448275857605,246.88530392444227 182.79999999934807,249.71472042438108 165.11034482717514,252.65295241202693 157.010344827082,255.80882188118994 156.8241379307583,257.11469607555773 166.87931034434587,252.32648260507267 188.1999999997206,247.5382468830794 182.98620689567178,250.15001458092593 166.32068965490907,252.43530588585418 159.89655172359198,255.59117602126207 158.22068965481594,255.37353011546656 166.13448275858536,251.89118936797604 187.17586206831038,246.88530392444227 182.52068965462968,249.93236752552912 177.2137931031175,250.04119105928112 158.22068965481594,255.48235307412688 174.97931034397334,249.06177884456702 179.3551724134013,249.38824968633708 187.17586206831038,247.21177545550745 184.6620689649135,249.27942608378362 165.48275862028822,252.21765931299888 157.38275862066075,255.80882188118994 163.9931034478359,253.41471489309333 169.67241379292682,248.08236569957808 173.11724137840793,250.25883809151128 182.05517241358757,248.8441315597156 174.1413793093525,251.5647193196928" stroke="#4DD2FF" stroke-linecap="round" stroke-linejoin="round" stroke-width="0.5"><title>2024-07-07 3.0km</title><desc>1720361789036</desc></polyline></svg>