<?xml version="1.0" encoding="utf-8" ?>
<svg baseProfile="full" height="300mm" version="1.1" viewBox="0,0,200,300" width="200mm" xmlns="http://www.w3.org/2000/svg" xmlns:ev="http://www.w3.org/2001/xml-events" xmlns:xlink="http://www.w3.org/1999/xlink"><defs /><rect fill="#222222" height="300" width="200" x="0" y="0" /><text fill="#FFFFFF" style="font-size:12px; font-family:Arial; font-weight:bold;" x="10" y="20">Runs</text><text fill="#FFFFFF" style="font-size:4px; font-family:Arial" x="10" y="280">ATHLETE</text><text fill="#FFFFFF" style="font-size:9px; font-family:Arial" x="10" y="290">Jay</text><text fill="#FFFFFF" style="font-size:4px; font-family:Arial" x="120" y="280">STATISTICS</text><text fill="#FFFFFF" style="font-size:3px; font-family:Arial" x="120" y="285">Number: 13</text><text fill="#FFFFFF" style="font-size:3px; font-family:Arial" x="120" y="290">Weekly: 1.0</text><text fill="#FFFFFF" style="font-size:3px; font-family:Arial" x="141" y="285">Total: 51.3 km</text><text fill="#FFFFFF" style="font-size:3px; font-family:Arial" x="141" y="290">Avg: 3.9 km</text><text fill="#FFFFFF" style="font-size:3px; font-family:Arial" x="167" y="285">Min: 2.1 km</text><text fill="#FFFFFF" style="font-size:3px; font-family:Arial" x="167" y="290">Max: 5.1 km</text><polyline fill="none" points="32.29365565208718,73.64798723370768 25.395667862612754,74.15720841247821 23.289966327138245,73.05389545066282 19.659446438308805,59.98376509692753 13.56017302442342,45.47057904454414 49.42970952857286,32.399999999965075 54.43982697557658,51.83604379731696 44.05654009245336,56.24940309015801 37.59421468991786,57.18299521890003 21.329485587310046,62.86939657886978 24.59695348702371,73.47824676922755 30.042733320966363,72.37493287510006 33.092370027676225,73.22363600495737 34.471967585384846,75.59999999997672 38.90120185026899,73.7328574527055" stroke="#4dd2ff" stroke-linecap="round" stroke-linejoin="round" stroke-width="0.5"><title>2025-03-23 2.1km</title><desc>1742729899087</desc></polyline><polyline fill="none" points="94.20893880119547,74.91551316523692 95.38016466167755,75.59999999997672 98.24316120916046,74.15497147483984 98.69863793277182,72.4057225380675 97.33220776217058,71.41701473784633 89.78430777322501,71.2649057249655 88.09253708575852,63.12702669488499 80.80490950983949,46.39465001266217 119.2601585930679,32.399999999965075 80.7398414069321,46.54676427913364 88.15760518913157,61.910139683051966 89.84937587636523,70.960687603103 98.43836551927961,71.2649057249655 99.28425086289644,73.47048326634103 104.48969913134351,70.960687603103 104.74997154460289,72.02545046794694" stroke="#4dd2ff" stroke-linecap="round" stroke-linejoin="round" stroke-width="0.5"><title>2025-03-16 2.5km</title><desc>1742128080108</desc></polyline><polyline fill="none" points="150.393296089489,62.52984079916496 147.3363128490746,60.979002439649776 145.76759776542895,58.67623249522876 144.39999999990687,49.08906238415511 145.16424581012689,46.73923431651201 147.8592178770341,44.90635982170352 155.3407821226865,44.577381550276186 164.9944134077523,41.94554663563031 153.651396648027,44.671375366917346 148.18100558640435,44.85936294068233 145.68715083808638,46.128276989242295 144.44022346357815,49.0420659443771 145.56648044707254,57.31336304551223 146.93407821236178,60.650036033272045 155.46145251393318,64.64461168335401 159.72513966471888,65.7724853848922 166.32178770937026,66.0544533643988 177.50391061441042,63.469740208849544 182.21005586581305,60.79102166570374 183.7787709494587,59.14618651155615 187.5999999998603,51.20389705101843 183.0547486031428,59.75712599180406 180.11843575397506,61.87191003301996 175.65363128483295,63.79870453389594 165.4770949720405,65.86647473118501 159.24245810043067,65.44352251678356 151.19776536314748,62.48284577665618 155.46145251393318,64.69160647780518 161.6558659216389,65.96046405771631 166.76424581022002,66.0544533643988 169.82122905016877,65.11455940583255 165.4770949720405,65.81948006059974 159.40335195534863,65.34953308140393 154.53631284902804,64.08067376213148 149.6692737431731,61.82491494115675 152.12290502805263,62.24787058978109" stroke="#4dd2ff" stroke-linecap="round" stroke-linejoin="round" stroke-width="0.5"><title>2025-03-08 4.9km</title><desc>1741407347536</desc></polyline><polyline fill="none" points="25.823728813556954,120.6577611482353 19.282711864449084,120.14426227880176 17.86711864406243,113.9822377722594 12.546440677717328,102.39972369727911 12.936949152499437,101.25857586605707 42.22508474579081,90.70284413476475 55.16067796596326,84.65460218052613 55.60000000009313,84.0840098207118 54.965423728805035,83.3422388517647 36.61152542359196,91.78695581771899 12.399999999906868,99.94625287945382 19.575593220302835,119.91604040237144 29.777627118630335,119.45959636033513 37.24610169488005,117.23442613205407" stroke="#4dd2ff" stroke-linecap="round" stroke-linejoin="round" stroke-width="0.5"><title>2025-03-02 3.1km</title><desc>1740908689410</desc></polyline><polyline fill="none" points="99.71840993221849,123.59999999997672 98.73284469591454,120.88464198395377 90.07395011698827,120.802358260029 88.1028196439147,111.25738730287412 79.79591264948249,94.71797970391344 80.14790023397654,93.73054127668729 115.76904378598556,81.38745532510802 120.20408735051751,99.49058112467173 110.34843498421833,104.01629684172804 87.75083205942065,110.10540014051367 80.07750271679834,93.73054127668729 116.89540405618027,80.39999999996508 115.90983881987631,81.79889467451721 119.922497282736,99.49058112467173 108.65889457892627,104.18086782720638" stroke="#4dd2ff" stroke-linecap="round" stroke-linejoin="round" stroke-width="0.5"><title>2024-12-01 3.0km</title><desc>1733059607886</desc></polyline><polyline fill="none" points="165.12380952341482,123.37369490141282 154.9904761905782,123.46274969173828 152.70476190466434,113.57761053345166 144.39999999990687,94.34133186750114 181.9619047618471,80.53725030826172 184.70476190466434,86.50420361902798 187.59999999962747,100.57535913342144 178.68571428535506,105.11726425937377 152.47619047621265,112.06366006837925 144.55238095205277,94.78662105783587 183.1047619045712,80.53725030826172 187.5238095233217,100.84253070055274 175.25714285718277,106.89839684555773 153.0857142857276,114.02288956491975 155.44761904748157,123.37369490141282 163.21904761856422,122.92842080810806" stroke="#4dd2ff" stroke-linecap="round" stroke-linejoin="round" stroke-width="0.5"><title>2024-11-03 3.4km</title><desc>1730641178795</desc></polyline><polyline fill="none" points="39.73497467022389,171.59999999997672 35.34524097200483,170.1931409695535 33.92919784318656,170.7724361702567 34.0,169.44833222497255 32.37155040213838,168.62076612276724 24.37090672692284,168.53800946450792 20.40598596725613,154.80028303375002 13.9629897326231,141.39335391845088 49.71807872550562,128.48276089818683 54.60342751862481,147.35201740358025 44.3371148374863,151.73822684580227 21.32641400070861,157.69681165722432 13.46737463818863,141.72439196752384 15.803845799528062,139.73816157446709 49.85968303820118,128.40000000002328 54.53262536227703,147.26925849873805 45.186740714591,151.24167606589617 21.892831251956522,158.02784281794447 20.05197518505156,156.12441173306433 13.396572481375188,141.39335391845088 49.505672255996615,128.5655217873864 54.60342751862481,147.51753518695477 44.5495213069953,151.73822684580227 22.530050660017878,158.02784281794447 21.963633408769965,161.91744848212693 23.379676537122577,168.45525279740104 33.22117627924308,168.04146933124866" stroke="#ff0000" stroke-linecap="round" stroke-linejoin="round" stroke-width="0.5"><title>2024-08-18 5.1km</title><desc>1723984957861</desc></polyline><polyline fill="none" points="97.68582528317347,171.59999999997672 100.2722558490932,170.08843962056562 98.91097660409287,166.7470848603407 93.39779566111974,167.94042754761176 90.19878943497315,167.22442216193303 88.08880660519935,158.71186154294992 80.80596264335327,141.2886571327108 116.26728697982617,128.39999999996508 115.72277528163977,131.02548508200562 119.19403735687956,146.4599699076498 109.32476282934658,151.55168933433015 88.36106245405972,157.20027530012885 84.48141660518013,150.83566836977843 80.6698347190395,141.2886571327108 114.7018158477731,128.95692184282234 117.22018245141953,135.63995183532825 119.26210131892003,146.5395282881218 110.82216999935918,151.07434210018255 88.15687056700699,157.04116078233346 80.53370679426007,141.68645168357762 113.00021679140627,129.35472290701 115.31439150776714,129.67296360689215 119.46629320573993,147.09643671812955 108.57605924457312,151.79036283760797 89.04170207679272,156.96160351095023 88.29299849201925,158.31407598394435 90.33491735975258,166.8266410981887 96.39261000044644,167.14486596605275" stroke="#ff0900" stroke-linecap="round" stroke-linejoin="round" stroke-width="0.5"><title>2024-08-11 5.0km</title><desc>1723380974002</desc></polyline><polyline fill="none" points="160.9589816124644,169.3911624813918 153.38217821763828,170.03394408739405 151.30466760951094,162.17768255522242 163.83083451190032,157.53530329128262 161.08118811878376,140.67962755309418 187.5999999998603,129.96605591254774 176.3570014142897,134.96574380423408 176.17369165457785,137.82269171456574 179.16775106079876,151.1787630627514 169.51343705761246,155.74976431863615 150.99915134371258,160.4635770000168 144.70551626570523,147.536224313837 145.43875530408695,145.46496803854825 161.87553041009232,140.25108794681728 185.03366336645558,130.82314789120574 176.72362093348056,134.25150494033005 175.6237623761408,135.60855813656235 179.10664780740626,151.03591877553845 170.4299858554732,155.24981256132014 151.1824611031916,160.32073467428563 144.39999999990687,146.96484390611295 147.76067892462015,144.82216307672206 175.01272984431125,135.10859148646705 181.3063649223186,159.89220751594985" stroke="#ff0800" stroke-linecap="round" stroke-linejoin="round" stroke-width="0.5"><title>2024-08-04 5.0km</title><desc>1722777733849</desc></polyline><polyline fill="none" points="18.91042253538035,219.5850144184078 22.926197182852775,217.66482483717846 22.19605633802712,216.1713402660098 14.225352112436667,215.95798505702987 12.399999999906868,208.6327485383954 24.751549295615405,203.72550668485928 25.177464788546786,201.37855228612898 22.25690140808001,186.94104679278098 48.23774647852406,176.4149855815922 51.94929577433504,186.01646692771465 52.67943661962636,193.41307029762538 55.41746478853747,203.1565487938933 54.32225352083333,204.9345406066859 45.682253520935774,208.27715250459732 43.73521126736887,209.9840117545682 26.2726760560181,215.1756820450537 14.468732394045219,215.95798505702987 12.704225351801142,208.1349140383536 25.299154929583892,204.00998544989852 21.58760563354008,187.29665409523295 47.933521126629785,176.77059844357427 52.13183098565787,186.22983162477612 55.5999999998603,204.00998544989852 45.073802816681564,208.56162934674649 44.16112676030025,209.91289270541165 37.2856338028796,211.5486289326218 37.46816901420243,214.10890374606242 38.50253521115519,214.03778513282305 37.52901408425532,215.10456354432972 25.05577464774251,217.16699701489415 19.823098591528833,219.01606992812594 28.88901408435777,215.38903750217287 34.97352112666704,214.89120799710508 39.23267605621368,213.25547988992184 30.10591549286619,216.45581377320923" stroke="#ff0900" stroke-linecap="round" stroke-linejoin="round" stroke-width="0.5"><title>2024-07-28 5.0km</title><desc>1722171325984</desc></polyline><polyline fill="none" points="98.60773480636999,217.29602663300466 98.28950276225805,214.0413484335295 88.50386740313843,214.41331226524198 86.11712707160041,203.90527353202924 102.42651933664456,198.69770343432901 102.58563535893336,194.60601960634813 98.05082872882485,177.21615117968759 97.01657458534464,176.65818179945927 78.39999999990687,182.79582553368527 97.81215469585732,177.4021408945555 106.48397789988667,209.57777019537752 105.05193370115012,212.3675092459889 99.16464088391513,213.76237545663025 99.56243093917146,216.45911053090822 115.55359115963802,212.08853573870147 117.94033149117604,213.20442923740484 121.59999999962747,211.34460595372366 97.81215469585732,217.76097967952956 105.76795580098405,214.5063031986938 112.13259668461978,214.13433940603863 120.8839779002592,210.6006755401031 118.33812154643238,212.83246489497833 104.17679557949305,215.436211992288 97.65303867356852,218.2259324803017 103.2220994476229,215.15723945741775 115.79226519307122,212.3675092459889 117.46298342524096,213.01844708586577 119.84972375631332,211.15862340922467 121.44088397733867,211.06563212239416 118.89502762444317,212.5534915351891 105.68839778983966,215.25023031211458 94.07292817672715,219.34181820054073 116.58784530358389,211.34460595372366 121.04309392208233,210.87964951904723 118.73591160168871,212.64648266491713 104.3359116022475,215.06424859259278 96.38011049712077,218.2259324803017 106.56353591149673,213.57639342284529 110.3823204417713,214.0413484335295 116.03093922603875,211.9955445501255 118.25856353528798,213.20442923740484 120.96353591093794,211.43759721127572 113.3259668503888,214.22733036900172 109.10939226485789,214.41331226524198 111.57569060754031,213.20442923740484 117.38342541409656,213.01844708586577 120.96353591093794,210.78665820264723 118.73591160168871,212.92545599513687" stroke="#4dd2ff" stroke-linecap="round" stroke-linejoin="round" stroke-width="0.5"><title>2024-07-21 4.9km</title><desc>1721568919550</desc></polyline><polyline fill="none" points="168.94765100674704,211.10380397655535 161.02281879121438,213.36304237309378 158.41342281829566,209.97418298840057 148.4590604021214,210.20010728167836 144.97986577125266,198.90383416821714 145.1731543620117,197.09641939762514 167.1114093954675,190.43155103374738 164.2120805364102,181.50734021817334 164.8885906036012,190.0926583125256 169.04429530119523,204.890873778495 148.84563758363947,210.4260315268766 147.20268456311896,209.29640982323326 144.39999999990687,197.8871637354605 144.68993288557976,194.83714663947467 164.69530201284215,188.96301513223443 163.53557046921924,181.50734021817334 164.8885906036012,189.8667297718348 169.91409395914525,203.08346912567504 168.56107382522896,206.13346270518377 148.4590604021214,209.86122082406655 147.0093959728256,208.84456080733798 144.39999999990687,198.22605398716405 145.65637583844364,195.0630741303321 163.53557046921924,189.52783687133342 163.82550335489213,183.08885136130266 169.14093959704041,203.4223577309167 168.46442952938378,206.47235034394544 148.55570469796658,209.97418298840057 144.68993288557976,199.69457716972101 144.68993288557976,195.8538199715549 164.1154362410307,189.41487254737876 166.14496644260362,191.56119266303722 169.14093959704041,205.45568710565567 160.34630872448906,209.52233425935265 161.21610738243908,213.36304237309378 175.7127516772598,208.16678692610003 187.59999999962747,206.3593878095271 162.18255033530295,211.66861402301583 158.8966442947276,214.49265978182666 170.39731543604285,210.76491780520882" stroke="#4dd2ff" stroke-linecap="round" stroke-linejoin="round" stroke-width="0.5"><title>2024-07-14 4.2km</title><desc>1720963947536</desc></polyline><polyline fill="none" points="12.399999999906868,251.36862359393854 39.710344827733934,242.08237179275602 55.103448275476694,240.1960942260921 52.99310344783589,239.1804052325897 48.39999999990687,242.95296056580264 24.813793103210628,246.87060321611352 14.013793102931231,251.0784291748423 13.765517241321504,252.8195947674103 27.172413792926818,246.4353101401357 55.60000000009313,240.05099584406707 48.648275861516595,243.5333527745679 26.427586206700653,246.58040784776676 17.862068965099752,250.7882346949773 15.627586206421256,250.49804015399422 26.179310344625264,245.8549191573402 54.234482758212835,239.1804052325897 48.027586206793785,243.2431567007443 40.951724137645215,243.38825474563055 15.627586206421256,250.64313743216917 37.97241379227489,242.08237179275602 43.80689655151218,242.51766624837182 54.234482758212835,239.61570060742088 50.88275862019509,242.3725681117503 25.310344826895744,246.29021241725422 14.51034482754767,251.0784291748423 23.324137930758297,247.88628652412444 30.896551724057645,240.77648759947624 35.48965517152101,243.6784507886041 47.406896551605314,241.79217541299295 36.855172412935644,245.419625759474" stroke="#4dd2ff" stroke-linecap="round" stroke-linejoin="round" stroke-width="0.5"><title>2024-07-07 3.0km</title><desc>1720361789036</desc></polyline></svg>