<?xml version="1.0" encoding="utf-8" ?>
<svg baseProfile="full" height="300mm" version="1.1" viewBox="0,0,200,300" width="200mm" xmlns="http://www.w3.org/2000/svg" xmlns:ev="http://www.w3.org/2001/xml-events" xmlns:xlink="http://www.w3.org/1999/xlink"><defs /><rect fill="#222222" height="300" width="200" x="0" y="0" /><text fill="#FFFFFF" style="font-size:12px; font-family:Arial; font-weight:bold;" x="10" y="20">Runs</text><text fill="#FFFFFF" style="font-size:4px; font-family:Arial" x="10" y="280">ATHLETE</text><text fill="#FFFFFF" style="font-size:9px; font-family:Arial" x="10" y="290">Jay</text><text fill="#FFFFFF" style="font-size:4px; font-family:Arial" x="120" y="280">STATISTICS</text><text fill="#FFFFFF" style="font-size:3px; font-family:Arial" x="120" y="285">Number: 11</text><text fill="#FFFFFF" style="font-size:3px; font-family:Arial" x="120" y="290">Weekly: 1.0</text><text fill="#FFFFFF" style="font-size:3px; font-family:Arial" x="141" y="285">Total: 46.7 km</text><text fill="#FFFFFF" style="font-size:3px; font-family:Arial" x="141" y="290">Avg: 4.2 km</text><text fill="#FFFFFF" style="font-size:3px; font-family:Arial" x="167" y="285">Min: 3.0 km</text><text fill="#FFFFFF" style="font-size:3px; font-family:Arial" x="167" y="290">Max: 5.1 km</text><polyline fill="none" points="20.49162011197768,70.6623009989271 16.670391061576083,68.72375304956222 14.70949720684439,65.84529061900685 13.0,53.86132798017934 13.955307262716815,50.92404289561091 17.324022346409038,48.63294977712212 26.675977653590962,48.221726937859785 38.743016759864986,44.93193329451606 24.564245810266584,48.33921920863213 17.726256983354688,48.57420367584564 14.60893854754977,50.16034623654559 13.050279329530895,53.80258243042044 14.458100558957085,64.14170380687574 16.167597765568644,68.31254504155368 26.826815642416477,73.30576460418524 32.156424581073225,74.7156067310716 40.40223463694565,75.06806670548394 54.37988826818764,71.83717526105465 60.262569832382724,68.4887770821224 62.22346368711442,66.43273313943064 67.0,56.50487131375121 61.31843575416133,67.19640748971142 57.648044692818075,69.83988754125312 52.06703910604119,72.24838066735538 39.346368715167046,74.83309341396671 31.553072625771165,74.30440314597217 21.49720670399256,70.60355722077657 26.826815642416477,73.36450809723465 34.56983240228146,74.95058007212356 40.955307262716815,75.06806670548394 44.77653631288558,73.89319925726159 39.346368715167046,74.77435007574968 31.754189944360405,74.18691635172581 25.670391061343253,72.60084220260615 19.586592179024592,69.78114367643138 22.653631285065785,70.3098382371827" stroke="#4dd2ff" stroke-linecap="round" stroke-linejoin="round" stroke-width="0.5"><title>2025-03-08 4.9km</title><desc>1741407347536</desc></polyline><polyline fill="none" points="89.7796610170044,83.32220143527957 81.60338983056135,82.6803278484731 79.83389830496162,74.97779721528059 73.18305084737949,60.49965462158434 73.6711864406243,59.07321983249858 110.2813559321221,45.878555168397725 126.4508474576287,38.318252725643106 127.0,37.605012275860645 126.20677966112271,36.677798564662226 103.26440677954815,47.233694772119634 73.0,57.43281609931728 81.96949152555317,82.3950505029643 94.72203389834613,81.8244954503607 104.05762711865827,79.04303266503848" stroke="#4dd2ff" stroke-linecap="round" stroke-linejoin="round" stroke-width="0.5"><title>2025-03-02 3.1km</title><desc>1740908689410</desc></polyline><polyline fill="none" points="159.64801241550595,87.0 158.41605586977676,83.60580247995676 147.5924376458861,83.50294782506535 145.12852455489337,71.57173412863631 134.7448908118531,50.89747462992091 135.1848752927035,49.66317659593187 179.7113047321327,34.234319156443235 185.2551091881469,56.86322640586877 172.93554373038933,62.5203710522037 144.68854007404298,70.1317501757294 135.09687839634717,49.66317659593187 181.11925507057458,33.0 179.8872985248454,34.74861834314652 184.90312160365283,56.86322640586877 170.82361822389066,62.72608478402253" stroke="#4dd2ff" stroke-linecap="round" stroke-linejoin="round" stroke-width="0.5"><title>2024-12-01 3.0km</title><desc>1733059607886</desc></polyline><polyline fill="none" points="38.9047619048506,146.71711862669326 26.238095238339156,146.8284371147165 23.380952381063253,134.47201316687278 13.0,110.42666483437642 59.9523809524253,93.17156288528349 63.38095238106325,100.63025452371221 67.0,118.21919891680591 55.8571428572759,123.89658032427542 23.095238095149398,132.5795750854304 13.190476190298796,110.98327632225119 61.38095238106325,93.17156288528349 66.90476190438494,118.55316337570548 51.57142857136205,126.12299605691805 23.857142857275903,135.02861195616424 26.809523809235543,146.71711862669326 36.52380952332169,146.16052601020783" stroke="#4dd2ff" stroke-linecap="round" stroke-linejoin="round" stroke-width="0.5"><title>2024-11-03 3.4km</title><desc>1730641178795</desc></polyline><polyline fill="none" points="107.16871833754703,147.0 101.68155121477321,145.24142621195642 99.91149730421603,145.96554521284997 100.0,144.3104152812739 97.96443800255656,143.2759576534736 87.9636334083043,143.1725118306931 83.00748245883733,126.00035379221663 74.95373716577888,109.24169239809271 119.64759840629995,93.10345112276264 125.7542843981646,116.69002175447531 112.92139354674146,122.1727835572674 84.15801750076935,129.62101457157405 74.33421829761937,109.6554899594048 77.25480724964291,107.17270196811296 119.82460379740223,93.0 125.66578170238063,116.58657312346622 113.98342589335516,121.55209508241387 84.86603906471282,130.0348035224597 82.56496898084879,127.65551466634497 74.2457156018354,109.24169239809271 119.38209031987935,93.20690223423298 125.7542843981646,116.89691898372257 113.18690163316205,122.1727835572674 85.66256332490593,130.0348035224597 84.9545417604968,134.89681060268776 86.72459567105398,143.06906599679496 99.02647034917027,142.55183666408993" stroke="#ff0000" stroke-linecap="round" stroke-linejoin="round" stroke-width="0.5"><title>2024-08-18 5.1km</title><desc>1723984957861</desc></polyline><polyline fill="none" points="157.10728160385042,147.0 160.3403198113665,145.11054952570703 158.63872075499967,140.93385607545497 151.7472445764579,142.42553443455836 147.74848679360002,141.5305277024745 145.11100825620815,130.88982692867285 136.0074533042498,109.11082141590305 180.3341087247245,93.0 179.6534691019915,96.28185635257978 183.9925466957502,115.57496238453314 171.65595353627577,121.93961166794179 145.45132806757465,129.00034412520472 140.60177075630054,121.04458546225214 135.83729339856654,109.11082141590305 178.37726980959997,93.69615230354248 181.52522806404158,102.04993979417486 184.077626648359,115.6744103601668 173.52771249879152,121.34292762522819 145.19608820881695,128.80145097797504 135.6671334928833,109.60806460451568 176.25027098925784,94.19340363377705 179.1429893844761,94.59120450861519 184.3328665071167,116.37054589769104 170.72007405525073,122.23795354709728 146.3021275959909,128.70200438873144 145.36624811496586,130.39259497995954 147.91864669974893,141.03330137277953 155.49076250055805,141.43108245759504" stroke="#ff0d00" stroke-linecap="round" stroke-linejoin="round" stroke-width="0.5"><title>2024-08-11 5.0km</title><desc>1723380974002</desc></polyline><polyline fill="none" points="33.69872701540589,204.23895310179796 24.22772277193144,205.04243010928622 21.630834511481225,195.22210319404257 37.28854313958436,189.41912911413237 33.851485148537904,168.34953444142593 67.0,154.957569890772 52.9462517676875,161.2071797553217 52.717114568222314,164.77836464327993 56.459688825998455,181.47345382842468 44.39179632207379,187.18720539833885 21.24893917934969,193.07947125000646 13.381895332131535,176.9202803922817 14.298444129992276,174.33121004822897 34.84441301273182,167.8138599335798 63.792079207953066,156.02893486403627 53.40452616661787,160.31438117544167 52.02970297029242,162.0106976707466 56.38330975919962,181.29489846946672 45.537482319399714,186.56226570170838 21.478076378814876,192.9009183428716 13.0,176.2060548826703 17.20084865577519,173.5277038459899 51.26591230556369,161.38573935814202 59.132956152781844,192.36525939498097" stroke="#ff0c00" stroke-linecap="round" stroke-linejoin="round" stroke-width="0.5"><title>2024-08-04 5.0km</title><desc>1722777733849</desc></polyline><polyline fill="none" points="81.13802816905081,206.9812680230243 86.15774647844955,204.58103104645852 85.2450704225339,202.71417533251224 75.28169014072046,202.44748132134555 73.0,193.29093567305245 88.43943661963567,187.1568833561032 88.97183098597452,184.22319035773398 85.32112676044926,166.17630849103443 117.79718309827149,153.0187319770339 122.43661971809343,165.02058365970151 123.34929577447474,174.2663378721336 126.77183098578826,186.44568599236663 125.40281690098345,188.6681757583865 114.60281690116972,192.8464406307903 112.16901408461854,194.980014693283 90.34084507031366,201.46960255637532 75.58591549284756,202.44748132134555 73.38028169004247,192.6686425479711 89.12394366180524,187.5124818124459 84.4845070419833,166.62081761908485 117.41690140869468,153.46324805455515 122.66478873230517,165.28728953097016 127.0,187.5124818124459 113.84225352108479,193.20203668344766 112.70140845049173,194.89111588185187 104.10704225348309,196.9357861658209 104.33521126769483,200.13612968259258 105.62816901411861,200.04723141604336 104.41126760514453,201.38070443051402 88.81971830967814,203.9587462686468 82.27887323964387,206.27008741017198 93.6112676053308,201.73629687778885 101.21690140850842,201.11400999646867 106.54084507049993,199.0693498624605 95.13239436596632,203.06976721656974" stroke="#ff0c00" stroke-linecap="round" stroke-linejoin="round" stroke-width="0.5"><title>2024-07-28 5.0km</title><desc>1722171325984</desc></polyline><polyline fill="none" points="158.25966850854456,204.1200332911685 157.86187845328823,200.0516855418682 145.62983425427228,200.51664033147972 142.6464088400826,187.38159191503655 163.03314917115495,180.87212929292582 163.23204419901595,175.75752450793516 157.56353591149673,154.02018897456583 156.27071823226288,153.32272724923678 133.0,160.9947819170775 157.2651933701709,154.25267611816525 168.10497237555683,194.47221274417825 166.31491712713614,197.95938655745704 158.95580110512674,199.70296932081692 159.45303867431358,203.07388816366438 179.4419889501296,197.61066967330407 182.4254143643193,199.00553654681426 187.0,196.68075744214002 157.2651933701709,204.70122459938284 167.20994475157931,200.6328789984109 175.1657458562404,200.16792425746098 186.10497237555683,195.75084442505613 182.92265193350613,198.5405811186647 165.22099447483197,201.7952649903018 157.0662983423099,205.28241560037713 164.02762430952862,201.44654932175763 179.74033149145544,197.95938655745704 181.82872928166762,198.7730588573031 184.81215469585732,196.44827926147263 186.801104972139,196.33204015297815 183.61878453055397,198.1918644189136 167.11049723764881,201.56278789008502 152.59116022102535,206.6772727506468 180.73480662936345,196.68075744214002 186.30386740295216,196.09956189873628 183.4198895022273,198.30810333113186 165.41988950315863,201.33031074074097 155.4751381217502,205.28241560037713 168.20441988948733,199.47049177845474 172.97790055256337,200.0516855418682 180.03867403278127,197.49443068762776 182.82320441957563,199.00553654681426 186.20441988902166,196.7969965140801 176.65745856333524,200.2841629611794 171.38674033153802,200.51664033147972 174.46961325965822,199.00553654681426 181.72928176773712,198.7730588573031 186.20441988902166,195.98332275322173 183.4198895022273,198.65681999386288" stroke="#4dd2ff" stroke-linecap="round" stroke-linejoin="round" stroke-width="0.5"><title>2024-07-21 4.9km</title><desc>1721568919550</desc></polyline><polyline fill="none" points="43.68456375878304,256.3797549707815 33.77852348936722,259.20380296651274 30.516778523568064,254.96772873564623 18.07382550323382,255.25013410218526 13.724832214415073,241.12979271041695 13.966442952863872,238.87052424717695 41.38926174445078,230.53943879227154 37.76510067144409,219.38417527277488 38.61073825508356,230.11582289077342 43.80536912707612,248.61359222326428 18.557046980131418,255.53253940865397 16.50335570424795,254.12051227909978 13.0,239.8589546693256 13.362416107673198,236.04643329943065 38.36912751663476,228.70376891538035 36.91946308687329,219.38417527277488 38.61073825508356,229.83341221499722 44.89261744963005,246.354336407152 43.201342281885445,250.16682838147972 18.07382550323382,254.8265260301996 16.261744966730475,253.5557010093471 13.0,240.28256748407148 14.570469798520207,236.32884266297333 36.91946308687329,229.4097960892832 37.28187919454649,221.36106420180295 43.92617449676618,246.7779471637914 43.080536912195385,250.5904379299609 18.19463087245822,254.96772873564623 13.362416107673198,242.11822146223858 13.362416107673198,237.31727496453095 37.64429530175403,229.26859068439808 40.18120805360377,231.95149082888383 43.92617449676618,249.31960888230242 32.932885906193405,254.40291782433633 34.02013422828168,259.20380296651274 52.140939597040415,252.70848365768325 67.0,250.4492347619962 35.22818791959435,257.0857675288571 31.120805368758738,260.61582472734153 45.49664429528639,255.95614725665655" stroke="#4dd2ff" stroke-linecap="round" stroke-linejoin="round" stroke-width="0.5"><title>2024-07-14 4.2km</title><desc>1720963947536</desc></polyline><polyline fill="none" points="73.0,246.71077949227765 107.13793103490025,235.1029647408286 126.37931034434587,232.7451177824987 123.74137931037694,231.4755065406207 118.0,236.1912007072242 88.51724137924612,241.08825401996728 75.01724137924612,246.34803646849468 74.70689655188471,248.52449345926289 91.46551724150777,240.5441376750823 127.0,232.56374480505474 118.31034482643008,236.91669096820988 90.53448275849223,240.72550980956294 79.82758620660752,245.9852933686925 77.03448275849223,245.62255019240547 90.22413793113083,239.81864894658793 125.29310344811529,231.4755065406207 117.53448275849223,236.55394587584306 108.68965517170727,236.73531843197998 77.03448275849223,245.80392179021146 104.96551724057645,235.1029647408286 112.25862068962306,235.64708281040657 125.29310344811529,232.01962575910147 121.1034482754767,235.46571013960056 89.13793103396893,240.36276552150957 75.63793103490025,246.34803646849468 86.65517241321504,242.35785815503914 96.12068965472281,233.470609499258 101.86206896416843,237.0980634856969 116.75862068962306,234.74021926615387 103.56896551605314,239.2745321992552" stroke="#4dd2ff" stroke-linecap="round" stroke-linejoin="round" stroke-width="0.5"><title>2024-07-07 3.0km</title><desc>1720361789036</desc></polyline></svg>