<?xml version="1.0" encoding="utf-8" ?>
<svg baseProfile="full" height="300mm" version="1.1" viewBox="0,0,200,300" width="200mm" xmlns="http://www.w3.org/2000/svg" xmlns:ev="http://www.w3.org/2001/xml-events" xmlns:xlink="http://www.w3.org/1999/xlink"><defs /><rect fill="#222222" height="300" width="200" x="0" y="0" /><text fill="#FFFFFF" style="font-size:12px; font-family:Arial; font-weight:bold;" x="10" y="20">Runs</text><text fill="#FFFFFF" style="font-size:4px; font-family:Arial" x="10" y="280">Runner</text><text fill="#FFFFFF" style="font-size:9px; font-family:Arial" x="10" y="290">Jay</text><text fill="#FFFFFF" style="font-size:4px; font-family:Arial" x="65" y="280">SPECIAL TRACKS</text><rect fill="yellow" height="2.6" width="2.6" x="65" y="283" /><text fill="#FFFFFF" style="font-size:3px; font-family:Arial" x="70" y="285.5">Over 5.0 km</text><rect fill="red" height="2.6" width="2.6" x="65" y="287" /><text fill="#FFFFFF" style="font-size:3px; font-family:Arial" x="70" y="289.5">Over 10.0 km</text><text fill="#FFFFFF" style="font-size:4px; font-family:Arial" x="120" y="280">STATISTICS</text><text fill="#FFFFFF" style="font-size:3px; font-family:Arial" x="120" y="285">Number: 28</text><text fill="#FFFFFF" style="font-size:3px; font-family:Arial" x="120" y="290">Weekly: 1.3</text><text fill="#FFFFFF" style="font-size:3px; font-family:Arial" x="141" y="285">Total: 112.2 km</text><text fill="#FFFFFF" style="font-size:3px; font-family:Arial" x="141" y="290">Avg: 4.0 km</text><text fill="#FFFFFF" style="font-size:3px; font-family:Arial" x="167" y="285">Min: 2.1 km</text><text fill="#FFFFFF" style="font-size:3px; font-family:Arial" x="167" y="290">Max: 5.2 km</text><polyline fill="none" points="18.672727272845805,60.426083032391034 16.40438871481456,60.426083032391034 15.15172413783148,55.40038202019059 11.800000000046566,48.55423989184783 12.003134796279483,47.327461322100135 24.732915360596962,43.053491701954044 41.660815047100186,35.57392753503518 42.57492163020652,35.653077144001145 44.20000000006985,45.26963018413517 35.46520376193803,49.22698772457079 22.836990595795214,53.184303464047844 19.993103448301554,54.608926897722995 15.422570533002727,55.63781823092722 12.070846394984983,48.94997405735194 11.901567398104817,47.36703488699277 30.65768025093712,40.797765855211765 42.60877742967568,35.41562826704467 43.5905956113711,39.09606894760509 43.2181818181416,39.768833765148884 44.166144200833514,45.309203966346104 37.69968652050011,48.316799191816244 19.789968652068637,54.64849969360512 15.28714733547531,55.51910014433088 14.610031348071061,54.01533445864334 16.50595611287281,60.426083032391034 17.216927899746224,60.58437173295533" stroke="yellow" stroke-linecap="round" stroke-linejoin="round" stroke-width="0.5"><title>2025-06-29 5.1km</title><desc>1751195618015</desc></polyline><polyline fill="none" points="54.83908523921855,61.30628550963593 57.43243243242614,60.479592226678506 56.55675675685052,59.21986560311052 52.4814968816936,59.613530630391324 51.47110187122598,55.28319246254978 47.90103950118646,47.80339894077042 47.800000000046566,46.661733040673425 58.51018711028155,43.0005050112959 77.57297297311015,34.69371449033497 78.78544698550832,35.992892995040165 80.20000000006985,44.41775883777882 68.04158004163764,49.37810478848405 67.36798336799257,50.952803982945625 68.10893970902544,56.3854651330621 64.97671517671552,57.5271012482408 65.38087318104226,58.70810044615064 64.6399168401258,59.180499077483546 61.137214137241244,60.04656167997746 59.7900207900675,59.73163005738752 60.227858628029935,60.007195241807494 59.992099792230874,59.180499077483546 59.722661122796126,59.81036298800609 60.16049896052573,59.49543116582208" stroke="#4DD2FF" stroke-linecap="round" stroke-linejoin="round" stroke-width="0.5"><title>2025-06-14 2.8km</title><desc>1749897609635</desc></polyline><polyline fill="none" points="92.38143899885472,61.03203368006507 88.5974973931443,60.913564757298445 87.2460896767443,55.9378361076233 83.80000000004657,48.71106466115452 84.17163712205365,47.723789956828114 102.34807090717368,41.32618668611394 113.80125130352098,36.03425927014905 114.71345151215792,36.98207267271937 115.35537017742172,39.35159566521179 116.20000000006985,45.78872397352825 107.95641293027438,49.500882547319634 103.49676746607292,50.76458769477904 101.23315954138525,41.8000869792304 115.62565172079485,34.96796631990583 101.0304483838845,42.19500343129039 102.95620437967591,50.883059833344305 102.04400417103898,51.554401242901804 97.7532846715767,53.252494721178664 87.41501564125065,56.01681644463679 83.83378519280814,48.86902837181697 83.86757038580254,48.039718145824736 100.65881126187742,42.03703690049588 104.03733055258635,55.5429341722338" stroke="yellow" stroke-linecap="round" stroke-linejoin="round" stroke-width="0.5"><title>2025-06-03 5.1km</title><desc>1748956863854</desc></polyline><polyline fill="none" points="127.57478991604876,60.11130241968203 124.03529411775526,60.28810252060066 122.61344537837431,55.40838546154555 119.80000000004657,49.43240318837343 119.86050420161337,48.58373433339875 136.438655462116,42.71371584656299 152.20000000006985,35.1108280592307 151.98823529400397,34.47429938710411 146.27058823523112,37.444756167562446 146.45210084039718,37.975192104349844 145.33277310919948,38.682438712683506 135.65210084046703,43.244143434334546 137.5579831933137,51.09437346391496 144.2134453781182,48.51301183167379 148.66050420165993,46.24988388828933 146.66386554623023,38.08127919083927 135.28907563025132,43.49167602084344 136.98319327738136,51.3065392881108 133.957983193337,52.827057093789335 126.6067226891173,55.26694332662737 122.94621848757379,55.938792935048696 120.22352941194549,50.493236231588526 119.92100840352941,48.61909557855688 120.40504201699514,48.40692805100116 119.80000000004657,49.22023617630475 123.0369747900404,55.97415340336738 124.00504201685544,60.040582353190985 127.51428571436554,59.93450222539832 128.02857142873108,60.18202247127192 128.45210084039718,61.52570061289589 128.99663865554612,61.419620955653954" stroke="yellow" stroke-linecap="round" stroke-linejoin="round" stroke-width="0.5"><title>2025-05-25 5.1km</title><desc>1748170625707</desc></polyline><polyline fill="none" points="162.84609665442258,61.60363249544753 164.20111524162348,61.075698941160226 163.80966542765964,60.16061213245848 162.2739776953822,60.47737323521869 160.01561338303145,60.055025031324476 158.81115241639782,55.6555327437527 155.80000000004657,48.47543657646747 166.91115241649095,44.81493584837881 175.6434944239445,41.25998799590161 188.20000000006985,34.9595416901866 188.04944237926975,34.39636750452337 176.6672862455016,40.02806652444997 176.84795539046172,40.90801089743036 171.69888475851621,43.090262914280174 173.3249070632737,50.62244233151432 172.3011152416002,51.74873490043683 168.4468401487684,53.297380966774654 159.26282527879812,55.831513550452655 155.89033457252663,49.28496496123262 156.0107806691667,48.40504271091777 171.75910780671984,42.984670403791824 182.7197026022477,37.9865866289183 184.67695167299826,46.680388359643985 168.8985130112851,53.19179169094423 163.65910780674312,54.59964595164638" stroke="yellow" stroke-linecap="round" stroke-linejoin="round" stroke-width="0.5"><title>2025-05-24 5.2km</title><desc>1748085426224</desc></polyline><polyline fill="none" points="18.509701492497697,102.54270511260256 20.232462686602958,101.83616758219432 19.960447761346586,100.91766656149412 15.910447761183605,100.81168551213341 14.88283582078293,96.57241600332782 11.800000000046566,90.10742655105423 11.830223880708218,88.97692375537008 27.51641791057773,83.50099675514502 36.855597015004605,79.40282498521265 44.199999999953434,75.516581224947 43.7466417910764,75.05729488743236 38.487686567241326,77.77767399768345 38.457462686579674,78.48426235394436 37.55074626870919,79.04953196406132 27.002611940377392,84.10158667471842 28.695149253704585,92.05046930297976 24.494029850815423,93.78153424651828 14.88283582078293,96.43110609441646 16.06156716425903,100.70570442927419 19.02350746281445,100.74103146063862" stroke="#4DD2FF" stroke-linecap="round" stroke-linejoin="round" stroke-width="0.5"><title>2025-05-18 3.3km</title><desc>1747570670414</desc></polyline><polyline fill="none" points="58.94870848732535,101.56958271478652 56.49778597790282,102.2682994606439 55.60110701119993,100.76605663241935 52.16383763845079,101.01060825542663 50.69926199270412,96.0496685350081 47.85977859806735,90.28510286356322 47.82988929899875,89.2719263949839 66.18191881943494,82.73861049409606 80.20000000006985,75.9955341424793 79.81143911438994,75.33170053933281 74.1025830260478,78.1966570817458 74.13247232488357,78.96529973647557 70.69520295213442,80.81702243219479 63.61143911455292,83.96143344781012 65.25535055366345,91.3681501391693 64.86678966798354,91.8572671013244 62.77453874563798,84.24093520242604 74.28191881929524,78.86048493415001 74.04280442802701,78.30147209443385 68.5431734318845,80.92183661437593 68.57306273072027,81.55072100981488 66.9889298893977,82.45910746994196 63.61143911455292,83.89155797226704 65.07601476029959,91.75245638465276 64.56789667916019,91.64764563471545 62.77453874563798,84.24093520242604 55.780442804680206,86.86125266458839 55.1228782288963,86.26731585926609 47.800000000046566,88.57318219452281 48.00922509247903,89.97066911921138 51.147601476171985,96.67852416692767 51.83505535067525,99.47342362152995" stroke="yellow" stroke-linecap="round" stroke-linejoin="round" stroke-width="0.5"><title>2025-05-17 5.1km</title><desc>1747484576135</desc></polyline><polyline fill="none" points="91.10387736698613,101.65732823949656 92.15563570777886,101.31584553778521 91.10387736698613,100.22309846841381 87.91938683495391,100.32554366305703 86.72155094670597,95.95451983774547 83.80000000004657,89.77351809380343 83.97529305680655,89.02222805915517 100.1022542831488,83.28504658510792 115.2066726781195,75.94267176050926 116.20000000006985,78.77718971189461 115.29431920661591,76.01097369001945 98.69990982871968,84.17295037736767 100.24833183048759,91.24194357494707 100.62813345354516,91.2760929253709 99.07971145177726,83.79729907057481 113.62903516704682,76.79644484343589 98.75834084756207,84.03634995271568 100.1314697926864,91.92492989820312 96.01208295766264,93.6665384923399 87.01370604138356,96.12526406496181 88.1823264202103,100.15480165398913 91.6297565374989,100.15480165398913 92.44779080257285,101.07680743193487 96.88854824169539,99.81331736521679" stroke="yellow" stroke-linecap="round" stroke-linejoin="round" stroke-width="0.5"><title>2025-05-11 5.2km</title><desc>1746960817262</desc></polyline><polyline fill="none" points="129.63374858442694,103.10376955705578 130.0373725935351,101.94578237712267 129.52366930921562,101.21667764370795 124.9370328427758,101.43112034822116 123.5793884487357,96.28446418364183 119.80000000004657,88.17834844315075 119.91007927525789,87.27765892693424 139.4308040770702,80.41519700997742 152.20000000018626,74.49623044297914 132.3857304644771,83.33175749680959 119.91007927525789,87.19187886881991 123.5793884487357,95.94135145324981 125.26727066840976,101.73133994432283 133.48652321635745,100.57334885068121 141.74246885627508,97.69980113167549 142.9533408835996,101.73133994432283" stroke="#4DD2FF" stroke-linecap="round" stroke-linejoin="round" stroke-width="0.5"><title>2025-05-10 3.3km</title><desc>1746881233572</desc></polyline><polyline fill="none" points="164.65559701493476,101.92446071561426 163.6279850746505,100.82932482540491 162.9932835821528,101.28857579658506 160.0313432837138,100.65268966864096 159.06417910452,97.08463952786406 155.80000000004657,89.24186088173883 172.12089552241378,83.41264950006735 188.20000000006985,75.67553928439156 171.33507462695707,83.80126675314386 172.5742537312908,91.92679679664434 168.6753731344361,93.83450132253347 159.06417910452,96.44874540768797 159.94067164184526,100.61736262601335 163.08395522402134,100.68801670742687" stroke="#4DD2FF" stroke-linecap="round" stroke-linejoin="round" stroke-width="0.5"><title>2025-05-09 3.2km</title><desc>1746800655160</desc></polyline><polyline fill="none" points="27.36032968084328,145.79999999998836 26.454130061669275,143.37006172724068 20.53717960906215,142.8093053198536 18.831392091233283,136.51633574755397 13.234276797622442,124.6155860068975 13.074359217658639,122.62171963590663 39.727289186092094,113.40000000002328 42.92564078210853,127.60637292679166 35.56943211099133,130.78406741423532 18.9380038108211,135.45711644663243 20.483873749151826,142.8093053198536 27.093800381291658,142.8093053198536 28.213223439874128,145.05232775129844 31.198351596016437,143.8685114197433" stroke="#4DD2FF" stroke-linecap="round" stroke-linejoin="round" stroke-width="0.5"><title>2025-05-07 2.1km</title><desc>1746628465614</desc></polyline><polyline fill="none" points="57.57028824836016,143.14063576818444 57.06740576494485,142.4688746042084 52.972505543380976,142.5948299089796 51.140576496720314,136.21304425387643 48.62616407987662,131.25869264057837 47.94368070969358,128.69752056035213 63.06607538787648,123.40717843928724 71.65099778259173,119.71229456004221 67.77161862514913,121.6857027237129 79.37383592012338,116.14334001883981 80.19999999995343,117.27701140506542 79.51751662953757,116.0593642318563 66.26297117513604,122.44147346823593 66.11929046572186,123.7430752706714 68.09490022156388,131.9304727493727 62.3476718403399,134.3656661262794 51.42793791578151,137.2626870922395 47.800000000046566,129.32731850352138 48.30288248346187,128.5295742736198 50.63769401330501,127.68984177548555 48.087361419107765,128.61354742580443 47.94368070969358,129.41129148722393 51.2842572061345,136.92680168541847 53.94235033262521,136.54893026361242 51.5716186251957,137.30467274808325 52.82882483373396,142.30093413582654 57.42660753871314,142.4688746042084" stroke="#4DD2FF" stroke-linecap="round" stroke-linejoin="round" stroke-width="0.5"><title>2025-05-04 3.9km</title><desc>1746361657097</desc></polyline><polyline fill="none" points="94.23866170994006,143.23290456132963 91.42825278802775,143.74910794888274 89.220074349083,143.23290456132963 88.13605947955512,138.02390954404837 83.96059479517862,129.34211546721053 84.00074349436909,127.93424098216929 103.31226765783504,121.17638134834124 116.19999999995343,115.4508920511289 104.47657992551103,120.94173159758793 106.44386617094278,131.45391883002594 100.30111524136737,134.08192677417537 88.05576208163984,137.36691484457697 83.80000000004657,128.63817878236296 84.08104089205153,127.84038252438768 86.16877323412336,127.08951414946932 84.00074349436909,127.79345328823547 88.17620817804709,137.31998661451507 89.62156133819371,143.18597695085919 93.07434944226407,142.85748353903182" stroke="#4DD2FF" stroke-linecap="round" stroke-linejoin="round" stroke-width="0.5"><title>2025-05-02 3.2km</title><desc>1746193621188</desc></polyline><polyline fill="none" points="129.08314606756903,143.153025949141 124.75101123610511,143.3657819806831 123.44044943829067,137.96174396190327 119.80000000004657,130.13214296114165 120.05483146081679,129.32364288539975 141.02382022468373,121.62153448807658 152.20000000018626,116.42997502433718 151.54471910116263,115.83421801932855 138.65752808982506,121.62153448807658 138.18426966294646,123.23856393393362 140.22292134840973,132.47252877024584 137.82022471912205,133.8342015298258 123.65887640463188,138.00429572552093 120.30966292135417,130.94064141414128 123.65887640463188,138.04684748471482 124.89662921358831,143.153025949141 129.19235955062322,143.28067958151223" stroke="#4DD2FF" stroke-linecap="round" stroke-linejoin="round" stroke-width="0.5"><title>2025-05-01 3.2km</title><desc>1746105997674</desc></polyline><polyline fill="none" points="163.46182380232494,142.0240592463233 162.61051004647743,140.99974033076433 161.00803709437605,141.46800087630982 159.7561051006196,141.52653338885284 159.28037094289903,141.17533812811598 158.42905718716793,137.9267608646187 155.8500772799598,132.36604472223553 155.9001545596402,131.66363053399255 164.63863987650257,128.70761797597515 174.779289026279,124.49305048419046 188.20000000006985,117.70277911078301 187.84945904184133,117.17594075368834 184.81978361681104,118.37595999785117 184.19381761993282,119.04913924910943 173.47727975284215,124.40524631302105 162.5103554870002,128.76615318420227 162.2349304483505,129.46857471807743 156.07542503881268,131.48802670868463 155.80000000004657,131.98557059129234 158.3539412674727,137.45849433468538 165.01421947451308,135.73175466619432 158.3789799073711,137.57556104133255 155.82503863994498,132.16117410126026 155.9001545596402,131.51729402056662 161.7341576507315,129.70271483366378 156.4510046368232,131.25388810184086 155.9001545596402,131.7514324048825 159.65595054102596,141.32166954083368" stroke="yellow" stroke-linecap="round" stroke-linejoin="round" stroke-width="0.5"><title>2025-04-20 5.2km</title><desc>1745154044961</desc></polyline><polyline fill="none" points="26.7202417391818,185.13599042524584 21.54675089707598,185.5179063093383 19.967474745586514,184.6904215879622 17.24458482861519,174.88782382267527 12.670129768317565,164.00293428340228 39.57228214619681,154.19999999995343 43.329870231449604,168.7770328479819 35.54240506957285,172.08705231756903 30.695661017438397,172.7872464141692 18.49711419036612,177.05204743414652 20.947715115500614,185.0086850769003 25.032049990724772,184.18119965633377 27.31927752075717,184.8177270037122 28.353975689038634,186.59999999997672 31.675901387585327,185.1996430894942" stroke="#4DD2FF" stroke-linecap="round" stroke-linejoin="round" stroke-width="0.5"><title>2025-03-23 2.1km</title><desc>1742729899087</desc></polyline><polyline fill="none" points="59.65670410101302,186.08663487393642 60.53512349631637,186.59999999997672 62.682370906928554,185.5162286061095 63.02397844963707,184.20429190353025 61.99915582174435,183.46276105340803 56.33823082991876,183.34867929376196 55.0694028143771,177.24527002114337 49.603682132437825,164.69598750950536 78.44511894485913,154.20000000001164 49.55488105514087,164.8100732093444 55.11820389190689,176.33260476228315 56.387031907448545,183.12051570235053 62.82877413951792,183.34867929376196 63.46318814717233,185.0028624497936 67.36727434862405,183.12051570235053 67.56247865851037,183.91908785095438" stroke="#4DD2FF" stroke-linecap="round" stroke-linejoin="round" stroke-width="0.5"><title>2025-03-16 2.5km</title><desc>1742128080108</desc></polyline><polyline fill="none" points="88.29497206723318,176.7973805993679 86.00223463703878,175.63425182976061 84.82569832424633,173.90717437144485 83.80000000004657,166.71679678812507 84.37318435765337,164.9544257374073 86.3944134080084,163.5797698662791 92.00558659224771,163.33303616271587 99.24581005598884,161.35915997670963 90.73854748613667,163.40353152519674 86.6357541900361,163.5445222055132 84.765363128623,164.49620774193318 83.83016759785824,166.68154945829883 84.67486033542082,172.8850222841429 85.70055865950417,175.3875270249846 92.0960893855663,178.38345876251697 95.29385474871378,179.2293640386779 100.24134078226052,179.44084002330783 108.62793296098243,177.50230515666772 112.15754189959262,175.49326624927926 113.33407821226865,174.25963988367585 116.20000000006985,168.30292278827983 112.79106145258993,174.71784449386178 110.58882681571413,176.30393252478098 107.24022346374113,177.7490284004307 99.6078212291468,179.2998560483975 94.93184357543942,178.98264188758912 88.89832402253523,176.76213433250086 92.0960893855663,178.4187048583699 96.74189944146201,179.37034804330324 100.57318435772322,179.44084002330783 102.8659217878012,178.7359195543977 99.6078212291468,179.2646100454731 95.05251396668609,178.91214981107623 91.40223463694565,177.9605053215928 87.75195530743804,176.2686862058763 89.59217877115589,176.58590294234455" stroke="#4DD2FF" stroke-linecap="round" stroke-linejoin="round" stroke-width="0.5"><title>2025-03-08 4.9km</title><desc>1741407347536</desc></polyline><polyline fill="none" points="129.8677966101095,184.3933208611852 124.96203389833681,184.0081967090664 123.9003389829304,179.38667832917417 119.909830508288,170.69979277293896 120.20271186437458,169.84393189952243 142.1688135592267,161.92713310106774 151.87050847453065,157.39095163540333 152.19999999995343,156.96300736549892 151.7240677967202,156.40667913880316 137.95864406763576,162.74021686328342 119.80000000004657,168.85968965958455 125.18169491528533,183.83703030177276 132.83322033891454,183.49469727021642 138.43457627133466,181.82581959903473" stroke="#4DD2FF" stroke-linecap="round" stroke-linejoin="round" stroke-width="0.5"><title>2025-03-02 3.1km</title><desc>1740908689410</desc></polyline><polyline fill="none" points="171.7888074493967,186.59999999997672 171.0496335218195,184.56348148797406 164.5554625876248,184.50176869501593 163.07711473293602,177.34304047719343 156.84693448711187,164.93848477792926 157.11092517571524,164.1979059575242 183.82678283937275,154.9405914938543 187.15306551288813,168.51793584349798 179.76132623828016,171.91222263127565 162.81312404456548,176.47905010543764 157.05812703771517,164.1979059575242 184.67155304225162,154.19999999995343 183.93237911490723,155.2491710059112 186.941872962052,168.51793584349798 178.49417093442753,172.03565087041352" stroke="#4DD2FF" stroke-linecap="round" stroke-linejoin="round" stroke-width="0.5"><title>2024-12-01 3.0km</title><desc>1733059607886</desc></polyline><polyline fill="none" points="27.34285714291036,227.2302711760276 19.74285714305006,227.2970622688299 18.028571428731084,219.8832079001004 11.800000000046566,205.4559989005793 39.97142857150175,195.10293773119338 42.028571428731084,199.57815271423897 44.199999999953434,210.13151935004862 37.51428571436554,213.53794819454197 17.857142857275903,218.74774505128153 11.914285714039579,205.789965793374 40.82857142877765,195.10293773119338 44.1428571427241,210.33189802541165 34.94285714300349,214.87379763415083 18.314285714179277,220.2171671736869 20.08571428572759,227.2302711760276 25.91428571403958,226.89631560607813" stroke="#4DD2FF" stroke-linecap="round" stroke-linejoin="round" stroke-width="0.5"><title>2024-11-03 3.4km</title><desc>1730641178795</desc></polyline><polyline fill="none" points="68.30123100266792,227.40000000002328 65.00893072900362,226.3448557271622 63.94689838262275,226.77932712773327 64.0,225.78624916874105 62.7786628017202,225.16557459207252 56.778180045308545,225.10350709839258 53.8044894754421,214.80021227535326 48.972242299467325,204.7450154388207 75.7885590440128,195.06207067368086 79.4525706388522,209.21401305269683 71.75283612823114,212.5036701343488 54.49481050064787,216.97260874294443 48.60053097852506,204.99329397565452 50.35288434987888,203.50362118083285 75.89476227853447,195.0 79.39946902170777,209.15194387407973 72.39005553605966,212.13125704944832 54.91962343896739,217.2208821134991 53.53898138878867,215.79330879979534 48.547429361147806,204.7450154388207 75.62925419211388,195.12414134055143 79.4525706388522,209.33815139019862 71.91214098013006,212.5036701343488 55.39753799489699,217.2208821134991 54.972725056577474,220.13808636157773 56.03475740272552,225.04143959807698 63.41588220954873,224.73110199841904" stroke="yellow" stroke-linecap="round" stroke-linejoin="round" stroke-width="0.5"><title>2024-08-18 5.1km</title><desc>1723984957861</desc></polyline><polyline fill="none" points="98.26436896226369,227.40000000002328 100.2041918868199,226.26632971549407 99.18323245295323,223.76031364529626 95.0483467457816,224.65532066079322 92.64909207634628,224.11831662151963 91.06660495372489,217.73389615723863 85.60447198245674,204.6664928495884 112.20046523492783,195.0000000000582 111.79208146128803,196.9691138115595 114.39552801754326,208.5449774307781 106.99357212195173,212.36376700078836 91.27079684054479,216.60020647518104 88.36106245382689,211.82675127737457 85.5023760390468,204.6664928495884 111.02636188571341,195.41769138217205 112.91513683856465,200.42996387655148 114.44657598924823,208.60464621614665 108.11662749946117,212.00575657520676 91.11765292519704,216.48087058681995 85.40028009563684,204.9648387627676 109.7501625935547,195.7160421803128 111.48579363082536,195.95472270523896 114.59971990413032,209.0223275386379 106.432044433197,212.54277212830493 91.7812765573617,216.42120263329707 91.21974886883982,217.435556987999 92.75118801975623,223.81998082372593 97.29445750033483,224.0586494745803" stroke="yellow" stroke-linecap="round" stroke-linejoin="round" stroke-width="0.5"><title>2024-08-11 5.0km</title><desc>1723380974002</desc></polyline><polyline fill="none" points="132.21923620952293,225.7433718610846 126.53663366334513,226.22545806557173 124.978500707075,220.3332619164721 134.37312588398345,216.8514774684736 132.3108910890296,204.20972066486138 152.19999999995343,196.17454193445155 143.7677510608919,199.9243078531872 143.63026874116622,202.0670187859796 145.87581329559907,212.08407229706063 138.63507779338397,215.5123232390033 124.74936350784265,219.0476827500388 120.02913719927892,209.35216823540395 120.57906647818163,207.79872602893738 132.90664780768566,203.8883159601537 150.2752475249581,196.81736091844505 144.04271570011042,199.38862870525918 143.21782178222202,200.40641860247706 145.8299858556129,211.97693908168003 139.32248939177953,215.13735942103085 124.88684582756832,218.94055100574042 119.80000000004657,208.92363292962546 122.32050919346511,207.3166223075823 142.75954738329165,200.03144361489103 147.47977369185537,218.61915563701768" stroke="yellow" stroke-linecap="round" stroke-linejoin="round" stroke-width="0.5"><title>2024-08-04 5.0km</title><desc>1722777733849</desc></polyline><polyline fill="none" points="160.68281690170988,227.38876081380295 163.694647887256,225.94861862788093 163.14704225375317,224.828505199519 157.16901408461854,224.66848879281315 155.80000000004657,219.17456140380818 165.0636619720608,215.4941300136561 165.3830985915847,213.73391421462293 163.19267605640925,202.90578509462648 182.67830985900946,195.01123918622034 185.46197183104232,202.21235019579763 186.0095774650108,207.75980272327433 188.06309859151952,215.06741159543162 187.2416901406832,216.40090545502608 180.76169014093466,218.9078643784742 179.3014084508177,220.18800881595234 166.2045070421882,224.081761533831 157.35154929570854,224.66848879281315 156.02816901402548,218.80118552877684 165.47436619736254,215.7074890874792 162.69070422532968,203.1724905714509 182.45014084526338,195.27794883272145 185.59887323947623,202.37237371859374 188.19999999995343,215.7074890874792 180.305352112744,219.12122201008606 179.62084507057443,220.13466952909948 174.46422535227612,221.36147169949254 174.60112676071003,223.281677809573 175.3769014084246,223.22833884964348 174.64676056336612,224.0284226583026 165.2918309860397,225.57524776118225 161.36732394387946,226.96205244609155 168.16676056338474,224.24177812665584 172.7301408450585,223.86840599786956 175.9245070423931,222.64160991745302 169.07943661976606,225.04186032991856" stroke="yellow" stroke-linecap="round" stroke-linejoin="round" stroke-width="0.5"><title>2024-07-28 5.0km</title><desc>1722171325984</desc></polyline><polyline fill="none" points="26.955801104893908,266.4720199747826 26.71712707192637,264.03101132513257 19.377900552470237,264.30998419894604 17.58784530381672,256.42895514902193 29.819889502599835,252.52327757579042 29.939226519316435,249.4545147047611 26.53812154661864,236.41211338475114 25.762430939124897,235.99363634962356 11.800000000046566,240.59686915029306 26.359116022009403,236.55160567094572 32.86298342514783,260.6833276465768 31.78895027609542,262.7756319345208 27.373480662936345,263.8217815925018 27.671823204495013,265.84433289821027 39.66519336984493,262.56640180404065 41.455248618498445,263.40332192811184 44.199999999953434,262.0084544653073 26.359116022009403,266.82073475967627 32.325966850854456,264.3797273990349 37.09944751369767,264.1007545545581 43.66298342542723,261.4505066550919 41.75359116005711,263.12434867123375 31.132596684852615,265.077158994216 26.239779005525634,267.1694493602845 30.41657458571717,264.86792959307786 39.84419889491983,262.7756319345208 41.09723756904714,263.26383531442843 42.887292817467824,261.8689675569185 44.080662983236834,261.7992240918102 42.17127071833238,262.9151186514064 32.26629834249616,264.93767273414414 23.554696132661775,268.00636365043465 40.4408839775715,262.0084544653073 43.782320441911,261.6597371393 42.05193370138295,262.9848619987024 31.251933701802045,264.7981864445028 25.28508287295699,267.1694493602845 32.92265193373896,263.6822950671194 35.78674033144489,264.03101132513257 40.023204419761896,262.4966584126232 41.69392265169881,263.40332192811184 43.72265193331987,262.07819790847134 37.99447513790801,264.17049777676584 34.83204419887625,264.30998419894604 36.68176795588806,263.40332192811184 41.03756906045601,263.26383531442843 43.72265193331987,261.5899936520145 42.05193370138295,263.19409199635265" stroke="#4DD2FF" stroke-linecap="round" stroke-linejoin="round" stroke-width="0.5"><title>2024-07-21 4.9km</title><desc>1721568919550</desc></polyline><polyline fill="none" points="66.2107382551767,261.8278529824456 60.2671140935272,263.52228177984944 58.310067113954574,260.98063724138774 50.84429530194029,261.15008046128787 48.23489932855591,252.67787562619196 48.37986577162519,251.32231454830617 64.8335570464842,246.32366327533964 62.65906040277332,239.63050516363 63.16644295305014,246.0694937344524 66.28322147624567,257.16815533390036 51.13422818807885,261.31952364515746 49.90201342245564,260.47230736742495 47.799999999813735,251.91537280159537 48.017449664417654,249.6278599796351 63.02147650998086,245.22226134920493 62.15167785203084,239.63050516363 63.16644295305014,245.9000473289634 66.93557046959177,255.81260184425628 65.92080536903813,258.10009702888783 50.84429530194029,260.8959156181081 49.75704697985202,260.1334206055617 47.799999999813735,252.16954049043125 48.74228187883273,249.79730559774907 62.15167785203084,245.64587765355827 62.36912751663476,240.8166385210352 66.35570469778031,256.06676829827484 65.8483221475035,258.3542627579882 50.91677852347493,260.98063724138774 48.017449664417654,253.27093287731986 48.017449664417654,250.39036497863708 62.58657718077302,245.56115441059228 64.10872483206913,247.17089449730702 66.35570469778031,257.59176532929996 59.75973154371604,260.6417506945436 60.41208053706214,263.52228177984944 71.28456375841051,259.62509019463323 80.20000000018626,258.26954085717443 61.13691275147721,262.2514605172328 58.67248322116211,264.36949483637 67.29798657726496,261.57368835399393" stroke="#4DD2FF" stroke-linecap="round" stroke-linejoin="round" stroke-width="0.5"><title>2024-07-14 4.2km</title><desc>1720963947536</desc></polyline><polyline fill="none" points="83.79999999981374,256.026467695483 104.28275862056762,249.06177884456702 115.82758620660752,247.64707066956908 114.2448275857605,246.88530392444227 110.79999999934807,249.71472042438108 93.11034482717514,252.65295241202693 85.01034482708201,255.80882188118994 84.8241379307583,257.11469607555773 94.87931034434587,252.32648260507267 116.1999999997206,247.5382468830794 110.98620689567178,250.15001458092593 94.32068965490907,252.43530588585418 87.89655172359198,255.59117602126207 86.22068965481594,255.37353011546656 94.13448275858536,251.89118936797604 115.17586206831038,246.88530392444227 110.52068965462968,249.93236752552912 105.2137931031175,250.04119105928112 86.22068965481594,255.48235307412688 102.97931034397334,249.06177884456702 107.3551724134013,249.38824968633708 115.17586206831038,247.21177545550745 112.66206896491349,249.27942608378362 93.48275862028822,252.21765931299888 85.38275862066075,255.80882188118994 91.99310344783589,253.41471489309333 97.67241379292682,248.08236569957808 101.11724137840793,250.25883809151128 110.05517241358757,248.8441315597156 102.14137930935249,251.5647193196928" stroke="#4DD2FF" stroke-linecap="round" stroke-linejoin="round" stroke-width="0.5"><title>2024-07-07 3.0km</title><desc>1720361789036</desc></polyline></svg>