<?xml version="1.0" encoding="utf-8" ?>
<svg baseProfile="full" height="300mm" version="1.1" viewBox="0,0,200,300" width="200mm" xmlns="http://www.w3.org/2000/svg" xmlns:ev="http://www.w3.org/2001/xml-events" xmlns:xlink="http://www.w3.org/1999/xlink"><defs /><rect fill="#222222" height="300" width="200" x="0" y="0" /><text fill="#FFFFFF" style="font-size:12px; font-family:Arial; font-weight:bold;" x="10" y="20">Runs</text><text fill="#FFFFFF" style="font-size:4px; font-family:Arial" x="10" y="280">Runner</text><text fill="#FFFFFF" style="font-size:9px; font-family:Arial" x="10" y="290">Jay</text><text fill="#FFFFFF" style="font-size:4px; font-family:Arial" x="65" y="280">SPECIAL TRACKS</text><rect fill="yellow" height="2.6" width="2.6" x="65" y="283" /><text fill="#FFFFFF" style="font-size:3px; font-family:Arial" x="70" y="285.5">Over 5.0 km</text><rect fill="red" height="2.6" width="2.6" x="65" y="287" /><text fill="#FFFFFF" style="font-size:3px; font-family:Arial" x="70" y="289.5">Over 10.0 km</text><text fill="#FFFFFF" style="font-size:4px; font-family:Arial" x="120" y="280">STATISTICS</text><text fill="#FFFFFF" style="font-size:3px; font-family:Arial" x="120" y="285">Number: 27</text><text fill="#FFFFFF" style="font-size:3px; font-family:Arial" x="120" y="290">Weekly: 1.4</text><text fill="#FFFFFF" style="font-size:3px; font-family:Arial" x="141" y="285">Total: 107.1 km</text><text fill="#FFFFFF" style="font-size:3px; font-family:Arial" x="141" y="290">Avg: 4.0 km</text><text fill="#FFFFFF" style="font-size:3px; font-family:Arial" x="167" y="285">Min: 2.1 km</text><text fill="#FFFFFF" style="font-size:3px; font-family:Arial" x="167" y="290">Max: 5.2 km</text><polyline fill="none" points="18.839085239218548,61.30628550963593 21.43243243242614,60.479592226678506 20.55675675685052,59.21986560311052 16.4814968816936,59.613530630391324 15.471101871225983,55.28319246254978 11.90103950118646,47.80339894077042 11.800000000046566,46.661733040673425 22.51018711028155,43.0005050112959 41.572972973110154,34.69371449033497 42.785446985508315,35.992892995040165 44.20000000006985,44.41775883777882 32.041580041637644,49.37810478848405 31.367983367992565,50.952803982945625 32.108939709025435,56.3854651330621 28.976715176715516,57.5271012482408 29.38087318104226,58.70810044615064 28.639916840125807,59.180499077483546 25.137214137241244,60.04656167997746 23.7900207900675,59.73163005738752 24.227858628029935,60.007195241807494 23.992099792230874,59.180499077483546 23.722661122796126,59.81036298800609 24.16049896052573,59.49543116582208" stroke="#4DD2FF" stroke-linecap="round" stroke-linejoin="round" stroke-width="0.5"><title>2025-06-14 2.8km</title><desc>1749897609635</desc></polyline><polyline fill="none" points="56.38143899885472,61.03203368006507 52.597497393144295,60.913564757298445 51.246089676744305,55.9378361076233 47.800000000046566,48.71106466115452 48.17163712205365,47.723789956828114 66.34807090717368,41.32618668611394 77.80125130352098,36.03425927014905 78.71345151215792,36.98207267271937 79.35537017742172,39.35159566521179 80.20000000006985,45.78872397352825 71.95641293027438,49.500882547319634 67.49676746607292,50.76458769477904 65.23315954138525,41.8000869792304 79.62565172079485,34.96796631990583 65.0304483838845,42.19500343129039 66.95620437967591,50.883059833344305 66.04400417103898,51.554401242901804 61.753284671576694,53.252494721178664 51.41501564125065,56.01681644463679 47.833785192808136,48.86902837181697 47.86757038580254,48.039718145824736 64.65881126187742,42.03703690049588 68.03733055258635,55.5429341722338" stroke="yellow" stroke-linecap="round" stroke-linejoin="round" stroke-width="0.5"><title>2025-06-03 5.1km</title><desc>1748956863854</desc></polyline><polyline fill="none" points="91.57478991604876,60.11130241968203 88.03529411775526,60.28810252060066 86.61344537837431,55.40838546154555 83.80000000004657,49.43240318837343 83.86050420161337,48.58373433339875 100.438655462116,42.71371584656299 116.20000000006985,35.1108280592307 115.98823529400397,34.47429938710411 110.27058823523112,37.444756167562446 110.45210084039718,37.975192104349844 109.33277310919948,38.682438712683506 99.65210084046703,43.244143434334546 101.5579831933137,51.09437346391496 108.2134453781182,48.51301183167379 112.66050420165993,46.24988388828933 110.66386554623023,38.08127919083927 99.28907563025132,43.49167602084344 100.98319327738136,51.3065392881108 97.95798319333699,52.827057093789335 90.6067226891173,55.26694332662737 86.94621848757379,55.938792935048696 84.22352941194549,50.493236231588526 83.92100840352941,48.61909557855688 84.40504201699514,48.40692805100116 83.80000000004657,49.22023617630475 87.0369747900404,55.97415340336738 88.00504201685544,60.040582353190985 91.51428571436554,59.93450222539832 92.02857142873108,60.18202247127192 92.45210084039718,61.52570061289589 92.99663865554612,61.419620955653954" stroke="yellow" stroke-linecap="round" stroke-linejoin="round" stroke-width="0.5"><title>2025-05-25 5.1km</title><desc>1748170625707</desc></polyline><polyline fill="none" points="126.84609665442258,61.60363249544753 128.20111524162348,61.075698941160226 127.80966542765964,60.16061213245848 126.2739776953822,60.47737323521869 124.01561338303145,60.055025031324476 122.81115241639782,55.6555327437527 119.80000000004657,48.47543657646747 130.91115241649095,44.81493584837881 139.6434944239445,41.25998799590161 152.20000000006985,34.9595416901866 152.04944237926975,34.39636750452337 140.6672862455016,40.02806652444997 140.84795539046172,40.90801089743036 135.69888475851621,43.090262914280174 137.3249070632737,50.62244233151432 136.3011152416002,51.74873490043683 132.4468401487684,53.297380966774654 123.26282527879812,55.831513550452655 119.89033457252663,49.28496496123262 120.0107806691667,48.40504271091777 135.75910780671984,42.984670403791824 146.7197026022477,37.9865866289183 148.67695167299826,46.680388359643985 132.8985130112851,53.19179169094423 127.65910780674312,54.59964595164638" stroke="yellow" stroke-linecap="round" stroke-linejoin="round" stroke-width="0.5"><title>2025-05-24 5.2km</title><desc>1748085426224</desc></polyline><polyline fill="none" points="162.5097014924977,61.7427051125851 164.23246268660296,61.03616758217686 163.9604477613466,60.11766656147665 159.9104477611836,60.011685512115946 158.88283582078293,55.772416003310354 155.80000000004657,49.30742655103677 155.83022388070822,48.17692375535262 171.51641791057773,42.70099675512756 180.8555970150046,38.602824985195184 188.19999999995343,34.71658122492954 187.7466417910764,34.2572948874149 182.48768656724133,36.97767399766599 182.45746268657967,37.6842623539269 181.5507462687092,38.249531964043854 171.0026119403774,43.30158667470096 172.69514925370459,51.2504693029623 168.49402985081542,52.981534246500814 158.88283582078293,55.631106094399 160.06156716425903,59.90570442925673 163.02350746281445,59.94103146062116" stroke="#4DD2FF" stroke-linecap="round" stroke-linejoin="round" stroke-width="0.5"><title>2025-05-18 3.3km</title><desc>1747570670414</desc></polyline><polyline fill="none" points="22.948708487325348,101.56958271478652 20.497785977902822,102.2682994606439 19.60110701119993,100.76605663241935 16.163837638450786,101.01060825542663 14.699261992704123,96.0496685350081 11.85977859806735,90.28510286356322 11.82988929899875,89.2719263949839 30.18191881943494,82.73861049409606 44.20000000006985,75.9955341424793 43.81143911438994,75.33170053933281 38.102583026047796,78.1966570817458 38.132472324883565,78.96529973647557 34.69520295213442,80.81702243219479 27.611439114552923,83.96143344781012 29.255350553663447,91.3681501391693 28.86678966798354,91.8572671013244 26.774538745637983,84.24093520242604 38.28191881929524,78.86048493415001 38.04280442802701,78.30147209443385 32.5431734318845,80.92183661437593 32.57306273072027,81.55072100981488 30.988929889397696,82.45910746994196 27.611439114552923,83.89155797226704 29.076014760299586,91.75245638465276 28.567896679160185,91.64764563471545 26.774538745637983,84.24093520242604 19.780442804680206,86.86125266458839 19.122878228896298,86.26731585926609 11.800000000046566,88.57318219452281 12.009225092479028,89.97066911921138 15.147601476171985,96.67852416692767 15.835055350675248,99.47342362152995" stroke="yellow" stroke-linecap="round" stroke-linejoin="round" stroke-width="0.5"><title>2025-05-17 5.1km</title><desc>1747484576135</desc></polyline><polyline fill="none" points="55.103877366986126,101.65732823949656 56.155635707778856,101.31584553778521 55.103877366986126,100.22309846841381 51.91938683495391,100.32554366305703 50.721550946705975,95.95451983774547 47.800000000046566,89.77351809380343 47.97529305680655,89.02222805915517 64.1022542831488,83.28504658510792 79.2066726781195,75.94267176050926 80.20000000006985,78.77718971189461 79.29431920661591,76.01097369001945 62.69990982871968,84.17295037736767 64.24833183048759,91.24194357494707 64.62813345354516,91.2760929253709 63.07971145177726,83.79729907057481 77.62903516704682,76.79644484343589 62.75834084756207,84.03634995271568 64.1314697926864,91.92492989820312 60.01208295766264,93.6665384923399 51.01370604138356,96.12526406496181 52.1823264202103,100.15480165398913 55.629756537498906,100.15480165398913 56.447790802572854,101.07680743193487 60.88854824169539,99.81331736521679" stroke="yellow" stroke-linecap="round" stroke-linejoin="round" stroke-width="0.5"><title>2025-05-11 5.2km</title><desc>1746960817262</desc></polyline><polyline fill="none" points="93.63374858442694,103.10376955705578 94.03737259353511,101.94578237712267 93.52366930921562,101.21667764370795 88.9370328427758,101.43112034822116 87.5793884487357,96.28446418364183 83.80000000004657,88.17834844315075 83.91007927525789,87.27765892693424 103.4308040770702,80.41519700997742 116.20000000018626,74.49623044297914 96.38573046447709,83.33175749680959 83.91007927525789,87.19187886881991 87.5793884487357,95.94135145324981 89.26727066840976,101.73133994432283 97.48652321635745,100.57334885068121 105.74246885627508,97.69980113167549 106.9533408835996,101.73133994432283" stroke="#4DD2FF" stroke-linecap="round" stroke-linejoin="round" stroke-width="0.5"><title>2025-05-10 3.3km</title><desc>1746881233572</desc></polyline><polyline fill="none" points="128.65559701493476,101.92446071561426 127.6279850746505,100.82932482540491 126.9932835821528,101.28857579658506 124.0313432837138,100.65268966864096 123.06417910452001,97.08463952786406 119.80000000004657,89.24186088173883 136.12089552241378,83.41264950006735 152.20000000006985,75.67553928439156 135.33507462695707,83.80126675314386 136.5742537312908,91.92679679664434 132.6753731344361,93.83450132253347 123.06417910452001,96.44874540768797 123.94067164184526,100.61736262601335 127.08395522402134,100.68801670742687" stroke="#4DD2FF" stroke-linecap="round" stroke-linejoin="round" stroke-width="0.5"><title>2025-05-09 3.2km</title><desc>1746800655160</desc></polyline><polyline fill="none" points="171.36032968084328,105.0 170.45413006166928,102.57006172725232 164.53717960906215,102.00930531986523 162.83139209123328,95.71633574756561 157.23427679762244,83.81558600690914 157.07435921765864,81.82171963591827 183.7272891860921,72.60000000003492 186.92564078210853,86.8063729268033 179.56943211099133,89.98406741424697 162.9380038108211,94.65711644664407 164.48387374915183,102.00930531986523 171.09380038129166,102.00930531986523 172.21322343987413,104.25232775131008 175.19835159601644,103.06851141975494" stroke="#4DD2FF" stroke-linecap="round" stroke-linejoin="round" stroke-width="0.5"><title>2025-05-07 2.1km</title><desc>1746628465614</desc></polyline><polyline fill="none" points="21.570288248360157,143.14063576818444 21.06740576494485,142.4688746042084 16.972505543380976,142.5948299089796 15.140576496720314,136.21304425387643 12.626164079876617,131.25869264057837 11.94368070969358,128.69752056035213 27.06607538787648,123.40717843928724 35.65099778259173,119.71229456004221 31.77161862514913,121.6857027237129 43.37383592012338,116.14334001883981 44.199999999953434,117.27701140506542 43.51751662953757,116.0593642318563 30.262971175136045,122.44147346823593 30.11929046572186,123.7430752706714 32.094900221563876,131.9304727493727 26.3476718403399,134.3656661262794 15.427937915781513,137.2626870922395 11.800000000046566,129.32731850352138 12.302882483461872,128.5295742736198 14.637694013305008,127.68984177548555 12.087361419107765,128.61354742580443 11.94368070969358,129.41129148722393 15.284257206134498,136.92680168541847 17.94235033262521,136.54893026361242 15.571618625195697,137.30467274808325 16.82882483373396,142.30093413582654 21.426607538713142,142.4688746042084" stroke="#4DD2FF" stroke-linecap="round" stroke-linejoin="round" stroke-width="0.5"><title>2025-05-04 3.9km</title><desc>1746361657097</desc></polyline><polyline fill="none" points="58.23866170994006,143.23290456132963 55.42825278802775,143.74910794888274 53.220074349083006,143.23290456132963 52.136059479555115,138.02390954404837 47.96059479517862,129.34211546721053 48.00074349436909,127.93424098216929 67.31226765783504,121.17638134834124 80.19999999995343,115.4508920511289 68.47657992551103,120.94173159758793 70.44386617094278,131.45391883002594 64.30111524136737,134.08192677417537 52.05576208163984,137.36691484457697 47.800000000046566,128.63817878236296 48.08104089205153,127.84038252438768 50.168773234123364,127.08951414946932 48.00074349436909,127.79345328823547 52.17620817804709,137.31998661451507 53.621561338193715,143.18597695085919 57.074349442264065,142.85748353903182" stroke="#4DD2FF" stroke-linecap="round" stroke-linejoin="round" stroke-width="0.5"><title>2025-05-02 3.2km</title><desc>1746193621188</desc></polyline><polyline fill="none" points="93.08314606756903,143.153025949141 88.75101123610511,143.3657819806831 87.44044943829067,137.96174396190327 83.80000000004657,130.13214296114165 84.05483146081679,129.32364288539975 105.02382022468373,121.62153448807658 116.20000000018626,116.42997502433718 115.54471910116263,115.83421801932855 102.65752808982506,121.62153448807658 102.18426966294646,123.23856393393362 104.22292134840973,132.47252877024584 101.82022471912205,133.8342015298258 87.65887640463188,138.00429572552093 84.30966292135417,130.94064141414128 87.65887640463188,138.04684748471482 88.89662921358831,143.153025949141 93.19235955062322,143.28067958151223" stroke="#4DD2FF" stroke-linecap="round" stroke-linejoin="round" stroke-width="0.5"><title>2025-05-01 3.2km</title><desc>1746105997674</desc></polyline><polyline fill="none" points="127.46182380232494,142.0240592463233 126.61051004647743,140.99974033076433 125.00803709437605,141.46800087630982 123.7561051006196,141.52653338885284 123.28037094289903,141.17533812811598 122.42905718716793,137.9267608646187 119.8500772799598,132.36604472223553 119.90015455964021,131.66363053399255 128.63863987650257,128.70761797597515 138.779289026279,124.49305048419046 152.20000000006985,117.70277911078301 151.84945904184133,117.17594075368834 148.81978361681104,118.37595999785117 148.19381761993282,119.04913924910943 137.47727975284215,124.40524631302105 126.5103554870002,128.76615318420227 126.2349304483505,129.46857471807743 120.07542503881268,131.48802670868463 119.80000000004657,131.98557059129234 122.35394126747269,137.45849433468538 129.01421947451308,135.73175466619432 122.3789799073711,137.57556104133255 119.82503863994498,132.16117410126026 119.90015455964021,131.51729402056662 125.7341576507315,129.70271483366378 120.4510046368232,131.25388810184086 119.90015455964021,131.7514324048825 123.65595054102596,141.32166954083368" stroke="yellow" stroke-linecap="round" stroke-linejoin="round" stroke-width="0.5"><title>2025-04-20 5.2km</title><desc>1745154044961</desc></polyline><polyline fill="none" points="170.7202417391818,144.33599042525748 165.54675089707598,144.71790630934993 163.96747474558651,143.89042158797383 161.2445848286152,134.08782382268691 156.67012976831757,123.20293428341392 183.5722821461968,113.39999999996508 187.3298702314496,127.97703284799354 179.54240506957285,131.28705231758067 174.6956610174384,131.98724641418085 162.49711419036612,136.25204743415816 164.9477151155006,144.20868507691193 169.03204999072477,143.38119965634542 171.31927752075717,144.01772700372385 172.35397568903863,145.79999999998836 175.67590138758533,144.39964308950584" stroke="#4DD2FF" stroke-linecap="round" stroke-linejoin="round" stroke-width="0.5"><title>2025-03-23 2.1km</title><desc>1742729899087</desc></polyline><polyline fill="none" points="23.65670410101302,186.08663487393642 24.535123496316373,186.59999999997672 26.682370906928554,185.5162286061095 27.02397844963707,184.20429190353025 25.999155821744353,183.46276105340803 20.338230829918757,183.34867929376196 19.0694028143771,177.24527002114337 13.603682132437825,164.69598750950536 42.44511894485913,154.20000000001164 13.554881055140868,164.8100732093444 19.118203891906887,176.33260476228315 20.387031907448545,183.12051570235053 26.82877413951792,183.34867929376196 27.463188147172332,185.0028624497936 31.36727434862405,183.12051570235053 31.562478658510372,183.91908785095438" stroke="#4DD2FF" stroke-linecap="round" stroke-linejoin="round" stroke-width="0.5"><title>2025-03-16 2.5km</title><desc>1742128080108</desc></polyline><polyline fill="none" points="52.294972067233175,176.7973805993679 50.00223463703878,175.63425182976061 48.82569832424633,173.90717437144485 47.800000000046566,166.71679678812507 48.37318435765337,164.9544257374073 50.394413408008404,163.5797698662791 56.00558659224771,163.33303616271587 63.24581005598884,161.35915997670963 54.73854748613667,163.40353152519674 50.635754190036096,163.5445222055132 48.765363128622994,164.49620774193318 47.830167597858235,166.68154945829883 48.67486033542082,172.8850222841429 49.70055865950417,175.3875270249846 56.0960893855663,178.38345876251697 59.293854748713784,179.2293640386779 64.24134078226052,179.44084002330783 72.62793296098243,177.50230515666772 76.15754189959262,175.49326624927926 77.33407821226865,174.25963988367585 80.20000000006985,168.30292278827983 76.79106145258993,174.71784449386178 74.58882681571413,176.30393252478098 71.24022346374113,177.7490284004307 63.60782122914679,179.2998560483975 58.931843575439416,178.98264188758912 52.898324022535235,176.76213433250086 56.0960893855663,178.4187048583699 60.74189944146201,179.37034804330324 64.57318435772322,179.44084002330783 66.8659217878012,178.7359195543977 63.60782122914679,179.2646100454731 59.05251396668609,178.91214981107623 55.40223463694565,177.9605053215928 51.75195530743804,176.2686862058763 53.592178771155886,176.58590294234455" stroke="#4DD2FF" stroke-linecap="round" stroke-linejoin="round" stroke-width="0.5"><title>2025-03-08 4.9km</title><desc>1741407347536</desc></polyline><polyline fill="none" points="93.86779661010951,184.3933208611852 88.96203389833681,184.0081967090664 87.9003389829304,179.38667832917417 83.909830508288,170.69979277293896 84.20271186437458,169.84393189952243 106.16881355922669,161.92713310106774 115.87050847453065,157.39095163540333 116.19999999995343,156.96300736549892 115.72406779672019,156.40667913880316 101.95864406763576,162.74021686328342 83.80000000004657,168.85968965958455 89.18169491528533,183.83703030177276 96.83322033891454,183.49469727021642 102.43457627133466,181.82581959903473" stroke="#4DD2FF" stroke-linecap="round" stroke-linejoin="round" stroke-width="0.5"><title>2025-03-02 3.1km</title><desc>1740908689410</desc></polyline><polyline fill="none" points="135.7888074493967,186.59999999997672 135.0496335218195,184.56348148797406 128.5554625876248,184.50176869501593 127.07711473293602,177.34304047719343 120.84693448711187,164.93848477792926 121.11092517571524,164.1979059575242 147.82678283937275,154.9405914938543 151.15306551288813,168.51793584349798 143.76132623828016,171.91222263127565 126.81312404456548,176.47905010543764 121.05812703771517,164.1979059575242 148.67155304225162,154.19999999995343 147.93237911490723,155.2491710059112 150.941872962052,168.51793584349798 142.49417093442753,172.03565087041352" stroke="#4DD2FF" stroke-linecap="round" stroke-linejoin="round" stroke-width="0.5"><title>2024-12-01 3.0km</title><desc>1733059607886</desc></polyline><polyline fill="none" points="171.34285714291036,186.43027117598103 163.74285714305006,186.49706226878334 162.02857142873108,179.08320790005382 155.80000000004657,164.65599890053272 183.97142857150175,154.3029377311468 186.02857142873108,158.7781527141924 188.19999999995343,169.33151935000205 181.51428571436554,172.7379481944954 161.8571428572759,177.94774505123496 155.91428571403958,164.98996579332743 184.82857142877765,154.3029377311468 188.1428571427241,169.53189802536508 178.9428571430035,174.07379763410427 162.31428571417928,179.41716717364034 164.0857142857276,186.43027117598103 169.91428571403958,186.09631560603157" stroke="#4DD2FF" stroke-linecap="round" stroke-linejoin="round" stroke-width="0.5"><title>2024-11-03 3.4km</title><desc>1730641178795</desc></polyline><polyline fill="none" points="32.30123100266792,227.40000000002328 29.008930729003623,226.3448557271622 27.94689838262275,226.77932712773327 28.0,225.78624916874105 26.778662801720202,225.16557459207252 20.778180045308545,225.10350709839258 17.804489475442097,214.80021227535326 12.972242299467325,204.7450154388207 39.7885590440128,195.06207067368086 43.452570638852194,209.21401305269683 35.75283612823114,212.5036701343488 18.494810500647873,216.97260874294443 12.600530978525057,204.99329397565452 14.352884349878877,203.50362118083285 39.89476227853447,195.0 43.39946902170777,209.15194387407973 36.39005553605966,212.13125704944832 18.919623438967392,217.2208821134991 17.53898138878867,215.79330879979534 12.547429361147806,204.7450154388207 39.629254192113876,195.12414134055143 43.452570638852194,209.33815139019862 35.91214098013006,212.5036701343488 19.397537994896993,217.2208821134991 18.972725056577474,220.13808636157773 20.034757402725518,225.04143959807698 27.415882209548727,224.73110199841904" stroke="yellow" stroke-linecap="round" stroke-linejoin="round" stroke-width="0.5"><title>2024-08-18 5.1km</title><desc>1723984957861</desc></polyline><polyline fill="none" points="62.26436896226369,227.40000000002328 64.2041918868199,226.26632971549407 63.183232452953234,223.76031364529626 59.0483467457816,224.65532066079322 56.64909207634628,224.11831662151963 55.06660495372489,217.73389615723863 49.604471982456744,204.6664928495884 76.20046523492783,195.0000000000582 75.79208146128803,196.9691138115595 78.39552801754326,208.5449774307781 70.99357212195173,212.36376700078836 55.27079684054479,216.60020647518104 52.36106245382689,211.82675127737457 49.502376039046794,204.6664928495884 75.02636188571341,195.41769138217205 76.91513683856465,200.42996387655148 78.44657598924823,208.60464621614665 72.11662749946117,212.00575657520676 55.117652925197035,216.48087058681995 49.400280095636845,204.9648387627676 73.7501625935547,195.7160421803128 75.48579363082536,195.95472270523896 78.59971990413032,209.0223275386379 70.432044433197,212.54277212830493 55.78127655736171,216.42120263329707 55.219748868839815,217.435556987999 56.75118801975623,223.81998082372593 61.29445750033483,224.0586494745803" stroke="yellow" stroke-linecap="round" stroke-linejoin="round" stroke-width="0.5"><title>2024-08-11 5.0km</title><desc>1723380974002</desc></polyline><polyline fill="none" points="96.21923620952293,225.7433718610846 90.53663366334513,226.22545806557173 88.978500707075,220.3332619164721 98.37312588398345,216.8514774684736 96.31089108902961,204.20972066486138 116.19999999995343,196.17454193445155 107.7677510608919,199.9243078531872 107.63026874116622,202.0670187859796 109.87581329559907,212.08407229706063 102.63507779338397,215.5123232390033 88.74936350784265,219.0476827500388 84.02913719927892,209.35216823540395 84.57906647818163,207.79872602893738 96.90664780768566,203.8883159601537 114.2752475249581,196.81736091844505 108.04271570011042,199.38862870525918 107.21782178222202,200.40641860247706 109.8299858556129,211.97693908168003 103.32248939177953,215.13735942103085 88.88684582756832,218.94055100574042 83.80000000004657,208.92363292962546 86.32050919346511,207.3166223075823 106.75954738329165,200.03144361489103 111.47977369185537,218.61915563701768" stroke="yellow" stroke-linecap="round" stroke-linejoin="round" stroke-width="0.5"><title>2024-08-04 5.0km</title><desc>1722777733849</desc></polyline><polyline fill="none" points="124.68281690170988,227.38876081380295 127.694647887256,225.94861862788093 127.14704225375317,224.828505199519 121.16901408461854,224.66848879281315 119.80000000004657,219.17456140380818 129.0636619720608,215.4941300136561 129.3830985915847,213.73391421462293 127.19267605640925,202.90578509462648 146.67830985900946,195.01123918622034 149.46197183104232,202.21235019579763 150.0095774650108,207.75980272327433 152.06309859151952,215.06741159543162 151.2416901406832,216.40090545502608 144.76169014093466,218.9078643784742 143.3014084508177,220.18800881595234 130.2045070421882,224.081761533831 121.35154929570854,224.66848879281315 120.02816901402548,218.80118552877684 129.47436619736254,215.7074890874792 126.69070422532968,203.1724905714509 146.45014084526338,195.27794883272145 149.59887323947623,202.37237371859374 152.19999999995343,215.7074890874792 144.305352112744,219.12122201008606 143.62084507057443,220.13466952909948 138.46422535227612,221.36147169949254 138.60112676071003,223.281677809573 139.3769014084246,223.22833884964348 138.64676056336612,224.0284226583026 129.2918309860397,225.57524776118225 125.36732394387946,226.96205244609155 132.16676056338474,224.24177812665584 136.7301408450585,223.86840599786956 139.9245070423931,222.64160991745302 133.07943661976606,225.04186032991856" stroke="yellow" stroke-linecap="round" stroke-linejoin="round" stroke-width="0.5"><title>2024-07-28 5.0km</title><desc>1722171325984</desc></polyline><polyline fill="none" points="170.9558011048939,225.67201997473603 170.71712707192637,223.231011325086 163.37790055247024,223.50998419889947 161.58784530381672,215.62895514897536 173.81988950259984,211.72327757574385 173.93922651931643,208.65451470471453 170.53812154661864,195.61211338470457 169.7624309391249,195.193636349577 155.80000000004657,199.7968691502465 170.3591160220094,195.75160567089915 176.86298342514783,219.88332764653023 175.78895027609542,221.97563193447422 171.37348066293634,223.02178159245523 171.671823204495,225.0443328981637 183.66519336984493,221.76640180399409 185.45524861849844,222.60332192806527 188.19999999995343,221.20845446526073 170.3591160220094,226.0207347596297 176.32596685085446,223.57972739898833 181.09944751369767,223.3007545545115 187.66298342542723,220.65050665504532 185.7535911600571,222.32434867118718 175.13259668485261,224.27715899416944 170.23977900552563,226.36944936023792 174.41657458571717,224.0679295930313 183.84419889491983,221.97563193447422 185.09723756904714,222.46383531438187 186.88729281746782,221.06896755687194 188.08066298323683,220.9992240917636 186.17127071833238,222.1151186513598 176.26629834249616,224.13767273409758 167.55469613266177,227.20636365038808 184.4408839775715,221.20845446526073 187.782320441911,220.8597371392534 186.05193370138295,222.18486199865583 175.25193370180205,223.99818644445622 169.285082872957,226.36944936023792 176.92265193373896,222.88229506707285 179.7867403314449,223.231011325086 184.0232044197619,221.69665841257665 185.6939226516988,222.60332192806527 187.72265193331987,221.27819790842477 181.994475137908,223.37049777671928 178.83204419887625,223.50998419889947 180.68176795588806,222.60332192806527 185.037569060456,222.46383531438187 187.72265193331987,220.78999365196796 186.05193370138295,222.3940919963061" stroke="#4DD2FF" stroke-linecap="round" stroke-linejoin="round" stroke-width="0.5"><title>2024-07-21 4.9km</title><desc>1721568919550</desc></polyline><polyline fill="none" points="30.210738255176693,261.8278529824456 24.267114093527198,263.52228177984944 22.310067113954574,260.98063724138774 14.844295301940292,261.15008046128787 12.234899328555912,252.67787562619196 12.379865771625191,251.32231454830617 28.833557046484202,246.32366327533964 26.65906040277332,239.63050516363 27.166442953050137,246.0694937344524 30.28322147624567,257.16815533390036 15.13422818807885,261.31952364515746 13.902013422455639,260.47230736742495 11.799999999813735,251.91537280159537 12.017449664417654,249.6278599796351 27.021476509980857,245.22226134920493 26.151677852030843,239.63050516363 27.166442953050137,245.9000473289634 30.935570469591767,255.81260184425628 29.920805369038135,258.10009702888783 14.844295301940292,260.8959156181081 13.75704697985202,260.1334206055617 11.799999999813735,252.16954049043125 12.742281878832728,249.79730559774907 26.151677852030843,245.64587765355827 26.369127516634762,240.8166385210352 30.35570469778031,256.06676829827484 29.848322147503495,258.3542627579882 14.916778523474932,260.98063724138774 12.017449664417654,253.27093287731986 12.017449664417654,250.39036497863708 26.58657718077302,245.56115441059228 28.10872483206913,247.17089449730702 30.35570469778031,257.59176532929996 23.759731543716043,260.6417506945436 24.41208053706214,263.52228177984944 35.28456375841051,259.62509019463323 44.200000000186265,258.26954085717443 25.13691275147721,262.2514605172328 22.67248322116211,264.36949483637 31.297986577264965,261.57368835399393" stroke="#4DD2FF" stroke-linecap="round" stroke-linejoin="round" stroke-width="0.5"><title>2024-07-14 4.2km</title><desc>1720963947536</desc></polyline><polyline fill="none" points="47.799999999813735,256.026467695483 68.28275862056762,249.06177884456702 79.82758620660752,247.64707066956908 78.2448275857605,246.88530392444227 74.79999999934807,249.71472042438108 57.11034482717514,252.65295241202693 49.01034482708201,255.80882188118994 48.8241379307583,257.11469607555773 58.87931034434587,252.32648260507267 80.1999999997206,247.5382468830794 74.98620689567178,250.15001458092593 58.320689654909074,252.43530588585418 51.89655172359198,255.59117602126207 50.22068965481594,255.37353011546656 58.134482758585364,251.89118936797604 79.17586206831038,246.88530392444227 74.52068965462968,249.93236752552912 69.2137931031175,250.04119105928112 50.22068965481594,255.48235307412688 66.97931034397334,249.06177884456702 71.3551724134013,249.38824968633708 79.17586206831038,247.21177545550745 76.66206896491349,249.27942608378362 57.48275862028822,252.21765931299888 49.38275862066075,255.80882188118994 55.99310344783589,253.41471489309333 61.67241379292682,248.08236569957808 65.11724137840793,250.25883809151128 74.05517241358757,248.8441315597156 66.14137930935249,251.5647193196928" stroke="#4DD2FF" stroke-linecap="round" stroke-linejoin="round" stroke-width="0.5"><title>2024-07-07 3.0km</title><desc>1720361789036</desc></polyline></svg>