<?xml version="1.0" encoding="utf-8" ?>
<svg baseProfile="full" height="200mm" version="1.1" viewBox="0,0,200,200" width="200mm" xmlns="http://www.w3.org/2000/svg" xmlns:ev="http://www.w3.org/2001/xml-events" xmlns:xlink="http://www.w3.org/1999/xlink"><defs /><rect fill="#1a1a1a" height="200" width="200" x="0" y="0" /><text alignment-baseline="middle" fill="#e1ed5e" style="dominant-baseline: central; font-size:9.0px; font-family:Arial;" text-anchor="middle" x="100.0" y="100.0">2025</text><line stroke="#e1ed5e" stroke-width="0.3" x1="100.0" x2="100.0" y1="15.0" y2="10.0" /><path d="M 100.0 14.0 a86.0,86.0 0 0,1 42.46469731375804,11.215312516191453" fill="none" id="id13" stroke="none" /><text fill="#e1ed5e" style="font-size:6.75px; font-family:Arial;" text-anchor="middle"><textPath startOffset="22.20632615414155" xlink:href="#id13">January</textPath></text><line stroke="#e1ed5e" stroke-width="0.3" x1="143.23703022742887" x2="145.7803849466894" y1="26.81831364943548" y2="22.513508569990506" /><path d="M 143.74570117128098 25.957352633546492 a86.0,86.0 0 0,1 28.547481713284135,27.462654790039103" fill="none" id="id14" stroke="none" /><text fill="#e1ed5e" style="font-size:6.75px; font-family:Arial;" text-anchor="middle"><textPath startOffset="19.985693538727396" xlink:href="#id14">February</textPath></text><line stroke="#e1ed5e" stroke-width="0.3" x1="172.23445277983987" x2="176.4835382374775" y1="55.19839476539836" y2="52.563006222186495" /><path d="M 173.08426987136738 54.67131705675599 a86.0,86.0 0 0,1 12.851231095245387,41.99856678651699" fill="none" id="id15" stroke="none" /><text fill="#e1ed5e" style="font-size:6.75px; font-family:Arial;" text-anchor="middle"><textPath startOffset="22.20632615414155" xlink:href="#id15">March</textPath></text><path d="M 118.03404312379186 89.2402003453031 l 32.17096376379931 -19.194427030083073 a58.46193986574737,58.46193986574737 0 0,0 0.5081743587709369,0.8686347062781775 l -32.49659779704057 18.637812911451" fill="red" stroke="none" /><path d="M 119.04729006885535 91.15688171328212 l 54.200484530672604 -25.163752647725815 a80.75706628237039,80.75706628237039 0 0,0 0.574519932924931,1.2658785166970985 l -54.62560678056088 24.227052122186652" fill="red" stroke="none" /><path d="M 120.08093135843002 93.85539295169968 l 28.472461417669027 -8.71234924250775 a50.775595518882184,50.775595518882184 0 0,0 0.24854437095155063,0.8379680608232928 l -28.61821168573228 8.220951794937928" fill="red" stroke="none" /><path d="M 120.67395015179393 96.31383870115 l 24.870676459787823 -4.434436784899296 a46.26291307760671,46.26291307760671 0 0,0 0.13303481911468568,0.7851790330841958 l -24.943323140422734 4.005671963499262" fill="red" stroke="none" /><line stroke="#e1ed5e" stroke-width="0.3" x1="184.98032266829074" x2="189.97916517819016" y1="98.17113171792111" y2="98.06355123074" /><path d="M 185.9800911702706 98.14961562048488 a86.0,86.0 0 0,1 -9.607161424134198,41.387399972396054" fill="none" id="id16" stroke="none" /><text fill="#e1ed5e" style="font-size:6.75px; font-family:Arial;" text-anchor="middle"><textPath startOffset="21.466115282336823" xlink:href="#id16">April</textPath></text><path d="M 120.02730092923936 106.31721596034902 l 59.480681188132685 18.762004418953655 a83.36957787592536,83.36957787592536 0 0,0 -0.44347751801168184,1.364883456291905 l -59.148911419104756 -19.783086775223353" fill="red" stroke="none" /><line stroke="#e1ed5e" stroke-width="0.3" x1="174.80103733775053" x2="179.2010983576182" y1="140.37084112569926" y2="142.7455964860345" /><path d="M 175.68104954172406 140.8457921977663 a86.0,86.0 0 0,1 -30.038265399797805,32.042727171017184" fill="none" id="id17" stroke="none" /><text fill="#e1ed5e" style="font-size:6.75px; font-family:Arial;" text-anchor="middle"><textPath startOffset="22.206326154141568" xlink:href="#id17">May</textPath></text><path d="M 118.48025628344425 109.97397251340804 l 34.206630555283 18.461648350642353 a59.870632021725555,59.870632021725555 0 0,0 -0.49727860026842563,0.9027051038207017 l -33.88377554556307 -19.04772397286086" fill="red" stroke="none" /><path d="M 118.30583269289576 110.29060199501025 l 33.49679518653237 18.830183426004634 a59.42669769347189,59.42669769347189 0 0,0 -0.5089415693060367,0.8873825248976297 l -33.167701621073945 -19.40398579676058" fill="red" stroke="none" /><path d="M 117.94076556474637 110.91462005526583 l 39.96003318155054 24.310477610246025 a67.77396255940792,67.77396255940792 0 0,0 -0.6149207798755609,0.9914480921982318 l -39.535647762007024 -24.994722033809527" fill="red" stroke="none" /><path d="M 117.35343817320211 111.8261652097733 l 21.078603185482343 14.364821609109992 a46.5079519388088,46.5079519388088 0 0,0 -0.4565289058291912,0.6576639383816866 l -20.828213372491017 -14.725526809678698" fill="red" stroke="none" /><path d="M 116.93607887273984 112.41649034213515 l 31.11542359483065 22.811912926227276 a59.58176974737575,59.58176974737575 0 0,0 -0.6135184008684389,0.8219081577074424 l -30.718143927267118 -23.344133963444033" fill="red" stroke="none" /><path d="M 116.71984013943494 112.70617746262583 l 31.98418814929466 24.306259344216823 a61.17191226314486,61.17191226314486 0 0,0 -0.644324284302004,0.8328759932479284 l -31.561057047774586 -24.853213331578004" fill="red" stroke="none" /><path d="M 116.498646956653 112.99209946851258 l 49.342314073818905 38.855322750884035 a83.80445895185113,83.80445895185113 0 0,0 -0.9022231932832281,1.1256621567786307 l -48.66617296848082 -39.69891274124092" fill="red" stroke="none" /><path d="M 115.07121518719521 114.62390073753431 l 44.34714156589914 43.03091610052077 a82.7926266274218,82.7926266274218 0 0,0 -1.001236367062403,1.0142471537244666 l -43.599864573781204 -43.7879037482259" fill="red" stroke="none" /><path d="M 114.81725581225074 114.88116024355365 l 28.127510878865486 28.248820290638907 a60.864178356683944,60.864178356683944 0 0,0 -0.7487744465265452,0.7328333920566551 l -27.637086479963145 -28.728803785618133" fill="red" stroke="none" /><path d="M 113.20401910651253 116.32954008644616 l 39.612057319537584 48.98862025933848 a84.0,84.0 0 0,0 -1.1321700291305956,0.899464343979496 l -38.762929797689644 -49.6632185173231" fill="red" stroke="none" /><path d="M 112.92097659922987 116.55440617244103 l 37.95567272287684 48.62895756967738 a82.68799401957905,82.68799401957905 0 0,0 -1.1295623801294776,0.8661002660724277 l -37.112981614253876 -49.27509717757718" fill="red" stroke="none" /><line stroke="#e1ed5e" stroke-width="0.3" x1="143.8653032363475" x2="146.44561519142675" y1="172.8068346515853" y2="177.08958963109032" /><path d="M 144.38136562736335 173.6633856474863 a86.0,86.0 0 0,1 -40.68145358897372,12.25698825130547" fill="none" id="id18" stroke="none" /><text fill="#e1ed5e" style="font-size:6.75px; font-family:Arial;" text-anchor="middle"><textPath startOffset="21.466115282336833" xlink:href="#id18">June</textPath></text><path d="M 110.21172684928248 118.3499491758327 l 30.015330387456174 53.93600859431009 a82.7253034124065,82.7253034124065 0 0,0 -1.2502440087782123,0.6817327186441097 l -29.082463566809313 -54.44468196471397" fill="red" stroke="none" /><path d="M 106.57524785965236 119.94407469862006 l 10.513553055029837 31.889761717439836 a54.578143192201956,54.578143192201956 0 0,0 -0.8947661774116829,0.2864758742226351 l -9.963065532527212 -32.06601043832218" fill="red" stroke="none" /><path d="M 101.26447882468166 120.96189622390904 l 3.7172027171740023 61.621923657164174 a82.73393775914457,82.73393775914457 0 0,0 -1.422282794199416,0.07351577456712376 l -2.6559318545611066 -61.6767792384935" fill="red" stroke="none" /><line stroke="#e1ed5e" stroke-width="0.3" x1="102.19456741930631" x2="102.32365962044197" y1="184.97166512339345" y2="189.96999836594603" /><path d="M 102.22038585953345 185.97133177190398 a86.0,86.0 0 0,1 -42.740103519485714,-10.115201625700543" fill="none" id="id19" stroke="none" /><text fill="#e1ed5e" style="font-size:6.75px; font-family:Arial;" text-anchor="middle"><textPath startOffset="22.20632615414155" xlink:href="#id19">July</textPath></text><path d="M 98.73552117531835 120.96189622390904 l -3.7667448778690007 62.44320876761997 a83.5567157719419,83.5567157719419 0 0,0 -1.4349363473510837,-0.09896161181097242 l 4.841043985999015 -62.369118811292715" fill="red" stroke="none" /><path d="M 96.22490169976321 120.6578951692458 l -6.735011015226349 36.854974480408785 a58.46531085319863,58.46531085319863 0 0,0 -0.9884323227151656,-0.1894354071371118 l 7.3684109525132095 -36.7335818749232" fill="red" stroke="none" /><line stroke="#e1ed5e" stroke-width="0.3" x1="58.666819895761336" x2="56.23545636021788" y1="174.27360380694188" y2="178.64263932499728" /><path d="M 58.180547188652646 175.14741091055294 a86.0,86.0 0 0,1 -31.652253787137756,-30.449443065178592" fill="none" id="id20" stroke="none" /><text fill="#e1ed5e" style="font-size:6.75px; font-family:Arial;" text-anchor="middle"><textPath startOffset="22.20632615414155" xlink:href="#id20">August</textPath></text><line stroke="#e1ed5e" stroke-width="0.3" x1="26.63291911575756" x2="22.317208475507996" y1="142.92168965132927" y2="145.44649492493687" /><path d="M 25.769776987707644 143.4266507060508 a86.0,86.0 0 0,1 -11.730757126820373,-40.83630448921669" fill="none" id="id21" stroke="none" /><text fill="#e1ed5e" style="font-size:6.75px; font-family:Arial;" text-anchor="middle"><textPath startOffset="21.46611528233685" xlink:href="#id21">September</textPath></text><line stroke="#e1ed5e" stroke-width="0.3" x1="15.007084014347285" x2="10.007500721073583" y1="101.09737516637583" y2="101.16192664675087" /><path d="M 14.007167355692545 101.11028546245083 a86.0,86.0 0 0,1 10.666146001902534,-42.60595125391555" fill="none" id="id22" stroke="none" /><text fill="#e1ed5e" style="font-size:6.75px; font-family:Arial;" text-anchor="middle"><textPath startOffset="22.20632615414155" xlink:href="#id22">October</textPath></text><line stroke="#e1ed5e" stroke-width="0.3" x1="26.266209847984257" x2="21.92892807433627" y1="57.711370442889674" y2="55.22380399835377" /><path d="M 25.39875349325466 57.213857153982495 a86.0,86.0 0 0,1 29.58750427330802,-30.492523968695096" fill="none" id="id23" stroke="none" /><text fill="#e1ed5e" style="font-size:6.75px; font-family:Arial;" text-anchor="middle"><textPath startOffset="21.46611528233685" xlink:href="#id23">November</textPath></text><line stroke="#e1ed5e" stroke-width="0.3" x1="56.762969772571076" x2="54.21961505331055" y1="26.818313649435495" y2="22.513508569990535" /><path d="M 56.25429882871897 25.957352633546506 a86.0,86.0 0 0,1 42.265352541879196,-11.944610805530505" fill="none" id="id24" stroke="none" /><text fill="#e1ed5e" style="font-size:6.75px; font-family:Arial;" text-anchor="middle"><textPath startOffset="22.20632615414155" xlink:href="#id24">December</textPath></text></svg>